<svg width="672" height="774" viewBox="0 0 672 774" fill="none" xmlns="http://www.w3.org/2000/svg">
<g filter="url(#filter0_d_90_893)">
<rect y="0.678711" width="656" height="757" rx="20" fill="#1033A2"/>
<rect x="2" y="2.67871" width="652" height="753" rx="18" stroke="#1B1B1B" stroke-width="4"/>
<path d="M248.294 92.0987C246.101 92.0987 244.164 91.5854 242.484 90.5587C240.804 89.5087 239.498 88.0504 238.564 86.1837C237.631 84.2937 237.164 82.1004 237.164 79.6037C237.164 77.0837 237.654 74.867 238.634 72.9537C239.638 71.017 241.061 69.5004 242.904 68.4037C244.748 67.307 246.941 66.7587 249.484 66.7587C252.378 66.7587 254.769 67.447 256.659 68.8237C258.573 70.2004 259.809 72.1137 260.369 74.5637H255.084C254.734 73.4904 254.081 72.6504 253.124 72.0437C252.168 71.4137 250.943 71.0987 249.449 71.0987C247.863 71.0987 246.509 71.4487 245.389 72.1487C244.269 72.8487 243.418 73.8287 242.834 75.0887C242.274 76.3487 241.994 77.8537 241.994 79.6037C241.994 81.377 242.274 82.882 242.834 84.1187C243.418 85.3554 244.246 86.3004 245.319 86.9537C246.416 87.5837 247.699 87.8987 249.169 87.8987C251.316 87.8987 252.938 87.327 254.034 86.1837C255.154 85.017 255.819 83.512 256.029 81.6687H250.009V78.1337H260.789V91.6787H256.449L256.064 87.8637H255.994C255.458 88.7737 254.816 89.5437 254.069 90.1737C253.323 90.8037 252.471 91.282 251.514 91.6087C250.558 91.9354 249.484 92.0987 248.294 92.0987ZM272.68 92.0987C270.907 92.0987 269.332 91.7254 267.955 90.9787C266.579 90.232 265.505 89.182 264.735 87.8287C263.989 86.4754 263.615 84.9237 263.615 83.1737C263.615 81.3537 263.989 79.7554 264.735 78.3787C265.482 76.9787 266.532 75.882 267.885 75.0887C269.262 74.2954 270.86 73.8987 272.68 73.8987C274.407 73.8987 275.924 74.272 277.23 75.0187C278.56 75.7654 279.599 76.792 280.345 78.0987C281.092 79.382 281.465 80.8404 281.465 82.4737C281.465 82.707 281.454 82.9754 281.43 83.2787C281.43 83.5587 281.407 83.8504 281.36 84.1537H266.975V81.2487H276.67C276.6 80.152 276.192 79.277 275.445 78.6237C274.699 77.9704 273.777 77.6437 272.68 77.6437C271.887 77.6437 271.14 77.8304 270.44 78.2037C269.764 78.5537 269.227 79.102 268.83 79.8487C268.457 80.572 268.27 81.4937 268.27 82.6137V83.6287C268.27 84.5854 268.445 85.4137 268.795 86.1137C269.169 86.7904 269.694 87.3154 270.37 87.6887C271.047 88.062 271.805 88.2487 272.645 88.2487C273.485 88.2487 274.197 88.062 274.78 87.6887C275.364 87.292 275.819 86.7904 276.145 86.1837H280.94C280.614 87.2804 280.054 88.2837 279.26 89.1937C278.49 90.0804 277.545 90.792 276.425 91.3287C275.305 91.842 274.057 92.0987 272.68 92.0987ZM291.737 91.6787C290.524 91.6787 289.45 91.492 288.517 91.1187C287.584 90.722 286.86 90.0804 286.347 89.1937C285.834 88.2837 285.577 87.047 285.577 85.4837V78.1337H282.602V74.3187H285.577L286.102 69.5937H290.302V74.3187H294.922V78.1337H290.302V85.5537C290.302 86.3704 290.477 86.942 290.827 87.2687C291.177 87.572 291.772 87.7237 292.612 87.7237H294.852V91.6787H291.737ZM311.889 92.0987C310.349 92.0987 308.984 91.842 307.794 91.3287C306.604 90.8154 305.648 90.1154 304.924 89.2287C304.224 88.3187 303.816 87.292 303.699 86.1487H308.424C308.541 86.5687 308.739 86.9654 309.019 87.3387C309.299 87.712 309.673 88.0037 310.139 88.2137C310.606 88.4237 311.166 88.5287 311.819 88.5287C312.449 88.5287 312.963 88.447 313.359 88.2837C313.756 88.097 314.048 87.8637 314.234 87.5837C314.421 87.3037 314.514 87.012 314.514 86.7087C314.514 86.242 314.374 85.892 314.094 85.6587C313.814 85.402 313.394 85.192 312.834 85.0287C312.298 84.842 311.656 84.6437 310.909 84.4337C310.163 84.247 309.393 84.037 308.599 83.8037C307.806 83.547 307.083 83.2437 306.429 82.8937C305.799 82.5437 305.286 82.0887 304.889 81.5287C304.493 80.9454 304.294 80.222 304.294 79.3587C304.294 78.332 304.574 77.4104 305.134 76.5937C305.694 75.777 306.499 75.1237 307.549 74.6337C308.623 74.1437 309.906 73.8987 311.399 73.8987C313.476 73.8987 315.133 74.377 316.369 75.3337C317.629 76.2904 318.364 77.6087 318.574 79.2887H314.129C314.013 78.7054 313.709 78.262 313.219 77.9587C312.753 77.632 312.134 77.4687 311.364 77.4687C310.548 77.4687 309.918 77.6204 309.474 77.9237C309.054 78.227 308.844 78.6004 308.844 79.0437C308.844 79.3704 308.984 79.6504 309.264 79.8837C309.568 80.117 309.988 80.327 310.524 80.5137C311.084 80.677 311.738 80.8637 312.484 81.0737C313.744 81.377 314.876 81.7154 315.879 82.0887C316.906 82.4387 317.723 82.9404 318.329 83.5937C318.936 84.2237 319.239 85.1454 319.239 86.3587C319.263 87.4554 318.971 88.4354 318.364 89.2987C317.758 90.162 316.906 90.8504 315.809 91.3637C314.713 91.8537 313.406 92.0987 311.889 92.0987ZM329.232 91.6787C328.019 91.6787 326.946 91.492 326.012 91.1187C325.079 90.722 324.356 90.0804 323.842 89.1937C323.329 88.2837 323.072 87.047 323.072 85.4837V78.1337H320.097V74.3187H323.072L323.597 69.5937H327.797V74.3187H332.417V78.1337H327.797V85.5537C327.797 86.3704 327.972 86.942 328.322 87.2687C328.672 87.572 329.267 87.7237 330.107 87.7237H332.347V91.6787H329.232ZM340.462 92.0987C339.062 92.0987 337.907 91.8654 336.997 91.3987C336.087 90.932 335.41 90.302 334.967 89.5087C334.523 88.7154 334.302 87.8404 334.302 86.8837C334.302 85.8104 334.57 84.8654 335.107 84.0487C335.667 83.232 336.507 82.602 337.627 82.1587C338.747 81.692 340.158 81.4587 341.862 81.4587H346.237C346.237 80.5954 346.108 79.8837 345.852 79.3237C345.618 78.7637 345.245 78.3554 344.732 78.0987C344.242 77.8187 343.612 77.6787 342.842 77.6787C341.955 77.6787 341.185 77.8887 340.532 78.3087C339.878 78.7054 339.482 79.3237 339.342 80.1637H334.757C334.873 78.8804 335.282 77.772 335.982 76.8387C336.705 75.9054 337.662 75.182 338.852 74.6687C340.042 74.1554 341.383 73.8987 342.877 73.8987C344.533 73.8987 345.968 74.1787 347.182 74.7387C348.395 75.2754 349.328 76.0804 349.982 77.1537C350.635 78.2037 350.962 79.487 350.962 81.0037V91.6787H347.042L346.517 88.9837H346.412C346.108 89.497 345.747 89.952 345.327 90.3487C344.907 90.722 344.452 91.037 343.962 91.2937C343.472 91.5504 342.935 91.7487 342.352 91.8887C341.768 92.0287 341.138 92.0987 340.462 92.0987ZM341.897 88.4587C342.527 88.4587 343.087 88.3537 343.577 88.1437C344.067 87.9104 344.475 87.607 344.802 87.2337C345.152 86.8604 345.432 86.4287 345.642 85.9387C345.852 85.4254 345.992 84.9004 346.062 84.3637H342.387C341.687 84.3637 341.103 84.457 340.637 84.6437C340.17 84.807 339.832 85.052 339.622 85.3787C339.412 85.682 339.307 86.0437 339.307 86.4637C339.307 86.8837 339.412 87.2454 339.622 87.5487C339.832 87.852 340.135 88.0854 340.532 88.2487C340.928 88.3887 341.383 88.4587 341.897 88.4587ZM354.101 91.6787V74.3187H358.161L358.581 77.9587H358.686C359.176 76.8854 359.725 76.057 360.331 75.4737C360.938 74.8904 361.638 74.482 362.431 74.2487C363.225 74.0154 364.111 73.8987 365.091 73.8987V78.9037H363.796C363.026 78.9037 362.326 78.997 361.696 79.1837C361.066 79.347 360.541 79.6154 360.121 79.9887C359.701 80.362 359.375 80.8637 359.141 81.4937C358.931 82.1237 358.826 82.9054 358.826 83.8387V91.6787H354.101ZM374.999 91.6787C373.786 91.6787 372.712 91.492 371.779 91.1187C370.846 90.722 370.122 90.0804 369.609 89.1937C369.096 88.2837 368.839 87.047 368.839 85.4837V78.1337H365.864V74.3187H368.839L369.364 69.5937H373.564V74.3187H378.184V78.1337H373.564V85.5537C373.564 86.3704 373.739 86.942 374.089 87.2687C374.439 87.572 375.034 87.7237 375.874 87.7237H378.114V91.6787H374.999ZM388.584 92.0987C386.81 92.0987 385.235 91.7254 383.859 90.9787C382.482 90.232 381.409 89.182 380.639 87.8287C379.892 86.4754 379.519 84.9237 379.519 83.1737C379.519 81.3537 379.892 79.7554 380.639 78.3787C381.385 76.9787 382.435 75.882 383.789 75.0887C385.165 74.2954 386.764 73.8987 388.584 73.8987C390.31 73.8987 391.827 74.272 393.134 75.0187C394.464 75.7654 395.502 76.792 396.249 78.0987C396.995 79.382 397.369 80.8404 397.369 82.4737C397.369 82.707 397.357 82.9754 397.334 83.2787C397.334 83.5587 397.31 83.8504 397.264 84.1537H382.879V81.2487H392.574C392.504 80.152 392.095 79.277 391.349 78.6237C390.602 77.9704 389.68 77.6437 388.584 77.6437C387.79 77.6437 387.044 77.8304 386.344 78.2037C385.667 78.5537 385.13 79.102 384.734 79.8487C384.36 80.572 384.174 81.4937 384.174 82.6137V83.6287C384.174 84.5854 384.349 85.4137 384.699 86.1137C385.072 86.7904 385.597 87.3154 386.274 87.6887C386.95 88.062 387.709 88.2487 388.549 88.2487C389.389 88.2487 390.1 88.062 390.684 87.6887C391.267 87.292 391.722 86.7904 392.049 86.1837H396.844C396.517 87.2804 395.957 88.2837 395.164 89.1937C394.394 90.0804 393.449 90.792 392.329 91.3287C391.209 91.842 389.96 92.0987 388.584 92.0987ZM407.705 92.0987C406.095 92.0987 404.66 91.7137 403.4 90.9437C402.163 90.1504 401.195 89.0654 400.495 87.6887C399.818 86.312 399.48 84.7487 399.48 82.9987C399.48 81.2487 399.818 79.6854 400.495 78.3087C401.195 76.932 402.175 75.8587 403.435 75.0887C404.695 74.2954 406.165 73.8987 407.845 73.8987C409.175 73.8987 410.33 74.1554 411.31 74.6687C412.29 75.1587 413.071 75.8004 413.655 76.5937V66.9687H418.38V91.6787H414.355L414.005 88.8087H413.9C413.48 89.4854 412.966 90.0687 412.36 90.5587C411.776 91.0487 411.1 91.422 410.33 91.6787C409.56 91.9587 408.685 92.0987 407.705 92.0987ZM409 88.1437C409.956 88.1437 410.785 87.922 411.485 87.4787C412.208 87.0354 412.768 86.4287 413.165 85.6587C413.561 84.8887 413.76 83.9904 413.76 82.9637C413.76 81.9604 413.561 81.0737 413.165 80.3037C412.768 79.5337 412.208 78.927 411.485 78.4837C410.761 78.0404 409.933 77.8187 409 77.8187C408.066 77.8187 407.238 78.0404 406.515 78.4837C405.791 78.927 405.231 79.5337 404.835 80.3037C404.438 81.0737 404.24 81.9604 404.24 82.9637C404.24 83.9904 404.438 84.8887 404.835 85.6587C405.231 86.4287 405.791 87.0354 406.515 87.4787C407.238 87.922 408.066 88.1437 409 88.1437Z" fill="white"/>
<path d="M49.296 130.679V118.079H51.096L57.522 127.745V118.079H59.322V130.679H57.522L51.096 121.031V130.679H49.296ZM64.8687 130.895C64.1247 130.895 63.5067 130.769 63.0147 130.517C62.5227 130.265 62.1567 129.929 61.9167 129.509C61.6767 129.089 61.5567 128.633 61.5567 128.141C61.5567 127.541 61.7067 127.031 62.0067 126.611C62.3187 126.191 62.7627 125.867 63.3387 125.639C63.9267 125.411 64.6227 125.297 65.4267 125.297H67.7847C67.7847 124.769 67.7067 124.337 67.5507 124.001C67.3947 123.653 67.1607 123.395 66.8487 123.227C66.5367 123.047 66.1527 122.957 65.6967 122.957C65.1567 122.957 64.6887 123.089 64.2927 123.353C63.8967 123.605 63.6567 123.989 63.5727 124.505H61.7727C61.8447 123.857 62.0607 123.311 62.4207 122.867C62.7927 122.411 63.2667 122.063 63.8427 121.823C64.4187 121.571 65.0367 121.445 65.6967 121.445C66.5367 121.445 67.2447 121.595 67.8207 121.895C68.3967 122.195 68.8347 122.621 69.1347 123.173C69.4347 123.713 69.5847 124.361 69.5847 125.117V130.679H68.0187L67.8747 129.149C67.7547 129.389 67.5987 129.617 67.4067 129.833C67.2267 130.049 67.0107 130.235 66.7587 130.391C66.5187 130.547 66.2367 130.667 65.9127 130.751C65.6007 130.847 65.2527 130.895 64.8687 130.895ZM65.2107 129.437C65.5947 129.437 65.9427 129.359 66.2547 129.203C66.5667 129.047 66.8307 128.837 67.0467 128.573C67.2747 128.297 67.4427 127.991 67.5507 127.655C67.6707 127.319 67.7367 126.965 67.7487 126.593V126.557H65.6067C65.0907 126.557 64.6707 126.623 64.3467 126.755C64.0227 126.875 63.7887 127.049 63.6447 127.277C63.5127 127.493 63.4467 127.739 63.4467 128.015C63.4467 128.303 63.5127 128.555 63.6447 128.771C63.7887 128.987 63.9927 129.155 64.2567 129.275C64.5207 129.383 64.8387 129.437 65.2107 129.437ZM71.8646 130.679V121.661H73.4846L73.6106 122.939C73.8986 122.471 74.2826 122.105 74.7626 121.841C75.2426 121.577 75.7826 121.445 76.3826 121.445C76.8386 121.445 77.2526 121.511 77.6246 121.643C78.0086 121.763 78.3446 121.949 78.6326 122.201C78.9206 122.453 79.1546 122.765 79.3346 123.137C79.6586 122.609 80.0906 122.195 80.6306 121.895C81.1826 121.595 81.7706 121.445 82.3946 121.445C83.1266 121.445 83.7566 121.595 84.2846 121.895C84.8126 122.183 85.2146 122.621 85.4906 123.209C85.7786 123.797 85.9226 124.529 85.9226 125.405V130.679H84.1406V125.585C84.1406 124.733 83.9666 124.091 83.6186 123.659C83.2706 123.215 82.7666 122.993 82.1066 122.993C81.6626 122.993 81.2666 123.107 80.9186 123.335C80.5706 123.563 80.2946 123.899 80.0906 124.343C79.8866 124.775 79.7846 125.309 79.7846 125.945V130.679H78.0026V125.585C78.0026 124.733 77.8286 124.091 77.4806 123.659C77.1326 123.215 76.6286 122.993 75.9686 122.993C75.5366 122.993 75.1406 123.107 74.7806 123.335C74.4326 123.563 74.1566 123.899 73.9526 124.343C73.7606 124.775 73.6646 125.309 73.6646 125.945V130.679H71.8646ZM92.3343 130.895C91.4583 130.895 90.6843 130.703 90.0123 130.319C89.3403 129.923 88.8123 129.371 88.4283 128.663C88.0563 127.955 87.8703 127.133 87.8703 126.197C87.8703 125.249 88.0563 124.421 88.4283 123.713C88.8003 123.005 89.3223 122.453 89.9943 122.057C90.6783 121.649 91.4643 121.445 92.3523 121.445C93.2403 121.445 94.0023 121.643 94.6383 122.039C95.2743 122.435 95.7663 122.957 96.1143 123.605C96.4623 124.253 96.6363 124.967 96.6363 125.747C96.6363 125.867 96.6363 125.999 96.6363 126.143C96.6363 126.275 96.6303 126.425 96.6183 126.593H89.1843V125.333H94.8363C94.8123 124.589 94.5603 124.007 94.0803 123.587C93.6123 123.155 93.0303 122.939 92.3343 122.939C91.8543 122.939 91.4043 123.053 90.9843 123.281C90.5763 123.497 90.2463 123.815 89.9943 124.235C89.7543 124.655 89.6343 125.189 89.6343 125.837V126.341C89.6343 127.001 89.7543 127.559 89.9943 128.015C90.2463 128.471 90.5763 128.819 90.9843 129.059C91.3923 129.287 91.8363 129.401 92.3163 129.401C92.8923 129.401 93.3663 129.275 93.7383 129.023C94.1223 128.759 94.4043 128.411 94.5843 127.979H96.3843C96.2283 128.531 95.9643 129.029 95.5923 129.473C95.2203 129.905 94.7583 130.253 94.2063 130.517C93.6663 130.769 93.0423 130.895 92.3343 130.895Z" fill="white"/>
<rect x="48" y="151.679" width="560" height="50" rx="8" fill="white"/>
<path d="M64.798 181.679V171.879H66.002L70.454 179.621V171.879H71.616V181.679H70.398L65.946 173.937V181.679H64.798ZM72.8565 181.679L75.9225 171.879H77.2805L80.3325 181.679H79.0445L78.3305 179.243H74.8585L74.1445 181.679H72.8565ZM76.5665 173.531L75.1525 178.263H78.0365L76.6225 173.531H76.5665ZM81.4891 181.679V171.879H82.7491L84.9891 176.541L87.2291 171.879H88.4891V181.679H87.3411V174.147L85.4371 178.109H84.5411L82.6371 174.161V181.679H81.4891ZM90.3876 181.679V171.879H96.5056V172.943H91.5636V176.205H96.0856V177.269H91.5636V180.615H96.5056V181.679H90.3876Z" fill="#A6A6A6"/>
<path d="M49.296 236.679V224.079H57.252V225.555H51.096V229.587H56.712V231.027H51.096V235.203H57.252V236.679H49.296ZM59.4896 236.679V227.661H61.1096L61.2356 228.939C61.5236 228.471 61.9076 228.105 62.3876 227.841C62.8676 227.577 63.4076 227.445 64.0076 227.445C64.4636 227.445 64.8776 227.511 65.2496 227.643C65.6336 227.763 65.9696 227.949 66.2576 228.201C66.5456 228.453 66.7796 228.765 66.9596 229.137C67.2836 228.609 67.7156 228.195 68.2556 227.895C68.8076 227.595 69.3956 227.445 70.0196 227.445C70.7516 227.445 71.3816 227.595 71.9096 227.895C72.4376 228.183 72.8396 228.621 73.1156 229.209C73.4036 229.797 73.5476 230.529 73.5476 231.405V236.679H71.7656V231.585C71.7656 230.733 71.5916 230.091 71.2436 229.659C70.8956 229.215 70.3916 228.993 69.7316 228.993C69.2876 228.993 68.8916 229.107 68.5436 229.335C68.1956 229.563 67.9196 229.899 67.7156 230.343C67.5116 230.775 67.4096 231.309 67.4096 231.945V236.679H65.6276V231.585C65.6276 230.733 65.4536 230.091 65.1056 229.659C64.7576 229.215 64.2536 228.993 63.5936 228.993C63.1616 228.993 62.7656 229.107 62.4056 229.335C62.0576 229.563 61.7816 229.899 61.5776 230.343C61.3856 230.775 61.2896 231.309 61.2896 231.945V236.679H59.4896ZM78.8433 236.895C78.0993 236.895 77.4813 236.769 76.9893 236.517C76.4973 236.265 76.1313 235.929 75.8913 235.509C75.6513 235.089 75.5313 234.633 75.5313 234.141C75.5313 233.541 75.6813 233.031 75.9813 232.611C76.2933 232.191 76.7373 231.867 77.3133 231.639C77.9013 231.411 78.5973 231.297 79.4013 231.297H81.7593C81.7593 230.769 81.6813 230.337 81.5253 230.001C81.3693 229.653 81.1353 229.395 80.8233 229.227C80.5113 229.047 80.1273 228.957 79.6713 228.957C79.1313 228.957 78.6633 229.089 78.2673 229.353C77.8713 229.605 77.6313 229.989 77.5473 230.505H75.7473C75.8193 229.857 76.0353 229.311 76.3953 228.867C76.7673 228.411 77.2413 228.063 77.8173 227.823C78.3933 227.571 79.0113 227.445 79.6713 227.445C80.5113 227.445 81.2193 227.595 81.7953 227.895C82.3713 228.195 82.8093 228.621 83.1093 229.173C83.4093 229.713 83.5593 230.361 83.5593 231.117V236.679H81.9933L81.8493 235.149C81.7293 235.389 81.5733 235.617 81.3813 235.833C81.2013 236.049 80.9853 236.235 80.7333 236.391C80.4933 236.547 80.2113 236.667 79.8873 236.751C79.5753 236.847 79.2273 236.895 78.8433 236.895ZM79.1853 235.437C79.5693 235.437 79.9173 235.359 80.2293 235.203C80.5413 235.047 80.8053 234.837 81.0213 234.573C81.2493 234.297 81.4173 233.991 81.5253 233.655C81.6453 233.319 81.7113 232.965 81.7233 232.593V232.557H79.5813C79.0653 232.557 78.6453 232.623 78.3213 232.755C77.9973 232.875 77.7633 233.049 77.6193 233.277C77.4873 233.493 77.4213 233.739 77.4213 234.015C77.4213 234.303 77.4873 234.555 77.6193 234.771C77.7633 234.987 77.9673 235.155 78.2313 235.275C78.4953 235.383 78.8133 235.437 79.1853 235.437ZM85.9652 236.679V227.661H87.7652V236.679H85.9652ZM86.8652 225.933C86.5292 225.933 86.2472 225.825 86.0192 225.609C85.8032 225.393 85.6952 225.117 85.6952 224.781C85.6952 224.457 85.8032 224.193 86.0192 223.989C86.2472 223.773 86.5292 223.665 86.8652 223.665C87.2012 223.665 87.4832 223.773 87.7112 223.989C87.9512 224.193 88.0712 224.457 88.0712 224.781C88.0712 225.117 87.9512 225.393 87.7112 225.609C87.4832 225.825 87.2012 225.933 86.8652 225.933ZM90.3392 236.679V223.719H92.1392V236.679H90.3392Z" fill="white"/>
<rect x="48" y="257.679" width="560" height="50" rx="8" fill="white"/>
<path d="M65.204 287.679V277.879H71.322V278.943H66.38V282.205H70.902V283.269H66.38V286.615H71.322V287.679H65.204ZM73.0945 287.679V277.879H74.3545L76.5945 282.541L78.8345 277.879H80.0945V287.679H78.9465V280.147L77.0425 284.109H76.1465L74.2425 280.161V287.679H73.0945ZM81.2511 287.679L84.3171 277.879H85.6751L88.7271 287.679H87.4391L86.7251 285.243H83.2531L82.5391 287.679H81.2511ZM84.9611 279.531L83.5471 284.263H86.4311L85.0171 279.531H84.9611ZM90.5696 287.679V286.657H92.7956V278.901H90.5696V277.879H96.1976V278.901H93.9716V286.657H96.1976V287.679H90.5696ZM98.7961 287.679V277.879H99.9721V286.615H104.942V287.679H98.7961ZM114.829 287.679L117.895 277.879H119.253L122.305 287.679H121.017L120.303 285.243H116.831L116.117 287.679H114.829ZM118.539 279.531L117.125 284.263H120.009L118.595 279.531H118.539ZM123.686 287.679V277.879H125.744C127.349 277.879 128.534 278.317 129.3 279.195C130.074 280.072 130.462 281.267 130.462 282.779C130.462 284.291 130.074 285.485 129.3 286.363C128.534 287.24 127.349 287.679 125.744 287.679H123.686ZM124.862 286.601H125.716C126.574 286.601 127.26 286.442 127.774 286.125C128.296 285.807 128.674 285.364 128.908 284.795C129.141 284.225 129.258 283.553 129.258 282.779C129.258 282.004 129.141 281.332 128.908 280.763C128.674 280.193 128.296 279.75 127.774 279.433C127.26 279.115 126.574 278.957 125.716 278.957H124.862V286.601ZM132.08 287.679V277.879H134.138C135.744 277.879 136.929 278.317 137.694 279.195C138.469 280.072 138.856 281.267 138.856 282.779C138.856 284.291 138.469 285.485 137.694 286.363C136.929 287.24 135.744 287.679 134.138 287.679H132.08ZM133.256 286.601H134.11C134.969 286.601 135.655 286.442 136.168 286.125C136.691 285.807 137.069 285.364 137.302 284.795C137.536 284.225 137.652 283.553 137.652 282.779C137.652 282.004 137.536 281.332 137.302 280.763C137.069 280.193 136.691 279.75 136.168 279.433C135.655 279.115 134.969 278.957 134.11 278.957H133.256V286.601ZM140.699 287.679V277.879H143.709C144.465 277.879 145.085 278.005 145.571 278.257C146.065 278.509 146.434 278.854 146.677 279.293C146.919 279.722 147.041 280.212 147.041 280.763C147.041 281.407 146.873 281.976 146.537 282.471C146.21 282.956 145.706 283.297 145.025 283.493L147.153 287.679H145.753L143.779 283.661H143.709H141.875V287.679H140.699ZM141.875 282.583H143.667C144.413 282.583 144.959 282.415 145.305 282.079C145.659 281.733 145.837 281.295 145.837 280.763C145.837 280.203 145.664 279.759 145.319 279.433C144.983 279.106 144.427 278.943 143.653 278.943H141.875V282.583ZM149.149 287.679V277.879H155.267V278.943H150.325V282.205H154.847V283.269H150.325V286.615H155.267V287.679H149.149ZM160.638 287.847C159.947 287.847 159.345 287.716 158.832 287.455C158.328 287.193 157.936 286.829 157.656 286.363C157.385 285.896 157.245 285.35 157.236 284.725H158.468C158.477 285.285 158.664 285.77 159.028 286.181C159.401 286.582 159.938 286.783 160.638 286.783C161.282 286.783 161.777 286.629 162.122 286.321C162.477 286.003 162.654 285.625 162.654 285.187C162.654 284.823 162.57 284.519 162.402 284.277C162.234 284.025 161.959 283.805 161.576 283.619C161.203 283.423 160.699 283.222 160.064 283.017C159.168 282.746 158.515 282.377 158.104 281.911C157.693 281.444 157.488 280.865 157.488 280.175C157.488 279.708 157.609 279.288 157.852 278.915C158.095 278.541 158.445 278.247 158.902 278.033C159.359 277.818 159.915 277.711 160.568 277.711C161.184 277.711 161.721 277.827 162.178 278.061C162.645 278.285 163.004 278.602 163.256 279.013C163.517 279.423 163.648 279.895 163.648 280.427H162.416C162.416 280.165 162.346 279.909 162.206 279.657C162.066 279.405 161.856 279.195 161.576 279.027C161.296 278.859 160.941 278.775 160.512 278.775C159.999 278.775 159.569 278.901 159.224 279.153C158.879 279.395 158.706 279.731 158.706 280.161C158.706 280.487 158.781 280.763 158.93 280.987C159.089 281.211 159.345 281.416 159.7 281.603C160.055 281.78 160.535 281.971 161.142 282.177C161.711 282.363 162.197 282.583 162.598 282.835C163.009 283.077 163.321 283.381 163.536 283.745C163.76 284.109 163.872 284.561 163.872 285.103C163.872 285.635 163.737 286.106 163.466 286.517C163.195 286.927 162.817 287.254 162.332 287.497C161.847 287.73 161.282 287.847 160.638 287.847ZM169.032 287.847C168.342 287.847 167.74 287.716 167.226 287.455C166.722 287.193 166.33 286.829 166.05 286.363C165.78 285.896 165.64 285.35 165.63 284.725H166.862C166.872 285.285 167.058 285.77 167.422 286.181C167.796 286.582 168.332 286.783 169.032 286.783C169.676 286.783 170.171 286.629 170.516 286.321C170.871 286.003 171.048 285.625 171.048 285.187C171.048 284.823 170.964 284.519 170.796 284.277C170.628 284.025 170.353 283.805 169.97 283.619C169.597 283.423 169.093 283.222 168.458 283.017C167.562 282.746 166.909 282.377 166.498 281.911C166.088 281.444 165.882 280.865 165.882 280.175C165.882 279.708 166.004 279.288 166.246 278.915C166.489 278.541 166.839 278.247 167.296 278.033C167.754 277.818 168.309 277.711 168.962 277.711C169.578 277.711 170.115 277.827 170.572 278.061C171.039 278.285 171.398 278.602 171.65 279.013C171.912 279.423 172.042 279.895 172.042 280.427H170.81C170.81 280.165 170.74 279.909 170.6 279.657C170.46 279.405 170.25 279.195 169.97 279.027C169.69 278.859 169.336 278.775 168.906 278.775C168.393 278.775 167.964 278.901 167.618 279.153C167.273 279.395 167.1 279.731 167.1 280.161C167.1 280.487 167.175 280.763 167.324 280.987C167.483 281.211 167.74 281.416 168.094 281.603C168.449 281.78 168.93 281.971 169.536 282.177C170.106 282.363 170.591 282.583 170.992 282.835C171.403 283.077 171.716 283.381 171.93 283.745C172.154 284.109 172.266 284.561 172.266 285.103C172.266 285.635 172.131 286.106 171.86 286.517C171.59 286.927 171.212 287.254 170.726 287.497C170.241 287.73 169.676 287.847 169.032 287.847Z" fill="#A6A6A6"/>
<path d="M53.418 342.895C52.506 342.895 51.702 342.733 51.006 342.409C50.31 342.073 49.77 341.605 49.386 341.005C49.002 340.405 48.804 339.703 48.792 338.899H50.7C50.7 339.355 50.802 339.775 51.006 340.159C51.222 340.531 51.528 340.831 51.924 341.059C52.332 341.275 52.83 341.383 53.418 341.383C53.922 341.383 54.354 341.299 54.714 341.131C55.086 340.963 55.368 340.735 55.56 340.447C55.752 340.147 55.848 339.805 55.848 339.421C55.848 338.977 55.746 338.611 55.542 338.323C55.35 338.035 55.08 337.801 54.732 337.621C54.384 337.429 53.982 337.261 53.526 337.117C53.082 336.973 52.614 336.817 52.122 336.649C51.138 336.313 50.4 335.893 49.908 335.389C49.428 334.873 49.188 334.201 49.188 333.373C49.188 332.665 49.35 332.053 49.674 331.537C50.01 331.009 50.484 330.601 51.096 330.313C51.708 330.013 52.422 329.863 53.238 329.863C54.066 329.863 54.78 330.013 55.38 330.313C55.992 330.613 56.472 331.027 56.82 331.555C57.168 332.083 57.348 332.701 57.36 333.409H55.452C55.452 333.085 55.362 332.767 55.182 332.455C55.014 332.143 54.762 331.891 54.426 331.699C54.102 331.495 53.694 331.393 53.202 331.393C52.782 331.381 52.41 331.447 52.086 331.591C51.774 331.735 51.522 331.945 51.33 332.221C51.15 332.497 51.06 332.827 51.06 333.211C51.06 333.595 51.144 333.907 51.312 334.147C51.48 334.375 51.714 334.573 52.014 334.741C52.326 334.909 52.692 335.065 53.112 335.209C53.532 335.341 53.994 335.491 54.498 335.659C55.11 335.863 55.662 336.115 56.154 336.415C56.646 336.703 57.03 337.081 57.306 337.549C57.594 338.005 57.738 338.593 57.738 339.313C57.738 339.937 57.576 340.519 57.252 341.059C56.928 341.599 56.448 342.043 55.812 342.391C55.176 342.727 54.378 342.895 53.418 342.895ZM63.0829 342.895C62.3749 342.895 61.7569 342.751 61.2289 342.463C60.7129 342.175 60.3109 341.737 60.0229 341.149C59.7469 340.561 59.6089 339.829 59.6089 338.953V333.661H61.4089V338.773C61.4089 339.625 61.5889 340.273 61.9489 340.717C62.3209 341.149 62.8609 341.365 63.5689 341.365C64.0489 341.365 64.4749 341.251 64.8469 341.023C65.2309 340.795 65.5309 340.465 65.7469 340.033C65.9629 339.589 66.0709 339.055 66.0709 338.431V333.661H67.8709V342.679H66.2689L66.1429 341.131C65.8669 341.671 65.4589 342.103 64.9189 342.427C64.3909 342.739 63.7789 342.895 63.0829 342.895ZM75.2678 342.895C74.7758 342.895 74.3318 342.829 73.9358 342.697C73.5398 342.565 73.1858 342.379 72.8738 342.139C72.5738 341.899 72.3218 341.617 72.1178 341.293L71.9378 342.679H70.3178V329.719H72.1178V335.083C72.4058 334.639 72.8078 334.255 73.3238 333.931C73.8398 333.607 74.4878 333.445 75.2678 333.445C76.1438 333.445 76.9058 333.655 77.5538 334.075C78.2138 334.483 78.7298 335.041 79.1018 335.749C79.4738 336.457 79.6598 337.267 79.6598 338.179C79.6598 339.091 79.4738 339.901 79.1018 340.609C78.7298 341.317 78.2138 341.875 77.5538 342.283C76.8938 342.691 76.1318 342.895 75.2678 342.895ZM74.9798 341.329C75.5318 341.329 76.0238 341.197 76.4558 340.933C76.8878 340.669 77.2238 340.303 77.4638 339.835C77.7158 339.355 77.8418 338.803 77.8418 338.179C77.8418 337.555 77.7158 337.009 77.4638 336.541C77.2238 336.061 76.8878 335.689 76.4558 335.425C76.0238 335.149 75.5318 335.011 74.9798 335.011C74.4158 335.011 73.9178 335.149 73.4858 335.425C73.0538 335.689 72.7178 336.055 72.4778 336.523C72.2378 336.991 72.1178 337.543 72.1178 338.179C72.1178 338.803 72.2378 339.355 72.4778 339.835C72.7178 340.303 73.0538 340.669 73.4858 340.933C73.9178 341.197 74.4158 341.329 74.9798 341.329ZM80.0331 346.639V345.109H80.7351C81.1791 345.109 81.4911 345.019 81.6711 344.839C81.8511 344.659 81.9411 344.359 81.9411 343.939V333.661H83.7411V343.975C83.7411 344.599 83.6331 345.109 83.4171 345.505C83.2131 345.901 82.9071 346.189 82.4991 346.369C82.0911 346.549 81.5991 346.639 81.0231 346.639H80.0331ZM82.8591 331.933C82.5111 331.933 82.2231 331.825 81.9951 331.609C81.7791 331.393 81.6711 331.117 81.6711 330.781C81.6711 330.457 81.7791 330.193 81.9951 329.989C82.2231 329.773 82.5111 329.665 82.8591 329.665C83.1951 329.665 83.4711 329.773 83.6871 329.989C83.9151 330.193 84.0291 330.457 84.0291 330.781C84.0291 331.117 83.9151 331.393 83.6871 331.609C83.4711 331.825 83.1951 331.933 82.8591 331.933ZM90.4183 342.895C89.5423 342.895 88.7683 342.703 88.0963 342.319C87.4243 341.923 86.8963 341.371 86.5123 340.663C86.1403 339.955 85.9543 339.133 85.9543 338.197C85.9543 337.249 86.1403 336.421 86.5123 335.713C86.8843 335.005 87.4063 334.453 88.0783 334.057C88.7623 333.649 89.5483 333.445 90.4363 333.445C91.3243 333.445 92.0863 333.643 92.7223 334.039C93.3583 334.435 93.8503 334.957 94.1983 335.605C94.5463 336.253 94.7203 336.967 94.7203 337.747C94.7203 337.867 94.7203 337.999 94.7203 338.143C94.7203 338.275 94.7143 338.425 94.7023 338.593H87.2683V337.333H92.9203C92.8963 336.589 92.6443 336.007 92.1643 335.587C91.6963 335.155 91.1143 334.939 90.4183 334.939C89.9383 334.939 89.4883 335.053 89.0683 335.281C88.6603 335.497 88.3303 335.815 88.0783 336.235C87.8383 336.655 87.7183 337.189 87.7183 337.837V338.341C87.7183 339.001 87.8383 339.559 88.0783 340.015C88.3303 340.471 88.6603 340.819 89.0683 341.059C89.4763 341.287 89.9203 341.401 90.4003 341.401C90.9763 341.401 91.4503 341.275 91.8223 341.023C92.2063 340.759 92.4883 340.411 92.6683 339.979H94.4683C94.3123 340.531 94.0483 341.029 93.6763 341.473C93.3043 341.905 92.8423 342.253 92.2903 342.517C91.7503 342.769 91.1263 342.895 90.4183 342.895ZM100.914 342.895C100.038 342.895 99.2581 342.697 98.5741 342.301C97.8901 341.905 97.3501 341.353 96.9541 340.645C96.5701 339.937 96.3781 339.115 96.3781 338.179C96.3781 337.243 96.5701 336.421 96.9541 335.713C97.3501 335.005 97.8901 334.453 98.5741 334.057C99.2581 333.649 100.038 333.445 100.914 333.445C102.018 333.445 102.936 333.733 103.668 334.309C104.412 334.885 104.886 335.659 105.09 336.631H103.218C103.11 336.115 102.84 335.713 102.408 335.425C101.976 335.137 101.472 334.993 100.896 334.993C100.416 334.993 99.9721 335.113 99.5641 335.353C99.1561 335.593 98.8261 335.953 98.5741 336.433C98.3341 336.901 98.2141 337.483 98.2141 338.179C98.2141 338.695 98.2861 339.151 98.4301 339.547C98.5741 339.943 98.7661 340.279 99.0061 340.555C99.2581 340.819 99.5461 341.023 99.8701 341.167C100.194 341.299 100.536 341.365 100.896 341.365C101.292 341.365 101.646 341.305 101.958 341.185C102.282 341.053 102.552 340.867 102.768 340.627C102.996 340.375 103.146 340.075 103.218 339.727H105.09C104.898 340.675 104.424 341.443 103.668 342.031C102.924 342.607 102.006 342.895 100.914 342.895ZM110.711 342.679C110.147 342.679 109.655 342.589 109.235 342.409C108.815 342.229 108.491 341.929 108.263 341.509C108.035 341.089 107.921 340.519 107.921 339.799V335.191H106.355V333.661H107.921L108.137 331.411H109.721V333.661H112.277V335.191H109.721V339.817C109.721 340.333 109.823 340.687 110.027 340.879C110.243 341.059 110.621 341.149 111.161 341.149H112.187V342.679H110.711Z" fill="white"/>
<rect x="48" y="363.679" width="560" height="50" rx="8" fill="white"/>
<path d="M68.298 393.847C67.6073 393.847 67.0053 393.716 66.492 393.455C65.988 393.193 65.596 392.829 65.316 392.363C65.0453 391.896 64.9053 391.35 64.896 390.725H66.128C66.1373 391.285 66.324 391.77 66.688 392.181C67.0613 392.582 67.598 392.783 68.298 392.783C68.942 392.783 69.4367 392.629 69.782 392.321C70.1367 392.003 70.314 391.625 70.314 391.187C70.314 390.823 70.23 390.519 70.062 390.277C69.894 390.025 69.6187 389.805 69.236 389.619C68.8627 389.423 68.3587 389.222 67.724 389.017C66.828 388.746 66.1747 388.377 65.764 387.911C65.3533 387.444 65.148 386.865 65.148 386.175C65.148 385.708 65.2693 385.288 65.512 384.915C65.7547 384.541 66.1047 384.247 66.562 384.033C67.0193 383.818 67.5747 383.711 68.228 383.711C68.844 383.711 69.3807 383.827 69.838 384.061C70.3047 384.285 70.664 384.602 70.916 385.013C71.1773 385.423 71.308 385.895 71.308 386.427H70.076C70.076 386.165 70.006 385.909 69.866 385.657C69.726 385.405 69.516 385.195 69.236 385.027C68.956 384.859 68.6013 384.775 68.172 384.775C67.6587 384.775 67.2293 384.901 66.884 385.153C66.5387 385.395 66.366 385.731 66.366 386.161C66.366 386.487 66.4407 386.763 66.59 386.987C66.7487 387.211 67.0053 387.416 67.36 387.603C67.7147 387.78 68.1953 387.971 68.802 388.177C69.3713 388.363 69.8567 388.583 70.258 388.835C70.6687 389.077 70.9813 389.381 71.196 389.745C71.42 390.109 71.532 390.561 71.532 391.103C71.532 391.635 71.3967 392.106 71.126 392.517C70.8553 392.927 70.4773 393.254 69.992 393.497C69.5067 393.73 68.942 393.847 68.298 393.847ZM76.5805 393.847C75.9272 393.847 75.3439 393.711 74.8305 393.441C74.3265 393.17 73.9252 392.759 73.6265 392.209C73.3372 391.649 73.1925 390.949 73.1925 390.109V383.879H74.3685V390.151C74.3685 390.991 74.5739 391.639 74.9845 392.097C75.3952 392.554 75.9365 392.783 76.6085 392.783C77.2805 392.783 77.8172 392.554 78.2185 392.097C78.6199 391.639 78.8205 390.991 78.8205 390.151V383.879H79.9965V390.109C79.9965 390.949 79.8472 391.649 79.5485 392.209C79.2499 392.759 78.8439 393.17 78.3305 393.441C77.8172 393.711 77.2339 393.847 76.5805 393.847ZM81.7131 393.679V383.879H84.9751C85.9924 383.879 86.7577 384.112 87.2711 384.579C87.7844 385.045 88.0411 385.643 88.0411 386.371C88.0411 386.94 87.8871 387.411 87.5791 387.785C87.2711 388.149 86.9257 388.405 86.5431 388.555V388.653C87.0004 388.802 87.4017 389.073 87.7471 389.465C88.0924 389.857 88.2651 390.361 88.2651 390.977C88.2651 391.481 88.1391 391.938 87.8871 392.349C87.6444 392.75 87.2851 393.072 86.8091 393.315C86.3424 393.557 85.7684 393.679 85.0871 393.679H81.7131ZM82.8891 388.107H84.8911C85.5164 388.107 85.9924 387.971 86.3191 387.701C86.6551 387.421 86.8231 387.019 86.8231 386.497C86.8231 386.002 86.6597 385.619 86.3331 385.349C86.0064 385.078 85.5117 384.943 84.8491 384.943H82.8891V388.107ZM82.8891 392.601H84.9611C85.6331 392.601 86.1511 392.451 86.5151 392.153C86.8791 391.845 87.0611 391.415 87.0611 390.865C87.0611 390.314 86.8697 389.889 86.4871 389.591C86.1044 389.283 85.5864 389.129 84.9331 389.129H82.8891V392.601ZM93.4956 393.847C92.5343 393.847 91.7969 393.576 91.2836 393.035C90.7703 392.484 90.5136 391.728 90.5136 390.767H91.7036C91.7129 391.317 91.8576 391.789 92.1376 392.181C92.4176 392.563 92.8656 392.755 93.4816 392.755C94.0976 392.755 94.5363 392.568 94.7976 392.195C95.0683 391.821 95.2036 391.355 95.2036 390.795V383.879H96.3796V390.795C96.3796 391.775 96.1276 392.531 95.6236 393.063C95.1196 393.585 94.4103 393.847 93.4956 393.847ZM98.7821 393.679V383.879H104.9V384.943H99.9581V388.205H104.48V389.269H99.9581V392.615H104.9V393.679H98.7821ZM110.243 393.847C109.449 393.847 108.763 393.637 108.185 393.217C107.615 392.797 107.177 392.209 106.869 391.453C106.57 390.697 106.421 389.805 106.421 388.779C106.421 387.761 106.57 386.875 106.869 386.119C107.177 385.353 107.615 384.761 108.185 384.341C108.763 383.921 109.449 383.711 110.243 383.711C111.251 383.711 112.063 383.991 112.679 384.551C113.295 385.101 113.654 385.839 113.757 386.763H112.455C112.361 386.212 112.128 385.75 111.755 385.377C111.381 385.003 110.877 384.817 110.243 384.817C109.431 384.817 108.791 385.171 108.325 385.881C107.858 386.581 107.625 387.547 107.625 388.779C107.625 390.02 107.858 390.991 108.325 391.691C108.791 392.391 109.431 392.741 110.243 392.741C110.905 392.741 111.414 392.563 111.769 392.209C112.133 391.854 112.361 391.397 112.455 390.837H113.757C113.607 391.77 113.234 392.507 112.637 393.049C112.049 393.581 111.251 393.847 110.243 393.847ZM117.979 393.679V384.943H115.347V383.879H121.787V384.943H119.155V393.679H117.979Z" fill="#A6A6A6"/>
<path d="M49.296 448.679V436.079H51.42L55.722 444.575L59.988 436.079H62.13V448.679H60.33V439.229L56.406 446.897H55.02L51.096 439.247V448.679H49.296ZM68.7796 448.895C67.9036 448.895 67.1296 448.703 66.4576 448.319C65.7856 447.923 65.2576 447.371 64.8736 446.663C64.5016 445.955 64.3156 445.133 64.3156 444.197C64.3156 443.249 64.5016 442.421 64.8736 441.713C65.2456 441.005 65.7676 440.453 66.4396 440.057C67.1236 439.649 67.9096 439.445 68.7976 439.445C69.6856 439.445 70.4476 439.643 71.0836 440.039C71.7196 440.435 72.2116 440.957 72.5596 441.605C72.9076 442.253 73.0816 442.967 73.0816 443.747C73.0816 443.867 73.0816 443.999 73.0816 444.143C73.0816 444.275 73.0756 444.425 73.0636 444.593H65.6296V443.333H71.2816C71.2576 442.589 71.0056 442.007 70.5256 441.587C70.0576 441.155 69.4756 440.939 68.7796 440.939C68.2996 440.939 67.8496 441.053 67.4296 441.281C67.0216 441.497 66.6916 441.815 66.4396 442.235C66.1996 442.655 66.0796 443.189 66.0796 443.837V444.341C66.0796 445.001 66.1996 445.559 66.4396 446.015C66.6916 446.471 67.0216 446.819 67.4296 447.059C67.8376 447.287 68.2816 447.401 68.7616 447.401C69.3376 447.401 69.8116 447.275 70.1836 447.023C70.5676 446.759 70.8496 446.411 71.0296 445.979H72.8296C72.6736 446.531 72.4096 447.029 72.0376 447.473C71.6656 447.905 71.2036 448.253 70.6516 448.517C70.1116 448.769 69.4876 448.895 68.7796 448.895ZM78.5914 448.895C77.8354 448.895 77.1694 448.769 76.5934 448.517C76.0174 448.265 75.5554 447.911 75.2074 447.455C74.8714 446.999 74.6674 446.465 74.5954 445.853H76.4134C76.4854 446.141 76.6114 446.405 76.7914 446.645C76.9714 446.885 77.2114 447.077 77.5114 447.221C77.8114 447.365 78.1714 447.437 78.5914 447.437C78.9874 447.437 79.3114 447.383 79.5634 447.275C79.8154 447.155 80.0014 446.999 80.1214 446.807C80.2534 446.615 80.3194 446.405 80.3194 446.177C80.3194 445.853 80.2354 445.607 80.0674 445.439C79.8994 445.259 79.6534 445.121 79.3294 445.025C79.0174 444.917 78.6394 444.821 78.1954 444.737C77.7994 444.653 77.4094 444.551 77.0254 444.431C76.6414 444.311 76.2934 444.155 75.9814 443.963C75.6694 443.771 75.4174 443.531 75.2254 443.243C75.0454 442.943 74.9554 442.583 74.9554 442.163C74.9554 441.647 75.0934 441.185 75.3694 440.777C75.6454 440.357 76.0354 440.033 76.5394 439.805C77.0434 439.565 77.6494 439.445 78.3574 439.445C79.3534 439.445 80.1574 439.685 80.7694 440.165C81.3814 440.645 81.7414 441.323 81.8494 442.199H80.1034C80.0554 441.791 79.8754 441.479 79.5634 441.263C79.2634 441.035 78.8554 440.921 78.3394 440.921C77.8234 440.921 77.4274 441.023 77.1514 441.227C76.8754 441.431 76.7374 441.701 76.7374 442.037C76.7374 442.241 76.8154 442.427 76.9714 442.595C77.1394 442.763 77.3734 442.907 77.6734 443.027C77.9854 443.135 78.3574 443.231 78.7894 443.315C79.4014 443.447 79.9594 443.603 80.4634 443.783C80.9674 443.951 81.3694 444.209 81.6694 444.557C81.9814 444.905 82.1374 445.403 82.1374 446.051C82.1494 446.603 82.0054 447.095 81.7054 447.527C81.4174 447.959 81.0094 448.295 80.4814 448.535C79.9534 448.775 79.3234 448.895 78.5914 448.895ZM87.7672 448.895C87.0112 448.895 86.3452 448.769 85.7692 448.517C85.1932 448.265 84.7312 447.911 84.3832 447.455C84.0472 446.999 83.8432 446.465 83.7712 445.853H85.5892C85.6612 446.141 85.7872 446.405 85.9672 446.645C86.1472 446.885 86.3872 447.077 86.6872 447.221C86.9872 447.365 87.3472 447.437 87.7672 447.437C88.1632 447.437 88.4872 447.383 88.7392 447.275C88.9912 447.155 89.1772 446.999 89.2972 446.807C89.4292 446.615 89.4952 446.405 89.4952 446.177C89.4952 445.853 89.4112 445.607 89.2432 445.439C89.0752 445.259 88.8292 445.121 88.5052 445.025C88.1932 444.917 87.8152 444.821 87.3712 444.737C86.9752 444.653 86.5852 444.551 86.2012 444.431C85.8172 444.311 85.4692 444.155 85.1572 443.963C84.8452 443.771 84.5932 443.531 84.4012 443.243C84.2212 442.943 84.1312 442.583 84.1312 442.163C84.1312 441.647 84.2692 441.185 84.5452 440.777C84.8212 440.357 85.2112 440.033 85.7152 439.805C86.2192 439.565 86.8252 439.445 87.5332 439.445C88.5292 439.445 89.3332 439.685 89.9452 440.165C90.5572 440.645 90.9172 441.323 91.0252 442.199H89.2792C89.2312 441.791 89.0512 441.479 88.7392 441.263C88.4392 441.035 88.0312 440.921 87.5152 440.921C86.9992 440.921 86.6032 441.023 86.3272 441.227C86.0512 441.431 85.9132 441.701 85.9132 442.037C85.9132 442.241 85.9912 442.427 86.1472 442.595C86.3152 442.763 86.5492 442.907 86.8492 443.027C87.1612 443.135 87.5332 443.231 87.9652 443.315C88.5772 443.447 89.1352 443.603 89.6392 443.783C90.1432 443.951 90.5452 444.209 90.8452 444.557C91.1572 444.905 91.3132 445.403 91.3132 446.051C91.3252 446.603 91.1812 447.095 90.8812 447.527C90.5932 447.959 90.1852 448.295 89.6572 448.535C89.1292 448.775 88.4992 448.895 87.7672 448.895ZM96.439 448.895C95.695 448.895 95.077 448.769 94.585 448.517C94.093 448.265 93.727 447.929 93.487 447.509C93.247 447.089 93.127 446.633 93.127 446.141C93.127 445.541 93.277 445.031 93.577 444.611C93.889 444.191 94.333 443.867 94.909 443.639C95.497 443.411 96.193 443.297 96.997 443.297H99.355C99.355 442.769 99.277 442.337 99.121 442.001C98.965 441.653 98.731 441.395 98.419 441.227C98.107 441.047 97.723 440.957 97.267 440.957C96.727 440.957 96.259 441.089 95.863 441.353C95.467 441.605 95.227 441.989 95.143 442.505H93.343C93.415 441.857 93.631 441.311 93.991 440.867C94.363 440.411 94.837 440.063 95.413 439.823C95.989 439.571 96.607 439.445 97.267 439.445C98.107 439.445 98.815 439.595 99.391 439.895C99.967 440.195 100.405 440.621 100.705 441.173C101.005 441.713 101.155 442.361 101.155 443.117V448.679H99.589L99.445 447.149C99.325 447.389 99.169 447.617 98.977 447.833C98.797 448.049 98.581 448.235 98.329 448.391C98.089 448.547 97.807 448.667 97.483 448.751C97.171 448.847 96.823 448.895 96.439 448.895ZM96.781 447.437C97.165 447.437 97.513 447.359 97.825 447.203C98.137 447.047 98.401 446.837 98.617 446.573C98.845 446.297 99.013 445.991 99.121 445.655C99.241 445.319 99.307 444.965 99.319 444.593V444.557H97.177C96.661 444.557 96.241 444.623 95.917 444.755C95.593 444.875 95.359 445.049 95.215 445.277C95.083 445.493 95.017 445.739 95.017 446.015C95.017 446.303 95.083 446.555 95.215 446.771C95.359 446.987 95.563 447.155 95.827 447.275C96.091 447.383 96.409 447.437 96.781 447.437ZM107.107 452.855C106.279 452.855 105.547 452.747 104.911 452.531C104.287 452.327 103.801 452.009 103.453 451.577C103.105 451.145 102.931 450.617 102.931 449.993C102.931 449.669 103.003 449.345 103.147 449.021C103.291 448.697 103.525 448.385 103.849 448.085C104.173 447.773 104.605 447.503 105.145 447.275L106.153 448.067C105.553 448.307 105.145 448.583 104.929 448.895C104.725 449.219 104.623 449.525 104.623 449.813C104.623 450.173 104.731 450.473 104.947 450.713C105.163 450.953 105.457 451.133 105.829 451.253C106.213 451.373 106.639 451.433 107.107 451.433C107.575 451.433 107.977 451.367 108.313 451.235C108.661 451.103 108.931 450.917 109.123 450.677C109.315 450.437 109.411 450.155 109.411 449.831C109.411 449.447 109.267 449.129 108.979 448.877C108.703 448.625 108.163 448.475 107.359 448.427C106.675 448.379 106.093 448.313 105.613 448.229C105.145 448.133 104.743 448.031 104.407 447.923C104.083 447.803 103.807 447.671 103.579 447.527C103.363 447.371 103.177 447.215 103.021 447.059V446.645L104.821 444.809L106.261 445.295L104.317 447.113L104.695 446.321C104.827 446.405 104.953 446.489 105.073 446.573C105.193 446.645 105.355 446.711 105.559 446.771C105.763 446.831 106.033 446.885 106.369 446.933C106.717 446.981 107.173 447.023 107.737 447.059C108.541 447.131 109.195 447.281 109.699 447.509C110.203 447.737 110.569 448.043 110.797 448.427C111.025 448.799 111.139 449.249 111.139 449.777C111.139 450.293 110.995 450.785 110.707 451.253C110.419 451.721 109.975 452.105 109.375 452.405C108.787 452.705 108.031 452.855 107.107 452.855ZM107.107 445.907C106.351 445.907 105.703 445.763 105.163 445.475C104.635 445.187 104.227 444.803 103.939 444.323C103.663 443.831 103.525 443.285 103.525 442.685C103.525 442.085 103.663 441.545 103.939 441.065C104.227 440.573 104.635 440.183 105.163 439.895C105.703 439.595 106.351 439.445 107.107 439.445C107.863 439.445 108.505 439.595 109.033 439.895C109.573 440.183 109.981 440.573 110.257 441.065C110.545 441.545 110.689 442.085 110.689 442.685C110.689 443.285 110.545 443.831 110.257 444.323C109.981 444.803 109.573 445.187 109.033 445.475C108.505 445.763 107.863 445.907 107.107 445.907ZM107.107 444.467C107.683 444.467 108.145 444.317 108.493 444.017C108.853 443.705 109.033 443.261 109.033 442.685C109.033 442.109 108.853 441.671 108.493 441.371C108.145 441.059 107.683 440.903 107.107 440.903C106.519 440.903 106.045 441.059 105.685 441.371C105.337 441.671 105.163 442.109 105.163 442.685C105.163 443.261 105.337 443.705 105.685 444.017C106.045 444.317 106.519 444.467 107.107 444.467ZM108.565 441.083L108.133 439.661H111.859V440.903L108.565 441.083ZM117.436 448.895C116.56 448.895 115.786 448.703 115.114 448.319C114.442 447.923 113.914 447.371 113.53 446.663C113.158 445.955 112.972 445.133 112.972 444.197C112.972 443.249 113.158 442.421 113.53 441.713C113.902 441.005 114.424 440.453 115.096 440.057C115.78 439.649 116.566 439.445 117.454 439.445C118.342 439.445 119.104 439.643 119.74 440.039C120.376 440.435 120.868 440.957 121.216 441.605C121.564 442.253 121.738 442.967 121.738 443.747C121.738 443.867 121.738 443.999 121.738 444.143C121.738 444.275 121.732 444.425 121.72 444.593H114.286V443.333H119.938C119.914 442.589 119.662 442.007 119.182 441.587C118.714 441.155 118.132 440.939 117.436 440.939C116.956 440.939 116.506 441.053 116.086 441.281C115.678 441.497 115.348 441.815 115.096 442.235C114.856 442.655 114.736 443.189 114.736 443.837V444.341C114.736 445.001 114.856 445.559 115.096 446.015C115.348 446.471 115.678 446.819 116.086 447.059C116.494 447.287 116.938 447.401 117.418 447.401C117.994 447.401 118.468 447.275 118.84 447.023C119.224 446.759 119.506 446.411 119.686 445.979H121.486C121.33 446.531 121.066 447.029 120.694 447.473C120.322 447.905 119.86 448.253 119.308 448.517C118.768 448.769 118.144 448.895 117.436 448.895Z" fill="white"/>
<rect x="48" y="469.679" width="560" height="120" rx="8" fill="white"/>
<path d="M67.612 499.679V490.943H64.98V489.879H71.42V490.943H68.788V499.679H67.612ZM73.5985 499.679V489.879H79.7165V490.943H74.7745V494.205H79.2965V495.269H74.7745V498.615H79.7165V499.679H73.5985ZM82.0071 499.679V489.879H83.1831V498.615H88.1531V499.679H82.0071ZM90.4016 499.679V489.879H91.5776V498.615H96.5476V499.679H90.4016ZM106.673 499.679V489.879H107.933L110.173 494.541L112.413 489.879H113.673V499.679H112.525V492.147L110.621 496.109H109.725L107.821 492.161V499.679H106.673ZM115.571 499.679V489.879H121.689V490.943H116.747V494.205H121.269V495.269H116.747V498.615H121.689V499.679H115.571ZM131.618 499.679L134.684 489.879H136.042L139.094 499.679H137.806L137.092 497.243H133.62L132.906 499.679H131.618ZM135.328 491.531L133.914 496.263H136.798L135.384 491.531H135.328ZM140.475 499.679V489.879H143.737C144.754 489.879 145.519 490.112 146.033 490.579C146.546 491.045 146.803 491.643 146.803 492.371C146.803 492.94 146.649 493.411 146.341 493.785C146.033 494.149 145.687 494.405 145.305 494.555V494.653C145.762 494.802 146.163 495.073 146.509 495.465C146.854 495.857 147.027 496.361 147.027 496.977C147.027 497.481 146.901 497.938 146.649 498.349C146.406 498.75 146.047 499.072 145.571 499.315C145.104 499.557 144.53 499.679 143.849 499.679H140.475ZM141.651 494.107H143.653C144.278 494.107 144.754 493.971 145.081 493.701C145.417 493.421 145.585 493.019 145.585 492.497C145.585 492.002 145.421 491.619 145.095 491.349C144.768 491.078 144.273 490.943 143.611 490.943H141.651V494.107ZM141.651 498.601H143.723C144.395 498.601 144.913 498.451 145.277 498.153C145.641 497.845 145.823 497.415 145.823 496.865C145.823 496.314 145.631 495.889 145.249 495.591C144.866 495.283 144.348 495.129 143.695 495.129H141.651V498.601ZM152.145 499.847C151.352 499.847 150.671 499.637 150.101 499.217C149.532 498.797 149.093 498.209 148.785 497.453C148.487 496.687 148.337 495.796 148.337 494.779C148.337 493.761 148.487 492.875 148.785 492.119C149.093 491.353 149.532 490.761 150.101 490.341C150.671 489.921 151.352 489.711 152.145 489.711C152.939 489.711 153.62 489.921 154.189 490.341C154.759 490.761 155.193 491.353 155.491 492.119C155.799 492.875 155.953 493.761 155.953 494.779C155.953 495.796 155.799 496.687 155.491 497.453C155.193 498.209 154.759 498.797 154.189 499.217C153.62 499.637 152.939 499.847 152.145 499.847ZM152.145 498.741C152.92 498.741 153.545 498.395 154.021 497.705C154.507 497.014 154.749 496.039 154.749 494.779C154.749 493.519 154.507 492.543 154.021 491.853C153.545 491.162 152.92 490.817 152.145 490.817C151.361 490.817 150.731 491.162 150.255 491.853C149.779 492.543 149.541 493.519 149.541 494.779C149.541 496.039 149.779 497.014 150.255 497.705C150.731 498.395 151.361 498.741 152.145 498.741ZM160.526 499.847C159.873 499.847 159.289 499.711 158.776 499.441C158.272 499.17 157.871 498.759 157.572 498.209C157.283 497.649 157.138 496.949 157.138 496.109V489.879H158.314V496.151C158.314 496.991 158.519 497.639 158.93 498.097C159.341 498.554 159.882 498.783 160.554 498.783C161.226 498.783 161.763 498.554 162.164 498.097C162.565 497.639 162.766 496.991 162.766 496.151V489.879H163.942V496.109C163.942 496.949 163.793 497.649 163.494 498.209C163.195 498.759 162.789 499.17 162.276 499.441C161.763 499.711 161.179 499.847 160.526 499.847ZM168.346 499.679V490.943H165.714V489.879H172.154V490.943H169.522V499.679H168.346ZM185.135 499.679V495.829L181.957 489.879H183.287L185.723 494.639L188.159 489.879H189.489L186.311 495.829V499.679H185.135ZM194.118 499.847C193.325 499.847 192.643 499.637 192.074 499.217C191.505 498.797 191.066 498.209 190.758 497.453C190.459 496.687 190.31 495.796 190.31 494.779C190.31 493.761 190.459 492.875 190.758 492.119C191.066 491.353 191.505 490.761 192.074 490.341C192.643 489.921 193.325 489.711 194.118 489.711C194.911 489.711 195.593 489.921 196.162 490.341C196.731 490.761 197.165 491.353 197.464 492.119C197.772 492.875 197.926 493.761 197.926 494.779C197.926 495.796 197.772 496.687 197.464 497.453C197.165 498.209 196.731 498.797 196.162 499.217C195.593 499.637 194.911 499.847 194.118 499.847ZM194.118 498.741C194.893 498.741 195.518 498.395 195.994 497.705C196.479 497.014 196.722 496.039 196.722 494.779C196.722 493.519 196.479 492.543 195.994 491.853C195.518 491.162 194.893 490.817 194.118 490.817C193.334 490.817 192.704 491.162 192.228 491.853C191.752 492.543 191.514 493.519 191.514 494.779C191.514 496.039 191.752 497.014 192.228 497.705C192.704 498.395 193.334 498.741 194.118 498.741ZM202.499 499.847C201.845 499.847 201.262 499.711 200.749 499.441C200.245 499.17 199.843 498.759 199.545 498.209C199.255 497.649 199.111 496.949 199.111 496.109V489.879H200.287V496.151C200.287 496.991 200.492 497.639 200.903 498.097C201.313 498.554 201.855 498.783 202.527 498.783C203.199 498.783 203.735 498.554 204.137 498.097C204.538 497.639 204.739 496.991 204.739 496.151V489.879H205.915V496.109C205.915 496.949 205.765 497.649 205.467 498.209C205.168 498.759 204.762 499.17 204.249 499.441C203.735 499.711 203.152 499.847 202.499 499.847ZM207.855 499.679V489.879H210.865C211.621 489.879 212.242 490.005 212.727 490.257C213.222 490.509 213.59 490.854 213.833 491.293C214.076 491.722 214.197 492.212 214.197 492.763C214.197 493.407 214.029 493.976 213.693 494.471C213.366 494.956 212.862 495.297 212.181 495.493L214.309 499.679H212.909L210.935 495.661H210.865H209.031V499.679H207.855ZM209.031 494.583H210.823C211.57 494.583 212.116 494.415 212.461 494.079C212.816 493.733 212.993 493.295 212.993 492.763C212.993 492.203 212.82 491.759 212.475 491.433C212.139 491.106 211.584 490.943 210.809 490.943H209.031V494.583ZM224.532 499.679V489.879H227.794C228.541 489.879 229.152 490.014 229.628 490.285C230.104 490.555 230.454 490.915 230.678 491.363C230.902 491.811 231.014 492.305 231.014 492.847C231.014 493.388 230.902 493.883 230.678 494.331C230.454 494.779 230.104 495.138 229.628 495.409C229.152 495.679 228.541 495.815 227.794 495.815H225.708V499.679H224.532ZM225.708 494.737H227.766C228.457 494.737 228.97 494.564 229.306 494.219C229.642 493.864 229.81 493.407 229.81 492.847C229.81 492.287 229.642 491.829 229.306 491.475C228.97 491.12 228.457 490.943 227.766 490.943H225.708V494.737ZM233.039 499.679V489.879H236.049C236.805 489.879 237.425 490.005 237.911 490.257C238.405 490.509 238.774 490.854 239.017 491.293C239.259 491.722 239.381 492.212 239.381 492.763C239.381 493.407 239.213 493.976 238.877 494.471C238.55 494.956 238.046 495.297 237.365 495.493L239.493 499.679H238.093L236.119 495.661H236.049H234.215V499.679H233.039ZM234.215 494.583H236.007C236.753 494.583 237.299 494.415 237.645 494.079C237.999 493.733 238.177 493.295 238.177 492.763C238.177 492.203 238.004 491.759 237.659 491.433C237.323 491.106 236.767 490.943 235.993 490.943H234.215V494.583ZM244.485 499.847C243.692 499.847 243.01 499.637 242.441 499.217C241.872 498.797 241.433 498.209 241.125 497.453C240.826 496.687 240.677 495.796 240.677 494.779C240.677 493.761 240.826 492.875 241.125 492.119C241.433 491.353 241.872 490.761 242.441 490.341C243.01 489.921 243.692 489.711 244.485 489.711C245.278 489.711 245.96 489.921 246.529 490.341C247.098 490.761 247.532 491.353 247.831 492.119C248.139 492.875 248.293 493.761 248.293 494.779C248.293 495.796 248.139 496.687 247.831 497.453C247.532 498.209 247.098 498.797 246.529 499.217C245.96 499.637 245.278 499.847 244.485 499.847ZM244.485 498.741C245.26 498.741 245.885 498.395 246.361 497.705C246.846 497.014 247.089 496.039 247.089 494.779C247.089 493.519 246.846 492.543 246.361 491.853C245.885 491.162 245.26 490.817 244.485 490.817C243.701 490.817 243.071 491.162 242.595 491.853C242.119 492.543 241.881 493.519 241.881 494.779C241.881 496.039 242.119 497.014 242.595 497.705C243.071 498.395 243.701 498.741 244.485 498.741ZM252.992 499.847C252.03 499.847 251.293 499.576 250.78 499.035C250.266 498.484 250.01 497.728 250.01 496.767H251.2C251.209 497.317 251.354 497.789 251.634 498.181C251.914 498.563 252.362 498.755 252.978 498.755C253.594 498.755 254.032 498.568 254.294 498.195C254.564 497.821 254.7 497.355 254.7 496.795V489.879H255.876V496.795C255.876 497.775 255.624 498.531 255.12 499.063C254.616 499.585 253.906 499.847 252.992 499.847ZM258.278 499.679V489.879H264.396V490.943H259.454V494.205H263.976V495.269H259.454V498.615H264.396V499.679H258.278ZM269.739 499.847C268.945 499.847 268.259 499.637 267.681 499.217C267.111 498.797 266.673 498.209 266.365 497.453C266.066 496.697 265.917 495.805 265.917 494.779C265.917 493.761 266.066 492.875 266.365 492.119C266.673 491.353 267.111 490.761 267.681 490.341C268.259 489.921 268.945 489.711 269.739 489.711C270.747 489.711 271.559 489.991 272.175 490.551C272.791 491.101 273.15 491.839 273.253 492.763H271.951C271.857 492.212 271.624 491.75 271.251 491.377C270.877 491.003 270.373 490.817 269.739 490.817C268.927 490.817 268.287 491.171 267.821 491.881C267.354 492.581 267.121 493.547 267.121 494.779C267.121 496.02 267.354 496.991 267.821 497.691C268.287 498.391 268.927 498.741 269.739 498.741C270.401 498.741 270.91 498.563 271.265 498.209C271.629 497.854 271.857 497.397 271.951 496.837H273.253C273.103 497.77 272.73 498.507 272.133 499.049C271.545 499.581 270.747 499.847 269.739 499.847ZM277.475 499.679V490.943H274.843V489.879H281.283V490.943H278.651V499.679H277.475Z" fill="#A6A6A6"/>
<rect x="228.5" y="607.679" width="199" height="58" rx="29" fill="#FFC929"/>
<rect x="228.5" y="607.679" width="199" height="58" rx="29" stroke="#1B1B1B" stroke-width="2"/>
<path d="M282.412 643.395C281.152 643.395 280.066 643.125 279.154 642.585C278.242 642.033 277.54 641.271 277.048 640.299C276.556 639.315 276.31 638.181 276.31 636.897C276.31 635.613 276.556 634.479 277.048 633.495C277.54 632.511 278.242 631.743 279.154 631.191C280.066 630.639 281.152 630.363 282.412 630.363C283.936 630.363 285.184 630.741 286.156 631.497C287.14 632.253 287.752 633.321 287.992 634.701H285.31C285.166 634.029 284.842 633.507 284.338 633.135C283.846 632.751 283.198 632.559 282.394 632.559C281.638 632.559 280.99 632.739 280.45 633.099C279.91 633.447 279.496 633.945 279.208 634.593C278.932 635.229 278.794 635.997 278.794 636.897C278.794 637.785 278.932 638.553 279.208 639.201C279.496 639.849 279.91 640.347 280.45 640.695C280.99 641.043 281.638 641.217 282.394 641.217C283.198 641.217 283.846 641.043 284.338 640.695C284.83 640.335 285.154 639.837 285.31 639.201H287.992C287.752 640.509 287.14 641.535 286.156 642.279C285.184 643.023 283.936 643.395 282.412 643.395ZM294.279 643.395C293.415 643.395 292.635 643.197 291.939 642.801C291.255 642.393 290.709 641.835 290.301 641.127C289.905 640.419 289.707 639.603 289.707 638.679C289.707 637.743 289.905 636.921 290.301 636.213C290.709 635.505 291.261 634.953 291.957 634.557C292.653 634.149 293.433 633.945 294.297 633.945C295.161 633.945 295.941 634.149 296.637 634.557C297.333 634.953 297.879 635.505 298.275 636.213C298.683 636.921 298.887 637.743 298.887 638.679C298.887 639.603 298.683 640.419 298.275 641.127C297.867 641.835 297.315 642.393 296.619 642.801C295.935 643.197 295.155 643.395 294.279 643.395ZM294.279 641.289C294.675 641.289 295.029 641.193 295.341 641.001C295.665 640.809 295.923 640.521 296.115 640.137C296.307 639.741 296.403 639.255 296.403 638.679C296.403 638.091 296.307 637.605 296.115 637.221C295.935 636.837 295.683 636.549 295.359 636.357C295.047 636.153 294.693 636.051 294.297 636.051C293.913 636.051 293.559 636.153 293.235 636.357C292.911 636.549 292.653 636.837 292.461 637.221C292.269 637.605 292.173 638.091 292.173 638.679C292.173 639.255 292.269 639.741 292.461 640.137C292.653 640.521 292.905 640.809 293.217 641.001C293.541 641.193 293.895 641.289 294.279 641.289ZM300.963 643.179V634.161H303.087L303.267 635.655C303.555 635.139 303.951 634.725 304.455 634.413C304.971 634.101 305.589 633.945 306.309 633.945C307.053 633.945 307.683 634.107 308.199 634.431C308.715 634.743 309.105 635.205 309.369 635.817C309.645 636.417 309.783 637.155 309.783 638.031V643.179H307.371V638.265C307.371 637.533 307.215 636.975 306.903 636.591C306.603 636.195 306.135 635.997 305.499 635.997C305.091 635.997 304.725 636.093 304.401 636.285C304.089 636.477 303.843 636.753 303.663 637.113C303.483 637.473 303.393 637.911 303.393 638.427V643.179H300.963ZM316.106 643.179C315.47 643.179 314.912 643.083 314.432 642.891C313.964 642.687 313.598 642.357 313.334 641.901C313.07 641.433 312.938 640.797 312.938 639.993V636.195H311.39V634.161H312.938L313.208 631.713H315.368V634.161H317.744V636.195H315.368V640.029C315.368 640.437 315.458 640.719 315.638 640.875C315.818 641.031 316.124 641.109 316.556 641.109H317.708V643.179H316.106ZM322.832 643.395C322.076 643.395 321.452 643.275 320.96 643.035C320.468 642.783 320.102 642.453 319.862 642.045C319.622 641.625 319.502 641.169 319.502 640.677C319.502 640.125 319.64 639.639 319.916 639.219C320.204 638.799 320.636 638.475 321.212 638.247C321.788 638.007 322.508 637.887 323.372 637.887H325.622C325.622 637.443 325.562 637.077 325.442 636.789C325.322 636.501 325.13 636.285 324.866 636.141C324.614 635.997 324.284 635.925 323.876 635.925C323.42 635.925 323.03 636.027 322.706 636.231C322.382 636.435 322.184 636.741 322.112 637.149H319.736C319.808 636.489 320.024 635.925 320.384 635.457C320.756 634.977 321.242 634.605 321.842 634.341C322.454 634.077 323.138 633.945 323.894 633.945C324.746 633.945 325.484 634.089 326.108 634.377C326.732 634.665 327.212 635.079 327.548 635.619C327.884 636.159 328.052 636.825 328.052 637.617V643.179H326L325.73 641.793C325.598 642.033 325.442 642.249 325.262 642.441C325.082 642.633 324.872 642.801 324.632 642.945C324.392 643.089 324.122 643.197 323.822 643.269C323.522 643.353 323.192 643.395 322.832 643.395ZM323.408 641.523C323.72 641.523 323.996 641.469 324.236 641.361C324.488 641.241 324.704 641.085 324.884 640.893C325.064 640.689 325.202 640.461 325.298 640.209C325.406 639.945 325.478 639.669 325.514 639.381V639.363H323.66C323.288 639.363 322.982 639.411 322.742 639.507C322.514 639.603 322.34 639.735 322.22 639.903C322.112 640.059 322.058 640.245 322.058 640.461C322.058 640.689 322.112 640.881 322.22 641.037C322.34 641.193 322.502 641.313 322.706 641.397C322.91 641.481 323.144 641.523 323.408 641.523ZM334.693 643.395C333.781 643.395 332.971 643.197 332.263 642.801C331.555 642.393 331.003 641.835 330.607 641.127C330.211 640.419 330.013 639.609 330.013 638.697C330.013 637.761 330.211 636.939 330.607 636.231C331.003 635.523 331.555 634.965 332.263 634.557C332.971 634.149 333.781 633.945 334.693 633.945C335.857 633.945 336.829 634.251 337.609 634.863C338.401 635.463 338.905 636.297 339.121 637.365H336.547C336.439 636.945 336.217 636.621 335.881 636.393C335.545 636.153 335.143 636.033 334.675 636.033C334.255 636.033 333.877 636.141 333.541 636.357C333.217 636.561 332.959 636.861 332.767 637.257C332.575 637.653 332.479 638.127 332.479 638.679C332.479 639.087 332.533 639.453 332.641 639.777C332.761 640.101 332.917 640.383 333.109 640.623C333.301 640.851 333.529 641.025 333.793 641.145C334.069 641.265 334.363 641.325 334.675 641.325C334.987 641.325 335.269 641.277 335.521 641.181C335.773 641.073 335.989 640.917 336.169 640.713C336.349 640.509 336.475 640.263 336.547 639.975H339.121C338.905 641.019 338.401 641.853 337.609 642.477C336.817 643.089 335.845 643.395 334.693 643.395ZM345.18 643.179C344.544 643.179 343.986 643.083 343.506 642.891C343.038 642.687 342.672 642.357 342.408 641.901C342.144 641.433 342.012 640.797 342.012 639.993V636.195H340.464V634.161H342.012L342.282 631.713H344.442V634.161H346.818V636.195H344.442V640.029C344.442 640.437 344.532 640.719 344.712 640.875C344.892 641.031 345.198 641.109 345.63 641.109H346.782V643.179H345.18ZM353.083 643.179V634.161H355.207L355.405 635.367C355.693 634.935 356.071 634.593 356.539 634.341C357.019 634.077 357.571 633.945 358.195 633.945C358.651 633.945 359.059 634.005 359.419 634.125C359.791 634.245 360.115 634.419 360.391 634.647C360.667 634.875 360.901 635.163 361.093 635.511C361.429 635.031 361.867 634.653 362.407 634.377C362.947 634.089 363.541 633.945 364.189 633.945C364.969 633.945 365.623 634.107 366.151 634.431C366.691 634.743 367.099 635.205 367.375 635.817C367.651 636.417 367.789 637.155 367.789 638.031V643.179H365.377V638.265C365.377 637.533 365.233 636.975 364.945 636.591C364.657 636.195 364.219 635.997 363.631 635.997C363.235 635.997 362.887 636.099 362.587 636.303C362.287 636.495 362.053 636.771 361.885 637.131C361.729 637.491 361.651 637.929 361.651 638.445V643.179H359.221V638.265C359.221 637.533 359.077 636.975 358.789 636.591C358.501 636.195 358.051 635.997 357.439 635.997C357.067 635.997 356.731 636.099 356.431 636.303C356.143 636.495 355.915 636.771 355.747 637.131C355.591 637.491 355.513 637.929 355.513 638.445V643.179H353.083ZM374.401 643.395C373.489 643.395 372.679 643.203 371.971 642.819C371.275 642.423 370.729 641.877 370.333 641.181C369.949 640.485 369.757 639.675 369.757 638.751C369.757 637.815 369.949 636.987 370.333 636.267C370.717 635.547 371.257 634.983 371.953 634.575C372.661 634.155 373.477 633.945 374.401 633.945C375.301 633.945 376.087 634.143 376.759 634.539C377.431 634.923 377.953 635.451 378.325 636.123C378.709 636.795 378.901 637.557 378.901 638.409C378.901 638.529 378.901 638.661 378.901 638.805C378.901 638.949 378.889 639.105 378.865 639.273H371.485V637.779H376.435C376.411 637.215 376.207 636.765 375.823 636.429C375.451 636.093 374.983 635.925 374.419 635.925C373.999 635.925 373.615 636.021 373.267 636.213C372.919 636.393 372.643 636.675 372.439 637.059C372.247 637.431 372.151 637.905 372.151 638.481V639.003C372.151 639.495 372.241 639.921 372.421 640.281C372.613 640.641 372.877 640.923 373.213 641.127C373.561 641.319 373.951 641.415 374.383 641.415C374.827 641.415 375.193 641.319 375.481 641.127C375.781 640.935 376.009 640.683 376.165 640.371H378.649C378.481 640.935 378.193 641.445 377.785 641.901C377.389 642.357 376.903 642.723 376.327 642.999C375.763 643.263 375.121 643.395 374.401 643.395Z" fill="#191A15"/>
<path d="M264.672 697.847C264.009 697.847 263.412 697.693 262.88 697.385C262.357 697.077 261.942 696.647 261.634 696.097C261.335 695.537 261.186 694.893 261.186 694.165C261.186 693.418 261.34 692.769 261.648 692.219C261.956 691.659 262.376 691.225 262.908 690.917C263.44 690.609 264.037 690.455 264.7 690.455C265.372 690.455 265.969 690.609 266.492 690.917C267.015 691.225 267.425 691.654 267.724 692.205C268.032 692.755 268.186 693.404 268.186 694.151C268.186 694.897 268.032 695.546 267.724 696.097C267.425 696.647 267.01 697.077 266.478 697.385C265.946 697.693 265.344 697.847 264.672 697.847ZM264.672 696.643C265.055 696.643 265.4 696.549 265.708 696.363C266.025 696.176 266.277 695.901 266.464 695.537C266.66 695.163 266.758 694.701 266.758 694.151C266.758 693.6 266.665 693.143 266.478 692.779C266.291 692.405 266.039 692.125 265.722 691.939C265.414 691.752 265.073 691.659 264.7 691.659C264.327 691.659 263.981 691.752 263.664 691.939C263.347 692.125 263.09 692.405 262.894 692.779C262.707 693.143 262.614 693.6 262.614 694.151C262.614 694.701 262.707 695.163 262.894 695.537C263.09 695.901 263.342 696.176 263.65 696.363C263.967 696.549 264.308 696.643 264.672 696.643ZM269.833 697.679V690.623H271.093L271.219 691.953C271.378 691.635 271.583 691.369 271.835 691.155C272.087 690.931 272.381 690.758 272.717 690.637C273.062 690.515 273.454 690.455 273.893 690.455V691.939H273.389C273.1 691.939 272.824 691.976 272.563 692.051C272.302 692.116 272.068 692.233 271.863 692.401C271.667 692.569 271.513 692.797 271.401 693.087C271.289 693.376 271.233 693.735 271.233 694.165V697.679H269.833Z" fill="#A6A6A6"/>
<path d="M278.831 697.679V687.879H284.921V689.027H280.231V692.205H284.151V693.325H280.231V697.679H278.831ZM286.348 697.679V690.623H287.608L287.734 691.953C287.893 691.635 288.098 691.369 288.35 691.155C288.602 690.931 288.896 690.758 289.232 690.637C289.578 690.515 289.97 690.455 290.408 690.455V691.939H289.904C289.615 691.939 289.34 691.976 289.078 692.051C288.817 692.116 288.584 692.233 288.378 692.401C288.182 692.569 288.028 692.797 287.916 693.087C287.804 693.376 287.748 693.735 287.748 694.165V697.679H286.348ZM294.681 697.847C294.009 697.847 293.412 697.693 292.889 697.385C292.366 697.077 291.956 696.647 291.657 696.097C291.368 695.546 291.223 694.907 291.223 694.179C291.223 693.432 291.368 692.783 291.657 692.233C291.956 691.673 292.366 691.239 292.889 690.931C293.412 690.613 294.018 690.455 294.709 690.455C295.4 690.455 295.992 690.609 296.487 690.917C296.982 691.225 297.364 691.635 297.635 692.149C297.906 692.653 298.041 693.213 298.041 693.829C298.041 693.922 298.036 694.025 298.027 694.137C298.027 694.239 298.022 694.356 298.013 694.487H292.245V693.493H296.641C296.613 692.905 296.417 692.447 296.053 692.121C295.689 691.785 295.236 691.617 294.695 691.617C294.312 691.617 293.962 691.705 293.645 691.883C293.328 692.051 293.071 692.303 292.875 692.639C292.688 692.965 292.595 693.381 292.595 693.885V694.277C292.595 694.799 292.688 695.243 292.875 695.607C293.071 695.961 293.328 696.232 293.645 696.419C293.962 696.596 294.308 696.685 294.681 696.685C295.129 696.685 295.498 696.587 295.787 696.391C296.076 696.195 296.291 695.929 296.431 695.593H297.831C297.71 696.022 297.504 696.409 297.215 696.755C296.926 697.091 296.566 697.357 296.137 697.553C295.717 697.749 295.232 697.847 294.681 697.847ZM302.789 697.847C302.117 697.847 301.519 697.693 300.997 697.385C300.474 697.077 300.063 696.647 299.765 696.097C299.475 695.546 299.331 694.907 299.331 694.179C299.331 693.432 299.475 692.783 299.765 692.233C300.063 691.673 300.474 691.239 300.997 690.931C301.519 690.613 302.126 690.455 302.817 690.455C303.507 690.455 304.1 690.609 304.595 690.917C305.089 691.225 305.472 691.635 305.743 692.149C306.013 692.653 306.149 693.213 306.149 693.829C306.149 693.922 306.144 694.025 306.135 694.137C306.135 694.239 306.13 694.356 306.121 694.487H300.353V693.493H304.749C304.721 692.905 304.525 692.447 304.161 692.121C303.797 691.785 303.344 691.617 302.803 691.617C302.42 691.617 302.07 691.705 301.753 691.883C301.435 692.051 301.179 692.303 300.983 692.639C300.796 692.965 300.703 693.381 300.703 693.885V694.277C300.703 694.799 300.796 695.243 300.983 695.607C301.179 695.961 301.435 696.232 301.753 696.419C302.07 696.596 302.415 696.685 302.789 696.685C303.237 696.685 303.605 696.587 303.895 696.391C304.184 696.195 304.399 695.929 304.539 695.593H305.939C305.817 696.022 305.612 696.409 305.323 696.755C305.033 697.091 304.674 697.357 304.245 697.553C303.825 697.749 303.339 697.847 302.789 697.847ZM315.654 697.847C314.693 697.847 313.862 697.637 313.162 697.217C312.471 696.787 311.935 696.195 311.552 695.439C311.179 694.673 310.992 693.787 310.992 692.779C310.992 691.78 311.179 690.898 311.552 690.133C311.935 689.367 312.471 688.775 313.162 688.355C313.862 687.925 314.693 687.711 315.654 687.711C316.802 687.711 317.731 687.986 318.44 688.537C319.159 689.087 319.616 689.862 319.812 690.861H318.272C318.132 690.282 317.843 689.82 317.404 689.475C316.975 689.129 316.391 688.957 315.654 688.957C314.991 688.957 314.417 689.111 313.932 689.419C313.447 689.727 313.073 690.165 312.812 690.735C312.551 691.304 312.42 691.985 312.42 692.779C312.42 693.572 312.551 694.258 312.812 694.837C313.073 695.406 313.447 695.845 313.932 696.153C314.417 696.451 314.991 696.601 315.654 696.601C316.391 696.601 316.975 696.437 317.404 696.111C317.843 695.775 318.132 695.322 318.272 694.753H319.812C319.616 695.723 319.159 696.484 318.44 697.035C317.731 697.576 316.802 697.847 315.654 697.847ZM324.637 697.847C323.974 697.847 323.377 697.693 322.845 697.385C322.322 697.077 321.907 696.647 321.599 696.097C321.3 695.537 321.151 694.893 321.151 694.165C321.151 693.418 321.305 692.769 321.613 692.219C321.921 691.659 322.341 691.225 322.873 690.917C323.405 690.609 324.002 690.455 324.665 690.455C325.337 690.455 325.934 690.609 326.457 690.917C326.98 691.225 327.39 691.654 327.689 692.205C327.997 692.755 328.151 693.404 328.151 694.151C328.151 694.897 327.997 695.546 327.689 696.097C327.39 696.647 326.975 697.077 326.443 697.385C325.911 697.693 325.309 697.847 324.637 697.847ZM324.637 696.643C325.02 696.643 325.365 696.549 325.673 696.363C325.99 696.176 326.242 695.901 326.429 695.537C326.625 695.163 326.723 694.701 326.723 694.151C326.723 693.6 326.63 693.143 326.443 692.779C326.256 692.405 326.004 692.125 325.687 691.939C325.379 691.752 325.038 691.659 324.665 691.659C324.292 691.659 323.946 691.752 323.629 691.939C323.312 692.125 323.055 692.405 322.859 692.779C322.672 693.143 322.579 693.6 322.579 694.151C322.579 694.701 322.672 695.163 322.859 695.537C323.055 695.901 323.307 696.176 323.615 696.363C323.932 696.549 324.273 696.643 324.637 696.643ZM329.798 697.679V690.623H331.058L331.142 691.827C331.366 691.407 331.683 691.075 332.094 690.833C332.504 690.581 332.976 690.455 333.508 690.455C334.068 690.455 334.548 690.567 334.95 690.791C335.351 691.015 335.664 691.355 335.888 691.813C336.112 692.261 336.224 692.825 336.224 693.507V697.679H334.824V693.647C334.824 692.993 334.679 692.499 334.39 692.163C334.1 691.827 333.68 691.659 333.13 691.659C332.766 691.659 332.439 691.747 332.15 691.925C331.86 692.093 331.627 692.345 331.45 692.681C331.282 693.017 331.198 693.427 331.198 693.913V697.679H329.798ZM340.745 697.847C340.147 697.847 339.625 697.749 339.177 697.553C338.729 697.357 338.374 697.081 338.113 696.727C337.851 696.372 337.693 695.957 337.637 695.481H339.065C339.111 695.705 339.2 695.91 339.331 696.097C339.471 696.283 339.657 696.433 339.891 696.545C340.133 696.657 340.418 696.713 340.745 696.713C341.053 696.713 341.305 696.671 341.501 696.587C341.706 696.493 341.855 696.372 341.949 696.223C342.042 696.064 342.089 695.896 342.089 695.719C342.089 695.457 342.023 695.261 341.893 695.131C341.771 694.991 341.585 694.883 341.333 694.809C341.09 694.725 340.796 694.65 340.451 694.585C340.124 694.529 339.807 694.454 339.499 694.361C339.2 694.258 338.929 694.132 338.687 693.983C338.453 693.833 338.267 693.647 338.127 693.423C337.987 693.189 337.917 692.905 337.917 692.569C337.917 692.167 338.024 691.808 338.239 691.491C338.453 691.164 338.757 690.912 339.149 690.735C339.55 690.548 340.021 690.455 340.562 690.455C341.347 690.455 341.977 690.641 342.453 691.015C342.929 691.388 343.209 691.915 343.293 692.597H341.935C341.897 692.279 341.757 692.037 341.515 691.869C341.272 691.691 340.95 691.603 340.549 691.603C340.147 691.603 339.839 691.682 339.625 691.841C339.41 691.999 339.303 692.209 339.303 692.471C339.303 692.639 339.363 692.788 339.485 692.919C339.606 693.049 339.783 693.161 340.017 693.255C340.259 693.339 340.553 693.418 340.899 693.493C341.393 693.586 341.837 693.703 342.229 693.843C342.621 693.983 342.933 694.188 343.167 694.459C343.4 694.729 343.517 695.117 343.517 695.621C343.526 696.059 343.414 696.447 343.181 696.783C342.957 697.119 342.635 697.38 342.215 697.567C341.804 697.753 341.314 697.847 340.745 697.847ZM347.755 697.847C347.204 697.847 346.724 697.735 346.313 697.511C345.912 697.287 345.599 696.951 345.375 696.503C345.16 696.055 345.053 695.49 345.053 694.809V690.623H346.453V694.655C346.453 695.317 346.598 695.817 346.887 696.153C347.176 696.489 347.592 696.657 348.133 696.657C348.497 696.657 348.824 696.568 349.113 696.391C349.412 696.213 349.645 695.957 349.813 695.621C349.981 695.285 350.065 694.874 350.065 694.389V690.623H351.465V697.679H350.219L350.121 696.475C349.906 696.904 349.594 697.24 349.183 697.483C348.772 697.725 348.296 697.847 347.755 697.847ZM353.382 697.679V687.599H354.782V697.679H353.382ZM359.616 697.679C359.168 697.679 358.781 697.609 358.454 697.469C358.127 697.329 357.875 697.095 357.698 696.769C357.521 696.442 357.432 695.999 357.432 695.439V691.813H356.214V690.623H357.432L357.6 688.859H358.832V690.623H360.834V691.813H358.832V695.453C358.832 695.854 358.916 696.129 359.084 696.279C359.252 696.419 359.541 696.489 359.952 696.489H360.764V697.679H359.616ZM364.716 697.847C364.137 697.847 363.656 697.749 363.274 697.553C362.891 697.357 362.606 697.095 362.42 696.769C362.233 696.433 362.14 696.073 362.14 695.691C362.14 695.224 362.261 694.827 362.504 694.501C362.746 694.165 363.092 693.908 363.54 693.731C363.988 693.553 364.524 693.465 365.15 693.465H366.984C366.984 693.054 366.923 692.713 366.802 692.443C366.68 692.172 366.498 691.971 366.256 691.841C366.022 691.701 365.724 691.631 365.36 691.631C364.94 691.631 364.58 691.733 364.282 691.939C363.983 692.135 363.796 692.429 363.722 692.821H362.322C362.378 692.326 362.546 691.906 362.826 691.561C363.115 691.206 363.484 690.935 363.932 690.749C364.38 690.553 364.856 690.455 365.36 690.455C366.022 690.455 366.578 690.571 367.026 690.805C367.474 691.038 367.81 691.369 368.034 691.799C368.267 692.219 368.384 692.723 368.384 693.311V697.679H367.166L367.054 696.489C366.951 696.675 366.83 696.853 366.69 697.021C366.55 697.189 366.382 697.333 366.186 697.455C365.999 697.576 365.78 697.669 365.528 697.735C365.285 697.809 365.014 697.847 364.716 697.847ZM364.982 696.713C365.28 696.713 365.551 696.652 365.794 696.531C366.036 696.409 366.242 696.246 366.41 696.041C366.587 695.826 366.718 695.588 366.802 695.327C366.895 695.056 366.946 694.781 366.956 694.501V694.459H365.29C364.888 694.459 364.562 694.51 364.31 694.613C364.067 694.706 363.89 694.837 363.778 695.005C363.666 695.173 363.61 695.369 363.61 695.593C363.61 695.826 363.661 696.027 363.764 696.195C363.876 696.353 364.034 696.479 364.24 696.573C364.445 696.666 364.692 696.713 364.982 696.713ZM372.932 697.679C372.484 697.679 372.097 697.609 371.77 697.469C371.444 697.329 371.192 697.095 371.014 696.769C370.837 696.442 370.748 695.999 370.748 695.439V691.813H369.53V690.623H370.748L370.916 688.859H372.148V690.623H374.15V691.813H372.148V695.453C372.148 695.854 372.232 696.129 372.4 696.279C372.568 696.419 372.858 696.489 373.268 696.489H374.08V697.679H372.932ZM375.792 697.679V690.623H377.192V697.679H375.792ZM376.506 689.293C376.236 689.293 376.012 689.209 375.834 689.041C375.666 688.873 375.582 688.658 375.582 688.397C375.582 688.145 375.666 687.939 375.834 687.781C376.012 687.613 376.236 687.529 376.506 687.529C376.768 687.529 376.987 687.613 377.164 687.781C377.342 687.939 377.43 688.145 377.43 688.397C377.43 688.658 377.342 688.873 377.164 689.041C376.987 689.209 376.768 689.293 376.506 689.293ZM382.414 697.847C381.752 697.847 381.154 697.693 380.622 697.385C380.1 697.077 379.684 696.647 379.376 696.097C379.078 695.537 378.928 694.893 378.928 694.165C378.928 693.418 379.082 692.769 379.39 692.219C379.698 691.659 380.118 691.225 380.65 690.917C381.182 690.609 381.78 690.455 382.442 690.455C383.114 690.455 383.712 690.609 384.234 690.917C384.757 691.225 385.168 691.654 385.466 692.205C385.774 692.755 385.928 693.404 385.928 694.151C385.928 694.897 385.774 695.546 385.466 696.097C385.168 696.647 384.752 697.077 384.22 697.385C383.688 697.693 383.086 697.847 382.414 697.847ZM382.414 696.643C382.797 696.643 383.142 696.549 383.45 696.363C383.768 696.176 384.02 695.901 384.206 695.537C384.402 695.163 384.5 694.701 384.5 694.151C384.5 693.6 384.407 693.143 384.22 692.779C384.034 692.405 383.782 692.125 383.464 691.939C383.156 691.752 382.816 691.659 382.442 691.659C382.069 691.659 381.724 691.752 381.406 691.939C381.089 692.125 380.832 692.405 380.636 692.779C380.45 693.143 380.356 693.6 380.356 694.151C380.356 694.701 380.45 695.163 380.636 695.537C380.832 695.901 381.084 696.176 381.392 696.363C381.71 696.549 382.05 696.643 382.414 696.643ZM387.575 697.679V690.623H388.835L388.919 691.827C389.143 691.407 389.46 691.075 389.871 690.833C390.282 690.581 390.753 690.455 391.285 690.455C391.845 690.455 392.326 690.567 392.727 690.791C393.128 691.015 393.441 691.355 393.665 691.813C393.889 692.261 394.001 692.825 394.001 693.507V697.679H392.601V693.647C392.601 692.993 392.456 692.499 392.167 692.163C391.878 691.827 391.458 691.659 390.907 691.659C390.543 691.659 390.216 691.747 389.927 691.925C389.638 692.093 389.404 692.345 389.227 692.681C389.059 693.017 388.975 693.427 388.975 693.913V697.679H387.575Z" fill="white"/>
</g>
<defs>
<filter id="filter0_d_90_893" x="0" y="0.678711" width="672" height="773" filterUnits="userSpaceOnUse" color-interpolation-filters="sRGB">
<feFlood flood-opacity="0" result="BackgroundImageFix"/>
<feColorMatrix in="SourceAlpha" type="matrix" values="0 0 0 0 0 0 0 0 0 0 0 0 0 0 0 0 0 0 127 0" result="hardAlpha"/>
<feOffset dx="16" dy="16"/>
<feComposite in2="hardAlpha" operator="out"/>
<feColorMatrix type="matrix" values="0 0 0 0 0.0761835 0 0 0 0 0.238928 0 0 0 0 0.758162 0 0 0 0.5 0"/>
<feBlend mode="normal" in2="BackgroundImageFix" result="effect1_dropShadow_90_893"/>
<feBlend mode="normal" in="SourceGraphic" in2="effect1_dropShadow_90_893" result="shape"/>
</filter>
</defs>
</svg>
