<svg width="427" height="194" viewBox="0 0 427 194" fill="none" xmlns="http://www.w3.org/2000/svg">
<g filter="url(#filter0_d_92_1768)">
<rect y="0.678955" width="417" height="183" fill="white" shape-rendering="crispEdges"/>
<rect x="2" y="2.67896" width="413" height="179" stroke="#1B1B1B" stroke-width="4" shape-rendering="crispEdges"/>
<rect width="369" height="135" transform="translate(24 24.679)" fill="#FFD352"/>
<path d="M53 40.679L55.9187 49.6617H65.3637L57.7225 55.2134L60.6412 64.1962L53 58.6445L45.3588 64.1962L48.2775 55.2134L40.6363 49.6617H50.0813L53 40.679Z" fill="#E62C31"/>
<path d="M82 40.679L84.9187 49.6617H94.3637L86.7225 55.2134L89.6412 64.1962L82 58.6445L74.3588 64.1962L77.2775 55.2134L69.6363 49.6617H79.0813L82 40.679Z" fill="#E62C31"/>
<path d="M111 40.679L113.919 49.6617H123.364L115.723 55.2134L118.641 64.1962L111 58.6445L103.359 64.1962L106.277 55.2134L98.6363 49.6617H108.081L111 40.679Z" fill="#E62C31"/>
<path d="M140 40.679L142.919 49.6617H152.364L144.723 55.2134L147.641 64.1962L140 58.6445L132.359 64.1962L135.277 55.2134L127.636 49.6617H137.081L140 40.679Z" fill="#E62C31"/>
<path d="M169 40.679L171.919 49.6617H181.364L173.723 55.2134L176.641 64.1962L169 58.6445L161.359 64.1962L164.277 55.2134L156.636 49.6617H166.081L169 40.679Z" fill="#E62C31"/>
<path d="M40.612 92.679L42.844 80.079H50.242L50.062 81.087H43.906L43.078 85.857H48.352L48.172 86.847H42.898L41.872 92.679H40.612ZM49.9606 92.679L51.5626 83.607H52.7146L52.5166 85.245C52.7926 84.849 53.1166 84.513 53.4886 84.237C53.8726 83.961 54.2986 83.751 54.7666 83.607C55.2466 83.463 55.7686 83.391 56.3326 83.391L56.1166 84.705H55.6306C55.2346 84.705 54.8446 84.753 54.4606 84.849C54.0886 84.945 53.7406 85.107 53.4166 85.335C53.1046 85.551 52.8346 85.845 52.6066 86.217C52.3786 86.589 52.2166 87.051 52.1206 87.603L51.2206 92.679H49.9606ZM60.1106 92.895C59.3546 92.895 58.6826 92.721 58.0946 92.373C57.5186 92.025 57.0806 91.539 56.7806 90.915C56.4806 90.279 56.3546 89.559 56.4026 88.755C56.4266 87.975 56.5826 87.261 56.8706 86.613C57.1586 85.953 57.5366 85.383 58.0046 84.903C58.4846 84.423 59.0366 84.051 59.6606 83.787C60.2846 83.523 60.9506 83.391 61.6586 83.391C62.4386 83.391 63.1106 83.565 63.6746 83.913C64.2506 84.249 64.6886 84.723 64.9886 85.335C65.3006 85.947 65.4326 86.667 65.3846 87.495C65.3486 88.275 65.1866 88.995 64.8986 89.655C64.6226 90.303 64.2446 90.873 63.7646 91.365C63.2846 91.845 62.7326 92.223 62.1086 92.499C61.4966 92.763 60.8306 92.895 60.1106 92.895ZM60.2726 91.815C60.9686 91.815 61.5926 91.635 62.1446 91.275C62.7086 90.915 63.1646 90.417 63.5126 89.781C63.8606 89.145 64.0526 88.407 64.0886 87.567C64.1246 86.907 64.0286 86.349 63.8006 85.893C63.5726 85.425 63.2546 85.077 62.8466 84.849C62.4506 84.609 62.0006 84.489 61.4966 84.489C60.8246 84.489 60.2066 84.669 59.6426 85.029C59.0906 85.389 58.6346 85.887 58.2746 86.523C57.9266 87.159 57.7346 87.891 57.6986 88.719C57.6626 89.391 57.7586 89.955 57.9866 90.411C58.2146 90.867 58.5266 91.215 58.9226 91.455C59.3306 91.695 59.7806 91.815 60.2726 91.815ZM66.695 92.679L68.297 83.607H69.431L69.269 85.137C69.629 84.585 70.073 84.159 70.601 83.859C71.129 83.547 71.693 83.391 72.293 83.391C72.737 83.391 73.133 83.457 73.481 83.589C73.841 83.721 74.147 83.925 74.399 84.201C74.651 84.477 74.825 84.831 74.921 85.263C75.305 84.675 75.797 84.219 76.397 83.895C76.997 83.559 77.609 83.391 78.233 83.391C78.869 83.391 79.415 83.529 79.871 83.805C80.339 84.081 80.675 84.501 80.879 85.065C81.083 85.629 81.107 86.343 80.951 87.207L79.979 92.679H78.719L79.655 87.351C79.823 86.391 79.751 85.677 79.439 85.209C79.139 84.729 78.647 84.489 77.963 84.489C77.531 84.489 77.105 84.609 76.685 84.849C76.265 85.077 75.893 85.419 75.569 85.875C75.257 86.331 75.023 86.883 74.867 87.531L73.967 92.679H72.707L73.643 87.351C73.811 86.391 73.739 85.677 73.427 85.209C73.127 84.729 72.647 84.489 71.987 84.489C71.519 84.489 71.063 84.621 70.619 84.885C70.187 85.137 69.809 85.515 69.485 86.019C69.161 86.511 68.933 87.123 68.801 87.855L67.955 92.679H66.695ZM92.221 92.895C91.693 92.895 91.219 92.805 90.799 92.625C90.379 92.433 90.031 92.193 89.755 91.905C89.479 91.605 89.281 91.305 89.161 91.005L88.747 92.679H87.613L89.899 79.719H91.141L90.187 85.209C90.571 84.681 91.051 84.249 91.627 83.913C92.215 83.565 92.917 83.391 93.733 83.391C94.537 83.391 95.215 83.571 95.767 83.931C96.319 84.291 96.727 84.783 96.991 85.407C97.267 86.019 97.381 86.715 97.333 87.495C97.309 88.263 97.159 88.977 96.883 89.637C96.619 90.297 96.253 90.873 95.785 91.365C95.329 91.845 94.795 92.223 94.183 92.499C93.583 92.763 92.929 92.895 92.221 92.895ZM92.329 91.797C93.013 91.797 93.625 91.623 94.165 91.275C94.717 90.915 95.161 90.423 95.497 89.799C95.833 89.163 96.019 88.443 96.055 87.639C96.091 87.015 96.007 86.469 95.803 86.001C95.599 85.521 95.299 85.149 94.903 84.885C94.507 84.621 94.033 84.489 93.481 84.489C92.785 84.489 92.155 84.675 91.591 85.047C91.039 85.407 90.589 85.911 90.241 86.559C89.905 87.195 89.719 87.915 89.683 88.719C89.647 89.343 89.731 89.889 89.935 90.357C90.151 90.813 90.463 91.167 90.871 91.419C91.279 91.671 91.765 91.797 92.329 91.797ZM98.8316 92.679L100.434 83.607H101.694L100.092 92.679H98.8316ZM101.604 81.465C101.352 81.465 101.136 81.381 100.956 81.213C100.788 81.033 100.704 80.811 100.704 80.547C100.704 80.271 100.788 80.055 100.956 79.899C101.136 79.731 101.352 79.647 101.604 79.647C101.856 79.647 102.072 79.731 102.252 79.899C102.432 80.055 102.522 80.271 102.522 80.547C102.522 80.811 102.432 81.033 102.252 81.213C102.072 81.381 101.856 81.465 101.604 81.465ZM105.481 96.855C104.737 96.855 104.083 96.747 103.519 96.531C102.967 96.327 102.541 96.027 102.241 95.631C101.941 95.247 101.803 94.773 101.827 94.209C101.851 93.825 101.941 93.459 102.097 93.111C102.241 92.775 102.469 92.457 102.781 92.157C103.105 91.845 103.501 91.557 103.969 91.293L104.905 91.743C104.329 92.043 103.897 92.379 103.609 92.751C103.321 93.135 103.165 93.549 103.141 93.993C103.129 94.365 103.219 94.683 103.411 94.947C103.615 95.223 103.903 95.433 104.275 95.577C104.659 95.721 105.121 95.793 105.661 95.793C106.561 95.793 107.287 95.595 107.839 95.199C108.403 94.803 108.697 94.275 108.721 93.615C108.745 93.219 108.613 92.877 108.325 92.589C108.037 92.289 107.455 92.115 106.579 92.067C106.003 92.019 105.499 91.959 105.067 91.887C104.647 91.803 104.281 91.707 103.969 91.599C103.669 91.491 103.405 91.371 103.177 91.239C102.961 91.095 102.769 90.933 102.601 90.753L102.673 90.339L104.563 88.863L105.607 89.277L103.681 90.717L103.879 90.123C104.047 90.231 104.209 90.333 104.365 90.429C104.521 90.513 104.701 90.591 104.905 90.663C105.109 90.735 105.355 90.795 105.643 90.843C105.943 90.891 106.321 90.933 106.777 90.969C107.653 91.029 108.331 91.185 108.811 91.437C109.291 91.677 109.621 91.983 109.801 92.355C109.981 92.715 110.059 93.105 110.035 93.525C110.011 94.137 109.807 94.695 109.423 95.199C109.051 95.703 108.529 96.105 107.857 96.405C107.185 96.705 106.393 96.855 105.481 96.855ZM106.705 89.799C106.009 89.799 105.433 89.679 104.977 89.439C104.521 89.199 104.185 88.869 103.969 88.449C103.753 88.029 103.663 87.561 103.699 87.045C103.723 86.349 103.915 85.731 104.275 85.191C104.647 84.639 105.139 84.201 105.751 83.877C106.363 83.553 107.059 83.391 107.839 83.391C108.535 83.391 109.105 83.511 109.549 83.751C110.005 83.991 110.341 84.321 110.557 84.741C110.773 85.149 110.863 85.623 110.827 86.163C110.803 86.835 110.611 87.447 110.251 87.999C109.891 88.551 109.405 88.989 108.793 89.313C108.181 89.637 107.485 89.799 106.705 89.799ZM106.903 88.719C107.671 88.719 108.295 88.497 108.775 88.053C109.267 87.597 109.531 86.997 109.567 86.253C109.603 85.665 109.447 85.221 109.099 84.921C108.763 84.621 108.277 84.471 107.641 84.471C106.873 84.471 106.243 84.693 105.751 85.137C105.259 85.581 104.995 86.187 104.959 86.955C104.923 87.531 105.073 87.969 105.409 88.269C105.757 88.569 106.255 88.719 106.903 88.719ZM109.081 84.723L108.829 83.607H112.501L112.303 84.615L109.081 84.723ZM118.132 92.679L119.734 83.607H120.994L119.392 92.679H118.132ZM120.904 81.465C120.652 81.465 120.436 81.381 120.256 81.213C120.088 81.033 120.004 80.811 120.004 80.547C120.004 80.271 120.088 80.055 120.256 79.899C120.436 79.731 120.652 79.647 120.904 79.647C121.156 79.647 121.372 79.731 121.552 79.899C121.732 80.055 121.822 80.271 121.822 80.547C121.822 80.811 121.732 81.033 121.552 81.213C121.372 81.381 121.156 81.465 120.904 81.465ZM126.114 92.895C125.322 92.895 124.65 92.709 124.098 92.337C123.546 91.953 123.132 91.443 122.856 90.807C122.592 90.171 122.478 89.469 122.514 88.701C122.55 87.921 122.7 87.213 122.964 86.577C123.24 85.929 123.606 85.365 124.062 84.885C124.518 84.405 125.046 84.039 125.646 83.787C126.258 83.523 126.912 83.391 127.608 83.391C128.412 83.391 129.066 83.559 129.57 83.895C130.086 84.231 130.458 84.693 130.686 85.281L131.694 79.719H132.954L130.65 92.679H129.498L129.678 91.041C129.438 91.353 129.15 91.653 128.814 91.941C128.49 92.229 128.1 92.463 127.644 92.643C127.188 92.811 126.678 92.895 126.114 92.895ZM126.402 91.797C127.11 91.797 127.74 91.611 128.292 91.239C128.844 90.867 129.282 90.357 129.606 89.709C129.942 89.061 130.134 88.335 130.182 87.531C130.206 86.907 130.122 86.373 129.93 85.929C129.738 85.473 129.444 85.119 129.048 84.867C128.652 84.615 128.166 84.489 127.59 84.489C126.894 84.489 126.27 84.669 125.718 85.029C125.166 85.377 124.716 85.863 124.368 86.487C124.032 87.099 123.846 87.813 123.81 88.629C123.774 89.241 123.858 89.787 124.062 90.267C124.266 90.747 124.572 91.125 124.98 91.401C125.388 91.665 125.862 91.797 126.402 91.797ZM137.098 92.895C136.342 92.895 135.694 92.727 135.154 92.391C134.614 92.055 134.206 91.581 133.93 90.969C133.654 90.357 133.54 89.643 133.588 88.827C133.612 88.047 133.762 87.327 134.038 86.667C134.314 86.007 134.68 85.431 135.136 84.939C135.604 84.447 136.144 84.069 136.756 83.805C137.368 83.529 138.034 83.391 138.754 83.391C139.582 83.391 140.254 83.559 140.77 83.895C141.286 84.231 141.664 84.675 141.904 85.227C142.156 85.767 142.258 86.373 142.21 87.045C142.21 87.237 142.186 87.465 142.138 87.729C142.102 87.981 142.06 88.215 142.012 88.431H134.56L134.74 87.369H140.986C141.07 86.733 141.022 86.205 140.842 85.785C140.662 85.353 140.374 85.029 139.978 84.813C139.594 84.585 139.126 84.471 138.574 84.471C138.034 84.471 137.512 84.597 137.008 84.849C136.504 85.089 136.066 85.449 135.694 85.929C135.334 86.397 135.088 86.991 134.956 87.711L134.866 88.179C134.746 88.911 134.764 89.553 134.92 90.105C135.076 90.645 135.358 91.065 135.766 91.365C136.174 91.665 136.684 91.815 137.296 91.815C137.98 91.815 138.568 91.665 139.06 91.365C139.564 91.053 139.96 90.627 140.248 90.087H141.472C141.232 90.615 140.902 91.095 140.482 91.527C140.062 91.959 139.564 92.295 138.988 92.535C138.424 92.775 137.794 92.895 137.098 92.895ZM146.162 92.895C145.502 92.895 144.962 92.775 144.542 92.535C144.122 92.295 143.816 91.983 143.624 91.599C143.432 91.215 143.348 90.807 143.372 90.375C143.396 89.703 143.594 89.133 143.966 88.665C144.35 88.185 144.866 87.825 145.514 87.585C146.162 87.333 146.906 87.207 147.746 87.207H150.194C150.302 86.595 150.296 86.091 150.176 85.695C150.068 85.287 149.858 84.981 149.546 84.777C149.246 84.573 148.838 84.471 148.322 84.471C147.698 84.471 147.134 84.627 146.63 84.939C146.138 85.251 145.784 85.707 145.568 86.307H144.254C144.446 85.671 144.752 85.137 145.172 84.705C145.604 84.273 146.108 83.949 146.684 83.733C147.26 83.505 147.854 83.391 148.466 83.391C149.27 83.391 149.918 83.547 150.41 83.859C150.902 84.159 151.232 84.585 151.4 85.137C151.58 85.689 151.604 86.337 151.472 87.081L150.5 92.679H149.348L149.564 91.023C149.396 91.275 149.204 91.515 148.988 91.743C148.772 91.971 148.526 92.169 148.25 92.337C147.974 92.505 147.662 92.637 147.314 92.733C146.966 92.841 146.582 92.895 146.162 92.895ZM146.45 91.797C146.906 91.797 147.326 91.707 147.71 91.527C148.094 91.335 148.442 91.089 148.754 90.789C149.066 90.489 149.318 90.153 149.51 89.781C149.714 89.397 149.858 89.001 149.942 88.593L150.014 88.269H147.656C147.032 88.269 146.504 88.353 146.072 88.521C145.64 88.677 145.304 88.905 145.064 89.205C144.836 89.493 144.716 89.841 144.704 90.249C144.68 90.717 144.812 91.095 145.1 91.383C145.388 91.659 145.838 91.797 146.45 91.797ZM156.386 92.895C155.642 92.895 155.012 92.775 154.496 92.535C153.992 92.283 153.614 91.923 153.362 91.455C153.122 90.975 153.026 90.411 153.074 89.763H154.37C154.346 90.123 154.4 90.459 154.532 90.771C154.676 91.083 154.916 91.335 155.252 91.527C155.588 91.707 156.032 91.797 156.584 91.797C157.04 91.797 157.436 91.725 157.772 91.581C158.108 91.437 158.372 91.239 158.564 90.987C158.768 90.723 158.876 90.417 158.888 90.069C158.912 89.733 158.84 89.469 158.672 89.277C158.516 89.085 158.282 88.935 157.97 88.827C157.658 88.707 157.28 88.605 156.836 88.521C156.464 88.461 156.11 88.371 155.774 88.251C155.45 88.131 155.162 87.981 154.91 87.801C154.658 87.609 154.46 87.375 154.316 87.099C154.184 86.823 154.124 86.499 154.136 86.127C154.16 85.611 154.328 85.149 154.64 84.741C154.952 84.333 155.372 84.009 155.9 83.769C156.428 83.517 157.028 83.391 157.7 83.391C158.624 83.391 159.356 83.625 159.896 84.093C160.448 84.549 160.694 85.221 160.634 86.109H159.356C159.392 85.617 159.254 85.227 158.942 84.939C158.63 84.651 158.168 84.507 157.556 84.507C156.944 84.507 156.446 84.645 156.062 84.921C155.678 85.197 155.48 85.539 155.468 85.947C155.456 86.211 155.516 86.439 155.648 86.631C155.792 86.811 156.014 86.961 156.314 87.081C156.614 87.201 156.986 87.309 157.43 87.405C157.814 87.477 158.18 87.573 158.528 87.693C158.876 87.813 159.176 87.969 159.428 88.161C159.692 88.341 159.896 88.575 160.04 88.863C160.184 89.139 160.244 89.487 160.22 89.907C160.184 90.507 159.998 91.035 159.662 91.491C159.326 91.935 158.876 92.283 158.312 92.535C157.748 92.775 157.106 92.895 156.386 92.895ZM170.644 92.679C170.056 92.679 169.582 92.589 169.222 92.409C168.874 92.217 168.64 91.929 168.52 91.545C168.412 91.149 168.412 90.645 168.52 90.033L169.456 84.687H168.016L168.214 83.607H169.654L170.194 81.501H171.292L170.914 83.607H173.632L173.452 84.687H170.734L169.78 90.033C169.672 90.633 169.714 91.047 169.906 91.275C170.11 91.491 170.5 91.599 171.076 91.599H172.21L172.012 92.679H170.644ZM177.814 92.895C177.058 92.895 176.386 92.721 175.798 92.373C175.222 92.025 174.784 91.539 174.484 90.915C174.184 90.279 174.058 89.559 174.106 88.755C174.13 87.975 174.286 87.261 174.574 86.613C174.862 85.953 175.24 85.383 175.708 84.903C176.188 84.423 176.74 84.051 177.364 83.787C177.988 83.523 178.654 83.391 179.362 83.391C180.142 83.391 180.814 83.565 181.378 83.913C181.954 84.249 182.392 84.723 182.692 85.335C183.004 85.947 183.136 86.667 183.088 87.495C183.052 88.275 182.89 88.995 182.602 89.655C182.326 90.303 181.948 90.873 181.468 91.365C180.988 91.845 180.436 92.223 179.812 92.499C179.2 92.763 178.534 92.895 177.814 92.895ZM177.976 91.815C178.672 91.815 179.296 91.635 179.848 91.275C180.412 90.915 180.868 90.417 181.216 89.781C181.564 89.145 181.756 88.407 181.792 87.567C181.828 86.907 181.732 86.349 181.504 85.893C181.276 85.425 180.958 85.077 180.55 84.849C180.154 84.609 179.704 84.489 179.2 84.489C178.528 84.489 177.91 84.669 177.346 85.029C176.794 85.389 176.338 85.887 175.978 86.523C175.63 87.159 175.438 87.891 175.402 88.719C175.366 89.391 175.462 89.955 175.69 90.411C175.918 90.867 176.23 91.215 176.626 91.455C177.034 91.695 177.484 91.815 177.976 91.815ZM193.038 92.679C192.45 92.679 191.976 92.589 191.616 92.409C191.268 92.217 191.034 91.929 190.914 91.545C190.806 91.149 190.806 90.645 190.914 90.033L191.85 84.687H190.41L190.608 83.607H192.048L192.588 81.501H193.686L193.308 83.607H196.026L195.846 84.687H193.128L192.174 90.033C192.066 90.633 192.108 91.047 192.3 91.275C192.504 91.491 192.894 91.599 193.47 91.599H194.604L194.406 92.679H193.038ZM196.566 92.679L198.168 83.607H199.428L197.826 92.679H196.566ZM199.338 81.465C199.086 81.465 198.87 81.381 198.69 81.213C198.522 81.033 198.438 80.811 198.438 80.547C198.438 80.271 198.522 80.055 198.69 79.899C198.87 79.731 199.086 79.647 199.338 79.647C199.59 79.647 199.806 79.731 199.986 79.899C200.166 80.055 200.256 80.271 200.256 80.547C200.256 80.811 200.166 81.033 199.986 81.213C199.806 81.381 199.59 81.465 199.338 81.465ZM200.588 92.679L202.19 83.607H203.324L203.126 85.245C203.51 84.657 204.002 84.201 204.602 83.877C205.202 83.553 205.844 83.391 206.528 83.391C207.284 83.391 207.884 83.553 208.328 83.877C208.784 84.201 209.096 84.651 209.264 85.227C209.432 85.791 209.45 86.445 209.318 87.189L208.346 92.679H207.086L208.022 87.333C208.19 86.421 208.118 85.719 207.806 85.227C207.494 84.735 206.93 84.489 206.114 84.489C205.586 84.489 205.088 84.615 204.62 84.867C204.164 85.107 203.768 85.467 203.432 85.947C203.108 86.415 202.874 86.991 202.73 87.675L201.848 92.679H200.588ZM210.613 96.639L213.709 91.707H213.223L211.081 83.607H212.377L214.231 90.843L218.785 83.607H220.099L211.927 96.639H210.613ZM229.35 92.895C228.558 92.895 227.886 92.709 227.334 92.337C226.782 91.953 226.368 91.443 226.092 90.807C225.828 90.171 225.714 89.469 225.75 88.701C225.786 87.921 225.936 87.213 226.2 86.577C226.476 85.929 226.842 85.365 227.298 84.885C227.754 84.405 228.282 84.039 228.882 83.787C229.494 83.523 230.148 83.391 230.844 83.391C231.648 83.391 232.302 83.559 232.806 83.895C233.322 84.231 233.694 84.693 233.922 85.281L234.93 79.719H236.19L233.886 92.679H232.734L232.914 91.041C232.674 91.353 232.386 91.653 232.05 91.941C231.726 92.229 231.336 92.463 230.88 92.643C230.424 92.811 229.914 92.895 229.35 92.895ZM229.638 91.797C230.346 91.797 230.976 91.611 231.528 91.239C232.08 90.867 232.518 90.357 232.842 89.709C233.178 89.061 233.37 88.335 233.418 87.531C233.442 86.907 233.358 86.373 233.166 85.929C232.974 85.473 232.68 85.119 232.284 84.867C231.888 84.615 231.402 84.489 230.826 84.489C230.13 84.489 229.506 84.669 228.954 85.029C228.402 85.377 227.952 85.863 227.604 86.487C227.268 87.099 227.082 87.813 227.046 88.629C227.01 89.241 227.094 89.787 227.298 90.267C227.502 90.747 227.808 91.125 228.216 91.401C228.624 91.665 229.098 91.797 229.638 91.797ZM240.335 92.895C239.579 92.895 238.931 92.727 238.391 92.391C237.851 92.055 237.443 91.581 237.167 90.969C236.891 90.357 236.777 89.643 236.825 88.827C236.849 88.047 236.999 87.327 237.275 86.667C237.551 86.007 237.917 85.431 238.373 84.939C238.841 84.447 239.381 84.069 239.993 83.805C240.605 83.529 241.271 83.391 241.991 83.391C242.819 83.391 243.491 83.559 244.007 83.895C244.523 84.231 244.901 84.675 245.141 85.227C245.393 85.767 245.495 86.373 245.447 87.045C245.447 87.237 245.423 87.465 245.375 87.729C245.339 87.981 245.297 88.215 245.249 88.431H237.797L237.977 87.369H244.223C244.307 86.733 244.259 86.205 244.079 85.785C243.899 85.353 243.611 85.029 243.215 84.813C242.831 84.585 242.363 84.471 241.811 84.471C241.271 84.471 240.749 84.597 240.245 84.849C239.741 85.089 239.303 85.449 238.931 85.929C238.571 86.397 238.325 86.991 238.193 87.711L238.103 88.179C237.983 88.911 238.001 89.553 238.157 90.105C238.313 90.645 238.595 91.065 239.003 91.365C239.411 91.665 239.921 91.815 240.533 91.815C241.217 91.815 241.805 91.665 242.297 91.365C242.801 91.053 243.197 90.627 243.485 90.087H244.709C244.469 90.615 244.139 91.095 243.719 91.527C243.299 91.959 242.801 92.295 242.225 92.535C241.661 92.775 241.031 92.895 240.335 92.895ZM249.974 92.679C249.386 92.679 248.912 92.589 248.552 92.409C248.204 92.217 247.97 91.929 247.85 91.545C247.742 91.149 247.742 90.645 247.85 90.033L248.786 84.687H247.346L247.544 83.607H248.984L249.524 81.501H250.622L250.244 83.607H252.962L252.782 84.687H250.064L249.11 90.033C249.002 90.633 249.044 91.047 249.236 91.275C249.44 91.491 249.83 91.599 250.406 91.599H251.54L251.342 92.679H249.974ZM256.166 92.895C255.506 92.895 254.966 92.775 254.546 92.535C254.126 92.295 253.82 91.983 253.628 91.599C253.436 91.215 253.352 90.807 253.376 90.375C253.4 89.703 253.598 89.133 253.97 88.665C254.354 88.185 254.87 87.825 255.518 87.585C256.166 87.333 256.91 87.207 257.75 87.207H260.198C260.306 86.595 260.3 86.091 260.18 85.695C260.072 85.287 259.862 84.981 259.55 84.777C259.25 84.573 258.842 84.471 258.326 84.471C257.702 84.471 257.138 84.627 256.634 84.939C256.142 85.251 255.788 85.707 255.572 86.307H254.258C254.45 85.671 254.756 85.137 255.176 84.705C255.608 84.273 256.112 83.949 256.688 83.733C257.264 83.505 257.858 83.391 258.47 83.391C259.274 83.391 259.922 83.547 260.414 83.859C260.906 84.159 261.236 84.585 261.404 85.137C261.584 85.689 261.608 86.337 261.476 87.081L260.504 92.679H259.352L259.568 91.023C259.4 91.275 259.208 91.515 258.992 91.743C258.776 91.971 258.53 92.169 258.254 92.337C257.978 92.505 257.666 92.637 257.318 92.733C256.97 92.841 256.586 92.895 256.166 92.895ZM256.454 91.797C256.91 91.797 257.33 91.707 257.714 91.527C258.098 91.335 258.446 91.089 258.758 90.789C259.07 90.489 259.322 90.153 259.514 89.781C259.718 89.397 259.862 89.001 259.946 88.593L260.018 88.269H257.66C257.036 88.269 256.508 88.353 256.076 88.521C255.644 88.677 255.308 88.905 255.068 89.205C254.84 89.493 254.72 89.841 254.708 90.249C254.684 90.717 254.816 91.095 255.104 91.383C255.392 91.659 255.842 91.797 256.454 91.797ZM263.222 92.679L264.824 83.607H266.084L264.482 92.679H263.222ZM265.994 81.465C265.742 81.465 265.526 81.381 265.346 81.213C265.178 81.033 265.094 80.811 265.094 80.547C265.094 80.271 265.178 80.055 265.346 79.899C265.526 79.731 265.742 79.647 265.994 79.647C266.246 79.647 266.462 79.731 266.642 79.899C266.822 80.055 266.912 80.271 266.912 80.547C266.912 80.811 266.822 81.033 266.642 81.213C266.462 81.381 266.246 81.465 265.994 81.465ZM267.244 92.679L269.53 79.719H270.79L268.504 92.679H267.244ZM274.406 92.895C273.662 92.895 273.032 92.775 272.516 92.535C272.012 92.283 271.634 91.923 271.382 91.455C271.142 90.975 271.046 90.411 271.094 89.763H272.39C272.366 90.123 272.42 90.459 272.552 90.771C272.696 91.083 272.936 91.335 273.272 91.527C273.608 91.707 274.052 91.797 274.604 91.797C275.06 91.797 275.456 91.725 275.792 91.581C276.128 91.437 276.392 91.239 276.584 90.987C276.788 90.723 276.896 90.417 276.908 90.069C276.932 89.733 276.86 89.469 276.692 89.277C276.536 89.085 276.302 88.935 275.99 88.827C275.678 88.707 275.3 88.605 274.856 88.521C274.484 88.461 274.13 88.371 273.794 88.251C273.47 88.131 273.182 87.981 272.93 87.801C272.678 87.609 272.48 87.375 272.336 87.099C272.204 86.823 272.144 86.499 272.156 86.127C272.18 85.611 272.348 85.149 272.66 84.741C272.972 84.333 273.392 84.009 273.92 83.769C274.448 83.517 275.048 83.391 275.72 83.391C276.644 83.391 277.376 83.625 277.916 84.093C278.468 84.549 278.714 85.221 278.654 86.109H277.376C277.412 85.617 277.274 85.227 276.962 84.939C276.65 84.651 276.188 84.507 275.576 84.507C274.964 84.507 274.466 84.645 274.082 84.921C273.698 85.197 273.5 85.539 273.488 85.947C273.476 86.211 273.536 86.439 273.668 86.631C273.812 86.811 274.034 86.961 274.334 87.081C274.634 87.201 275.006 87.309 275.45 87.405C275.834 87.477 276.2 87.573 276.548 87.693C276.896 87.813 277.196 87.969 277.448 88.161C277.712 88.341 277.916 88.575 278.06 88.863C278.204 89.139 278.264 89.487 278.24 89.907C278.204 90.507 278.018 91.035 277.682 91.491C277.346 91.935 276.896 92.283 276.332 92.535C275.768 92.775 275.126 92.895 274.406 92.895ZM278.385 94.857L280.113 91.041H281.463L279.285 94.857H278.385ZM291.687 92.679C291.099 92.679 290.625 92.589 290.265 92.409C289.917 92.217 289.683 91.929 289.563 91.545C289.455 91.149 289.455 90.645 289.563 90.033L290.499 84.687H289.059L289.257 83.607H290.697L291.237 81.501H292.335L291.957 83.607H294.675L294.495 84.687H291.777L290.823 90.033C290.715 90.633 290.757 91.047 290.949 91.275C291.153 91.491 291.543 91.599 292.119 91.599H293.253L293.055 92.679H291.687ZM295.07 92.679L297.338 79.719H298.58L297.626 85.227C298.022 84.651 298.52 84.201 299.12 83.877C299.732 83.553 300.368 83.391 301.028 83.391C301.724 83.391 302.306 83.529 302.774 83.805C303.242 84.081 303.566 84.501 303.746 85.065C303.938 85.629 303.956 86.349 303.8 87.225L302.828 92.679H301.586L302.504 87.369C302.672 86.397 302.594 85.677 302.27 85.209C301.946 84.729 301.394 84.489 300.614 84.489C300.074 84.489 299.564 84.621 299.084 84.885C298.604 85.149 298.196 85.533 297.86 86.037C297.524 86.529 297.29 87.141 297.158 87.873L296.312 92.679H295.07ZM309.1 92.895C308.344 92.895 307.696 92.727 307.156 92.391C306.616 92.055 306.208 91.581 305.932 90.969C305.656 90.357 305.542 89.643 305.59 88.827C305.614 88.047 305.764 87.327 306.04 86.667C306.316 86.007 306.682 85.431 307.138 84.939C307.606 84.447 308.146 84.069 308.758 83.805C309.37 83.529 310.036 83.391 310.756 83.391C311.584 83.391 312.256 83.559 312.772 83.895C313.288 84.231 313.666 84.675 313.906 85.227C314.158 85.767 314.26 86.373 314.212 87.045C314.212 87.237 314.188 87.465 314.14 87.729C314.104 87.981 314.062 88.215 314.014 88.431H306.562L306.742 87.369H312.988C313.072 86.733 313.024 86.205 312.844 85.785C312.664 85.353 312.376 85.029 311.98 84.813C311.596 84.585 311.128 84.471 310.576 84.471C310.036 84.471 309.514 84.597 309.01 84.849C308.506 85.089 308.068 85.449 307.696 85.929C307.336 86.397 307.09 86.991 306.958 87.711L306.868 88.179C306.748 88.911 306.766 89.553 306.922 90.105C307.078 90.645 307.36 91.065 307.768 91.365C308.176 91.665 308.686 91.815 309.298 91.815C309.982 91.815 310.57 91.665 311.062 91.365C311.566 91.053 311.962 90.627 312.25 90.087H313.474C313.234 90.615 312.904 91.095 312.484 91.527C312.064 91.959 311.566 92.295 310.99 92.535C310.426 92.775 309.796 92.895 309.1 92.895ZM315.132 96.639L318.228 91.707H317.742L315.6 83.607H316.896L318.75 90.843L323.304 83.607H324.618L316.446 96.639H315.132ZM40.486 115.679L42.088 106.607H43.222L43.06 108.137C43.42 107.585 43.864 107.159 44.392 106.859C44.92 106.547 45.484 106.391 46.084 106.391C46.528 106.391 46.924 106.457 47.272 106.589C47.632 106.721 47.938 106.925 48.19 107.201C48.442 107.477 48.616 107.831 48.712 108.263C49.096 107.675 49.588 107.219 50.188 106.895C50.788 106.559 51.4 106.391 52.024 106.391C52.66 106.391 53.206 106.529 53.662 106.805C54.13 107.081 54.466 107.501 54.67 108.065C54.874 108.629 54.898 109.343 54.742 110.207L53.77 115.679H52.51L53.446 110.351C53.614 109.391 53.542 108.677 53.23 108.209C52.93 107.729 52.438 107.489 51.754 107.489C51.322 107.489 50.896 107.609 50.476 107.849C50.056 108.077 49.684 108.419 49.36 108.875C49.048 109.331 48.814 109.883 48.658 110.531L47.758 115.679H46.498L47.434 110.351C47.602 109.391 47.53 108.677 47.218 108.209C46.918 107.729 46.438 107.489 45.778 107.489C45.31 107.489 44.854 107.621 44.41 107.885C43.978 108.137 43.6 108.515 43.276 109.019C42.952 109.511 42.724 110.123 42.592 110.855L41.746 115.679H40.486ZM58.9917 115.895C58.3317 115.895 57.7917 115.775 57.3717 115.535C56.9517 115.295 56.6457 114.983 56.4537 114.599C56.2617 114.215 56.1777 113.807 56.2017 113.375C56.2257 112.703 56.4237 112.133 56.7957 111.665C57.1797 111.185 57.6957 110.825 58.3437 110.585C58.9917 110.333 59.7357 110.207 60.5757 110.207H63.0237C63.1317 109.595 63.1257 109.091 63.0057 108.695C62.8977 108.287 62.6877 107.981 62.3757 107.777C62.0757 107.573 61.6677 107.471 61.1517 107.471C60.5277 107.471 59.9637 107.627 59.4597 107.939C58.9677 108.251 58.6137 108.707 58.3977 109.307H57.0837C57.2757 108.671 57.5817 108.137 58.0017 107.705C58.4337 107.273 58.9377 106.949 59.5137 106.733C60.0897 106.505 60.6837 106.391 61.2957 106.391C62.0997 106.391 62.7477 106.547 63.2397 106.859C63.7317 107.159 64.0617 107.585 64.2297 108.137C64.4097 108.689 64.4337 109.337 64.3017 110.081L63.3297 115.679H62.1777L62.3937 114.023C62.2257 114.275 62.0337 114.515 61.8177 114.743C61.6017 114.971 61.3557 115.169 61.0797 115.337C60.8037 115.505 60.4917 115.637 60.1437 115.733C59.7957 115.841 59.4117 115.895 58.9917 115.895ZM59.2797 114.797C59.7357 114.797 60.1557 114.707 60.5397 114.527C60.9237 114.335 61.2717 114.089 61.5837 113.789C61.8957 113.489 62.1477 113.153 62.3397 112.781C62.5437 112.397 62.6877 112.001 62.7717 111.593L62.8437 111.269H60.4857C59.8617 111.269 59.3337 111.353 58.9017 111.521C58.4697 111.677 58.1337 111.905 57.8937 112.205C57.6657 112.493 57.5457 112.841 57.5337 113.249C57.5097 113.717 57.6417 114.095 57.9297 114.383C58.2177 114.659 58.6677 114.797 59.2797 114.797ZM65.8864 115.679L67.4884 106.607H68.6224L68.4244 108.245C68.8084 107.657 69.3004 107.201 69.9004 106.877C70.5004 106.553 71.1424 106.391 71.8264 106.391C72.5824 106.391 73.1824 106.553 73.6264 106.877C74.0824 107.201 74.3944 107.651 74.5624 108.227C74.7304 108.791 74.7484 109.445 74.6164 110.189L73.6444 115.679H72.3844L73.3204 110.333C73.4884 109.421 73.4164 108.719 73.1044 108.227C72.7924 107.735 72.2284 107.489 71.4124 107.489C70.8844 107.489 70.3864 107.615 69.9184 107.867C69.4624 108.107 69.0664 108.467 68.7304 108.947C68.4064 109.415 68.1724 109.991 68.0284 110.675L67.1464 115.679H65.8864ZM78.8725 115.895C78.2125 115.895 77.6725 115.775 77.2525 115.535C76.8325 115.295 76.5265 114.983 76.3345 114.599C76.1425 114.215 76.0585 113.807 76.0825 113.375C76.1065 112.703 76.3045 112.133 76.6765 111.665C77.0605 111.185 77.5765 110.825 78.2245 110.585C78.8725 110.333 79.6165 110.207 80.4565 110.207H82.9045C83.0125 109.595 83.0065 109.091 82.8865 108.695C82.7785 108.287 82.5685 107.981 82.2565 107.777C81.9565 107.573 81.5485 107.471 81.0325 107.471C80.4085 107.471 79.8445 107.627 79.3405 107.939C78.8485 108.251 78.4945 108.707 78.2785 109.307H76.9645C77.1565 108.671 77.4625 108.137 77.8825 107.705C78.3145 107.273 78.8185 106.949 79.3945 106.733C79.9705 106.505 80.5645 106.391 81.1765 106.391C81.9805 106.391 82.6285 106.547 83.1205 106.859C83.6125 107.159 83.9425 107.585 84.1105 108.137C84.2905 108.689 84.3145 109.337 84.1825 110.081L83.2105 115.679H82.0585L82.2745 114.023C82.1065 114.275 81.9145 114.515 81.6985 114.743C81.4825 114.971 81.2365 115.169 80.9605 115.337C80.6845 115.505 80.3725 115.637 80.0245 115.733C79.6765 115.841 79.2925 115.895 78.8725 115.895ZM79.1605 114.797C79.6165 114.797 80.0365 114.707 80.4205 114.527C80.8045 114.335 81.1525 114.089 81.4645 113.789C81.7765 113.489 82.0285 113.153 82.2205 112.781C82.4245 112.397 82.5685 112.001 82.6525 111.593L82.7245 111.269H80.3665C79.7425 111.269 79.2145 111.353 78.7825 111.521C78.3505 111.677 78.0145 111.905 77.7745 112.205C77.5465 112.493 77.4265 112.841 77.4145 113.249C77.3905 113.717 77.5225 114.095 77.8105 114.383C78.0985 114.659 78.5485 114.797 79.1605 114.797ZM88.3953 119.855C87.6513 119.855 86.9973 119.747 86.4333 119.531C85.8813 119.327 85.4553 119.027 85.1552 118.631C84.8552 118.247 84.7172 117.773 84.7412 117.209C84.7652 116.825 84.8552 116.459 85.0112 116.111C85.1552 115.775 85.3833 115.457 85.6953 115.157C86.0193 114.845 86.4153 114.557 86.8833 114.293L87.8193 114.743C87.2433 115.043 86.8113 115.379 86.5233 115.751C86.2353 116.135 86.0793 116.549 86.0553 116.993C86.0433 117.365 86.1333 117.683 86.3253 117.947C86.5293 118.223 86.8173 118.433 87.1893 118.577C87.5733 118.721 88.0353 118.793 88.5753 118.793C89.4753 118.793 90.2013 118.595 90.7533 118.199C91.3173 117.803 91.6113 117.275 91.6353 116.615C91.6593 116.219 91.5273 115.877 91.2393 115.589C90.9513 115.289 90.3693 115.115 89.4933 115.067C88.9173 115.019 88.4133 114.959 87.9813 114.887C87.5613 114.803 87.1953 114.707 86.8833 114.599C86.5833 114.491 86.3193 114.371 86.0913 114.239C85.8753 114.095 85.6833 113.933 85.5153 113.753L85.5873 113.339L87.4773 111.863L88.5213 112.277L86.5953 113.717L86.7933 113.123C86.9613 113.231 87.1233 113.333 87.2793 113.429C87.4353 113.513 87.6153 113.591 87.8193 113.663C88.0233 113.735 88.2693 113.795 88.5573 113.843C88.8573 113.891 89.2353 113.933 89.6913 113.969C90.5673 114.029 91.2453 114.185 91.7253 114.437C92.2053 114.677 92.5353 114.983 92.7153 115.355C92.8953 115.715 92.9733 116.105 92.9493 116.525C92.9253 117.137 92.7213 117.695 92.3373 118.199C91.9653 118.703 91.4433 119.105 90.7713 119.405C90.0993 119.705 89.3073 119.855 88.3953 119.855ZM89.6193 112.799C88.9233 112.799 88.3473 112.679 87.8913 112.439C87.4353 112.199 87.0993 111.869 86.8833 111.449C86.6673 111.029 86.5773 110.561 86.6133 110.045C86.6373 109.349 86.8293 108.731 87.1893 108.191C87.5613 107.639 88.0533 107.201 88.6653 106.877C89.2773 106.553 89.9733 106.391 90.7533 106.391C91.4493 106.391 92.0193 106.511 92.4633 106.751C92.9193 106.991 93.2553 107.321 93.4713 107.741C93.6873 108.149 93.7773 108.623 93.7413 109.163C93.7173 109.835 93.5253 110.447 93.1653 110.999C92.8053 111.551 92.3193 111.989 91.7073 112.313C91.0953 112.637 90.3993 112.799 89.6193 112.799ZM89.8173 111.719C90.5853 111.719 91.2093 111.497 91.6893 111.053C92.1813 110.597 92.4453 109.997 92.4813 109.253C92.5173 108.665 92.3613 108.221 92.0133 107.921C91.6773 107.621 91.1913 107.471 90.5553 107.471C89.7873 107.471 89.1573 107.693 88.6653 108.137C88.1733 108.581 87.9093 109.187 87.8733 109.955C87.8373 110.531 87.9873 110.969 88.3233 111.269C88.6713 111.569 89.1693 111.719 89.8173 111.719ZM91.9953 107.723L91.7433 106.607H95.4153L95.2173 107.615L91.9953 107.723ZM99.1646 115.895C98.4086 115.895 97.7606 115.727 97.2206 115.391C96.6806 115.055 96.2726 114.581 95.9966 113.969C95.7206 113.357 95.6066 112.643 95.6546 111.827C95.6786 111.047 95.8286 110.327 96.1046 109.667C96.3806 109.007 96.7466 108.431 97.2026 107.939C97.6706 107.447 98.2106 107.069 98.8226 106.805C99.4346 106.529 100.101 106.391 100.821 106.391C101.649 106.391 102.321 106.559 102.837 106.895C103.353 107.231 103.731 107.675 103.971 108.227C104.223 108.767 104.325 109.373 104.277 110.045C104.277 110.237 104.253 110.465 104.205 110.729C104.169 110.981 104.127 111.215 104.079 111.431H96.6266L96.8066 110.369H103.053C103.137 109.733 103.089 109.205 102.909 108.785C102.729 108.353 102.441 108.029 102.045 107.813C101.661 107.585 101.193 107.471 100.641 107.471C100.101 107.471 99.5786 107.597 99.0746 107.849C98.5706 108.089 98.1326 108.449 97.7606 108.929C97.4006 109.397 97.1546 109.991 97.0226 110.711L96.9326 111.179C96.8126 111.911 96.8306 112.553 96.9866 113.105C97.1426 113.645 97.4246 114.065 97.8326 114.365C98.2406 114.665 98.7506 114.815 99.3626 114.815C100.047 114.815 100.635 114.665 101.127 114.365C101.631 114.053 102.027 113.627 102.315 113.087H103.539C103.299 113.615 102.969 114.095 102.549 114.527C102.129 114.959 101.631 115.295 101.055 115.535C100.491 115.775 99.8606 115.895 99.1646 115.895ZM114.51 115.895C113.754 115.895 113.106 115.727 112.566 115.391C112.026 115.055 111.618 114.581 111.342 113.969C111.066 113.357 110.952 112.643 111 111.827C111.024 111.047 111.174 110.327 111.45 109.667C111.726 109.007 112.092 108.431 112.548 107.939C113.016 107.447 113.556 107.069 114.168 106.805C114.78 106.529 115.446 106.391 116.166 106.391C116.994 106.391 117.666 106.559 118.182 106.895C118.698 107.231 119.076 107.675 119.316 108.227C119.568 108.767 119.67 109.373 119.622 110.045C119.622 110.237 119.598 110.465 119.55 110.729C119.514 110.981 119.472 111.215 119.424 111.431H111.972L112.152 110.369H118.398C118.482 109.733 118.434 109.205 118.254 108.785C118.074 108.353 117.786 108.029 117.39 107.813C117.006 107.585 116.538 107.471 115.986 107.471C115.446 107.471 114.924 107.597 114.42 107.849C113.916 108.089 113.478 108.449 113.106 108.929C112.746 109.397 112.5 109.991 112.368 110.711L112.278 111.179C112.158 111.911 112.176 112.553 112.332 113.105C112.488 113.645 112.77 114.065 113.178 114.365C113.586 114.665 114.096 114.815 114.708 114.815C115.392 114.815 115.98 114.665 116.472 114.365C116.976 114.053 117.372 113.627 117.66 113.087H118.884C118.644 113.615 118.314 114.095 117.894 114.527C117.474 114.959 116.976 115.295 116.4 115.535C115.836 115.775 115.206 115.895 114.51 115.895ZM123.221 115.679L121.223 106.607H122.537L124.157 114.473L128.531 106.607H129.863L124.661 115.679H123.221ZM133.6 115.895C132.844 115.895 132.196 115.727 131.656 115.391C131.116 115.055 130.708 114.581 130.432 113.969C130.156 113.357 130.042 112.643 130.09 111.827C130.114 111.047 130.264 110.327 130.54 109.667C130.816 109.007 131.182 108.431 131.638 107.939C132.106 107.447 132.646 107.069 133.258 106.805C133.87 106.529 134.536 106.391 135.256 106.391C136.084 106.391 136.756 106.559 137.272 106.895C137.788 107.231 138.166 107.675 138.406 108.227C138.658 108.767 138.76 109.373 138.712 110.045C138.712 110.237 138.688 110.465 138.64 110.729C138.604 110.981 138.562 111.215 138.514 111.431H131.062L131.242 110.369H137.488C137.572 109.733 137.524 109.205 137.344 108.785C137.164 108.353 136.876 108.029 136.48 107.813C136.096 107.585 135.628 107.471 135.076 107.471C134.536 107.471 134.014 107.597 133.51 107.849C133.006 108.089 132.568 108.449 132.196 108.929C131.836 109.397 131.59 109.991 131.458 110.711L131.368 111.179C131.248 111.911 131.266 112.553 131.422 113.105C131.578 113.645 131.86 114.065 132.268 114.365C132.676 114.665 133.186 114.815 133.798 114.815C134.482 114.815 135.07 114.665 135.562 114.365C136.066 114.053 136.462 113.627 136.75 113.087H137.974C137.734 113.615 137.404 114.095 136.984 114.527C136.564 114.959 136.066 115.295 135.49 115.535C134.926 115.775 134.296 115.895 133.6 115.895ZM139.838 115.679L141.44 106.607H142.592L142.394 108.245C142.67 107.849 142.994 107.513 143.366 107.237C143.75 106.961 144.176 106.751 144.644 106.607C145.124 106.463 145.646 106.391 146.21 106.391L145.994 107.705H145.508C145.112 107.705 144.722 107.753 144.338 107.849C143.966 107.945 143.618 108.107 143.294 108.335C142.982 108.551 142.712 108.845 142.484 109.217C142.256 109.589 142.094 110.051 141.998 110.603L141.098 115.679H139.838ZM146.593 119.639L149.689 114.707H149.203L147.061 106.607H148.357L150.211 113.843L154.765 106.607H156.079L147.907 119.639H146.593ZM159.534 115.679C158.946 115.679 158.472 115.589 158.112 115.409C157.764 115.217 157.53 114.929 157.41 114.545C157.302 114.149 157.302 113.645 157.41 113.033L158.346 107.687H156.906L157.104 106.607H158.544L159.084 104.501H160.182L159.804 106.607H162.522L162.342 107.687H159.624L158.67 113.033C158.562 113.633 158.604 114.047 158.796 114.275C159 114.491 159.39 114.599 159.966 114.599H161.1L160.902 115.679H159.534ZM162.918 115.679L165.186 102.719H166.428L165.474 108.227C165.87 107.651 166.368 107.201 166.968 106.877C167.58 106.553 168.216 106.391 168.876 106.391C169.572 106.391 170.154 106.529 170.622 106.805C171.09 107.081 171.414 107.501 171.594 108.065C171.786 108.629 171.804 109.349 171.648 110.225L170.676 115.679H169.434L170.352 110.369C170.52 109.397 170.442 108.677 170.118 108.209C169.794 107.729 169.242 107.489 168.462 107.489C167.922 107.489 167.412 107.621 166.932 107.885C166.452 108.149 166.044 108.533 165.708 109.037C165.372 109.529 165.138 110.141 165.006 110.873L164.16 115.679H162.918ZM173.24 115.679L174.842 106.607H176.102L174.5 115.679H173.24ZM176.012 104.465C175.76 104.465 175.544 104.381 175.364 104.213C175.196 104.033 175.112 103.811 175.112 103.547C175.112 103.271 175.196 103.055 175.364 102.899C175.544 102.731 175.76 102.647 176.012 102.647C176.264 102.647 176.48 102.731 176.66 102.899C176.84 103.055 176.93 103.271 176.93 103.547C176.93 103.811 176.84 104.033 176.66 104.213C176.48 104.381 176.264 104.465 176.012 104.465ZM177.261 115.679L178.863 106.607H179.997L179.799 108.245C180.183 107.657 180.675 107.201 181.275 106.877C181.875 106.553 182.517 106.391 183.201 106.391C183.957 106.391 184.557 106.553 185.001 106.877C185.457 107.201 185.769 107.651 185.937 108.227C186.105 108.791 186.123 109.445 185.991 110.189L185.019 115.679H183.759L184.695 110.333C184.863 109.421 184.791 108.719 184.479 108.227C184.167 107.735 183.603 107.489 182.787 107.489C182.259 107.489 181.761 107.615 181.293 107.867C180.837 108.107 180.441 108.467 180.105 108.947C179.781 109.415 179.547 109.991 179.403 110.675L178.521 115.679H177.261ZM190.05 119.855C189.306 119.855 188.652 119.747 188.088 119.531C187.536 119.327 187.11 119.027 186.81 118.631C186.51 118.247 186.372 117.773 186.396 117.209C186.42 116.825 186.51 116.459 186.666 116.111C186.81 115.775 187.038 115.457 187.35 115.157C187.674 114.845 188.07 114.557 188.538 114.293L189.474 114.743C188.898 115.043 188.466 115.379 188.178 115.751C187.89 116.135 187.734 116.549 187.71 116.993C187.698 117.365 187.788 117.683 187.98 117.947C188.184 118.223 188.472 118.433 188.844 118.577C189.228 118.721 189.69 118.793 190.23 118.793C191.13 118.793 191.856 118.595 192.408 118.199C192.972 117.803 193.266 117.275 193.29 116.615C193.314 116.219 193.182 115.877 192.894 115.589C192.606 115.289 192.024 115.115 191.148 115.067C190.572 115.019 190.068 114.959 189.636 114.887C189.216 114.803 188.85 114.707 188.538 114.599C188.238 114.491 187.974 114.371 187.746 114.239C187.53 114.095 187.338 113.933 187.17 113.753L187.242 113.339L189.132 111.863L190.176 112.277L188.25 113.717L188.448 113.123C188.616 113.231 188.778 113.333 188.934 113.429C189.09 113.513 189.27 113.591 189.474 113.663C189.678 113.735 189.924 113.795 190.212 113.843C190.512 113.891 190.89 113.933 191.346 113.969C192.222 114.029 192.9 114.185 193.38 114.437C193.86 114.677 194.19 114.983 194.37 115.355C194.55 115.715 194.628 116.105 194.604 116.525C194.58 117.137 194.376 117.695 193.992 118.199C193.62 118.703 193.098 119.105 192.426 119.405C191.754 119.705 190.962 119.855 190.05 119.855ZM191.274 112.799C190.578 112.799 190.002 112.679 189.546 112.439C189.09 112.199 188.754 111.869 188.538 111.449C188.322 111.029 188.232 110.561 188.268 110.045C188.292 109.349 188.484 108.731 188.844 108.191C189.216 107.639 189.708 107.201 190.32 106.877C190.932 106.553 191.628 106.391 192.408 106.391C193.104 106.391 193.674 106.511 194.118 106.751C194.574 106.991 194.91 107.321 195.126 107.741C195.342 108.149 195.432 108.623 195.396 109.163C195.372 109.835 195.18 110.447 194.82 110.999C194.46 111.551 193.974 111.989 193.362 112.313C192.75 112.637 192.054 112.799 191.274 112.799ZM191.472 111.719C192.24 111.719 192.864 111.497 193.344 111.053C193.836 110.597 194.1 109.997 194.136 109.253C194.172 108.665 194.016 108.221 193.668 107.921C193.332 107.621 192.846 107.471 192.21 107.471C191.442 107.471 190.812 107.693 190.32 108.137C189.828 108.581 189.564 109.187 189.528 109.955C189.492 110.531 189.642 110.969 189.978 111.269C190.326 111.569 190.824 111.719 191.472 111.719ZM193.65 107.723L193.398 106.607H197.07L196.872 107.615L193.65 107.723ZM203.061 115.679L204.933 105.041C205.029 104.513 205.191 104.081 205.419 103.745C205.659 103.397 205.971 103.139 206.355 102.971C206.739 102.803 207.201 102.719 207.741 102.719H208.731L208.533 103.799H207.741C207.273 103.799 206.919 103.895 206.679 104.087C206.439 104.279 206.277 104.615 206.193 105.095L204.321 115.679H203.061ZM203.079 107.687L203.259 106.607H208.299L208.101 107.687H203.079ZM208.533 115.679L210.819 102.719H212.079L209.793 115.679H208.533ZM215.191 115.895C214.531 115.895 213.991 115.775 213.571 115.535C213.151 115.295 212.845 114.983 212.653 114.599C212.461 114.215 212.377 113.807 212.401 113.375C212.425 112.703 212.623 112.133 212.995 111.665C213.379 111.185 213.895 110.825 214.543 110.585C215.191 110.333 215.935 110.207 216.775 110.207H219.223C219.331 109.595 219.325 109.091 219.205 108.695C219.097 108.287 218.887 107.981 218.575 107.777C218.275 107.573 217.867 107.471 217.351 107.471C216.727 107.471 216.163 107.627 215.659 107.939C215.167 108.251 214.813 108.707 214.597 109.307H213.283C213.475 108.671 213.781 108.137 214.201 107.705C214.633 107.273 215.137 106.949 215.713 106.733C216.289 106.505 216.883 106.391 217.495 106.391C218.299 106.391 218.947 106.547 219.439 106.859C219.931 107.159 220.261 107.585 220.429 108.137C220.609 108.689 220.633 109.337 220.501 110.081L219.529 115.679H218.377L218.593 114.023C218.425 114.275 218.233 114.515 218.017 114.743C217.801 114.971 217.555 115.169 217.279 115.337C217.003 115.505 216.691 115.637 216.343 115.733C215.995 115.841 215.611 115.895 215.191 115.895ZM215.479 114.797C215.935 114.797 216.355 114.707 216.739 114.527C217.123 114.335 217.471 114.089 217.783 113.789C218.095 113.489 218.347 113.153 218.539 112.781C218.743 112.397 218.887 112.001 218.971 111.593L219.043 111.269H216.685C216.061 111.269 215.533 111.353 215.101 111.521C214.669 111.677 214.333 111.905 214.093 112.205C213.865 112.493 213.745 112.841 213.733 113.249C213.709 113.717 213.841 114.095 214.129 114.383C214.417 114.659 214.867 114.797 215.479 114.797ZM223.958 115.679L222.896 106.607H224.174L224.948 114.365H224.696L228.422 106.607H229.862L230.816 114.365H230.582L234.11 106.607H235.388L231.14 115.679H229.844L228.854 107.561H229.088L225.236 115.679H223.958ZM235.55 115.679L237.836 102.719H239.096L236.81 115.679H235.55ZM243.252 115.895C242.496 115.895 241.848 115.727 241.308 115.391C240.768 115.055 240.36 114.581 240.084 113.969C239.808 113.357 239.694 112.643 239.742 111.827C239.766 111.047 239.916 110.327 240.192 109.667C240.468 109.007 240.834 108.431 241.29 107.939C241.758 107.447 242.298 107.069 242.91 106.805C243.522 106.529 244.188 106.391 244.908 106.391C245.736 106.391 246.408 106.559 246.924 106.895C247.44 107.231 247.818 107.675 248.058 108.227C248.31 108.767 248.412 109.373 248.364 110.045C248.364 110.237 248.34 110.465 248.292 110.729C248.256 110.981 248.214 111.215 248.166 111.431H240.714L240.894 110.369H247.14C247.224 109.733 247.176 109.205 246.996 108.785C246.816 108.353 246.528 108.029 246.132 107.813C245.748 107.585 245.28 107.471 244.728 107.471C244.188 107.471 243.666 107.597 243.162 107.849C242.658 108.089 242.22 108.449 241.848 108.929C241.488 109.397 241.242 109.991 241.11 110.711L241.02 111.179C240.9 111.911 240.918 112.553 241.074 113.105C241.23 113.645 241.512 114.065 241.92 114.365C242.328 114.665 242.838 114.815 243.45 114.815C244.134 114.815 244.722 114.665 245.214 114.365C245.718 114.053 246.114 113.627 246.402 113.087H247.626C247.386 113.615 247.056 114.095 246.636 114.527C246.216 114.959 245.718 115.295 245.142 115.535C244.578 115.775 243.948 115.895 243.252 115.895ZM252.82 115.895C252.076 115.895 251.446 115.775 250.93 115.535C250.426 115.283 250.048 114.923 249.796 114.455C249.556 113.975 249.46 113.411 249.508 112.763H250.804C250.78 113.123 250.834 113.459 250.966 113.771C251.11 114.083 251.35 114.335 251.686 114.527C252.022 114.707 252.466 114.797 253.018 114.797C253.474 114.797 253.87 114.725 254.206 114.581C254.542 114.437 254.806 114.239 254.998 113.987C255.202 113.723 255.31 113.417 255.322 113.069C255.346 112.733 255.274 112.469 255.106 112.277C254.95 112.085 254.716 111.935 254.404 111.827C254.092 111.707 253.714 111.605 253.27 111.521C252.898 111.461 252.544 111.371 252.208 111.251C251.884 111.131 251.596 110.981 251.344 110.801C251.092 110.609 250.894 110.375 250.75 110.099C250.618 109.823 250.558 109.499 250.57 109.127C250.594 108.611 250.762 108.149 251.074 107.741C251.386 107.333 251.806 107.009 252.334 106.769C252.862 106.517 253.462 106.391 254.134 106.391C255.058 106.391 255.79 106.625 256.33 107.093C256.882 107.549 257.128 108.221 257.068 109.109H255.79C255.826 108.617 255.688 108.227 255.376 107.939C255.064 107.651 254.602 107.507 253.99 107.507C253.378 107.507 252.88 107.645 252.496 107.921C252.112 108.197 251.914 108.539 251.902 108.947C251.89 109.211 251.95 109.439 252.082 109.631C252.226 109.811 252.448 109.961 252.748 110.081C253.048 110.201 253.42 110.309 253.864 110.405C254.248 110.477 254.614 110.573 254.962 110.693C255.31 110.813 255.61 110.969 255.862 111.161C256.126 111.341 256.33 111.575 256.474 111.863C256.618 112.139 256.678 112.487 256.654 112.907C256.618 113.507 256.432 114.035 256.096 114.491C255.76 114.935 255.31 115.283 254.746 115.535C254.182 115.775 253.54 115.895 252.82 115.895ZM261.767 115.895C261.023 115.895 260.393 115.775 259.877 115.535C259.373 115.283 258.995 114.923 258.743 114.455C258.503 113.975 258.407 113.411 258.455 112.763H259.751C259.727 113.123 259.781 113.459 259.913 113.771C260.057 114.083 260.297 114.335 260.633 114.527C260.969 114.707 261.413 114.797 261.965 114.797C262.421 114.797 262.817 114.725 263.153 114.581C263.489 114.437 263.753 114.239 263.945 113.987C264.149 113.723 264.257 113.417 264.269 113.069C264.293 112.733 264.221 112.469 264.053 112.277C263.897 112.085 263.663 111.935 263.351 111.827C263.039 111.707 262.661 111.605 262.217 111.521C261.845 111.461 261.491 111.371 261.155 111.251C260.831 111.131 260.543 110.981 260.291 110.801C260.039 110.609 259.841 110.375 259.697 110.099C259.565 109.823 259.505 109.499 259.517 109.127C259.541 108.611 259.709 108.149 260.021 107.741C260.333 107.333 260.753 107.009 261.281 106.769C261.809 106.517 262.409 106.391 263.081 106.391C264.005 106.391 264.737 106.625 265.277 107.093C265.829 107.549 266.075 108.221 266.015 109.109H264.737C264.773 108.617 264.635 108.227 264.323 107.939C264.011 107.651 263.549 107.507 262.937 107.507C262.325 107.507 261.827 107.645 261.443 107.921C261.059 108.197 260.861 108.539 260.849 108.947C260.837 109.211 260.897 109.439 261.029 109.631C261.173 109.811 261.395 109.961 261.695 110.081C261.995 110.201 262.367 110.309 262.811 110.405C263.195 110.477 263.561 110.573 263.909 110.693C264.257 110.813 264.557 110.969 264.809 111.161C265.073 111.341 265.277 111.575 265.421 111.863C265.565 112.139 265.625 112.487 265.601 112.907C265.565 113.507 265.379 114.035 265.043 114.491C264.707 114.935 264.257 115.283 263.693 115.535C263.129 115.775 262.487 115.895 261.767 115.895ZM267.384 115.679L269.67 102.719H270.93L268.644 115.679H267.384ZM271.45 119.639L274.546 114.707H274.06L271.918 106.607H273.214L275.068 113.843L279.622 106.607H280.936L272.764 119.639H271.45ZM280.634 115.769C280.37 115.769 280.148 115.679 279.968 115.499C279.8 115.319 279.716 115.097 279.716 114.833C279.716 114.569 279.8 114.353 279.968 114.185C280.136 114.005 280.358 113.915 280.634 113.915C280.886 113.915 281.096 114.005 281.264 114.185C281.444 114.353 281.534 114.569 281.534 114.833C281.534 115.097 281.444 115.319 281.264 115.499C281.096 115.679 280.886 115.769 280.634 115.769ZM294.413 115.895C293.345 115.895 292.421 115.655 291.641 115.175C290.873 114.695 290.285 114.029 289.877 113.177C289.469 112.325 289.289 111.353 289.337 110.261C289.385 109.217 289.607 108.251 290.003 107.363C290.399 106.463 290.933 105.677 291.605 105.005C292.289 104.333 293.063 103.811 293.927 103.439C294.803 103.055 295.727 102.863 296.699 102.863C297.779 102.863 298.703 103.103 299.471 103.583C300.251 104.051 300.845 104.711 301.253 105.563C301.661 106.403 301.835 107.375 301.775 108.479C301.727 109.523 301.505 110.495 301.109 111.395C300.713 112.295 300.179 113.087 299.507 113.771C298.835 114.443 298.061 114.965 297.185 115.337C296.321 115.709 295.397 115.895 294.413 115.895ZM294.611 114.797C295.391 114.797 296.123 114.641 296.807 114.329C297.503 114.017 298.115 113.579 298.643 113.015C299.183 112.439 299.609 111.773 299.921 111.017C300.245 110.249 300.425 109.415 300.461 108.515C300.509 107.567 300.371 106.757 300.047 106.085C299.723 105.413 299.255 104.897 298.643 104.537C298.043 104.165 297.329 103.979 296.501 103.979C295.721 103.979 294.983 104.135 294.287 104.447C293.603 104.759 292.991 105.197 292.451 105.761C291.923 106.325 291.497 106.985 291.173 107.741C290.861 108.497 290.687 109.319 290.651 110.207C290.603 111.143 290.741 111.953 291.065 112.637C291.389 113.321 291.857 113.855 292.469 114.239C293.081 114.611 293.795 114.797 294.611 114.797ZM305.973 115.895C305.241 115.895 304.647 115.733 304.191 115.409C303.735 115.085 303.423 114.641 303.255 114.077C303.087 113.501 303.075 112.841 303.219 112.097L304.191 106.607H305.451L304.515 111.953C304.359 112.877 304.425 113.585 304.713 114.077C305.001 114.557 305.553 114.797 306.369 114.797C306.909 114.797 307.407 114.677 307.863 114.437C308.331 114.197 308.733 113.843 309.069 113.375C309.417 112.895 309.663 112.307 309.807 111.611L310.671 106.607H311.931L310.347 115.679H309.213L309.411 114.041C309.027 114.629 308.529 115.085 307.917 115.409C307.317 115.733 306.669 115.895 305.973 115.895ZM312.929 115.679L314.531 106.607H315.683L315.485 108.245C315.761 107.849 316.085 107.513 316.457 107.237C316.841 106.961 317.267 106.751 317.735 106.607C318.215 106.463 318.737 106.391 319.301 106.391L319.085 107.705H318.599C318.203 107.705 317.813 107.753 317.429 107.849C317.057 107.945 316.709 108.107 316.385 108.335C316.073 108.551 315.803 108.845 315.575 109.217C315.347 109.589 315.185 110.051 315.089 110.603L314.189 115.679H312.929ZM40.486 138.679L42.772 125.719H44.032L41.746 138.679H40.486ZM47.144 138.895C46.484 138.895 45.944 138.775 45.524 138.535C45.104 138.295 44.798 137.983 44.606 137.599C44.414 137.215 44.33 136.807 44.354 136.375C44.378 135.703 44.576 135.133 44.948 134.665C45.332 134.185 45.848 133.825 46.496 133.585C47.144 133.333 47.888 133.207 48.728 133.207H51.176C51.284 132.595 51.278 132.091 51.158 131.695C51.05 131.287 50.84 130.981 50.528 130.777C50.228 130.573 49.82 130.471 49.304 130.471C48.68 130.471 48.116 130.627 47.612 130.939C47.12 131.251 46.766 131.707 46.55 132.307H45.236C45.428 131.671 45.734 131.137 46.154 130.705C46.586 130.273 47.09 129.949 47.666 129.733C48.242 129.505 48.836 129.391 49.448 129.391C50.252 129.391 50.9 129.547 51.392 129.859C51.884 130.159 52.214 130.585 52.382 131.137C52.562 131.689 52.586 132.337 52.454 133.081L51.482 138.679H50.33L50.546 137.023C50.378 137.275 50.186 137.515 49.97 137.743C49.754 137.971 49.508 138.169 49.232 138.337C48.956 138.505 48.644 138.637 48.296 138.733C47.948 138.841 47.564 138.895 47.144 138.895ZM47.432 137.797C47.888 137.797 48.308 137.707 48.692 137.527C49.076 137.335 49.424 137.089 49.736 136.789C50.048 136.489 50.3 136.153 50.492 135.781C50.696 135.397 50.84 135.001 50.924 134.593L50.996 134.269H48.638C48.014 134.269 47.486 134.353 47.054 134.521C46.622 134.677 46.286 134.905 46.046 135.205C45.818 135.493 45.698 135.841 45.686 136.249C45.662 136.717 45.794 137.095 46.082 137.383C46.37 137.659 46.82 137.797 47.432 137.797ZM57.2427 138.895C56.5107 138.895 55.9167 138.733 55.4607 138.409C55.0047 138.085 54.6927 137.641 54.5247 137.077C54.3567 136.501 54.3447 135.841 54.4887 135.097L55.4607 129.607H56.7207L55.7847 134.953C55.6287 135.877 55.6947 136.585 55.9827 137.077C56.2707 137.557 56.8227 137.797 57.6387 137.797C58.1787 137.797 58.6767 137.677 59.1327 137.437C59.6007 137.197 60.0027 136.843 60.3387 136.375C60.6867 135.895 60.9327 135.307 61.0767 134.611L61.9407 129.607H63.2007L61.6167 138.679H60.4827L60.6807 137.041C60.2967 137.629 59.7987 138.085 59.1867 138.409C58.5867 138.733 57.9387 138.895 57.2427 138.895ZM64.1989 138.679L65.8009 129.607H66.9349L66.7369 131.245C67.1209 130.657 67.6129 130.201 68.2129 129.877C68.8129 129.553 69.4549 129.391 70.1389 129.391C70.8949 129.391 71.4949 129.553 71.9389 129.877C72.3949 130.201 72.7069 130.651 72.8749 131.227C73.0429 131.791 73.0609 132.445 72.9289 133.189L71.9569 138.679H70.6969L71.6329 133.333C71.8009 132.421 71.7289 131.719 71.4169 131.227C71.1049 130.735 70.5409 130.489 69.7249 130.489C69.1969 130.489 68.6989 130.615 68.2309 130.867C67.7749 131.107 67.3789 131.467 67.0429 131.947C66.7189 132.415 66.4849 132.991 66.3409 133.675L65.4589 138.679H64.1989ZM78.337 138.895C77.581 138.895 76.921 138.727 76.357 138.391C75.805 138.043 75.379 137.563 75.079 136.951C74.791 136.339 74.671 135.631 74.719 134.827C74.743 134.023 74.899 133.291 75.187 132.631C75.475 131.971 75.859 131.401 76.339 130.921C76.819 130.441 77.371 130.069 77.995 129.805C78.619 129.529 79.279 129.391 79.975 129.391C81.055 129.391 81.901 129.667 82.513 130.219C83.125 130.771 83.443 131.509 83.467 132.433H82.207C82.195 131.797 81.961 131.317 81.505 130.993C81.049 130.657 80.485 130.489 79.813 130.489C79.153 130.489 78.541 130.663 77.977 131.011C77.413 131.359 76.957 131.851 76.609 132.487C76.261 133.123 76.063 133.867 76.015 134.719C75.991 135.223 76.033 135.667 76.141 136.051C76.261 136.435 76.435 136.759 76.663 137.023C76.903 137.287 77.179 137.491 77.491 137.635C77.815 137.767 78.157 137.833 78.517 137.833C78.961 137.833 79.381 137.761 79.777 137.617C80.185 137.461 80.545 137.239 80.857 136.951C81.181 136.651 81.427 136.285 81.595 135.853H82.873C82.657 136.441 82.321 136.969 81.865 137.437C81.421 137.893 80.899 138.253 80.299 138.517C79.699 138.769 79.045 138.895 78.337 138.895ZM84.5548 138.679L86.8228 125.719H88.0648L87.1108 131.227C87.5068 130.651 88.0048 130.201 88.6048 129.877C89.2168 129.553 89.8528 129.391 90.5128 129.391C91.2088 129.391 91.7908 129.529 92.2588 129.805C92.7268 130.081 93.0508 130.501 93.2308 131.065C93.4228 131.629 93.4408 132.349 93.2848 133.225L92.3128 138.679H91.0708L91.9888 133.369C92.1568 132.397 92.0788 131.677 91.7548 131.209C91.4308 130.729 90.8788 130.489 90.0988 130.489C89.5588 130.489 89.0488 130.621 88.5688 130.885C88.0888 131.149 87.6808 131.533 87.3448 132.037C87.0088 132.529 86.7748 133.141 86.6428 133.873L85.7968 138.679H84.5548ZM101.825 138.679L100.763 129.607H102.041L102.815 137.365H102.563L106.289 129.607H107.729L108.683 137.365H108.449L111.977 129.607H113.255L109.007 138.679H107.711L106.721 130.561H106.955L103.103 138.679H101.825ZM116.191 138.895C115.531 138.895 114.991 138.775 114.571 138.535C114.151 138.295 113.845 137.983 113.653 137.599C113.461 137.215 113.377 136.807 113.401 136.375C113.425 135.703 113.623 135.133 113.995 134.665C114.379 134.185 114.895 133.825 115.543 133.585C116.191 133.333 116.935 133.207 117.775 133.207H120.223C120.331 132.595 120.325 132.091 120.205 131.695C120.097 131.287 119.887 130.981 119.575 130.777C119.275 130.573 118.867 130.471 118.351 130.471C117.727 130.471 117.163 130.627 116.659 130.939C116.167 131.251 115.813 131.707 115.597 132.307H114.283C114.475 131.671 114.781 131.137 115.201 130.705C115.633 130.273 116.137 129.949 116.713 129.733C117.289 129.505 117.883 129.391 118.495 129.391C119.299 129.391 119.947 129.547 120.439 129.859C120.931 130.159 121.261 130.585 121.429 131.137C121.609 131.689 121.633 132.337 121.501 133.081L120.529 138.679H119.377L119.593 137.023C119.425 137.275 119.233 137.515 119.017 137.743C118.801 137.971 118.555 138.169 118.279 138.337C118.003 138.505 117.691 138.637 117.343 138.733C116.995 138.841 116.611 138.895 116.191 138.895ZM116.479 137.797C116.935 137.797 117.355 137.707 117.739 137.527C118.123 137.335 118.471 137.089 118.783 136.789C119.095 136.489 119.347 136.153 119.539 135.781C119.743 135.397 119.887 135.001 119.971 134.593L120.043 134.269H117.685C117.061 134.269 116.533 134.353 116.101 134.521C115.669 134.677 115.333 134.905 115.093 135.205C114.865 135.493 114.745 135.841 114.733 136.249C114.709 136.717 114.841 137.095 115.129 137.383C115.417 137.659 115.867 137.797 116.479 137.797ZM126.416 138.895C125.672 138.895 125.042 138.775 124.526 138.535C124.022 138.283 123.644 137.923 123.392 137.455C123.152 136.975 123.056 136.411 123.104 135.763H124.4C124.376 136.123 124.43 136.459 124.562 136.771C124.706 137.083 124.946 137.335 125.282 137.527C125.618 137.707 126.062 137.797 126.614 137.797C127.07 137.797 127.466 137.725 127.802 137.581C128.138 137.437 128.402 137.239 128.594 136.987C128.798 136.723 128.906 136.417 128.918 136.069C128.942 135.733 128.87 135.469 128.702 135.277C128.546 135.085 128.312 134.935 128 134.827C127.688 134.707 127.31 134.605 126.866 134.521C126.494 134.461 126.14 134.371 125.804 134.251C125.48 134.131 125.192 133.981 124.94 133.801C124.688 133.609 124.49 133.375 124.346 133.099C124.214 132.823 124.154 132.499 124.166 132.127C124.19 131.611 124.358 131.149 124.67 130.741C124.982 130.333 125.402 130.009 125.93 129.769C126.458 129.517 127.058 129.391 127.73 129.391C128.654 129.391 129.386 129.625 129.926 130.093C130.478 130.549 130.724 131.221 130.664 132.109H129.386C129.422 131.617 129.284 131.227 128.972 130.939C128.66 130.651 128.198 130.507 127.586 130.507C126.974 130.507 126.476 130.645 126.092 130.921C125.708 131.197 125.51 131.539 125.498 131.947C125.486 132.211 125.546 132.439 125.678 132.631C125.822 132.811 126.044 132.961 126.344 133.081C126.644 133.201 127.016 133.309 127.46 133.405C127.844 133.477 128.21 133.573 128.558 133.693C128.906 133.813 129.206 133.969 129.458 134.161C129.722 134.341 129.926 134.575 130.07 134.863C130.214 135.139 130.274 135.487 130.25 135.907C130.214 136.507 130.028 137.035 129.692 137.491C129.356 137.935 128.906 138.283 128.342 138.535C127.778 138.775 127.136 138.895 126.416 138.895ZM137.271 138.679L138.873 129.607H140.007L139.809 131.245C140.193 130.657 140.685 130.201 141.285 129.877C141.885 129.553 142.527 129.391 143.211 129.391C143.967 129.391 144.567 129.553 145.011 129.877C145.467 130.201 145.779 130.651 145.947 131.227C146.115 131.791 146.133 132.445 146.001 133.189L145.029 138.679H143.769L144.705 133.333C144.873 132.421 144.801 131.719 144.489 131.227C144.177 130.735 143.613 130.489 142.797 130.489C142.269 130.489 141.771 130.615 141.303 130.867C140.847 131.107 140.451 131.467 140.115 131.947C139.791 132.415 139.557 132.991 139.413 133.675L138.531 138.679H137.271ZM151.499 138.895C150.743 138.895 150.071 138.721 149.483 138.373C148.907 138.025 148.469 137.539 148.169 136.915C147.869 136.279 147.743 135.559 147.791 134.755C147.815 133.975 147.971 133.261 148.259 132.613C148.547 131.953 148.925 131.383 149.393 130.903C149.873 130.423 150.425 130.051 151.049 129.787C151.673 129.523 152.339 129.391 153.047 129.391C153.827 129.391 154.499 129.565 155.063 129.913C155.639 130.249 156.077 130.723 156.377 131.335C156.689 131.947 156.821 132.667 156.773 133.495C156.737 134.275 156.575 134.995 156.287 135.655C156.011 136.303 155.633 136.873 155.153 137.365C154.673 137.845 154.121 138.223 153.497 138.499C152.885 138.763 152.219 138.895 151.499 138.895ZM151.661 137.815C152.357 137.815 152.981 137.635 153.533 137.275C154.097 136.915 154.553 136.417 154.901 135.781C155.249 135.145 155.441 134.407 155.477 133.567C155.513 132.907 155.417 132.349 155.189 131.893C154.961 131.425 154.643 131.077 154.235 130.849C153.839 130.609 153.389 130.489 152.885 130.489C152.213 130.489 151.595 130.669 151.031 131.029C150.479 131.389 150.023 131.887 149.663 132.523C149.315 133.159 149.123 133.891 149.087 134.719C149.051 135.391 149.147 135.955 149.375 136.411C149.603 136.867 149.915 137.215 150.311 137.455C150.719 137.695 151.169 137.815 151.661 137.815ZM161.222 138.679C160.634 138.679 160.16 138.589 159.8 138.409C159.452 138.217 159.218 137.929 159.098 137.545C158.99 137.149 158.99 136.645 159.098 136.033L160.034 130.687H158.594L158.792 129.607H160.232L160.772 127.501H161.87L161.492 129.607H164.21L164.03 130.687H161.312L160.358 136.033C160.25 136.633 160.292 137.047 160.484 137.275C160.688 137.491 161.078 137.599 161.654 137.599H162.788L162.59 138.679H161.222ZM164.606 138.679L166.874 125.719H168.116L167.162 131.227C167.558 130.651 168.056 130.201 168.656 129.877C169.268 129.553 169.904 129.391 170.564 129.391C171.26 129.391 171.842 129.529 172.31 129.805C172.778 130.081 173.102 130.501 173.282 131.065C173.474 131.629 173.492 132.349 173.336 133.225L172.364 138.679H171.122L172.04 133.369C172.208 132.397 172.13 131.677 171.806 131.209C171.482 130.729 170.93 130.489 170.15 130.489C169.61 130.489 169.1 130.621 168.62 130.885C168.14 131.149 167.732 131.533 167.396 132.037C167.06 132.529 166.826 133.141 166.694 133.873L165.848 138.679H164.606ZM174.927 138.679L176.529 129.607H177.789L176.187 138.679H174.927ZM177.699 127.465C177.447 127.465 177.231 127.381 177.051 127.213C176.883 127.033 176.799 126.811 176.799 126.547C176.799 126.271 176.883 126.055 177.051 125.899C177.231 125.731 177.447 125.647 177.699 125.647C177.951 125.647 178.167 125.731 178.347 125.899C178.527 126.055 178.617 126.271 178.617 126.547C178.617 126.811 178.527 127.033 178.347 127.213C178.167 127.381 177.951 127.465 177.699 127.465ZM178.949 138.679L180.551 129.607H181.685L181.487 131.245C181.871 130.657 182.363 130.201 182.963 129.877C183.563 129.553 184.205 129.391 184.889 129.391C185.645 129.391 186.245 129.553 186.689 129.877C187.145 130.201 187.457 130.651 187.625 131.227C187.793 131.791 187.811 132.445 187.679 133.189L186.707 138.679H185.447L186.383 133.333C186.551 132.421 186.479 131.719 186.167 131.227C185.855 130.735 185.291 130.489 184.475 130.489C183.947 130.489 183.449 130.615 182.981 130.867C182.525 131.107 182.129 131.467 181.793 131.947C181.469 132.415 181.235 132.991 181.091 133.675L180.209 138.679H178.949ZM191.737 142.855C190.993 142.855 190.339 142.747 189.775 142.531C189.223 142.327 188.797 142.027 188.497 141.631C188.197 141.247 188.059 140.773 188.083 140.209C188.107 139.825 188.197 139.459 188.353 139.111C188.497 138.775 188.725 138.457 189.037 138.157C189.361 137.845 189.757 137.557 190.225 137.293L191.161 137.743C190.585 138.043 190.153 138.379 189.865 138.751C189.577 139.135 189.421 139.549 189.397 139.993C189.385 140.365 189.475 140.683 189.667 140.947C189.871 141.223 190.159 141.433 190.531 141.577C190.915 141.721 191.377 141.793 191.917 141.793C192.817 141.793 193.543 141.595 194.095 141.199C194.659 140.803 194.953 140.275 194.977 139.615C195.001 139.219 194.869 138.877 194.581 138.589C194.293 138.289 193.711 138.115 192.835 138.067C192.259 138.019 191.755 137.959 191.323 137.887C190.903 137.803 190.537 137.707 190.225 137.599C189.925 137.491 189.661 137.371 189.433 137.239C189.217 137.095 189.025 136.933 188.857 136.753L188.929 136.339L190.819 134.863L191.863 135.277L189.937 136.717L190.135 136.123C190.303 136.231 190.465 136.333 190.621 136.429C190.777 136.513 190.957 136.591 191.161 136.663C191.365 136.735 191.611 136.795 191.899 136.843C192.199 136.891 192.577 136.933 193.033 136.969C193.909 137.029 194.587 137.185 195.067 137.437C195.547 137.677 195.877 137.983 196.057 138.355C196.237 138.715 196.315 139.105 196.291 139.525C196.267 140.137 196.063 140.695 195.679 141.199C195.307 141.703 194.785 142.105 194.113 142.405C193.441 142.705 192.649 142.855 191.737 142.855ZM192.961 135.799C192.265 135.799 191.689 135.679 191.233 135.439C190.777 135.199 190.441 134.869 190.225 134.449C190.009 134.029 189.919 133.561 189.955 133.045C189.979 132.349 190.171 131.731 190.531 131.191C190.903 130.639 191.395 130.201 192.007 129.877C192.619 129.553 193.315 129.391 194.095 129.391C194.791 129.391 195.361 129.511 195.805 129.751C196.261 129.991 196.597 130.321 196.813 130.741C197.029 131.149 197.119 131.623 197.083 132.163C197.059 132.835 196.867 133.447 196.507 133.999C196.147 134.551 195.661 134.989 195.049 135.313C194.437 135.637 193.741 135.799 192.961 135.799ZM193.159 134.719C193.927 134.719 194.551 134.497 195.031 134.053C195.523 133.597 195.787 132.997 195.823 132.253C195.859 131.665 195.703 131.221 195.355 130.921C195.019 130.621 194.533 130.471 193.897 130.471C193.129 130.471 192.499 130.693 192.007 131.137C191.515 131.581 191.251 132.187 191.215 132.955C191.179 133.531 191.329 133.969 191.665 134.269C192.013 134.569 192.511 134.719 193.159 134.719ZM195.337 130.723L195.085 129.607H198.757L198.559 130.615L195.337 130.723ZM207.556 138.895C206.812 138.895 206.182 138.775 205.666 138.535C205.162 138.283 204.784 137.923 204.532 137.455C204.292 136.975 204.196 136.411 204.244 135.763H205.54C205.516 136.123 205.57 136.459 205.702 136.771C205.846 137.083 206.086 137.335 206.422 137.527C206.758 137.707 207.202 137.797 207.754 137.797C208.21 137.797 208.606 137.725 208.942 137.581C209.278 137.437 209.542 137.239 209.734 136.987C209.938 136.723 210.046 136.417 210.058 136.069C210.082 135.733 210.01 135.469 209.842 135.277C209.686 135.085 209.452 134.935 209.14 134.827C208.828 134.707 208.45 134.605 208.006 134.521C207.634 134.461 207.28 134.371 206.944 134.251C206.62 134.131 206.332 133.981 206.08 133.801C205.828 133.609 205.63 133.375 205.486 133.099C205.354 132.823 205.294 132.499 205.306 132.127C205.33 131.611 205.498 131.149 205.81 130.741C206.122 130.333 206.542 130.009 207.07 129.769C207.598 129.517 208.198 129.391 208.87 129.391C209.794 129.391 210.526 129.625 211.066 130.093C211.618 130.549 211.864 131.221 211.804 132.109H210.526C210.562 131.617 210.424 131.227 210.112 130.939C209.8 130.651 209.338 130.507 208.726 130.507C208.114 130.507 207.616 130.645 207.232 130.921C206.848 131.197 206.65 131.539 206.638 131.947C206.626 132.211 206.686 132.439 206.818 132.631C206.962 132.811 207.184 132.961 207.484 133.081C207.784 133.201 208.156 133.309 208.6 133.405C208.984 133.477 209.35 133.573 209.698 133.693C210.046 133.813 210.346 133.969 210.598 134.161C210.862 134.341 211.066 134.575 211.21 134.863C211.354 135.139 211.414 135.487 211.39 135.907C211.354 136.507 211.168 137.035 210.832 137.491C210.496 137.935 210.046 138.283 209.482 138.535C208.918 138.775 208.276 138.895 207.556 138.895ZM213.192 138.679L215.46 125.719H216.702L215.748 131.227C216.144 130.651 216.642 130.201 217.242 129.877C217.854 129.553 218.49 129.391 219.15 129.391C219.846 129.391 220.428 129.529 220.896 129.805C221.364 130.081 221.688 130.501 221.868 131.065C222.06 131.629 222.078 132.349 221.922 133.225L220.95 138.679H219.708L220.626 133.369C220.794 132.397 220.716 131.677 220.392 131.209C220.068 130.729 219.516 130.489 218.736 130.489C218.196 130.489 217.686 130.621 217.206 130.885C216.726 131.149 216.318 131.533 215.982 132.037C215.646 132.529 215.412 133.141 215.28 133.873L214.434 138.679H213.192ZM227.419 138.895C226.663 138.895 225.991 138.721 225.403 138.373C224.827 138.025 224.389 137.539 224.089 136.915C223.789 136.279 223.663 135.559 223.711 134.755C223.735 133.975 223.891 133.261 224.179 132.613C224.467 131.953 224.845 131.383 225.313 130.903C225.793 130.423 226.345 130.051 226.969 129.787C227.593 129.523 228.259 129.391 228.967 129.391C229.747 129.391 230.419 129.565 230.983 129.913C231.559 130.249 231.997 130.723 232.297 131.335C232.609 131.947 232.741 132.667 232.693 133.495C232.657 134.275 232.495 134.995 232.207 135.655C231.931 136.303 231.553 136.873 231.073 137.365C230.593 137.845 230.041 138.223 229.417 138.499C228.805 138.763 228.139 138.895 227.419 138.895ZM227.581 137.815C228.277 137.815 228.901 137.635 229.453 137.275C230.017 136.915 230.473 136.417 230.821 135.781C231.169 135.145 231.361 134.407 231.397 133.567C231.433 132.907 231.337 132.349 231.109 131.893C230.881 131.425 230.563 131.077 230.155 130.849C229.759 130.609 229.309 130.489 228.805 130.489C228.133 130.489 227.515 130.669 226.951 131.029C226.399 131.389 225.943 131.887 225.583 132.523C225.235 133.159 225.043 133.891 225.007 134.719C224.971 135.391 225.067 135.955 225.295 136.411C225.523 136.867 225.835 137.215 226.231 137.455C226.639 137.695 227.089 137.815 227.581 137.815ZM234.004 138.679L235.606 129.607H236.758L236.56 131.245C236.836 130.849 237.16 130.513 237.532 130.237C237.916 129.961 238.342 129.751 238.81 129.607C239.29 129.463 239.812 129.391 240.376 129.391L240.16 130.705H239.674C239.278 130.705 238.888 130.753 238.504 130.849C238.132 130.945 237.784 131.107 237.46 131.335C237.148 131.551 236.878 131.845 236.65 132.217C236.422 132.589 236.26 133.051 236.164 133.603L235.264 138.679H234.004ZM243.927 138.679C243.339 138.679 242.865 138.589 242.505 138.409C242.157 138.217 241.923 137.929 241.803 137.545C241.695 137.149 241.695 136.645 241.803 136.033L242.739 130.687H241.299L241.497 129.607H242.937L243.477 127.501H244.575L244.197 129.607H246.915L246.735 130.687H244.017L243.063 136.033C242.955 136.633 242.997 137.047 243.189 137.275C243.393 137.491 243.783 137.599 244.359 137.599H245.493L245.295 138.679H243.927ZM256.599 138.895C255.843 138.895 255.171 138.721 254.583 138.373C254.007 138.025 253.569 137.539 253.269 136.915C252.969 136.279 252.843 135.559 252.891 134.755C252.915 133.975 253.071 133.261 253.359 132.613C253.647 131.953 254.025 131.383 254.493 130.903C254.973 130.423 255.525 130.051 256.149 129.787C256.773 129.523 257.439 129.391 258.147 129.391C258.927 129.391 259.599 129.565 260.163 129.913C260.739 130.249 261.177 130.723 261.477 131.335C261.789 131.947 261.921 132.667 261.873 133.495C261.837 134.275 261.675 134.995 261.387 135.655C261.111 136.303 260.733 136.873 260.253 137.365C259.773 137.845 259.221 138.223 258.597 138.499C257.985 138.763 257.319 138.895 256.599 138.895ZM256.761 137.815C257.457 137.815 258.081 137.635 258.633 137.275C259.197 136.915 259.653 136.417 260.001 135.781C260.349 135.145 260.541 134.407 260.577 133.567C260.613 132.907 260.517 132.349 260.289 131.893C260.061 131.425 259.743 131.077 259.335 130.849C258.939 130.609 258.489 130.489 257.985 130.489C257.313 130.489 256.695 130.669 256.131 131.029C255.579 131.389 255.123 131.887 254.763 132.523C254.415 133.159 254.223 133.891 254.187 134.719C254.151 135.391 254.247 135.955 254.475 136.411C254.703 136.867 255.015 137.215 255.411 137.455C255.819 137.695 256.269 137.815 256.761 137.815ZM263.705 138.679L265.577 128.041C265.673 127.513 265.835 127.081 266.063 126.745C266.303 126.397 266.615 126.139 266.999 125.971C267.383 125.803 267.845 125.719 268.385 125.719H269.375L269.177 126.799H268.385C267.917 126.799 267.563 126.895 267.323 127.087C267.083 127.279 266.921 127.615 266.837 128.095L264.965 138.679H263.705ZM263.723 130.687L263.903 129.607H268.943L268.745 130.687H263.723ZM277.746 138.895C277.002 138.895 276.372 138.775 275.856 138.535C275.352 138.283 274.974 137.923 274.722 137.455C274.482 136.975 274.386 136.411 274.434 135.763H275.73C275.706 136.123 275.76 136.459 275.892 136.771C276.036 137.083 276.276 137.335 276.612 137.527C276.948 137.707 277.392 137.797 277.944 137.797C278.4 137.797 278.796 137.725 279.132 137.581C279.468 137.437 279.732 137.239 279.924 136.987C280.128 136.723 280.236 136.417 280.248 136.069C280.272 135.733 280.2 135.469 280.032 135.277C279.876 135.085 279.642 134.935 279.33 134.827C279.018 134.707 278.64 134.605 278.196 134.521C277.824 134.461 277.47 134.371 277.134 134.251C276.81 134.131 276.522 133.981 276.27 133.801C276.018 133.609 275.82 133.375 275.676 133.099C275.544 132.823 275.484 132.499 275.496 132.127C275.52 131.611 275.688 131.149 276 130.741C276.312 130.333 276.732 130.009 277.26 129.769C277.788 129.517 278.388 129.391 279.06 129.391C279.984 129.391 280.716 129.625 281.256 130.093C281.808 130.549 282.054 131.221 281.994 132.109H280.716C280.752 131.617 280.614 131.227 280.302 130.939C279.99 130.651 279.528 130.507 278.916 130.507C278.304 130.507 277.806 130.645 277.422 130.921C277.038 131.197 276.84 131.539 276.828 131.947C276.816 132.211 276.876 132.439 277.008 132.631C277.152 132.811 277.374 132.961 277.674 133.081C277.974 133.201 278.346 133.309 278.79 133.405C279.174 133.477 279.54 133.573 279.888 133.693C280.236 133.813 280.536 133.969 280.788 134.161C281.052 134.341 281.256 134.575 281.4 134.863C281.544 135.139 281.604 135.487 281.58 135.907C281.544 136.507 281.358 137.035 281.022 137.491C280.686 137.935 280.236 138.283 279.672 138.535C279.108 138.775 278.466 138.895 277.746 138.895ZM282.661 142.639L284.965 129.607H286.135L285.955 131.245C286.195 130.897 286.483 130.585 286.819 130.309C287.167 130.021 287.563 129.799 288.007 129.643C288.451 129.475 288.955 129.391 289.519 129.391C290.311 129.391 290.983 129.571 291.535 129.931C292.087 130.291 292.495 130.783 292.759 131.407C293.035 132.031 293.149 132.733 293.101 133.513C293.077 134.281 292.927 134.995 292.651 135.655C292.375 136.303 292.009 136.873 291.553 137.365C291.097 137.857 290.563 138.235 289.951 138.499C289.351 138.763 288.691 138.895 287.971 138.895C287.479 138.895 287.023 138.811 286.603 138.643C286.183 138.463 285.829 138.229 285.541 137.941C285.265 137.641 285.061 137.329 284.929 137.005L283.903 142.639H282.661ZM288.097 137.797C288.781 137.797 289.393 137.623 289.933 137.275C290.485 136.915 290.923 136.423 291.247 135.799C291.583 135.163 291.769 134.443 291.805 133.639C291.841 133.015 291.757 132.469 291.553 132.001C291.361 131.521 291.067 131.149 290.671 130.885C290.275 130.621 289.801 130.489 289.249 130.489C288.553 130.489 287.923 130.675 287.359 131.047C286.795 131.407 286.345 131.911 286.009 132.559C285.673 133.195 285.487 133.915 285.451 134.719C285.415 135.343 285.499 135.889 285.703 136.357C285.907 136.813 286.213 137.167 286.621 137.419C287.041 137.671 287.533 137.797 288.097 137.797ZM298.307 138.895C297.551 138.895 296.903 138.727 296.363 138.391C295.823 138.055 295.415 137.581 295.139 136.969C294.863 136.357 294.749 135.643 294.797 134.827C294.821 134.047 294.971 133.327 295.247 132.667C295.523 132.007 295.889 131.431 296.345 130.939C296.813 130.447 297.353 130.069 297.965 129.805C298.577 129.529 299.243 129.391 299.963 129.391C300.791 129.391 301.463 129.559 301.979 129.895C302.495 130.231 302.873 130.675 303.113 131.227C303.365 131.767 303.467 132.373 303.419 133.045C303.419 133.237 303.395 133.465 303.347 133.729C303.311 133.981 303.269 134.215 303.221 134.431H295.769L295.949 133.369H302.195C302.279 132.733 302.231 132.205 302.051 131.785C301.871 131.353 301.583 131.029 301.187 130.813C300.803 130.585 300.335 130.471 299.783 130.471C299.243 130.471 298.721 130.597 298.217 130.849C297.713 131.089 297.275 131.449 296.903 131.929C296.543 132.397 296.297 132.991 296.165 133.711L296.075 134.179C295.955 134.911 295.973 135.553 296.129 136.105C296.285 136.645 296.567 137.065 296.975 137.365C297.383 137.665 297.893 137.815 298.505 137.815C299.189 137.815 299.777 137.665 300.269 137.365C300.773 137.053 301.169 136.627 301.457 136.087H302.681C302.441 136.615 302.111 137.095 301.691 137.527C301.271 137.959 300.773 138.295 300.197 138.535C299.633 138.775 299.003 138.895 298.307 138.895ZM308.523 138.895C307.767 138.895 307.107 138.727 306.543 138.391C305.991 138.043 305.565 137.563 305.265 136.951C304.977 136.339 304.857 135.631 304.905 134.827C304.929 134.023 305.085 133.291 305.373 132.631C305.661 131.971 306.045 131.401 306.525 130.921C307.005 130.441 307.557 130.069 308.181 129.805C308.805 129.529 309.465 129.391 310.161 129.391C311.241 129.391 312.087 129.667 312.699 130.219C313.311 130.771 313.629 131.509 313.653 132.433H312.393C312.381 131.797 312.147 131.317 311.691 130.993C311.235 130.657 310.671 130.489 309.999 130.489C309.339 130.489 308.727 130.663 308.163 131.011C307.599 131.359 307.143 131.851 306.795 132.487C306.447 133.123 306.249 133.867 306.201 134.719C306.177 135.223 306.219 135.667 306.327 136.051C306.447 136.435 306.621 136.759 306.849 137.023C307.089 137.287 307.365 137.491 307.677 137.635C308.001 137.767 308.343 137.833 308.703 137.833C309.147 137.833 309.567 137.761 309.963 137.617C310.371 137.461 310.731 137.239 311.043 136.951C311.367 136.651 311.613 136.285 311.781 135.853H313.059C312.843 136.441 312.507 136.969 312.051 137.437C311.607 137.893 311.085 138.253 310.485 138.517C309.885 138.769 309.231 138.895 308.523 138.895ZM318.124 138.679C317.536 138.679 317.062 138.589 316.702 138.409C316.354 138.217 316.12 137.929 316 137.545C315.892 137.149 315.892 136.645 316 136.033L316.936 130.687H315.496L315.694 129.607H317.134L317.674 127.501H318.772L318.394 129.607H321.112L320.932 130.687H318.214L317.26 136.033C317.152 136.633 317.194 137.047 317.386 137.275C317.59 137.491 317.98 137.599 318.556 137.599H319.69L319.492 138.679H318.124ZM324.316 138.895C323.656 138.895 323.116 138.775 322.696 138.535C322.276 138.295 321.97 137.983 321.778 137.599C321.586 137.215 321.502 136.807 321.526 136.375C321.55 135.703 321.748 135.133 322.12 134.665C322.504 134.185 323.02 133.825 323.668 133.585C324.316 133.333 325.06 133.207 325.9 133.207H328.348C328.456 132.595 328.45 132.091 328.33 131.695C328.222 131.287 328.012 130.981 327.7 130.777C327.4 130.573 326.992 130.471 326.476 130.471C325.852 130.471 325.288 130.627 324.784 130.939C324.292 131.251 323.938 131.707 323.722 132.307H322.408C322.6 131.671 322.906 131.137 323.326 130.705C323.758 130.273 324.262 129.949 324.838 129.733C325.414 129.505 326.008 129.391 326.62 129.391C327.424 129.391 328.072 129.547 328.564 129.859C329.056 130.159 329.386 130.585 329.554 131.137C329.734 131.689 329.758 132.337 329.626 133.081L328.654 138.679H327.502L327.718 137.023C327.55 137.275 327.358 137.515 327.142 137.743C326.926 137.971 326.68 138.169 326.404 138.337C326.128 138.505 325.816 138.637 325.468 138.733C325.12 138.841 324.736 138.895 324.316 138.895ZM324.604 137.797C325.06 137.797 325.48 137.707 325.864 137.527C326.248 137.335 326.596 137.089 326.908 136.789C327.22 136.489 327.472 136.153 327.664 135.781C327.868 135.397 328.012 135.001 328.096 134.593L328.168 134.269H325.81C325.186 134.269 324.658 134.353 324.226 134.521C323.794 134.677 323.458 134.905 323.218 135.205C322.99 135.493 322.87 135.841 322.858 136.249C322.834 136.717 322.966 137.095 323.254 137.383C323.542 137.659 323.992 137.797 324.604 137.797ZM335.189 138.895C334.433 138.895 333.773 138.727 333.209 138.391C332.657 138.043 332.231 137.563 331.931 136.951C331.643 136.339 331.523 135.631 331.571 134.827C331.595 134.023 331.751 133.291 332.039 132.631C332.327 131.971 332.711 131.401 333.191 130.921C333.671 130.441 334.223 130.069 334.847 129.805C335.471 129.529 336.131 129.391 336.827 129.391C337.907 129.391 338.753 129.667 339.365 130.219C339.977 130.771 340.295 131.509 340.319 132.433H339.059C339.047 131.797 338.813 131.317 338.357 130.993C337.901 130.657 337.337 130.489 336.665 130.489C336.005 130.489 335.393 130.663 334.829 131.011C334.265 131.359 333.809 131.851 333.461 132.487C333.113 133.123 332.915 133.867 332.867 134.719C332.843 135.223 332.885 135.667 332.993 136.051C333.113 136.435 333.287 136.759 333.515 137.023C333.755 137.287 334.031 137.491 334.343 137.635C334.667 137.767 335.009 137.833 335.369 137.833C335.813 137.833 336.233 137.761 336.629 137.617C337.037 137.461 337.397 137.239 337.709 136.951C338.033 136.651 338.279 136.285 338.447 135.853H339.725C339.509 136.441 339.173 136.969 338.717 137.437C338.273 137.893 337.751 138.253 337.151 138.517C336.551 138.769 335.897 138.895 335.189 138.895ZM344.592 138.895C343.86 138.895 343.266 138.733 342.81 138.409C342.354 138.085 342.042 137.641 341.874 137.077C341.706 136.501 341.694 135.841 341.838 135.097L342.81 129.607H344.07L343.134 134.953C342.978 135.877 343.044 136.585 343.332 137.077C343.62 137.557 344.172 137.797 344.988 137.797C345.528 137.797 346.026 137.677 346.482 137.437C346.95 137.197 347.352 136.843 347.688 136.375C348.036 135.895 348.282 135.307 348.426 134.611L349.29 129.607H350.55L348.966 138.679H347.832L348.03 137.041C347.646 137.629 347.148 138.085 346.536 138.409C345.936 138.733 345.288 138.895 344.592 138.895ZM351.549 138.679L353.835 125.719H355.095L352.809 138.679H351.549ZM358.207 138.895C357.547 138.895 357.007 138.775 356.587 138.535C356.167 138.295 355.861 137.983 355.669 137.599C355.477 137.215 355.393 136.807 355.417 136.375C355.441 135.703 355.639 135.133 356.011 134.665C356.395 134.185 356.911 133.825 357.559 133.585C358.207 133.333 358.951 133.207 359.791 133.207H362.239C362.347 132.595 362.341 132.091 362.221 131.695C362.113 131.287 361.903 130.981 361.591 130.777C361.291 130.573 360.883 130.471 360.367 130.471C359.743 130.471 359.179 130.627 358.675 130.939C358.183 131.251 357.829 131.707 357.613 132.307H356.299C356.491 131.671 356.797 131.137 357.217 130.705C357.649 130.273 358.153 129.949 358.729 129.733C359.305 129.505 359.899 129.391 360.511 129.391C361.315 129.391 361.963 129.547 362.455 129.859C362.947 130.159 363.277 130.585 363.445 131.137C363.625 131.689 363.649 132.337 363.517 133.081L362.545 138.679H361.393L361.609 137.023C361.441 137.275 361.249 137.515 361.033 137.743C360.817 137.971 360.571 138.169 360.295 138.337C360.019 138.505 359.707 138.637 359.359 138.733C359.011 138.841 358.627 138.895 358.207 138.895ZM358.495 137.797C358.951 137.797 359.371 137.707 359.755 137.527C360.139 137.335 360.487 137.089 360.799 136.789C361.111 136.489 361.363 136.153 361.555 135.781C361.759 135.397 361.903 135.001 361.987 134.593L362.059 134.269H359.701C359.077 134.269 358.549 134.353 358.117 134.521C357.685 134.677 357.349 134.905 357.109 135.205C356.881 135.493 356.761 135.841 356.749 136.249C356.725 136.717 356.857 137.095 357.145 137.383C357.433 137.659 357.883 137.797 358.495 137.797ZM365.101 138.679L366.703 129.607H367.855L367.657 131.245C367.933 130.849 368.257 130.513 368.629 130.237C369.013 129.961 369.439 129.751 369.907 129.607C370.387 129.463 370.909 129.391 371.473 129.391L371.257 130.705H370.771C370.375 130.705 369.985 130.753 369.601 130.849C369.229 130.945 368.881 131.107 368.557 131.335C368.245 131.551 367.975 131.845 367.747 132.217C367.519 132.589 367.357 133.051 367.261 133.603L366.361 138.679H365.101ZM372.397 135.349L373.891 126.079H375.259L373.459 135.349H372.397ZM372.649 138.769C372.385 138.769 372.163 138.679 371.983 138.499C371.803 138.319 371.713 138.097 371.713 137.833C371.713 137.569 371.797 137.353 371.965 137.185C372.145 137.005 372.373 136.915 372.649 136.915C372.901 136.915 373.111 137.005 373.279 137.185C373.459 137.353 373.549 137.569 373.549 137.833C373.549 138.097 373.459 138.319 373.279 138.499C373.111 138.679 372.901 138.769 372.649 138.769Z" fill="#1B1B1B"/>
</g>
<defs>
<filter id="filter0_d_92_1768" x="0" y="0.678955" width="427" height="193" filterUnits="userSpaceOnUse" color-interpolation-filters="sRGB">
<feFlood flood-opacity="0" result="BackgroundImageFix"/>
<feColorMatrix in="SourceAlpha" type="matrix" values="0 0 0 0 0 0 0 0 0 0 0 0 0 0 0 0 0 0 127 0" result="hardAlpha"/>
<feOffset dx="10" dy="10"/>
<feComposite in2="hardAlpha" operator="out"/>
<feColorMatrix type="matrix" values="0 0 0 0 0.160784 0 0 0 0 0.392157 0 0 0 0 0.380392 0 0 0 1 0"/>
<feBlend mode="normal" in2="BackgroundImageFix" result="effect1_dropShadow_92_1768"/>
<feBlend mode="normal" in="SourceGraphic" in2="effect1_dropShadow_92_1768" result="shape"/>
</filter>
</defs>
</svg>
