<svg width="149" height="92" viewBox="0 0 149 92" fill="none" xmlns="http://www.w3.org/2000/svg">
<path d="M139.816 80.9289C140.287 80.9289 143.699 81.0733 143.671 74.2691C143.647 67.9529 140.328 68.1419 139.785 68.1419H139.795C139.252 68.1419 135.933 67.9529 135.905 74.2691C135.874 81.0733 139.287 80.9289 139.754 80.9289H139.816ZM139.83 83.2451C138.699 83.2623 131.311 83.008 131.311 74.5887C131.341 66.1968 138.654 66.0834 139.785 66.0903C140.922 66.0834 148.232 66.1968 148.245 74.5887C148.266 83.008 140.871 83.2623 139.74 83.2451" fill="black"/>
<path d="M129.197 67.0387V69.128C128.338 68.7603 127.847 68.4923 126.932 68.2449C126.214 68.0868 123.139 67.3583 121.661 68.9047C121.042 69.5301 120.857 70.6779 122.094 71.5714C123.836 72.6985 126.328 73.2209 128.372 74.891C129.716 75.9494 130.149 77.1968 129.809 79.1041C129.458 81.0422 127.341 82.6058 125.441 83.0044C122.675 83.5612 119.565 83.3 117.097 82.2587L117.114 80.2003C119.379 81.1488 122.901 82.355 125.087 80.4374C125.692 79.8841 126.056 79.1041 125.74 78.2931C125.249 76.8051 121.187 75.9185 118.709 74.0731C116.249 72.5645 116.472 69.9734 117.331 68.5473C119.647 65.0764 125.52 66.0352 129.197 67.0387Z" fill="black"/>
<path d="M115.008 67.0387V69.128C114.142 68.7603 113.654 68.4923 112.743 68.2449C112.032 68.0868 108.943 67.3583 107.475 68.9047C106.85 69.5301 106.661 70.6779 107.888 71.5714C109.644 72.6985 112.132 73.2209 114.183 74.891C115.523 75.9494 115.953 77.1968 115.609 79.1041C115.266 81.0422 113.139 82.6058 111.248 83.0044C108.482 83.5612 105.372 83.3 102.912 82.2587L102.922 80.2003C105.19 81.1488 108.709 82.355 110.905 80.4374C111.489 79.8841 111.86 79.1041 111.551 78.2931C111.046 76.8051 106.991 75.9185 104.516 74.0731C102.059 72.5645 102.279 69.9734 103.135 68.5473C105.451 65.0764 111.328 66.0352 115.008 67.0387Z" fill="black"/>
<path d="M56.8699 67.0387V69.128C55.9971 68.7603 55.516 68.4923 54.595 68.2449C53.8802 68.0868 50.8046 67.3583 49.3372 68.9047C48.7083 69.5301 48.5228 70.6779 49.7599 71.5714C51.4988 72.6985 53.9971 73.2209 56.0418 74.891C57.3854 75.9494 57.815 77.1968 57.4748 79.1041C57.1311 81.0422 55.0005 82.6058 53.1105 83.0044C50.3475 83.5612 47.2307 83.3 44.7667 82.2587L44.777 80.2003C47.052 81.1488 50.5709 82.355 52.7634 80.4374C53.3579 79.8841 53.7221 79.1041 53.4026 78.2931C52.9111 76.8051 48.8561 75.9185 46.375 74.0731C43.9179 72.5645 44.1447 69.9734 44.9901 68.5473C47.3131 65.0764 53.1929 66.0352 56.8699 67.0387Z" fill="black"/>
<path d="M35.9316 81.286C38.1722 81.5094 40.911 81.1657 43.0966 81.1073L43.1069 82.9664H31.2443C31.2443 82.9664 31.6154 82.5815 31.6154 81.9355V67.3787C31.6154 66.736 31.2443 66.3374 31.2443 66.3374H43.1069L43.0966 68.1965C40.911 68.1587 38.1722 67.8013 35.9316 68.0316C35.9316 68.0316 35.9282 73.1725 35.9282 73.523C37.7667 73.6364 39.9282 73.6536 41.6464 73.4371V75.4097C39.9591 75.2516 37.7495 75.2207 35.9282 75.3169L35.9316 75.9492" fill="black"/>
<path d="M94.1383 81.286C96.3789 81.5094 99.1109 81.1657 101.307 81.1073L101.31 82.9664H89.4647C89.4647 82.9664 89.829 82.5815 89.829 81.9355V67.3787C89.829 66.736 89.4647 66.3374 89.4647 66.3374H101.31L101.307 68.1965C99.1109 68.1587 96.3789 67.8013 94.1383 68.0316C94.1383 68.0316 94.1314 73.1725 94.1314 73.523C95.9734 73.6364 98.1349 73.6536 99.8634 73.4371V75.4097C98.1727 75.2516 95.9562 75.2207 94.1383 75.3169V75.9492" fill="black"/>
<path d="M78.0041 68.4336V74.0454C79.4337 74.0454 81.1657 74.2344 82.1588 73.0866C83.0042 71.9629 82.8598 70.5161 82.2997 69.4886C81.3066 67.8151 78.0041 68.4336 78.0041 68.4336ZM78.0316 76.1004V81.9355C78.035 82.5781 78.4027 82.9767 78.4027 82.9767L73.3374 82.9664C73.3374 82.9664 73.7017 82.5815 73.7051 81.9355L73.7017 67.3787C73.7017 66.736 73.3374 66.3374 73.3374 66.3374H81.9767C84.3238 66.4371 86.8083 67.7326 86.8805 70.5539C86.908 72.8564 85.8874 74.1863 84.3513 74.9217C84.0592 75.0591 84.0798 75.0248 83.9801 75.0935C85.0695 77.6262 86.0557 79.4922 87.3685 81.9355C87.6365 82.5781 88.1657 82.9664 88.1657 82.9664H82.932C82.932 82.9664 83.2482 82.5781 82.9251 81.9355C82.9251 81.9355 81.066 77.554 80.1931 76.1004" fill="black"/>
<path d="M63.8013 68.4543L63.7841 74.7017C65.2309 74.798 66.9491 74.9595 67.9388 73.8048C68.7842 72.6845 68.6467 70.5161 68.0797 69.5058C67.0865 67.822 63.8013 68.4543 63.8013 68.4543ZM63.8185 81.9355C63.8185 82.5781 64.1862 82.9733 64.1862 82.9733L59.1243 82.9664C59.1243 82.9664 59.4988 82.5815 59.4988 81.9355V67.3787C59.4988 66.736 59.1243 66.3374 59.1243 66.3374H67.492C69.5917 66.413 71.224 67.3787 71.9148 69.413C72.4371 71.1966 72.3684 73.5093 71.0969 74.9595C69.4027 77.2069 63.8082 76.877 63.8082 76.877" fill="black"/>
<mask id="mask0_22_15" style="mask-type:luminance" maskUnits="userSpaceOnUse" x="0" y="0" width="149" height="92">
<path d="M0 0.00355993H148.266V91.7124H0V0.00355993Z" fill="white"/>
</mask>
<g mask="url(#mask0_22_15)">
<path d="M25.6944 66.3374C25.6944 66.3374 26.0723 66.76 26.0723 67.3683V74.7327C23.873 72.1278 21.9245 69.1862 19.6564 66.5367C18.8145 65.5195 17.2132 63.815 16.6015 63.2961C12.6255 59.4026 6.08597 57.6156 0 59.7634V60.0109C2.08593 59.5573 4.7904 59.7187 7.44678 60.7909C9.43993 61.5229 12.2783 63.7393 13.921 65.7703C16.0447 68.1895 20.5672 74.413 20.5672 74.413C23.1651 77.7876 25.4573 80.8563 28.1102 84.0522V67.3683C28.1171 66.76 28.4882 66.3374 28.4882 66.3374" fill="black"/>
<path d="M13.8729 82.9872C13.8729 82.9872 13.495 82.568 13.495 81.9563V74.5886C15.6909 77.1935 17.6461 80.1385 19.9142 82.788C20.7561 83.8017 22.3472 85.5096 22.9658 86.0319C26.9452 89.9254 33.4745 91.7124 39.5673 89.5577V89.3138C37.4814 89.7605 34.7735 89.6093 32.1205 88.5268C30.1308 87.7949 27.2889 85.5851 25.6497 83.5542C23.5225 81.1315 19.0001 74.9116 19.0001 74.9116C16.3987 71.537 14.1065 68.4614 11.4502 65.2758V81.9563C11.4502 82.568 11.0722 82.9872 11.0722 82.9872" fill="black"/>
</g>
<path d="M99.623 39.4952C93.5301 41.6465 86.9974 39.8595 83.0214 35.966C82.4029 35.4471 80.8083 33.7357 79.9664 32.722C77.7018 30.0725 75.7464 27.1274 73.5505 24.5226V31.8903C73.5505 32.5055 73.9286 32.9247 73.9286 32.9247H71.1278C71.1278 32.9247 71.5024 32.5055 71.5058 31.8903V15.2098C74.1622 18.3988 76.4509 21.4744 79.0523 24.8456C79.0523 24.8456 83.5747 31.0656 85.7019 33.4917C87.3445 35.5193 90.183 37.7289 92.1762 38.4609C94.8291 39.5433 97.537 39.6946 99.623 39.2478V39.4952ZM60.0556 9.94512V9.69769C66.1415 7.5499 72.6777 9.33686 76.6537 13.2338C77.2688 13.7493 78.8667 15.4538 79.7087 16.471C81.9767 19.1239 83.9252 22.0621 86.128 24.6703V17.3026C86.128 16.6943 85.7465 16.2716 85.7465 16.2716H88.5404C88.5404 16.2716 88.1727 16.6943 88.1624 17.3026V33.9866C85.5094 30.7941 83.2207 27.7219 80.6228 24.3508C80.6228 24.3508 76.097 18.1239 73.9732 15.7046C72.334 13.6737 69.4921 11.4606 67.5024 10.7286C64.8426 9.65302 62.1415 9.49494 60.0556 9.94512ZM55.1174 49.4438H104.561V0H55.1174V49.4438Z" fill="black"/>
</svg>
