<svg width="166" height="209" viewBox="0 0 166 209" fill="none" xmlns="http://www.w3.org/2000/svg">
<g filter="url(#filter0_d_90_783)">
<path d="M102.291 25.1466H7.00879V192.792H102.291V25.1466Z" fill="white"/>
<path d="M102.886 193.314H6.48535V24.6249H102.886V193.314ZM7.60369 192.196H101.768V25.743H7.60369V192.196Z" fill="#0A2064"/>
<path d="M96.6248 74.8662H28.1826V145.979H96.6248V74.8662Z" fill="#E62C31"/>
<path d="M21.4724 87.1655C21.1742 87.1655 20.876 86.9419 20.876 86.5692V66.1447H39.1421C39.4404 66.1447 39.7386 66.3683 39.7386 66.741C39.7386 67.1137 39.5149 67.3374 39.1421 67.3374H21.9943V86.6437C21.9943 86.9419 21.7706 87.1655 21.4724 87.1655Z" fill="#0A2064"/>
<path d="M40.2593 154.85H19.8311V136.587C19.8311 136.289 20.0547 135.991 20.4275 135.991C20.8003 135.991 21.0239 136.214 21.0239 136.587V153.732H40.3339C40.6321 153.732 40.9303 153.956 40.9303 154.328C40.9303 154.701 40.5576 154.85 40.2593 154.85Z" fill="#0A2064"/>
<path d="M55.8427 38.4896H22.5908V46.1674H55.8427V38.4896Z" fill="white"/>
<path d="M56.3643 46.7637H21.9941V37.9678H56.3643V46.7637ZM23.1125 45.6456H55.246V39.0859H23.1125V45.6456Z" fill="#0A2064"/>
<path d="M61.6577 45.8693C63.6342 45.8693 65.2364 44.2673 65.2364 42.2913C65.2364 40.3152 63.6342 38.7133 61.6577 38.7133C59.6813 38.7133 58.0791 40.3152 58.0791 42.2913C58.0791 44.2673 59.6813 45.8693 61.6577 45.8693Z" fill="#0A2064"/>
<path d="M3.95167 50.3418H0.59668V89.8492H3.95167V50.3418Z" fill="#E62C31"/>
<path d="M4.47337 90.3709H0V49.7455H4.47337V90.3709ZM1.11834 89.2528H3.35503V50.8636H1.11834V89.2528Z" fill="#E62C31"/>
<path d="M38.0241 102.149C37.875 102.149 37.7258 102.074 37.5767 101.925L35.3401 99.3905C35.1164 99.1669 35.1164 98.7942 35.4147 98.5705C35.6383 98.3469 36.0111 98.3469 36.2348 98.6451L38.4714 101.18C38.6951 101.403 38.6951 101.776 38.3969 102C38.3223 102.074 38.1732 102.149 38.0241 102.149Z" fill="white"/>
<path d="M23.3364 116.386C23.1873 116.386 23.0382 116.312 22.9636 116.237C22.74 116.013 22.74 115.641 22.9636 115.417L28.108 110.05C28.3316 109.827 28.7045 109.827 28.9281 110.05C29.1518 110.274 29.1518 110.646 28.9281 110.87L23.7837 116.237C23.6346 116.386 23.4855 116.386 23.3364 116.386Z" fill="#E62C31"/>
<path d="M42.7941 135.32C42.5705 135.32 42.3468 135.171 42.2722 135.022L41.0048 132.264C40.8557 131.965 41.0048 131.667 41.303 131.518C41.6012 131.369 41.8995 131.518 42.0486 131.816L43.316 134.574C43.4652 134.873 43.316 135.171 43.0178 135.32C42.9432 135.245 42.8687 135.32 42.7941 135.32Z" fill="white"/>
<path d="M145.906 160.813L157.984 175.722L130.771 200.843C130.771 200.843 127.565 197.339 129.652 193.761C130.696 191.897 131.665 188.618 131.889 185.04C131.889 184.816 131.889 184.518 131.964 184.294C132.038 183.4 132.038 182.505 131.964 181.611C131.964 181.387 131.889 181.089 131.889 180.865C131.665 178.853 131.144 176.914 130.249 175.275L145.906 160.813Z" fill="#0A2064"/>
<path d="M138.971 180.641C136.66 180.94 134.274 181.312 131.963 181.685C131.963 181.461 131.889 181.163 131.889 180.94C134.2 180.641 136.511 180.269 138.822 179.971C139.27 179.896 139.419 180.641 138.971 180.641Z" fill="white"/>
<path d="M138.301 184.816C136.214 184.891 134.051 184.965 131.964 185.04C131.964 184.816 131.964 184.518 132.038 184.294C134.126 184.22 136.288 184.145 138.376 184.07C138.823 184.07 138.748 184.816 138.301 184.816Z" fill="white"/>
<path d="M93.7905 179.449L92.523 198.606H55.4688C55.4688 198.606 55.4687 193.91 59.4202 192.643C61.4332 192.046 64.4155 190.183 67.0249 187.798C67.174 187.648 67.3977 187.499 67.5468 187.276C68.1433 186.679 68.8143 186.009 69.3362 185.338C69.4853 185.114 69.6344 184.965 69.7835 184.741C70.9764 183.101 71.9456 181.312 72.3184 179.523H93.7905V179.449Z" fill="#0A2064"/>
<path d="M133.38 134.724C129.578 121.306 123.39 83.8113 123.39 83.8113L101.992 88.7311C101.396 86.5694 100.948 85.2276 100.948 85.2276L79.327 93.5018C79.327 110.945 69.6348 180.418 69.6348 180.418L97.6678 184.369C97.6678 184.369 100.874 154.03 102.961 130.847C110.864 157.832 124.21 177.511 129.578 180.865L150.006 164.093C150.08 164.019 137.182 148.141 133.38 134.724Z" fill="white"/>
<path d="M98.1907 184.965L68.9648 180.865L69.0394 180.343C69.1139 179.672 78.7316 110.646 78.7316 93.5017V93.1289L101.247 84.4821L101.397 85.0784C101.397 85.0784 101.769 86.2711 102.291 88.1346L123.763 83.2148L123.838 83.8112C123.912 84.1839 130.101 121.455 133.828 134.723C137.556 147.843 150.305 163.646 150.38 163.795L150.752 164.242L129.579 181.611L129.206 181.387C124.062 178.256 111.312 159.844 103.186 133.829C101.098 156.341 98.1907 184.22 98.1161 184.518L98.1907 184.965ZM70.2323 179.896L97.1469 183.623C97.5942 179.3 100.427 151.868 102.366 130.698L102.664 127.791L103.484 130.624C111.312 157.235 124.136 176.318 129.504 180.045L149.187 163.869C147.099 161.186 136.14 146.948 132.71 134.798C129.206 122.424 123.614 89.1782 122.794 84.4075L101.471 89.2527L101.322 88.731C100.949 87.3892 100.651 86.4202 100.502 85.8238L79.85 93.8744C79.7754 110.87 71.1269 173.336 70.2323 179.896Z" fill="#0A2064"/>
<path d="M117.5 89.4765C117.276 89.4765 117.052 89.3274 116.978 89.1038C116.679 88.4329 116.381 87.762 116.083 87.0911C115.934 86.793 116.083 86.4948 116.381 86.3457C116.679 86.1966 116.978 86.3457 117.127 86.6439C117.425 87.3147 117.723 87.9857 118.021 88.7311C118.171 89.0293 118.021 89.3274 117.723 89.4765C117.649 89.402 117.574 89.4765 117.5 89.4765Z" fill="#0A2064"/>
<path d="M138.749 161.708C138.525 161.708 138.376 161.633 138.227 161.41C137.481 160.142 136.736 158.726 135.99 157.235C135.841 156.937 135.99 156.639 136.214 156.49C136.512 156.341 136.81 156.49 136.959 156.713C137.705 158.204 138.45 159.546 139.196 160.813C139.345 161.111 139.271 161.41 138.972 161.559C138.898 161.633 138.823 161.708 138.749 161.708ZM134.424 153.285C134.201 153.285 133.977 153.135 133.903 152.986C133.232 151.57 132.635 150.154 131.964 148.663C131.815 148.365 131.964 148.067 132.262 147.918C132.561 147.768 132.859 147.918 133.008 148.216C133.604 149.707 134.275 151.123 134.872 152.539C135.021 152.837 134.872 153.135 134.574 153.285C134.574 153.21 134.499 153.285 134.424 153.285ZM130.771 144.563C130.548 144.563 130.324 144.414 130.249 144.19C129.727 142.774 129.28 141.283 128.758 139.643C128.684 139.345 128.833 139.047 129.131 138.972C129.429 138.898 129.727 139.047 129.802 139.345C130.249 140.911 130.771 142.476 131.219 143.818C131.293 144.116 131.144 144.414 130.92 144.563C130.92 144.489 130.846 144.563 130.771 144.563ZM128.162 135.469C127.938 135.469 127.714 135.32 127.64 135.022C127.267 133.605 126.969 132.04 126.596 130.4C126.522 130.102 126.745 129.804 127.043 129.729C127.342 129.655 127.64 129.878 127.714 130.176C128.087 131.816 128.385 133.382 128.758 134.798C128.833 135.096 128.609 135.394 128.311 135.469C128.236 135.469 128.162 135.469 128.162 135.469ZM126.223 126.151C125.925 126.151 125.701 125.928 125.701 125.704C125.403 124.139 125.105 122.648 124.881 121.082C124.807 120.784 125.03 120.486 125.329 120.411C125.627 120.337 125.925 120.561 126 120.859C126.298 122.424 126.522 123.99 126.82 125.48C126.894 125.779 126.671 126.077 126.372 126.151C126.298 126.151 126.298 126.151 126.223 126.151ZM124.583 116.908C124.285 116.908 124.061 116.684 124.061 116.461C123.763 114.895 123.465 113.33 123.241 111.839C123.167 111.541 123.39 111.243 123.688 111.168C123.987 111.094 124.285 111.317 124.359 111.615C124.658 113.181 124.956 114.746 125.18 116.312C125.254 116.61 125.03 116.908 124.732 116.983C124.658 116.908 124.583 116.908 124.583 116.908ZM122.794 107.59C122.57 107.59 122.272 107.441 122.272 107.143C121.899 105.503 121.601 104.012 121.228 102.521C121.154 102.223 121.377 101.925 121.675 101.85C121.974 101.776 122.272 102 122.346 102.298C122.719 103.789 123.017 105.279 123.39 106.919C123.465 107.217 123.241 107.516 122.943 107.59C122.868 107.59 122.868 107.59 122.794 107.59ZM120.557 98.4215C120.333 98.4215 120.11 98.2725 120.035 98.0488C119.588 96.4835 119.141 94.9926 118.619 93.5763C118.544 93.2781 118.693 92.98 118.991 92.8309C119.29 92.7563 119.588 92.9054 119.737 93.2036C120.184 94.6199 120.706 96.1853 121.154 97.7507C121.228 98.0488 121.079 98.347 120.781 98.4215C120.706 98.347 120.632 98.4215 120.557 98.4215Z" fill="#0A2064"/>
<path d="M142.626 167.448C142.477 167.448 142.328 167.373 142.179 167.299C142.179 167.299 141.657 166.702 140.762 165.435C140.613 165.211 140.613 164.839 140.911 164.689C141.135 164.54 141.508 164.54 141.657 164.839C142.477 166.031 142.924 166.553 142.999 166.553C143.222 166.777 143.222 167.149 142.924 167.373C142.85 167.373 142.7 167.448 142.626 167.448Z" fill="#0A2064"/>
<path d="M75.2265 189.363C73.288 188.021 71.3496 186.68 69.4111 185.338C69.5602 185.114 69.7093 184.965 69.8584 184.741C71.7969 186.083 73.7354 187.425 75.5992 188.692C75.972 188.99 75.5992 189.587 75.2265 189.363Z" fill="white"/>
<path d="M71.8715 191.897C70.3058 190.481 68.6656 189.139 67.0254 187.723C67.1745 187.574 67.3982 187.425 67.5473 187.201C69.113 188.618 70.7532 189.959 72.3934 191.301C72.7662 191.748 72.2443 192.27 71.8715 191.897Z" fill="white"/>
<path d="M102.44 125.778C102.216 125.778 101.992 125.629 101.918 125.406C100.352 121.604 98.5627 105.503 98.1899 102.596C97.4444 102.521 95.5805 102.223 92.2254 101.552C91.9272 101.478 91.7036 101.18 91.7781 100.881C91.8527 100.583 92.1509 100.36 92.4491 100.434C96.9971 101.329 98.7118 101.552 98.7118 101.552L99.1592 101.627L99.2337 102.074C99.2337 102.298 101.321 121.082 102.887 125.033C103.036 125.331 102.887 125.629 102.589 125.778C102.589 125.778 102.514 125.778 102.44 125.778Z" fill="#0A2064"/>
<path d="M86.3358 38.9368C78.8056 41.4712 72.543 46.6147 74.1832 68.2319C75.8234 89.8491 76.2707 95.4398 76.2707 95.4398L124.732 88.5819C124.732 88.5074 110.566 30.7371 86.3358 38.9368Z" fill="#E62C31"/>
<path d="M75.7484 96.0363L75.6738 95.4399C75.6738 95.3654 75.1519 89.6257 73.5862 68.232C72.0206 47.5093 77.4632 41.3223 86.1117 38.4152C90.2868 36.9989 94.4619 37.4461 98.4879 39.6078C115.412 48.9256 124.881 86.7185 125.253 88.3584L125.402 88.9548L75.7484 96.0363ZM86.4844 39.4587C79.9235 41.695 73.0644 45.8694 74.7046 68.1575C76.0466 85.824 76.5685 92.831 76.7176 94.7691L123.986 88.0603C122.719 83.1405 113.324 49.0747 97.966 40.6514C94.2382 38.5642 90.3613 38.1915 86.4844 39.4587Z" fill="#E62C31"/>
<path d="M106.54 68.232C113.101 68.232 119.587 68.1574 126.148 68.0829C124.284 53.8453 112.281 37.5951 92.8965 35.8806V49.5964C99.4574 49.82 105.646 60.1814 106.54 68.232Z" fill="#E62C31"/>
<path d="M106.018 68.7537L105.943 68.232C105.049 60.1814 98.9353 50.2673 92.8217 50.0436H92.2998V35.2097L92.8962 35.2843C112.355 36.9988 124.806 53.398 126.67 68.0083L126.745 68.6047H126.148C119.736 68.6792 113.101 68.7537 106.54 68.7537H106.018ZM93.4181 49C99.8299 49.7455 105.869 59.3614 106.987 67.6356C113.175 67.6356 119.364 67.5611 125.477 67.4865C123.39 53.6962 111.61 38.415 93.4181 36.4769V49Z" fill="#E62C31"/>
<path d="M112.058 20.2268L117.128 6.66006C119.216 1.06939 111.909 -1.68868 109.821 3.90199L104.826 17.2451C107.287 18.2141 109.672 19.1832 112.058 20.2268Z" fill="#0A2064"/>
<path d="M39.8133 199.501C38.844 199.128 38.3967 198.01 38.7695 197.115L43.3174 185.561C43.6902 184.592 44.8085 184.145 45.7032 184.518C46.6724 184.89 47.1197 186.009 46.7469 186.903L42.199 198.457C41.9008 199.426 40.7825 199.873 39.8133 199.501Z" fill="#0A2064"/>
<path d="M61.1359 175.051L117.5 24.0284C122.57 10.6854 101.769 2.7094 96.699 16.127L40.3348 167.149C37.8 173.858 37.4272 190.556 42.5715 192.568C47.865 194.581 58.601 181.76 61.1359 175.051Z" fill="white"/>
<path d="M43.8394 193.314C43.392 193.314 42.8702 193.239 42.4974 193.09C36.8311 190.928 37.2785 173.858 39.8879 167L96.2521 15.9779C99.0106 8.74732 105.944 7.55466 111.163 9.5673C116.457 11.5799 120.855 17.0215 118.097 24.2521L61.7328 175.275C60.3908 178.778 57.0358 183.623 53.308 187.499C51.0713 189.81 47.0453 193.314 43.8394 193.314ZM106.541 9.79092C102.813 9.79092 99.0852 11.6545 97.2959 16.3506L40.9317 167.373C38.2477 174.455 38.3223 190.332 42.8702 192.047C44.8832 192.792 48.5364 190.854 52.5624 186.68C56.1411 183.027 59.4961 178.182 60.689 174.902L117.053 23.8794C119.513 17.3197 115.562 12.3999 110.79 10.6109C109.448 10.0891 107.957 9.79092 106.541 9.79092Z" fill="#0A2064"/>
<path d="M95.5066 19.4813L92.9717 26.3392C99.8308 29.1718 106.69 32.0044 113.475 34.9116L116.084 27.8301C109.299 24.9975 102.44 22.1648 95.5066 19.4813Z" fill="#0A2064"/>
<path d="M58.0052 180.791C59.4217 178.703 60.5401 176.691 61.1365 175.051L79.9991 124.586C73.14 121.753 66.2809 118.995 59.2726 116.461L40.3355 167.224C39.8881 168.491 39.4408 170.131 39.1426 171.92C45.4053 174.976 51.6679 177.958 58.0052 180.791Z" fill="#0A2064"/>
<path d="M121.824 55.4106C116.307 58.3178 110.864 61.2995 105.869 65.0266C107.136 69.7973 106.987 74.3444 104.527 76.4316C101.246 79.2642 96.5494 79.0405 91.927 77.4751C90.585 69.7973 86.6335 67.7846 82.4584 66.2193C79.1779 65.0266 78.9542 68.2319 84.024 72.0335L84.0986 73.748C82.9057 73.0771 81.862 72.3317 80.8927 71.6608C74.63 67.1883 74.0336 72.4063 74.0336 72.4063C69.933 72.779 71.2005 77.1024 71.2005 77.1024C68.5165 80.1586 69.0383 81.8731 81.1909 90.8927C95.2074 101.254 121.675 100.434 125.999 76.357C127.192 70.0209 125.701 62.3431 121.824 55.4106Z" fill="white"/>
<path d="M100.874 97.8252C93.7916 97.8252 86.4852 95.5889 80.8935 91.4145C72.3196 85.0039 69.561 82.3949 69.3373 80.0841C69.1882 78.8915 69.8592 77.9224 70.6048 77.0279C70.4556 76.357 70.232 74.7171 71.1266 73.4499C71.6485 72.6299 72.4687 72.1827 73.6616 71.9591C73.8107 71.2882 74.258 70.0955 75.4509 69.5737C76.8674 68.9028 78.8059 69.4992 81.2663 71.2136C82.0118 71.7354 82.7574 72.2572 83.5775 72.7045V72.2572C80.5952 69.9464 79.1041 67.4865 79.8497 66.0702C80.0734 65.6975 80.8189 64.8776 82.7574 65.623C87.0816 67.2629 91.1076 69.35 92.5242 76.9533C97.6685 78.5187 101.62 78.2206 104.304 75.9098C106.392 74.1208 106.839 70.0955 105.422 65.0266L105.348 64.6539L105.646 64.4303C110.939 60.5541 116.68 57.4233 121.675 54.8144L122.197 54.5907L122.496 55.038C126.372 62.1195 127.938 69.8719 126.745 76.4316C124.583 88.3583 117.351 93.5763 111.76 95.8126C108.255 97.1543 104.602 97.8252 100.874 97.8252ZM76.6438 70.5427C76.3456 70.5427 76.0473 70.6173 75.8237 70.6918C74.7799 71.1391 74.6308 72.5554 74.6308 72.5554L74.5562 73.0026L74.1089 73.0772C73.1397 73.1517 72.3941 73.5244 72.0213 74.1208C71.2758 75.2389 71.7231 77.0279 71.7231 77.0279L71.7977 77.3261L71.574 77.5497C70.6048 78.5933 70.3065 79.2642 70.3811 80.0096C70.6048 81.8732 73.5125 84.6312 81.4899 90.52C89.7656 96.707 101.993 98.496 111.089 94.8435C116.457 92.6817 123.316 87.762 125.403 76.357C126.522 70.17 125.105 62.8649 121.526 56.1561C116.755 58.616 111.387 61.5977 106.392 65.2503C107.808 70.6173 107.212 74.8662 104.826 76.8788C101.769 79.4878 97.2212 79.8605 91.6295 78.0715L91.3313 77.997L91.2567 77.6988C89.9893 70.3936 86.4106 68.4555 82.1609 66.8902C81.2662 66.5174 80.7444 66.6665 80.5952 66.8902C80.297 67.3374 80.8935 69.2755 84.2485 71.81L84.4722 71.9591L84.5467 74.9407L83.652 74.4189C82.5337 73.7481 81.4153 73.0026 80.4461 72.3318C78.955 71.0646 77.613 70.5427 76.6438 70.5427Z" fill="#0A2064"/>
<path d="M76.6432 75.0899C75.8976 74.4936 75.3757 73.7482 75.0775 72.7791C74.9284 72.3319 74.2574 72.4809 74.3319 73.0027C74.6302 74.0463 75.2266 74.9409 76.0467 75.6118C76.4941 75.9099 77.016 75.3881 76.6432 75.0899Z" fill="#0A2064"/>
<path d="M73.8844 79.6369C72.9898 79.4132 72.3187 78.7423 72.0951 77.8478C71.946 77.4006 71.275 77.5497 71.3495 78.0715C71.6477 79.1896 72.5424 80.0841 73.6608 80.3823C74.1827 80.4568 74.4063 79.7114 73.8844 79.6369Z" fill="#0A2064"/>
<path d="M68.2926 99.316C64.4903 89.9982 63.4465 75.4625 76.792 60.7777C77.3139 60.2559 77.7612 59.7341 78.2085 59.2123C79.5505 53.0253 81.1907 46.9874 84.0239 41.2476C83.5765 40.5767 83.1292 40.2786 83.1292 40.2786C69.8583 46.3165 52.5613 55.7088 47.6407 80.5314C44.5093 96.0361 50.101 108.857 58.0785 114.075C62.9991 117.281 66.9506 121.53 69.7837 120.411C69.7837 120.411 73.2133 120.933 75.3754 117.43C75.3754 117.43 78.9541 117.355 78.5813 113.852C78.3576 111.988 76.1955 109.454 73.9588 106.845L75.3009 106.025C77.6121 108.037 82.3837 109.677 81.1162 105.95C79.8488 102.596 75.7482 100.434 68.2926 99.316Z" fill="white"/>
<path d="M68.7407 121.157C66.6532 121.157 64.2674 119.368 61.5834 117.281C60.3905 116.386 59.1231 115.417 57.7065 114.523C50.0272 109.454 43.69 96.9307 47.045 80.3823C51.742 56.9016 67.026 46.9875 82.8318 39.7569L83.13 39.6078L83.3537 39.7569C83.4282 39.7569 83.8756 40.1296 84.3974 40.875L84.6212 41.1732L84.472 41.4713C81.4898 47.5093 79.9241 53.8454 78.7312 59.2869V59.436L78.6567 59.5105C78.2094 60.0323 77.762 60.5541 77.2401 61.1505C62.5526 77.4007 66.2804 92.6818 68.7407 98.7943C76.2709 99.9124 80.3714 102.223 81.5643 105.801C82.0862 107.367 81.6389 108.112 81.117 108.485C79.775 109.379 76.8673 108.112 75.1526 106.77L74.6307 107.068C76.8673 109.603 78.8058 111.988 78.9549 113.852C79.104 115.044 78.8058 116.013 78.1348 116.759C77.3147 117.728 76.0472 117.952 75.5253 118.026C73.5123 121.157 70.4556 121.082 69.71 121.082C69.4118 121.082 69.039 121.157 68.7407 121.157ZM82.9809 40.9495C67.5479 48.031 52.7113 57.7961 48.0888 80.606C44.8829 96.558 51.1456 108.932 58.3029 113.628C59.7195 114.523 60.987 115.492 62.2544 116.461C65.2367 118.697 67.7715 120.635 69.5609 119.964L69.71 119.89H69.8591C70.0082 119.89 72.9904 120.262 74.8543 117.132L75.0034 116.833H75.3017C75.3017 116.833 76.6437 116.759 77.4638 115.939C77.9111 115.417 78.0602 114.746 77.9857 113.926C77.8366 112.286 75.6745 109.752 73.4378 107.218L72.9904 106.696L75.3017 105.354L75.5999 105.652C77.3147 107.143 79.8496 108.037 80.5206 107.59C80.8934 107.367 80.6697 106.547 80.5206 106.248C79.4768 103.043 75.4508 100.956 68.2934 99.9124L67.9952 99.8378L67.8461 99.5397C65.3112 93.4272 61.1361 77.4007 76.42 60.4051C76.8674 59.8833 77.3146 59.436 77.6874 58.9142C78.8058 53.5472 80.446 47.2856 83.3537 41.3222C83.2046 41.1732 83.0555 41.0241 82.9809 40.9495Z" fill="#0A2064"/>
<path d="M69.1872 71.959C70.902 68.3064 73.3624 65.8465 76.7919 62.1194C77.3138 61.5976 77.9848 62.1194 78.4321 61.5231C79.7741 55.3361 81.1161 46.9128 83.9493 41.2476C83.5019 40.5767 83.0546 40.2786 83.0546 40.2786C74.3316 44.2293 63.8192 49.7454 56.2891 60.1068C60.4642 64.1321 64.863 68.0083 69.1872 71.959Z" fill="#E62C31"/>
<path d="M69.412 72.8535L68.8901 72.3318C67.9954 71.5118 67.1007 70.7664 66.2806 69.9464C62.851 66.8902 59.3469 63.6849 55.9919 60.4796L55.6191 60.1069L55.9174 59.7342C63.2984 49.671 73.2143 44.1549 82.9065 39.7569L83.2048 39.6078L83.4284 39.7569C83.503 39.7569 83.9503 40.1296 84.4722 40.875L84.6959 41.1732L84.5468 41.4713C82.2355 46.1675 80.8935 52.6527 79.7006 58.3924C79.477 59.5105 79.2533 60.5541 79.0297 61.5977V61.7468L78.9551 61.8213C78.5823 62.2686 78.0604 62.2686 77.7622 62.2686C77.464 62.2686 77.3894 62.2686 77.3149 62.3431C76.8675 62.7904 76.4948 63.2376 76.0474 63.6849C73.2889 66.7411 71.2759 68.9028 69.7847 72.0336L69.412 72.8535ZM57.0357 60.0323C60.2416 63.1631 63.6712 66.2193 66.9516 69.1264C67.6226 69.7228 68.3682 70.3937 69.0392 70.99C70.5303 68.0829 72.6179 65.8466 75.1528 63.014C75.5255 62.5668 75.9729 62.1195 76.4202 61.6722C76.8676 61.225 77.3149 61.225 77.6876 61.225C77.8367 61.225 77.9113 61.225 77.9859 61.225C78.2095 60.2559 78.3586 59.2869 78.5823 58.2433C79.7006 52.5781 81.0427 46.0929 83.3539 41.3222C83.2048 41.1732 83.1302 41.0241 82.9811 40.9495C73.6616 45.1984 64.1185 50.491 57.0357 60.0323Z" fill="#E62C31"/>
<path d="M74.9282 116.983C73.4371 114.225 71.7223 111.541 69.7838 109.007C69.4856 108.634 68.8146 109.007 69.1128 109.379C71.0512 111.914 72.6915 114.523 74.2572 117.355C74.5554 117.803 75.1518 117.43 74.9282 116.983Z" fill="#0A2064"/>
<path d="M70.6046 119.592C69.2626 116.461 67.2496 113.777 64.4911 111.765C64.1183 111.466 63.7455 112.137 64.1183 112.436C66.7277 114.299 68.6662 116.834 69.9336 119.815C70.0827 120.188 70.7537 120.039 70.6046 119.592Z" fill="#0A2064"/>
<path d="M73.8102 63.014C73.512 63.014 73.2883 62.7904 73.2883 62.5667L72.5428 58.2433C72.4682 57.9452 72.6919 57.647 72.9901 57.5724C73.2883 57.4979 73.5865 57.7215 73.6611 58.0197L74.4066 62.3431C74.4812 62.6413 74.2575 62.9395 73.9593 63.014C73.8102 63.014 73.8102 63.014 73.8102 63.014Z" fill="#0A2064"/>
<path d="M33.7736 199.874C33.6245 199.874 33.4008 199.799 33.3262 199.65L19.9808 180.642C19.8316 180.418 19.8317 180.045 20.1299 179.896C20.3535 179.747 20.7263 179.747 20.8754 180.045L34.2209 199.054C34.37 199.277 34.37 199.65 34.0718 199.799C33.9972 199.874 33.8481 199.874 33.7736 199.874Z" fill="#E62C31"/>
<path d="M28.182 199.874C28.1074 199.874 27.9583 199.874 27.8837 199.799L18.1915 193.239C17.9679 193.09 17.8933 192.717 18.0424 192.494C18.1915 192.27 18.5643 192.196 18.788 192.345L28.4802 198.905C28.7038 199.054 28.7784 199.426 28.6293 199.65C28.5547 199.799 28.4056 199.874 28.182 199.874Z" fill="#E62C31"/>
<path d="M89.318 26.4138C89.2435 23.8049 86.634 22.2395 83.7264 23.6558C83.279 23.8794 82.9062 24.1776 82.4589 24.5503C82.4589 24.5503 82.4589 24.5503 82.3844 24.4758C78.2838 20.1523 71.7974 19.556 67.9205 23.2085C64.0436 26.8611 64.9383 32.7499 68.2188 37.7442C71.2756 42.2167 77.6128 44.6021 82.6826 39.0115C84.3228 37.1479 85.292 34.688 85.3666 32.1536C88.0506 31.3336 89.318 28.7246 89.318 26.4138Z" fill="white"/>
<path d="M76.1212 42.8877C75.8976 42.8877 75.7485 42.8877 75.5248 42.8877C72.5426 42.664 69.7095 40.875 67.8456 38.1169C63.9687 32.3772 63.8941 26.4138 67.6219 22.9103C69.6349 21.0467 72.3189 20.1522 75.2266 20.3759C77.9851 20.5995 80.52 21.8667 82.533 23.8794C82.8312 23.6557 83.2041 23.4321 83.5023 23.283C85.0679 22.463 86.7082 22.463 87.9756 23.2085C89.094 23.8793 89.8395 25.072 89.8395 26.4883C89.9141 28.7246 88.7211 31.5572 85.888 32.6753C85.7389 35.2098 84.7697 37.5951 83.1295 39.4587C80.5946 42.2167 77.9851 42.8877 76.1212 42.8877ZM74.1828 21.4194C71.9461 21.4194 69.8586 22.2394 68.2929 23.6557C64.2669 27.4574 65.9817 33.4207 68.6657 37.446C70.3804 39.9805 72.9153 41.5459 75.5248 41.6949C77.9851 41.844 80.2964 40.8005 82.2348 38.6387C83.8005 36.9243 84.6951 34.6134 84.7697 32.1535V31.7808L85.1425 31.6317C87.6028 30.8118 88.7211 28.3519 88.6466 26.4138C88.6466 25.4447 88.1247 24.5502 87.3046 24.103C86.3354 23.5066 85.0679 23.5812 83.8751 24.1775C83.5023 24.4011 83.1295 24.6248 82.6821 24.9975L82.3094 25.3702L81.9366 24.9975C79.9981 22.9848 77.5378 21.7176 74.9284 21.494C74.7793 21.4195 74.481 21.4194 74.1828 21.4194Z" fill="#0A2064"/>
<path d="M74.5709 32.8235C74.7392 32.4477 74.571 32.0067 74.1952 31.8385C73.8194 31.6702 73.3783 31.8384 73.21 32.2142C73.0417 32.5899 73.2099 33.0309 73.5858 33.1992C73.9616 33.3674 74.4027 33.1992 74.5709 32.8235Z" fill="#0A2064"/>
<path d="M72.0953 38.5641C71.1261 37.2224 70.3806 35.7315 69.7842 34.1662C69.6351 33.7189 70.3061 33.4207 70.4552 33.868C70.9771 35.3588 71.7226 36.7751 72.6172 38.1169C72.99 38.4896 72.3936 38.9368 72.0953 38.5641Z" fill="#0A2064"/>
<path d="M66.9507 29.47C69.1874 28.65 76.0465 22.6866 78.656 27.0101C79.327 28.1282 79.327 29.0227 80.5944 28.7246C81.7873 28.2028 81.5637 26.7119 81.5637 26.7119C82.4583 25.4447 82.7566 24.1775 83.7258 23.6557C86.4098 19.3322 79.7743 13.9652 76.0465 17.1705C76.0465 17.1705 67.7708 15.1579 65.385 20.3013C61.1353 22.0157 59.5697 25.2956 60.4644 28.3519C62.03 33.5698 66.9507 29.47 66.9507 29.47Z" fill="#0A2064"/>
<path d="M83.2047 29.0227C83.1301 27.2337 84.2485 25.6683 85.9633 25.1465C86.4106 24.9974 86.7088 25.7428 86.2615 25.8174C84.9195 26.1901 83.9502 27.4573 84.0248 28.8736C83.9502 29.4699 83.2047 29.5445 83.2047 29.0227Z" fill="#0A2064"/>
</g>
<defs>
<filter id="filter0_d_90_783" x="0" y="0.842407" width="165.983" height="208" filterUnits="userSpaceOnUse" color-interpolation-filters="sRGB">
<feFlood flood-opacity="0" result="BackgroundImageFix"/>
<feColorMatrix in="SourceAlpha" type="matrix" values="0 0 0 0 0 0 0 0 0 0 0 0 0 0 0 0 0 0 127 0" result="hardAlpha"/>
<feOffset dx="8" dy="8"/>
<feComposite in2="hardAlpha" operator="out"/>
<feColorMatrix type="matrix" values="0 0 0 0 0.0761835 0 0 0 0 0.238928 0 0 0 0 0.758162 0 0 0 0.5 0"/>
<feBlend mode="normal" in2="BackgroundImageFix" result="effect1_dropShadow_90_783"/>
<feBlend mode="normal" in="SourceGraphic" in2="effect1_dropShadow_90_783" result="shape"/>
</filter>
</defs>
</svg>
