<svg width="199" height="209" viewBox="0 0 199 209" fill="none" xmlns="http://www.w3.org/2000/svg">
<g filter="url(#filter0_d_92_1381)">
<path d="M36.1723 137.076C56.1498 137.076 72.3447 120.884 72.3447 100.91C72.3447 80.9364 56.1498 64.7444 36.1723 64.7444C16.1949 64.7444 0 80.9364 0 100.91C0 120.884 16.1949 137.076 36.1723 137.076Z" fill="#E62C31"/>
<path d="M127.624 9.47578C127.556 14.1665 123.817 17.9734 119.125 17.9734C114.434 17.9734 110.626 14.1665 110.626 9.47578C110.626 4.78509 114.434 0.978149 119.125 0.978149C123.817 0.978149 127.692 3.22152 127.624 9.47578Z" fill="#E62C31"/>
<path d="M135.239 69.1633L120.349 78.8846L136.803 86.7024L135.239 69.1633Z" fill="#E62C31"/>
<path d="M146.369 65.5855L140.595 67.8064L142.816 73.5801L148.591 71.3592L146.369 65.5855Z" fill="#E62C31"/>
<path d="M75.2685 180.04C76.0165 183.983 77.3763 186.77 78.9402 188.878C79.0762 189.082 79.2121 189.218 79.3481 189.422C79.6881 189.83 80.028 190.169 80.368 190.509C80.572 190.713 80.708 190.849 80.912 190.985C82.7478 192.617 84.7196 193.568 86.4194 194.316C90.703 196.152 90.9069 200.842 90.9069 200.842L57.3184 200.639C57.7263 195.064 57.7263 184.527 57.7263 184.527C64.7296 182.488 68.1293 181.196 75.2685 180.04Z" fill="#0D2983"/>
<path d="M79.0063 188.878C79.1423 189.082 79.2783 189.218 79.4143 189.422C78.0544 190.034 76.6945 190.713 75.3347 191.325C74.9267 191.529 74.5867 190.917 74.9947 190.781C76.3546 190.101 77.6464 189.49 79.0063 188.878Z" fill="white"/>
<path d="M80.4361 190.509C80.6401 190.713 80.7761 190.849 80.9801 190.985C79.4842 191.733 77.9204 192.413 76.4245 193.161C76.0166 193.365 75.6766 192.753 76.0845 192.617C77.5124 191.869 79.0082 191.189 80.4361 190.509Z" fill="white"/>
<path d="M28.6931 176.981C25.5654 179.496 23.7296 182.012 22.6417 184.391C22.5737 184.595 22.4377 184.799 22.3697 185.003C22.1658 185.479 22.0298 185.955 21.8938 186.43C21.8258 186.634 21.7578 186.906 21.6898 187.11C21.1459 189.49 21.2139 191.733 21.3498 193.568C21.6898 198.191 17.6782 200.57 17.6782 200.57L2.17578 170.795C6.86731 167.532 11.3549 164.473 14.9585 160.87C20.058 166.036 24.3415 171.135 28.6931 176.981Z" fill="#0D2983"/>
<path d="M78.6688 107.165C78.6688 107.165 70.5776 103.765 63.9143 102.882C64.3222 97.0353 64.4582 93.1604 64.4582 93.1604L42.9724 94.588C40.6606 107.844 39.7087 127.083 29.9177 144.01C25.4982 151.692 17.8829 157.81 9.92773 164.676C14.3473 170.727 21.4186 178.681 25.9061 184.731C27.198 182.623 46.372 172.494 56.163 146.458C55.8911 167.328 55.1432 188.674 55.1432 188.674L79.4847 187.11C79.4847 187.11 82.8163 142.991 78.6688 107.165Z" fill="white"/>
<path d="M54.5991 189.15V188.606C54.5991 188.402 55.279 168.959 55.619 149.177C47.5958 168.484 34.5411 178.477 28.8977 182.828C27.6738 183.779 26.5859 184.595 26.3819 184.935L25.974 185.615L25.498 185.003C23.3902 182.148 20.6025 178.817 17.9508 175.622C14.9591 171.951 11.8314 168.212 9.45166 164.949L9.17969 164.541L9.51965 164.201C10.3356 163.521 11.1515 162.773 11.9674 162.093C18.9027 156.111 25.43 150.469 29.3736 143.67C37.2608 130.006 39.3686 114.847 41.1364 102.61C41.5444 99.6867 41.9524 96.8995 42.3603 94.3842L42.4283 93.9763L64.866 92.4807V93.0246C64.866 93.0925 64.73 96.7635 64.3221 102.27C70.9174 103.222 78.6686 106.485 78.7366 106.553L79.0086 106.689L79.0766 106.961C83.1562 142.379 79.8925 186.499 79.8925 186.974V187.45L54.5991 189.15ZM56.7069 143.535L56.6389 146.458C56.3669 165.22 55.755 184.595 55.619 188.13L78.9406 186.635C79.2806 181.944 81.9323 140.951 78.1247 107.573C76.6288 106.961 69.6255 104.173 63.7781 103.426L63.3022 103.358L63.3702 102.882C63.7102 98.3951 63.8461 94.996 63.9141 93.7724L43.3802 95.132C42.9723 97.5793 42.6323 100.163 42.2243 102.95C40.4565 115.254 38.3487 130.55 30.3935 144.35C26.3819 151.284 19.7866 156.995 12.7833 163.045C12.1034 163.657 11.4235 164.269 10.6755 164.813C12.9873 167.94 15.979 171.543 18.8347 175.01C21.3505 178.069 23.9342 181.196 26.042 183.915C26.5179 183.507 27.2659 182.896 28.3537 182.08C34.2011 177.593 48.0037 166.988 55.823 146.254L56.7069 143.535Z" fill="#0D2983"/>
<path d="M22.6414 184.323C22.5734 184.527 22.4374 184.731 22.3695 184.935C21.1456 184.051 19.9897 183.099 18.7658 182.216C18.4259 181.944 18.7658 181.332 19.1058 181.604C20.2617 182.556 21.4175 183.439 22.6414 184.323Z" fill="white"/>
<path d="M21.8955 186.363C21.8275 186.567 21.7595 186.839 21.6915 187.042C20.3316 186.023 18.9718 185.071 17.6799 184.051C17.3399 183.779 17.6799 183.168 18.0198 183.439C19.3117 184.459 20.6036 185.411 21.8955 186.363Z" fill="white"/>
<path d="M57.7256 143.126C57.6576 143.126 57.5896 143.127 57.5216 143.059C57.2496 142.991 57.1137 142.651 57.2496 142.379C62.0772 129.802 63.913 115.322 63.913 115.186L63.981 114.778H64.3889C64.4569 114.778 68.1965 114.574 70.7123 113.895C70.9843 113.827 71.2562 113.963 71.3242 114.235C71.3922 114.506 71.2562 114.778 70.9843 114.846C68.8765 115.39 65.9528 115.662 64.8649 115.73C64.5249 118.245 62.6211 131.298 58.2015 142.719C58.1335 142.991 57.9296 143.126 57.7256 143.126Z" fill="#0D2983"/>
<path d="M151.151 79.4966C129.461 79.4966 111.851 61.8895 111.851 40.2036C111.851 39.9316 112.055 39.6597 112.395 39.6597C112.734 39.6597 112.938 39.8636 112.938 40.2036C112.938 61.3457 130.141 78.4769 151.219 78.4769C157.474 78.4769 163.661 76.9133 169.101 74.0581C169.373 73.9222 169.645 73.9902 169.781 74.2621C169.917 74.534 169.849 74.8059 169.577 74.9419C163.933 77.8651 157.542 79.4966 151.151 79.4966Z" fill="#0D2983"/>
<path d="M157.879 37.5524H144.416C144.144 37.5524 143.872 37.3484 143.872 37.0084C143.872 36.6685 144.076 36.4645 144.416 36.4645H157.879C158.151 36.4645 158.423 36.6685 158.423 37.0084C158.423 37.3484 158.151 37.5524 157.879 37.5524Z" fill="#0D2983"/>
<path d="M157.879 43.8745H144.416C144.144 43.8745 143.872 43.6705 143.872 43.3305C143.872 42.9906 144.076 42.7866 144.416 42.7866H157.879C158.151 42.7866 158.423 42.9906 158.423 43.3305C158.423 43.6705 158.151 43.8745 157.879 43.8745Z" fill="#0D2983"/>
<path d="M154.277 64.6768C154.005 64.6768 153.801 64.4728 153.801 64.2009C153.733 63.929 153.937 63.6571 154.209 63.6571C155.637 63.4531 157.065 63.1812 158.425 62.7053C158.697 62.6373 158.969 62.7733 159.037 63.0452C159.105 63.3171 158.969 63.5891 158.697 63.6571C157.337 64.1329 155.841 64.4729 154.277 64.6768C154.345 64.6768 154.345 64.6768 154.277 64.6768Z" fill="#0D2983"/>
<path d="M165.155 60.3935C165.019 60.3935 164.815 60.3256 164.747 60.1896C164.611 59.9857 164.611 59.6458 164.883 59.5098C166.786 58.1502 168.554 56.5186 169.982 54.6152C170.186 54.4112 170.458 54.3433 170.73 54.5472C170.934 54.7512 171.002 55.0231 170.798 55.295C169.302 57.2664 167.466 58.966 165.494 60.3935C165.358 60.3935 165.29 60.3935 165.155 60.3935Z" fill="#0D2983"/>
<path d="M172.636 51.8279C172.568 51.8279 172.5 51.8279 172.432 51.7599C172.16 51.624 172.092 51.3521 172.228 51.0801C173.995 47.7491 174.879 43.9421 174.879 40.1352C174.879 31.7735 170.596 24.2277 163.457 19.8769C163.185 19.7409 163.117 19.401 163.253 19.1971C163.389 18.9252 163.729 18.8572 163.932 18.9932C171.412 23.5479 175.831 31.4336 175.831 40.1352C175.831 44.0781 174.879 48.021 173.044 51.556C173.044 51.6919 172.84 51.8279 172.636 51.8279Z" fill="#0D2983"/>
<path d="M135.172 22.4605C135.036 22.4605 134.9 22.3926 134.764 22.2566C134.56 22.0527 134.628 21.7128 134.832 21.5088C139.319 17.5659 145.099 15.3905 151.15 15.3905C152.85 15.3905 154.482 15.5264 156.114 15.8663C156.386 15.9343 156.59 16.2063 156.522 16.4782C156.454 16.7501 156.182 16.954 155.91 16.8861C154.346 16.5462 152.714 16.4102 151.15 16.4102C145.371 16.4102 139.863 18.5176 135.512 22.2566C135.444 22.3926 135.308 22.4605 135.172 22.4605Z" fill="#0D2983"/>
<path d="M182.357 40.6793C182.085 40.6793 181.813 40.4753 181.813 40.1354C181.813 39.1157 181.745 38.028 181.677 37.0083C180.114 21.3047 166.991 9.47603 151.148 9.47603C150.876 9.47603 150.604 9.27209 150.604 8.93219C150.604 8.59228 150.808 8.38831 151.148 8.38831C167.467 8.38831 180.997 20.6249 182.629 36.8044C182.765 37.8921 182.765 38.9798 182.765 40.0675C182.833 40.4074 182.629 40.6793 182.357 40.6793Z" fill="#0D2983"/>
<path d="M136.871 13.0108C136.668 13.0108 136.532 12.9428 136.396 12.7388C136.26 12.4669 136.396 12.195 136.6 12.059C139.387 10.6314 142.379 9.6117 145.507 8.99987C145.779 8.93189 146.051 9.13582 146.119 9.40774C146.187 9.67966 145.983 9.9516 145.711 10.0196C142.719 10.5634 139.795 11.5831 137.075 12.9428C137.007 12.9428 136.939 13.0108 136.871 13.0108Z" fill="#0D2983"/>
<path d="M143.532 70.8629C143.464 70.8629 143.464 70.8629 143.396 70.8629C135.373 68.8235 128.302 63.5889 124.018 56.4509C123.882 56.179 123.95 55.9071 124.222 55.7711C124.494 55.6351 124.766 55.7031 124.902 55.975C129.05 62.9091 135.917 67.9397 143.668 69.9112C143.94 69.9791 144.076 70.2511 144.008 70.523C143.94 70.727 143.736 70.8629 143.532 70.8629Z" fill="#0D2983"/>
<path d="M151.148 71.8146C150.876 71.8146 150.604 71.6106 150.604 71.2707C150.604 70.9308 150.808 70.7269 151.148 70.7269C158.152 70.7269 165.019 68.2796 170.458 63.9288C170.662 63.7249 171.002 63.7929 171.206 63.9968C171.41 64.2007 171.342 64.5406 171.138 64.7446C165.495 69.2993 158.424 71.8146 151.148 71.8146Z" fill="#0D2983"/>
<path d="M187.389 54.6832C187.321 54.6832 187.253 54.6832 187.185 54.6152C186.913 54.5472 186.777 54.2073 186.913 53.9354C188.612 49.5166 189.496 44.8939 189.496 40.1352C189.496 29.8021 185.417 20.0808 178.006 12.8069C177.802 12.6029 177.802 12.263 178.006 12.0591C178.21 11.8551 178.549 11.8551 178.753 12.0591C186.369 19.537 190.516 29.4622 190.516 40.1352C190.516 45.0299 189.632 49.7886 187.865 54.3433C187.797 54.5472 187.593 54.6832 187.389 54.6832Z" fill="#0D2983"/>
<path d="M171.816 7.84446C171.748 7.84446 171.612 7.84448 171.544 7.7765C169.641 6.62083 167.669 5.60111 165.629 4.71736C165.357 4.5814 165.221 4.30948 165.357 4.03756C165.493 3.76563 165.765 3.62965 166.037 3.76562C168.145 4.64937 170.185 5.6691 172.088 6.89276C172.36 7.02872 172.428 7.36862 172.224 7.57257C172.156 7.70853 172.02 7.84446 171.816 7.84446Z" fill="#0D2983"/>
<path d="M117.018 22.1885C116.95 22.1885 116.882 22.1885 116.746 22.1205C116.474 21.9845 116.406 21.6446 116.542 21.4407C121.301 12.7391 129.052 6.14492 138.435 2.9498C142.515 1.59018 146.799 0.842407 151.15 0.842407C151.422 0.842407 151.694 1.04634 151.694 1.38625C151.694 1.72615 151.49 1.93009 151.15 1.93009C146.935 1.93009 142.719 2.6099 138.775 3.96952C129.664 7.09665 122.117 13.4869 117.494 21.9845C117.426 22.0525 117.222 22.1885 117.018 22.1885Z" fill="#0D2983"/>
<path d="M127.08 42.7868C126.808 42.7868 126.604 42.5829 126.604 42.311C126.536 41.5632 126.468 40.7474 126.468 39.9996C126.468 35.9887 127.42 32.0458 129.255 28.5108C129.391 28.2389 129.663 28.1709 129.935 28.3069C130.207 28.4428 130.275 28.7148 130.139 28.9867C128.372 32.3857 127.488 36.1926 127.488 39.9996C127.488 40.7474 127.556 41.4952 127.624 42.243C127.556 42.5149 127.352 42.7868 127.08 42.7868Z" fill="#0D2983"/>
<path d="M123.543 42.3106L124.019 41.7668C124.495 41.2229 124.223 40.6791 123.679 40.2032C121.776 38.2318 119.872 37.6199 117.56 38.3677C115.996 36.0564 110.829 40.815 107.633 44.554C106.681 45.7097 105.253 47.0693 103.689 48.4969C105.253 52.3718 106.545 56.3827 108.041 60.2577C108.245 60.8695 108.517 61.4813 108.789 62.0252C109.877 60.4616 111.033 59.034 112.257 57.8103C113.209 56.8586 113.888 55.9069 114.5 55.0231C116.404 53.6635 118.852 50.6723 118.852 50.6723C119.464 51.2841 120.484 50.8763 122.728 49.0408C124.971 47.2053 123.951 45.5058 123.951 45.5058C125.175 43.8062 123.543 42.3106 123.543 42.3106Z" fill="white"/>
<path d="M108.652 63.0451L108.312 62.2293C108.04 61.6175 107.836 61.0056 107.564 60.4618C106.816 58.5583 106.136 56.5869 105.456 54.7514C104.776 52.7799 104.028 50.7405 103.212 48.769L103.076 48.4291L103.348 48.2252C104.912 46.8656 106.272 45.506 107.292 44.2823C108.72 42.5828 113.683 37.2123 116.539 37.3482C117.015 37.3482 117.423 37.5522 117.763 37.8921C120.074 37.2802 122.114 37.8921 124.086 39.9315C124.426 40.2714 125.378 41.2232 124.426 42.2429L124.222 42.4468C124.766 43.1946 125.31 44.4183 124.426 45.7099C124.766 46.5257 124.698 48.0892 122.998 49.5848C121.23 51.0804 119.87 51.9642 118.919 51.4883C118.239 52.3041 116.403 54.3435 114.839 55.4992C114.227 56.4509 113.479 57.4026 112.595 58.2864C111.507 59.3741 110.487 60.6657 109.196 62.4332L108.652 63.0451ZM104.232 48.6331C104.98 50.5365 105.66 52.44 106.34 54.3435C107.02 56.247 107.7 58.1504 108.448 60.0539C108.584 60.3938 108.72 60.6657 108.856 61.0056C109.943 59.5101 110.895 58.4223 111.847 57.4706C112.731 56.5869 113.411 55.7031 114.023 54.7514L114.091 54.6834L114.159 54.6154C115.995 53.3238 118.375 50.4006 118.443 50.4006L118.783 49.9927L119.191 50.4006C119.395 50.6046 120.006 50.7405 122.386 48.7011C124.222 47.1375 123.474 45.9139 123.474 45.8459L123.27 45.506L123.474 45.234C124.494 44.0104 123.27 42.7867 123.202 42.7187L122.862 42.3788L123.678 41.4951C123.814 41.3591 123.95 41.2232 123.338 40.6113C121.502 38.7758 119.802 38.232 117.763 38.9118L117.423 39.0478L117.219 38.7079C117.083 38.4359 116.811 38.3679 116.539 38.2999C114.771 38.232 111.031 41.563 108.108 44.8941C107.02 45.9818 105.728 47.2735 104.232 48.6331Z" fill="#0D2983"/>
<path d="M109.538 42.7867C109.538 42.4468 109.606 42.1068 109.81 41.8348H105.866C105.594 41.8348 105.322 42.0388 105.322 42.3787C105.322 42.7187 105.526 42.9227 105.866 42.9227L109.538 42.7867Z" fill="#0D2983"/>
<path d="M127.01 41.7668H115.995C115.927 42.1747 115.791 42.5146 115.451 42.7865H126.942C127.214 42.7865 127.486 42.5826 127.486 42.2427C127.486 41.9028 127.282 41.7668 127.01 41.7668Z" fill="#0D2983"/>
<path d="M105.186 47.0015C101.446 50.6045 95.6667 57.2666 90.1593 59.442C83.292 62.1612 71.1892 47.3414 62.6221 48.2251L64.7978 63.1129C64.7978 63.1129 72.0051 78.0008 85.3318 80.924C98.6584 83.8472 112.257 60.5297 112.325 60.4617C110.625 56.5188 108.313 49.7207 105.186 47.0015Z" fill="#0D2983"/>
<path d="M87.7125 81.7399C86.8966 81.7399 86.0807 81.6719 85.2647 81.4679C71.8701 78.4768 64.4589 63.521 64.3909 63.385L64.3229 63.249L62.0791 47.8173L62.623 47.7494C66.9746 47.3415 72.0741 50.6726 76.9696 53.8677C82.0011 57.1987 86.7606 60.2579 90.0243 58.9662C94.3758 57.2667 98.8634 52.644 102.535 48.973C103.351 48.0893 104.167 47.3415 104.915 46.5937L105.255 46.2538L105.595 46.5257C108.178 48.7691 110.15 53.5957 111.782 57.4707C112.19 58.4224 112.53 59.3062 112.87 60.1219L113.006 60.4618L112.734 60.7337C110.422 64.5407 99.3393 81.7399 87.7125 81.7399ZM65.3428 62.9771C65.8867 64.0648 73.026 77.661 85.4687 80.4482C97.1635 83.0315 109.334 64.4047 111.782 60.3938C111.442 59.646 111.102 58.8303 110.762 57.9465C109.266 54.3435 107.498 49.8568 105.187 47.6814C104.575 48.2932 103.895 48.973 103.215 49.6528C99.5433 53.3918 94.9198 58.0825 90.3642 59.85C86.5566 61.3456 81.5931 58.0825 76.3576 54.6154C71.8701 51.6923 67.2466 48.6331 63.371 48.6331C63.303 48.6331 63.303 48.6331 63.235 48.6331L65.3428 62.9771Z" fill="#0D2983"/>
<path d="M117.152 39.2518C116.541 40.8833 115.589 42.175 114.229 43.3307C114.093 43.4666 114.093 43.6706 114.229 43.8065C115.725 45.4381 115.589 47.6815 113.957 49.177C113.617 49.449 114.093 49.9249 114.433 49.6529C115.861 48.3613 116.473 46.3898 115.657 44.5543C115.589 44.4863 115.045 43.6706 115.113 43.6706C115.181 43.2627 115.997 42.6508 116.269 42.3109C116.949 41.4272 117.492 40.4754 117.832 39.3877C117.968 38.9799 117.356 38.8439 117.152 39.2518Z" fill="#0D2983"/>
<path d="M118.716 43.4664C117.017 44.1462 116.745 46.2537 118.24 47.3414C118.58 47.6133 118.92 47.0014 118.58 46.7295C117.56 46.0497 117.764 44.5541 118.92 44.1462C119.26 43.9423 119.124 43.3305 118.716 43.4664Z" fill="#0D2983"/>
<path d="M121.913 44.9622C120.621 45.71 117.222 47.8174 118.513 49.7209C118.785 50.0608 119.329 49.7209 119.125 49.381C118.242 48.0214 121.369 46.1179 122.321 45.574C122.661 45.3021 122.321 44.7583 121.913 44.9622Z" fill="#0D2983"/>
<path d="M56.7067 46.7977L55.5508 49.7209L68.4015 51.2164L69.0134 45.2341L56.7067 46.7977Z" fill="#0D2983"/>
<path d="M66.77 50.1286C59.5627 44.5541 44.7402 54.2074 42.3605 62.4331C39.9807 70.6588 37.125 110.564 37.125 110.564L80.8446 109.952C80.8446 109.952 77.3089 66.8519 72.2094 59.5779C67.178 52.236 69.2177 51.964 66.77 50.1286Z" fill="#0D2983"/>
<path d="M76.3575 73.3103C76.1535 73.3103 75.8816 73.1744 75.8816 72.9024C75.8816 72.8344 74.9977 68.8236 73.1619 62.5693C73.0939 62.2974 73.2299 62.0255 73.5018 61.9575C73.7738 61.8895 74.0458 62.0255 74.1138 62.2974C76.0176 68.6196 76.8335 72.6305 76.8335 72.6985C76.9015 72.9704 76.6975 73.2423 76.4255 73.3103H76.3575Z" fill="white"/>
<path d="M83.2908 85.6825H79.7551C77.5793 85.6825 75.8115 83.915 75.8115 81.7396V77.4568C75.8115 75.2814 77.5793 73.5139 79.7551 73.5139H83.2908C83.5627 73.5139 83.8347 73.7179 83.8347 74.0578C83.8347 74.3977 83.6307 74.6016 83.2908 74.6016H79.7551C78.1233 74.6016 76.8314 75.9612 76.8314 77.5248V81.8076C76.8314 83.4391 78.1913 84.7308 79.7551 84.7308H83.2908C83.5627 84.7308 83.8347 84.9347 83.8347 85.2746C83.8347 85.6145 83.5627 85.6825 83.2908 85.6825Z" fill="white"/>
<path d="M86.6917 87.1108C83.632 87.1108 81.1162 84.5955 81.1162 81.5363V72.8347H92.2671V81.5363C92.2671 84.5955 89.8193 87.1108 86.6917 87.1108Z" fill="white"/>
<path d="M86.691 87.5863C83.3594 87.5863 80.6396 84.8671 80.6396 81.536V72.2905H92.8104V81.536C92.8104 84.8671 90.0907 87.5863 86.691 87.5863ZM81.6595 73.3102V81.536C81.6595 84.3232 83.9033 86.5666 86.691 86.5666C89.4788 86.5666 91.7225 84.3232 91.7225 81.536V73.3102H81.6595Z" fill="#0D2983"/>
<path d="M87.7115 69.6393C87.4396 69.6393 87.2356 69.4353 87.2356 69.2314L86.2837 62.5012C86.2157 62.2293 86.4197 61.9574 86.6916 61.8894C86.9636 61.8214 87.2356 62.0254 87.3036 62.2973L88.2555 69.0274C88.3235 69.2993 88.1195 69.5713 87.8475 69.6393C87.7115 69.6393 87.7115 69.6393 87.7115 69.6393Z" fill="white"/>
<path d="M84.3099 70.1151C84.106 70.1151 83.97 70.0471 83.834 69.8432L82.2701 66.92C82.1342 66.6481 82.2021 66.3762 82.4741 66.2402C82.7461 66.1043 83.0181 66.1722 83.154 66.4442L84.7179 69.3673C84.8539 69.6392 84.7859 69.9111 84.5139 70.0471C84.5139 70.0471 84.4459 70.1151 84.3099 70.1151Z" fill="white"/>
<path d="M70.7811 34.1526C68.5373 29.19 63.0978 26.8106 58.6783 28.8501C54.2587 30.8895 52.4229 36.5319 54.6667 41.4945C54.6667 41.4945 54.6667 41.4945 54.6667 41.5625C54.1907 41.7665 53.7828 42.0384 53.5108 42.3103C51.267 44.2138 51.743 47.001 53.9188 47.9527C55.8226 48.7685 58.4743 48.6326 60.1062 46.6611C62.2819 47.4769 64.6617 47.5448 66.7695 46.797C73.2968 44.4857 73.0249 39.1152 70.7811 34.1526Z" fill="white"/>
<path d="M56.2305 48.9047C55.3466 48.9047 54.4627 48.7008 53.7148 48.3609C52.5589 47.817 51.811 46.8653 51.607 45.6416C51.403 44.282 52.015 42.9223 53.2388 41.8346C53.5108 41.6307 53.7828 41.4268 54.1228 41.2228C53.1029 38.8435 52.9669 36.1922 53.7148 33.8129C54.5307 31.2976 56.2305 29.3261 58.4743 28.3064C60.7861 27.2867 63.3698 27.2867 65.7496 28.3744C68.1293 29.4621 70.1011 31.3655 71.257 33.8808C72.8889 37.4838 73.1608 40.475 72.2089 42.8544C71.393 44.8258 69.6252 46.3214 67.0414 47.2052C64.9337 47.953 62.5539 47.953 60.3101 47.2052C59.0863 48.4288 57.5904 48.9047 56.2305 48.9047ZM62.01 28.6463C60.9221 28.6463 59.9022 28.8503 58.8823 29.3261C56.8425 30.2099 55.3466 31.9774 54.6667 34.2208C53.9868 36.4641 54.1228 38.9794 55.1427 41.2908L55.3466 41.6987L54.9387 41.9706C54.5307 42.1746 54.1228 42.4465 53.8508 42.6504C52.8989 43.4662 52.4229 44.4859 52.6269 45.5056C52.7629 46.3894 53.3068 47.0692 54.1228 47.4091C55.7546 48.1569 58.2023 48.0889 59.7662 46.2534L59.9702 45.9815L60.3101 46.1174C62.3499 46.9332 64.5937 47.0012 66.6335 46.2534C68.9453 45.4376 70.5091 44.146 71.257 42.4465C72.1409 40.3391 71.869 37.6198 70.3731 34.2888C69.3532 31.9774 67.5854 30.2099 65.4096 29.2581C64.2537 28.8503 63.0979 28.6463 62.01 28.6463Z" fill="#0D2983"/>
<path d="M64.4162 37.7706C64.7915 37.7595 65.0868 37.4463 65.0757 37.071C65.0646 36.6957 64.7513 36.4004 64.3759 36.4115C64.0006 36.4226 63.7053 36.7359 63.7164 37.1112C63.7275 37.4865 64.0408 37.7817 64.4162 37.7706Z" fill="#0D2983"/>
<path d="M70.0996 37.688C69.2837 36.3964 68.3318 35.2407 67.1759 34.221C66.8359 33.949 66.36 34.4249 66.7 34.6968C67.7879 35.6486 68.7398 36.8043 69.5557 38.0279C69.7596 38.3678 70.3036 38.0279 70.0996 37.688Z" fill="#0D2983"/>
<path d="M64.2541 30.1421C62.7582 31.7736 55.347 35.4446 58.1347 39.1156C58.8146 40.0673 59.6305 40.4072 58.8826 41.359C57.9987 42.1747 57.1828 41.155 57.1828 41.155C55.8229 41.4949 54.3271 41.9708 53.5792 42.6506C49.9755 39.5235 49.9755 35.5806 51.6074 34.289C51.6074 34.289 61.1264 20.6248 65.5459 24.2278C69.4216 27.4909 64.2541 30.1421 64.2541 30.1421Z" fill="#0D2983"/>
<path d="M58.2694 43.6703C56.8416 42.9904 55.0738 43.3983 54.0539 44.622C53.7819 44.9619 54.2578 45.4377 54.5298 45.0978C55.3457 44.0781 56.7056 43.6703 57.9295 44.2821C58.3374 44.486 58.6094 43.8742 58.2694 43.6703Z" fill="#0D2983"/>
<path d="M79.9612 80.7203C79.9612 80.7203 81.661 76.7094 79.6212 76.4375C73.7738 75.7577 67.2465 82.1479 61.3311 84.6632C61.3311 88.1302 61.603 91.5973 61.739 95.0643C61.807 97.1717 61.875 99.2112 61.875 101.319C66.8385 99.823 70.9181 97.2397 72.3459 94.9284C73.5698 92.821 75.8136 92.685 76.8335 91.4613C78.8733 92.3451 81.797 87.0426 79.4852 85.1391C79.5532 85.1391 82.205 83.0997 79.9612 80.7203Z" fill="white"/>
<path d="M61.4674 101.998V100.571C61.4674 98.8033 61.3994 96.8998 61.3314 95.0643C61.2634 93.9087 61.1954 92.753 61.1274 91.6653C60.9915 89.3539 60.8555 87.0426 60.8555 84.6633V84.3234L61.1954 84.1874C63.1672 83.3036 65.207 82.08 67.3148 80.7204C71.4624 78.1371 75.678 75.4179 79.7575 75.8937C80.3015 75.9617 80.7095 76.2336 80.9134 76.6415C81.5254 77.7292 80.9134 79.7686 80.5735 80.5844C81.1854 81.3322 81.4574 82.08 81.3894 82.8958C81.3214 83.9155 80.7095 84.6633 80.3015 85.1391C81.3894 86.4308 80.9814 88.5382 80.0295 90.0338C79.2136 91.4614 78.0577 92.1412 77.0378 92.0052C76.5619 92.4131 76.0179 92.753 75.406 93.0249C74.4541 93.5008 73.5022 94.0447 72.8223 95.1324C71.3264 97.6476 67.1108 100.231 62.0793 101.794L61.4674 101.998ZM61.8754 85.0032C61.8754 87.1786 62.0113 89.4219 62.1473 91.5973C62.2153 92.753 62.2833 93.9087 62.3513 95.0643C62.4193 96.8998 62.4873 98.7353 62.4873 100.571V100.639C66.9069 99.2112 70.7145 96.8319 72.0063 94.6565C72.8223 93.2969 73.9781 92.685 74.998 92.1412C75.61 91.8013 76.2219 91.5293 76.5619 91.1215L76.8339 90.8496L77.1738 90.9855C77.7178 91.1894 78.6017 90.6456 79.2136 89.5579C80.0295 88.1983 80.3015 86.3628 79.2816 85.547L78.8057 85.1391L79.2816 84.7313C79.2816 84.7313 80.3015 83.9155 80.3695 82.8278C80.4375 82.2159 80.1655 81.6041 79.6216 81.0603L79.4176 80.7883L79.5536 80.5164C79.9615 79.4967 80.4375 77.8652 80.0295 77.1853C79.9615 77.0494 79.8935 76.9814 79.6216 76.9134C75.9499 76.5056 71.8703 79.0888 67.8588 81.5361C65.887 82.8278 63.8472 84.1194 61.8754 85.0032Z" fill="#0D2983"/>
<path d="M65.0708 89.9655C64.4589 87.8581 63.9829 85.7507 63.507 83.6433C60.5833 85.2748 57.7275 86.2946 55.1438 85.4108C48.0045 82.9635 45.3528 69.9111 53.58 63.4529C61.8071 56.9947 62.5551 48.2252 62.5551 48.2252C49.5684 48.7691 37.0576 56.5869 31.2782 72.3585C24.7509 90.3055 33.25 99.4149 39.9813 102.61C47.7326 106.213 61.9431 102.134 67.8585 98.7351C66.9066 95.8799 65.9547 92.9567 65.0708 89.9655Z" fill="#0D2983"/>
<path d="M79.6207 80.1085C77.1049 78.7489 74.6572 80.2445 72.6174 81.74C72.2774 82.012 72.6174 82.5558 72.9573 82.3519C74.7932 80.9923 77.0369 79.4967 79.2807 80.7203C79.6887 80.8563 80.0286 80.3124 79.6207 80.1085Z" fill="#0D2983"/>
<path d="M78.9391 84.3913C76.9673 83.8474 75.0635 84.4592 73.7716 86.0908C73.4997 86.4307 73.9756 86.9066 74.2476 86.5666C75.3355 85.139 76.9673 84.5952 78.7351 85.0711C79.2111 85.1391 79.3471 84.5272 78.9391 84.3913Z" fill="#0D2983"/>
<path d="M77.2395 89.2857C76.9676 89.6936 76.6956 90.1015 76.4236 90.4414C76.1516 90.7813 76.7636 91.1212 77.0355 90.7813C77.3075 90.3734 77.5795 89.9655 77.8515 89.6256C78.0554 89.2177 77.4435 88.8778 77.2395 89.2857Z" fill="#0D2983"/>
<path d="M57.3194 86.0227C55.7556 86.0227 53.7838 85.6828 51.676 84.663C49.4322 83.5753 47.8684 81.8758 47.1884 79.7004C46.1006 76.3014 46.9845 71.8147 49.8402 66.4442C49.9762 66.1722 50.2481 66.1043 50.5201 66.2402C50.7921 66.3762 50.8601 66.6481 50.7241 66.92C48.0724 71.9506 47.1884 76.3014 48.1403 79.3605C48.7523 81.264 50.1121 82.7596 52.0839 83.7113C57.1834 86.1587 61.059 84.1872 61.127 84.1872C61.399 84.0512 61.671 84.1872 61.8069 84.3911C61.9429 84.6631 61.8749 84.935 61.603 85.071C61.535 85.2069 59.9031 86.0227 57.3194 86.0227Z" fill="white"/>
<path d="M49.8403 104.309C46.1687 104.309 42.701 103.97 39.9813 103.086C39.7093 103.018 39.5734 102.678 39.6414 102.474C39.7093 102.27 40.0493 102.066 40.2533 102.134C48.1405 104.717 63.6429 102.406 67.7905 100.842C68.0625 100.706 68.3344 100.842 68.4704 101.114C68.5384 101.386 68.4704 101.658 68.1984 101.794C65.2068 102.95 57.2516 104.309 49.8403 104.309Z" fill="white"/>
<path d="M104.912 22.2564C104.776 22.2564 104.64 22.1884 104.572 22.1204C104.368 21.9165 104.368 21.5766 104.572 21.3726L109.059 16.8859C109.263 16.6819 109.603 16.6819 109.807 16.8859C110.011 17.0898 110.011 17.4297 109.807 17.6337L105.32 22.1204C105.184 22.1884 105.048 22.2564 104.912 22.2564Z" fill="#E62C31"/>
<path d="M109.47 22.2564C109.334 22.2564 109.198 22.1884 109.13 22.1204L104.642 17.6337C104.438 17.4297 104.438 17.0898 104.642 16.8859C104.846 16.6819 105.186 16.6819 105.39 16.8859L109.878 21.3726C110.082 21.5766 110.082 21.9165 109.878 22.1204C109.674 22.1884 109.538 22.2564 109.47 22.2564Z" fill="#E62C31"/>
</g>
<defs>
<filter id="filter0_d_92_1381" x="0" y="0.842407" width="198.517" height="208" filterUnits="userSpaceOnUse" color-interpolation-filters="sRGB">
<feFlood flood-opacity="0" result="BackgroundImageFix"/>
<feColorMatrix in="SourceAlpha" type="matrix" values="0 0 0 0 0 0 0 0 0 0 0 0 0 0 0 0 0 0 127 0" result="hardAlpha"/>
<feOffset dx="8" dy="8"/>
<feComposite in2="hardAlpha" operator="out"/>
<feColorMatrix type="matrix" values="0 0 0 0 0.0761835 0 0 0 0 0.238928 0 0 0 0 0.758162 0 0 0 0.5 0"/>
<feBlend mode="normal" in2="BackgroundImageFix" result="effect1_dropShadow_92_1381"/>
<feBlend mode="normal" in="SourceGraphic" in2="effect1_dropShadow_92_1381" result="shape"/>
</filter>
</defs>
</svg>
