<svg width="155" height="209" viewBox="0 0 155 209" fill="none" xmlns="http://www.w3.org/2000/svg">
<g filter="url(#filter0_d_92_1252)">
<path d="M65.0056 179.45L64.5664 197.894L96.5671 198.208C96.5671 198.208 96.7553 194.443 90.6689 191.62C84.5825 188.797 83.3276 177.63 83.3276 177.63L65.0056 179.45Z" fill="#FFC929"/>
<path d="M97.0053 198.647L64.0635 198.333L64.5027 179.01L83.7031 177.128L83.7658 177.568C83.7658 177.693 85.0835 188.483 90.8562 191.181C97.1308 194.067 97.0681 198.019 97.0681 198.207L97.0053 198.647ZM65.0674 197.392L96.0641 197.706C95.8759 196.702 94.9974 194.13 90.4797 192.059C84.8953 189.487 83.2639 180.328 82.9501 178.195L65.5066 179.952L65.0674 197.392Z" fill="#FFC929"/>
<path d="M7.40381 171.671L0.564453 188.797L30.4317 200.215C30.4317 200.215 31.8749 196.765 27.1689 191.997C22.463 187.229 25.1611 176.313 25.1611 176.313L7.40381 171.671Z" fill="#FFC929"/>
<path d="M30.7457 200.842L0 189.048L7.15309 171.106L25.7888 175.999L25.6633 176.438C25.6633 176.564 23.0907 187.166 27.5457 191.683C32.4399 196.576 30.934 200.278 30.8712 200.403L30.7457 200.842ZM1.19218 188.484L30.1183 199.588C30.3065 198.584 30.3693 195.824 26.8555 192.31C22.526 187.919 24.1574 178.822 24.5966 176.689L7.65505 172.235L1.19218 188.484Z" fill="#FFC929"/>
<path d="M30.4946 96.5764C25.3494 105.234 23.1533 129.387 17.3178 141.746C11.4824 154.105 4.76855 174.054 4.76855 174.054L28.424 184.092C28.424 184.092 44.5498 148.019 46.3694 129.199C48.1891 110.378 47.7499 94.067 47.7499 94.067L30.4946 96.5764Z" fill="#0A2064"/>
<path d="M40.5342 105.987C41.0362 116.024 53.8991 134.97 55.9698 148.521C58.0404 162.072 63.4366 186.476 63.4366 186.476L88.7234 181.708C88.7234 181.708 85.3979 143.816 74.4172 120.416C66.3857 103.289 54.8404 91.934 54.8404 91.934L40.5342 105.987Z" fill="#0A2064"/>
<path d="M45.8678 122.298C45.6796 122.298 45.5541 122.235 45.4286 122.047L43.8599 119.224L39.1539 117.53C38.903 117.467 38.7775 117.153 38.8402 116.903C38.903 116.652 39.2167 116.526 39.4677 116.589L44.4874 118.345L46.1815 121.482C46.307 121.733 46.2443 121.984 45.9933 122.11C45.9933 122.298 45.9306 122.298 45.8678 122.298Z" fill="white"/>
<path d="M25.0993 185.786C24.1581 186.288 23.1541 186.852 22.2129 187.354C21.8364 187.543 22.1502 188.107 22.5267 187.919C23.4678 187.417 24.4718 186.852 25.413 186.351C25.7895 186.162 25.4757 185.598 25.0993 185.786Z" fill="#0A2064"/>
<path d="M25.601 187.793C24.848 188.421 24.0323 188.985 23.2794 189.613C22.9656 189.864 23.2794 190.428 23.5931 190.177L25.9147 188.358C26.2284 188.044 25.9147 187.542 25.601 187.793Z" fill="#0A2064"/>
<path d="M86.6529 187.041C86.2765 187.856 85.9 188.609 85.4607 189.425C85.2725 189.801 85.8372 190.115 86.0255 189.738L87.2176 187.354C87.3431 186.978 86.7784 186.664 86.6529 187.041Z" fill="#0A2064"/>
<path d="M88.4097 189.111C88.0333 189.926 87.6568 190.679 87.2176 191.495C87.0293 191.871 87.5941 192.185 87.7823 191.808L88.9745 189.425C89.1627 189.111 88.598 188.797 88.4097 189.111Z" fill="#0A2064"/>
<path d="M83.829 180.893C83.578 180.893 83.3898 180.704 83.3898 180.453C82.3858 144.067 60.7383 104.481 60.55 104.105C60.4246 103.854 60.4873 103.603 60.7383 103.477C60.9893 103.352 61.2403 103.415 61.3658 103.665C61.554 104.042 83.2643 143.816 84.331 180.453C84.331 180.704 84.08 180.893 83.829 180.893Z" fill="white"/>
<path d="M64.879 112.26C64.8163 112.26 64.7536 112.26 64.6908 112.26C64.4398 112.197 64.3143 111.884 64.4398 111.633C65.632 108.433 64.1888 104.042 64.1888 103.979C64.1261 103.728 64.2516 103.477 64.5026 103.352C64.7536 103.289 65.0045 103.414 65.13 103.665C65.1928 103.854 66.7614 108.433 65.381 111.946C65.2555 112.135 65.0673 112.26 64.879 112.26Z" fill="white"/>
<path d="M61.6797 41.4322C63.6248 46.0746 63.7503 51.0307 57.6639 52.9755C53.5226 54.2929 48.5657 52.3481 46.6205 47.7057C44.6754 43.0633 46.495 37.919 50.6363 36.1624C54.7775 34.4058 59.7345 36.7898 61.6797 41.4322Z" fill="white"/>
<path d="M55.0289 53.8537C51.3269 53.8537 47.6876 51.5952 46.1817 47.8938C44.1738 43.0005 46.0562 37.6052 50.4484 35.7232C54.8407 33.9039 60.0486 36.3505 62.1193 41.2439C63.4997 44.5688 63.6879 47.3919 62.7467 49.5249C61.931 51.3442 60.2369 52.599 57.8525 53.4145C56.8486 53.7282 55.9074 53.8537 55.0289 53.8537ZM53.4603 36.0996C52.5818 36.0996 51.6406 36.2878 50.7622 36.6642C46.8719 38.2953 45.1777 43.1887 46.9974 47.5801C48.9425 52.1598 53.8367 53.7282 57.476 52.5362C59.6722 51.8461 61.1153 50.7169 61.8055 49.1485C62.684 47.2665 62.4957 44.6943 61.1781 41.6203C59.7976 38.2326 56.6603 36.0996 53.4603 36.0996Z" fill="#0A2064"/>
<path d="M58.229 41.6203C58.5756 41.6203 58.8565 41.3394 58.8565 40.993C58.8565 40.6465 58.5756 40.3656 58.229 40.3656C57.8825 40.3656 57.6016 40.6465 57.6016 40.993C57.6016 41.3394 57.8825 41.6203 58.229 41.6203Z" fill="#0A2064"/>
<path d="M58.6682 35.1586C58.6682 31.0181 51.8289 35.6605 50.6367 36.2251C46.9346 36.9152 43.6718 41.8086 44.8013 46.1373C45.7425 49.8387 50.0092 54.2301 52.2681 53.1636C55.9702 50.9679 56.5349 47.3292 54.8407 43.8788C55.4682 43.126 54.7152 41.9968 55.0289 41.1185C55.4682 39.6756 58.731 36.6015 58.6682 35.1586Z" fill="#0A2064"/>
<path d="M53.5229 43.5024C46.6208 42.875 47.4365 48.3957 50.0091 49.6504C52.1425 50.6542 55.4053 50.2778 56.723 47.141C58.0407 44.067 53.5229 43.5024 53.5229 43.5024Z" fill="white"/>
<path d="M54.1498 45.8862C52.8321 45.1962 51.2007 45.5098 50.2595 46.7018C50.0085 47.0155 50.4478 47.4546 50.6987 47.1409C51.4517 46.1999 52.7694 45.8863 53.8361 46.4509C54.2125 46.6391 54.5263 46.0744 54.1498 45.8862Z" fill="#0A2064"/>
<path d="M62.1815 43.0005C61.4913 41.8085 60.6129 40.6793 59.5462 39.7383C59.2325 39.4873 58.7932 39.9265 59.107 40.1774C60.1109 41.1185 60.9266 42.1222 61.6168 43.3142C61.8678 43.6279 62.3698 43.3142 62.1815 43.0005Z" fill="#0A2064"/>
<path d="M109.242 28.1949H89.0371V48.3957H109.242V28.1949Z" fill="#FFC929"/>
<path d="M109.743 48.8976H88.5977V27.6931H109.743V48.8976ZM89.5389 47.9565H108.802V28.6969H89.5389V47.9565Z" fill="#FFC929"/>
<path d="M99.1389 43.1259C97.3192 43.1259 95.6878 42.1848 94.8094 40.6165C94.6839 40.3655 94.7466 40.1146 94.9976 39.9891C95.2486 39.8636 95.4996 39.9264 95.6251 40.1773C96.3153 41.432 97.6957 42.2476 99.1389 42.2476C101.335 42.2476 103.155 40.4283 103.155 38.2325C103.155 36.0368 101.335 34.2175 99.1389 34.2175C96.9427 34.2175 95.1231 36.0368 95.1231 38.2325C95.1231 38.4835 94.9349 38.7344 94.6211 38.7344C94.3074 38.7344 94.1191 38.5462 94.1191 38.2325C94.1191 35.4722 96.378 33.2765 99.0761 33.2765C101.774 33.2765 104.033 35.5349 104.033 38.2325C104.033 40.9301 101.9 43.1259 99.1389 43.1259Z" fill="white"/>
<path d="M99.139 45.8863C94.8722 45.8863 91.3584 42.3731 91.3584 38.1072C91.3584 33.8412 94.8722 30.328 99.139 30.328C101.272 30.328 103.406 31.269 104.849 32.8374C105.037 33.0256 105.037 33.3393 104.849 33.5275C104.661 33.7157 104.347 33.7157 104.159 33.5275C102.841 32.1473 101.021 31.3318 99.139 31.3318C95.3742 31.3318 92.2996 34.4058 92.2996 38.1699C92.2996 41.934 95.3742 45.008 99.139 45.008C102.904 45.008 105.978 41.934 105.978 38.1699C105.978 37.2916 105.79 36.4761 105.476 35.6605C105.351 35.4096 105.476 35.1586 105.727 35.0331C105.978 34.9077 106.229 35.0331 106.355 35.2841C106.731 36.2251 106.92 37.1661 106.92 38.1699C106.92 42.4359 103.468 45.8863 99.139 45.8863Z" fill="white"/>
<path d="M12.7994 72.486C10.2895 80.8926 15.4975 91.0557 22.7133 95.4471L23.5918 94.1924C25.4114 95.1962 33.9449 89.2991 36.2038 85.7859C33.3175 84.6567 30.7449 83.7784 30.1802 80.5162C28.5487 71.7332 38.9647 73.6153 45.8668 75.6855C47.5609 68.9101 48.1884 58.3079 48.1884 58.3079C31.4978 53.9791 16.7524 59.2489 12.7994 72.486Z" fill="#FFC929"/>
<path d="M22.8407 96.0744L22.4642 95.8235C15.4993 91.5575 9.66392 81.3316 12.362 72.2978C16.315 59.0606 30.7467 53.2263 48.3157 57.7432L48.6922 57.8687V58.2451C48.6922 58.3706 48.0648 68.9728 46.3706 75.6855L46.2451 76.1874L45.7431 76.0619C38.6528 73.9289 33.8213 73.8034 31.7507 75.6228C30.684 76.6265 30.3075 78.1949 30.684 80.3279C31.2487 83.2765 33.5076 84.1547 36.3312 85.2212L36.8959 85.4094L36.6449 85.9113C34.5743 89.1108 26.6055 95.0079 23.8446 94.6315L22.8407 96.0744ZM37.0214 57.2413C25.225 57.2413 16.1896 62.8247 13.2405 72.6114C10.7306 81.0807 16.0641 90.6165 22.5897 94.8197L23.4681 93.565L23.8446 93.7532C25.1623 94.4433 32.7546 89.6127 35.5155 85.9741C32.8174 84.9076 30.3703 83.8411 29.7428 80.5161C29.3036 78.0067 29.7428 76.1246 31.0605 74.9327C33.3821 72.8624 38.2136 72.8624 45.4921 74.9954C46.8726 69.0983 47.5 60.5036 47.6883 58.5588C43.9235 57.6805 40.3469 57.2413 37.0214 57.2413Z" fill="#FFC929"/>
<path d="M28.9887 96.5137C27.3573 96.1373 25.7259 95.51 24.1572 94.6944C25.6004 92.6869 26.7926 90.2402 27.9848 87.8563C28.8632 85.9742 29.7416 84.2803 30.7456 82.712L30.8084 82.5865C31.1221 82.0846 31.6868 81.8336 32.628 81.7082H32.879L33.0045 81.4572C33.5065 80.4535 33.9457 80.2653 34.4477 80.2653C34.8241 80.2653 35.3261 80.3907 35.9536 80.7044C36.2046 80.8299 36.33 80.9553 36.3928 81.2063C36.581 82.0218 35.8908 83.5902 34.5104 85.5978L34.1339 86.0369L34.5732 86.2879C34.8241 86.4761 35.1379 86.6015 35.3888 86.727C34.6986 87.7308 34.0084 88.7973 33.381 89.801C31.875 91.934 30.3691 94.2553 28.9887 96.5137Z" fill="white"/>
<path d="M34.3854 80.7671C34.6991 80.7671 35.1383 80.8926 35.7031 81.1435C35.8286 81.2062 35.8913 81.269 35.8913 81.3317C35.954 81.5199 36.0796 82.5237 34.0717 85.284L33.5069 86.0996L34.3854 86.6015C34.5109 86.6642 34.6364 86.7269 34.7619 86.7897C34.1971 87.668 33.5697 88.5463 33.005 89.4246C31.6246 91.5576 30.1814 93.6905 28.8637 95.8863C27.546 95.5726 26.2284 95.0707 24.9734 94.4434C26.2911 92.4986 27.4205 90.1774 28.4872 87.9816C29.3657 86.1623 30.2441 84.4057 31.1853 82.9001L31.2481 82.7746C31.4363 82.5237 31.6873 82.21 32.6912 82.0845L33.1932 82.0218L33.4442 81.5827C33.8834 80.7671 34.1344 80.7671 34.3854 80.7671ZM34.3854 79.826C33.5697 79.826 33.0677 80.328 32.5657 81.269C31.4991 81.3945 30.8088 81.7709 30.4324 82.3982C28.048 86.2251 26.2911 91.3066 23.5303 94.8825C25.3499 95.8863 27.295 96.6391 29.3029 97.0782C31.4363 93.4396 33.8834 90.0519 36.1423 86.476C35.7658 86.3505 35.3266 86.0996 34.8874 85.8486C36.3305 83.8411 37.8364 81.0808 36.1423 80.2652C35.3893 79.9515 34.8246 79.826 34.3854 79.826Z" fill="#0A2064"/>
<path d="M53.2088 58.3706C43.4203 56.2376 39.4673 60.88 35.9535 75.1836C32.4397 89.4873 26.165 97.7683 26.165 97.7683C26.165 97.7683 54.6519 105.798 66.762 104.042C66.6992 104.105 73.9778 62.8875 53.2088 58.3706Z" fill="#FFC929"/>
<path d="M62.6213 104.857C49.3818 104.857 26.9813 98.5839 25.9773 98.2702L25.2871 98.082L25.7263 97.5174C25.7891 97.4547 32.001 89.1109 35.452 75.0582C39.1541 59.939 43.4836 55.7357 53.272 57.8687C61.9938 59.7507 67.139 68.4082 68.2057 82.8374C68.9587 93.6278 67.2017 104.042 67.139 104.105L67.0763 104.418L66.7625 104.481C65.5076 104.795 64.1272 104.857 62.6213 104.857ZM26.8558 97.5802C31.1225 98.7094 55.2799 105.108 66.2606 103.728C66.888 99.7759 72.1587 63.013 53.0838 58.8725C43.8601 56.8649 39.9698 60.6918 36.3932 75.3718C33.3814 87.4798 28.2989 95.4472 26.8558 97.5802Z" fill="#FFC929"/>
<path d="M45.3662 60.0016L46.3701 55.1083L59.7352 56.6139L58.1665 62.6365L45.3662 60.0016Z" fill="#FFC929"/>
<path d="M58.4793 63.2013L44.8633 60.3782L46.0555 54.5438L60.3617 56.175L58.4793 63.2013ZM45.93 59.6881L57.7891 62.1348L59.1067 57.0532L46.7457 55.6731L45.93 59.6881Z" fill="#FFC929"/>
<path d="M36.2043 72.988C36.1415 72.988 36.0788 72.9879 36.016 72.9252C35.7651 72.7997 35.6396 72.5488 35.765 72.2979L38.2122 66.2753C38.3376 66.0243 38.5886 65.8988 38.8396 66.0243C39.0906 66.1498 39.2161 66.4007 39.0906 66.6517L36.6435 72.6743C36.5808 72.8625 36.3925 72.988 36.2043 72.988Z" fill="white"/>
<path d="M105.037 50.1523C104.849 46.9528 102.465 46.3882 102.465 46.3882C102.277 44.5062 99.5784 43.9416 99.5784 43.9416C100.331 40.3657 101.461 39.1737 100.896 38.1072C100.018 36.4133 98.449 37.668 96.6921 41.5576C96.5038 41.9967 96.3156 42.4359 96.1273 42.8751C95.6881 42.5614 95.1234 42.6241 94.3704 43.5024C92.6135 45.6981 91.6724 48.0193 92.4253 53.2891C92.2371 53.7282 92.0488 54.1047 91.7979 54.4811L100.269 65.5852C100.269 65.5852 102.214 64.3932 102.716 60.4409C103.029 58.2452 103.406 55.0457 103.72 53.4146C105.539 53.6655 105.1 51.7834 105.037 50.1523Z" fill="white"/>
<path d="M100.206 66.1497L91.2334 54.481L91.3589 54.2301C91.5471 53.9164 91.7354 53.6027 91.8609 53.2263C91.1079 47.8938 92.0491 45.5099 93.9315 43.1887C94.6217 42.3104 95.3119 42.1849 95.7511 42.2477C95.8766 41.934 96.0021 41.6203 96.1276 41.3693C97.508 38.4208 98.7002 36.9779 99.8297 36.9152C100.206 36.9152 100.771 37.1034 101.21 37.9189C101.587 38.7345 101.336 39.4873 100.896 40.6793C100.645 41.4321 100.269 42.3731 100.018 43.6906C100.834 43.9415 102.465 44.6316 102.779 46.1372C103.469 46.4509 105.226 47.3919 105.351 50.215C105.351 50.466 105.414 50.6542 105.414 50.9051C105.477 51.9716 105.602 53.0381 104.975 53.6027C104.724 53.8536 104.41 53.9164 104.034 53.9164C103.783 55.1711 103.532 57.0532 103.343 58.6843C103.281 59.3116 103.155 59.939 103.092 60.5036C102.528 64.6441 100.52 65.9615 100.394 66.0243L100.206 66.1497ZM92.3628 54.3555L100.332 64.8323C100.834 64.3304 101.9 62.9503 102.277 60.3154C102.339 59.7508 102.402 59.1862 102.528 58.5588C102.779 56.6767 103.03 54.481 103.343 53.289L103.469 52.8499L103.908 52.9126C104.096 52.9754 104.41 52.9753 104.536 52.8499C104.787 52.5989 104.724 51.6579 104.661 50.9051C104.661 50.6542 104.598 50.4032 104.598 50.215C104.473 47.4547 102.465 46.89 102.402 46.89L102.089 46.8273L102.026 46.5136C101.9 45.008 99.5159 44.5061 99.5159 44.4434L99.0767 44.3179L99.1394 43.8788C99.4532 42.3104 99.8924 41.1811 100.143 40.3028C100.52 39.2363 100.708 38.7345 100.457 38.2953C100.269 37.9817 100.143 37.7934 99.9552 37.7934C99.7669 37.7934 98.8257 37.9816 97.0688 41.683C96.8806 42.1222 96.6923 42.5613 96.5041 43.0005L96.3158 43.5024L95.8139 43.1887C95.6884 43.1259 95.3747 42.875 94.6844 43.6906C92.9903 45.8236 92.1118 48.0193 92.8648 53.1008V53.2263L92.8021 53.3518C92.6766 53.7909 92.5511 54.1046 92.3628 54.3555Z" fill="#0A2064"/>
<path d="M92.0493 53.9791C88.7238 60.6291 86.5904 63.0757 82.6374 64.205C76.6765 65.9615 62.433 58.1196 53.523 59.5625L51.3896 77.8185C51.3896 77.8185 64.3154 86.225 79.2491 85.0331C92.1749 83.9666 100.771 70.7294 102.34 64.205C100.771 59.8762 95.6259 56.3631 92.0493 53.9791Z" fill="#FFC929"/>
<path d="M76.299 85.6605C62.6831 85.6605 51.2632 78.3204 51.1377 78.2577L50.8867 78.0695L53.0828 59.1862L53.4593 59.1234C58.1653 58.3079 64.1889 60.0645 69.9616 61.6956C74.9813 63.1385 79.7501 64.5187 82.5109 63.7031C86.2757 62.6366 88.3464 60.3781 91.6719 53.7282L91.9229 53.2263L92.3621 53.54C95.8759 55.9239 101.209 59.4999 102.841 64.0168L102.904 64.1422L102.841 64.2677C101.209 70.9176 92.4248 84.4057 79.3736 85.4722C78.2442 85.5977 77.2402 85.6605 76.299 85.6605ZM51.8906 77.5676C53.7103 78.6968 65.6949 85.6604 79.1854 84.5312C91.7346 83.5274 100.205 70.6667 101.837 64.205C100.331 60.1899 95.6249 56.9277 92.2366 54.6065C88.9738 61.131 86.7149 63.4522 82.7619 64.5814C79.7501 65.4597 74.8558 64.0168 69.6479 62.5738C64.3772 61.0682 58.4163 59.3116 53.8985 59.939L51.8906 77.5676Z" fill="#FFC929"/>
<path d="M65.3185 83.8411C65.2558 83.8411 65.1931 83.8412 65.1303 83.7784C65.1303 83.7784 62.9342 82.8374 60.8008 82.8374C60.5498 82.8374 60.3616 82.6492 60.2988 82.3982C60.2988 82.1473 60.4871 81.8964 60.8008 81.8964C63.1224 81.8964 65.3813 82.8374 65.5068 82.9001C65.7578 83.0256 65.8833 83.2765 65.7578 83.5275C65.695 83.7157 65.5068 83.8411 65.3185 83.8411Z" fill="#0A2064"/>
<path d="M99.0764 44.5061L98.6372 45.7608C98.5117 46.1372 99.0764 46.3254 99.2646 45.949C99.3901 45.5098 99.5783 45.1334 99.7038 44.6943C99.8293 44.2551 99.2019 44.1297 99.0764 44.5061Z" fill="#0A2064"/>
<path d="M104.473 50.3405C104.411 49.9641 103.783 50.0896 103.846 50.5288C103.909 51.0307 103.846 51.5325 103.658 52.0344C103.532 52.4108 104.097 52.599 104.285 52.2226C104.536 51.5325 104.599 50.9679 104.473 50.3405Z" fill="#0A2064"/>
<path d="M95.6256 43.7533C94.8726 45.1962 94.3706 46.7019 94.1196 48.333C94.0569 48.7094 94.6844 48.8976 94.7471 48.5212C94.9981 46.9528 95.4374 45.5099 96.1903 44.067C96.3158 43.6906 95.8138 43.3769 95.6256 43.7533Z" fill="#0A2064"/>
<path d="M102.089 46.7647C101.963 47.0157 101.9 47.3293 101.775 47.5803C101.649 47.9567 102.214 48.1449 102.402 47.7685C102.528 47.5175 102.591 47.2039 102.716 46.9529C102.842 46.5765 102.214 46.3883 102.089 46.7647Z" fill="#0A2064"/>
<path d="M132.206 83.2137H90.6055V109.5H132.206V83.2137Z" fill="white"/>
<path d="M132.708 109.939H90.166V82.7119H132.708V109.939ZM91.1072 108.998H131.767V83.6529H91.1072V108.998Z" fill="#0A2064"/>
<path d="M108.865 1.28162H98.4492V11.6957H108.865V1.28162Z" fill="white"/>
<path d="M109.367 12.1975H98.0098V0.842407H109.367V12.1975ZM98.951 11.2565H108.426V1.78344H98.951V11.2565Z" fill="#0A2064"/>
<path d="M146.198 1.28162H129.006V18.4711H146.198V1.28162Z" fill="white"/>
<path d="M146.639 18.9729H128.505V0.842407H146.639V18.9729ZM129.446 18.0318H145.697V1.78344H129.446V18.0318Z" fill="#0A2064"/>
<path d="M146.199 36.2251H118.34V64.0796H146.199V36.2251Z" fill="white"/>
<path d="M146.638 64.5814H117.838V35.7859H146.638V64.5814ZM118.779 63.6404H145.697V36.7269H118.779V63.6404Z" fill="#0A2064"/>
<path d="M93.0525 1.28162H72.7227V13.8287H93.0525V1.28162Z" fill="white"/>
<path d="M93.5543 14.3305H72.2832V0.842407H93.5543V14.3305ZM73.2244 13.3894H92.6131V1.78343H73.2244V13.3894Z" fill="#0A2064"/>
<path d="M88.7233 8.0569H76.8643C76.6133 8.0569 76.3623 7.8687 76.3623 7.55502C76.3623 7.24134 76.5505 7.0531 76.8643 7.0531H88.7233C88.9743 7.0531 89.2253 7.24134 89.2253 7.55502C89.2253 7.8687 88.9743 8.0569 88.7233 8.0569Z" fill="#0A2064"/>
<path d="M115.265 9.2488C116.166 9.2488 116.897 8.51854 116.897 7.61769C116.897 6.71684 116.166 5.98657 115.265 5.98657C114.364 5.98657 113.634 6.71684 113.634 7.61769C113.634 8.51854 114.364 9.2488 115.265 9.2488Z" fill="white"/>
<path d="M115.265 9.68801C114.136 9.68801 113.194 8.74699 113.194 7.61775C113.194 6.48851 114.136 5.54749 115.265 5.54749C116.394 5.54749 117.336 6.48851 117.336 7.61775C117.336 8.74699 116.394 9.68801 115.265 9.68801ZM115.265 6.48852C114.638 6.48852 114.136 6.99039 114.136 7.61775C114.136 8.2451 114.638 8.74698 115.265 8.74698C115.892 8.74698 116.394 8.2451 116.394 7.61775C116.394 6.99039 115.892 6.48852 115.265 6.48852Z" fill="#0A2064"/>
<path d="M115.265 15.5223C116.166 15.5223 116.897 14.7921 116.897 13.8912C116.897 12.9904 116.166 12.2601 115.265 12.2601C114.364 12.2601 113.634 12.9904 113.634 13.8912C113.634 14.7921 114.364 15.5223 115.265 15.5223Z" fill="white"/>
<path d="M115.265 15.9617C114.136 15.9617 113.194 15.0207 113.194 13.8914C113.194 12.7622 114.136 11.8212 115.265 11.8212C116.394 11.8212 117.336 12.7622 117.336 13.8914C117.336 15.0207 116.394 15.9617 115.265 15.9617ZM115.265 12.7622C114.638 12.7622 114.136 13.2641 114.136 13.8914C114.136 14.5188 114.638 15.0207 115.265 15.0207C115.892 15.0207 116.394 14.5188 116.394 13.8914C116.394 13.2641 115.892 12.7622 115.265 12.7622Z" fill="#0A2064"/>
<path d="M120.725 90.1776H100.771C100.521 90.1776 100.27 89.9894 100.27 89.6757C100.27 89.3619 100.458 89.1737 100.771 89.1737H120.725C120.976 89.1737 121.227 89.3619 121.227 89.6757C121.227 89.9894 120.976 90.1776 120.725 90.1776Z" fill="#0A2064"/>
<path d="M120.724 95.6354H108.488C108.237 95.6354 107.986 95.4472 107.986 95.1335C107.986 94.8198 108.175 94.6316 108.488 94.6316H120.724C120.975 94.6316 121.226 94.8198 121.226 95.1335C121.226 95.4472 120.975 95.6354 120.724 95.6354Z" fill="#0A2064"/>
<path d="M105.415 95.6354H100.771C100.521 95.6354 100.27 95.4472 100.27 95.1335C100.27 94.8198 100.458 94.6316 100.771 94.6316H105.415C105.666 94.6316 105.917 94.8198 105.917 95.1335C105.917 95.4472 105.666 95.6354 105.415 95.6354Z" fill="#0A2064"/>
<path d="M128.065 43.7533V57.4296L139.172 50.5914L128.065 43.7533Z" fill="white"/>
<path d="M127.563 58.2451V42.9377L140.113 50.5914L127.563 58.2451ZM128.505 44.6316V56.5513L138.293 50.5914L128.505 44.6316Z" fill="#0A2064"/>
</g>
<defs>
<filter id="filter0_d_92_1252" x="0" y="0.842407" width="154.639" height="208" filterUnits="userSpaceOnUse" color-interpolation-filters="sRGB">
<feFlood flood-opacity="0" result="BackgroundImageFix"/>
<feColorMatrix in="SourceAlpha" type="matrix" values="0 0 0 0 0 0 0 0 0 0 0 0 0 0 0 0 0 0 127 0" result="hardAlpha"/>
<feOffset dx="8" dy="8"/>
<feComposite in2="hardAlpha" operator="out"/>
<feColorMatrix type="matrix" values="0 0 0 0 0.0761835 0 0 0 0 0.238928 0 0 0 0 0.758162 0 0 0 0.5 0"/>
<feBlend mode="normal" in2="BackgroundImageFix" result="effect1_dropShadow_92_1252"/>
<feBlend mode="normal" in="SourceGraphic" in2="effect1_dropShadow_92_1252" result="shape"/>
</filter>
</defs>
</svg>
