<svg width="249" height="168" viewBox="0 0 249 168" fill="none" xmlns="http://www.w3.org/2000/svg">
<path d="M45.1986 103.97C44.4715 102.376 45.1787 100.494 46.7773 99.7667C47.4197 99.4729 48.1119 99.4181 48.7543 99.5575C48.8141 99.0147 48.849 98.4669 48.849 97.9091C48.849 93.0985 46.4735 88.8406 42.8381 86.241C42.1708 87.0079 41.1897 87.491 40.0941 87.491C38.0822 87.491 36.4488 85.8575 36.4488 83.8456C36.4488 83.7958 36.4537 83.751 36.4537 83.7012C35.8163 83.6165 35.1639 83.5667 34.5016 83.5667C26.5834 83.5667 20.1592 89.986 20.1592 97.9091C20.1592 98.2428 20.1741 98.5715 20.199 98.9002C21.1552 99.0994 22.0068 99.7368 22.44 100.693C23.0227 101.978 22.6791 103.447 21.688 104.348C23.7049 108.357 27.5445 111.285 32.1162 112.052C31.7526 111.126 32.1709 110.065 33.0873 109.647C34.0335 109.219 35.154 109.637 35.5822 110.583C35.8263 111.121 35.7964 111.719 35.5474 112.207C40.2385 111.868 44.3072 109.269 46.6627 105.494C46.0303 105.18 45.4974 104.657 45.1837 103.965L45.1986 103.97ZM29.6909 100.798C29.9797 101.649 30.3732 102.346 30.8712 102.899C31.3692 103.447 31.9618 103.875 32.654 104.174C33.3412 104.473 34.0584 104.622 34.8103 104.622C35.6121 104.622 36.3541 104.488 37.0414 104.209C37.7286 103.935 38.2963 103.542 38.7445 103.029C39.1927 102.516 39.5065 101.898 39.6808 101.171H43.5801C43.1568 103.148 42.1658 104.747 40.617 105.972C39.0682 107.197 37.141 107.809 34.8452 107.809C33.0474 107.809 31.4289 107.396 29.9897 106.574C28.5505 105.748 27.435 104.587 26.6332 103.088C25.8314 101.589 25.433 99.8912 25.433 97.9888C25.433 95.9918 25.8314 94.2488 26.6332 92.7598C27.435 91.2708 28.5505 90.1105 29.9897 89.2738C31.4289 88.4372 33.0474 88.0189 34.8452 88.0189C37.1709 88.0189 39.0981 88.6165 40.6369 89.8166C42.1758 91.0168 43.1568 92.6303 43.5801 94.6522H39.6808C39.4318 93.5765 38.8641 92.7399 37.9726 92.1423C37.0862 91.5447 36.0304 91.2409 34.8054 91.2409C33.8044 91.2409 32.8831 91.4899 32.0315 91.9929C31.1799 92.4909 30.5076 93.2379 30.0096 94.2239C29.5116 95.21 29.2576 96.44 29.2576 97.9141C29.2576 98.9898 29.4021 99.9509 29.6909 100.803V100.798Z" fill="#FFBF00"/>
<path d="M33.4457 75.6585C31.7774 75.6585 30.3382 75.3846 29.138 74.8418C27.9378 74.299 26.9866 73.552 26.2894 72.6008C25.5922 71.6496 25.1689 70.5291 25.0195 69.2393H28.8541C28.9786 69.8468 29.2276 70.4046 29.5962 70.9076C29.9647 71.4155 30.4676 71.8189 31.1151 72.1227C31.7625 72.4265 32.5393 72.5809 33.4507 72.5809C34.2624 72.5809 34.9397 72.4613 35.4825 72.2223C36.0253 71.9833 36.4337 71.6546 36.6976 71.2363C36.9616 70.8179 37.096 70.3697 37.096 69.8867C37.096 69.1795 36.9267 68.6417 36.5831 68.2732C36.2395 67.9046 35.7265 67.6108 35.0443 67.3817C34.362 67.1527 33.5403 66.9634 32.5742 66.814C31.7376 66.6397 30.9059 66.4206 30.0693 66.1666C29.2326 65.9126 28.4956 65.579 27.8482 65.1607C27.2008 64.7423 26.6878 64.2294 26.3094 63.6218C25.9309 63.0143 25.7416 62.2573 25.7416 61.346C25.7416 60.2603 26.0255 59.2743 26.5982 58.4028C27.1659 57.5313 27.9976 56.8441 29.0832 56.351C30.1689 55.858 31.4487 55.609 32.9178 55.609C35.0443 55.609 36.7524 56.107 38.0422 57.108C39.3321 58.109 40.104 59.5432 40.3579 61.4157H36.6727C36.5433 60.5542 36.1598 59.8868 35.5124 59.4038C34.865 58.9257 33.9885 58.6817 32.873 58.6817C31.7575 58.6817 30.9507 58.9058 30.3681 59.344C29.7854 59.7872 29.4966 60.35 29.4966 61.0322C29.4966 61.4854 29.6659 61.8938 30.0095 62.2474C30.3531 62.6009 30.8362 62.9047 31.4736 63.1587C32.1061 63.4127 32.8929 63.6268 33.8292 63.8061C35.1688 64.0601 36.3739 64.3838 37.4347 64.7722C38.4954 65.1656 39.352 65.7284 39.9994 66.4604C40.6468 67.1925 40.9655 68.2433 40.9655 69.6128C40.9655 70.8279 40.6567 71.8837 40.0342 72.785C39.4117 73.6814 38.5402 74.3886 37.4147 74.8916C36.2893 75.3995 34.9646 75.6485 33.4457 75.6485V75.6585Z" fill="black"/>
<path d="M66.5527 75.2053V56.0672H69.969L70.233 58.7265C70.8405 57.7654 71.6523 57.0034 72.6632 56.4506C73.6741 55.8929 74.7996 55.614 76.0446 55.614C77.0307 55.614 77.9171 55.7435 78.7039 55.9925C79.4908 56.2465 80.183 56.6399 80.7906 57.1678C81.3981 57.7006 81.8911 58.358 82.2696 59.1398C82.927 58.0243 83.8333 57.1578 84.9837 56.5403C86.1341 55.9228 87.3841 55.609 88.7237 55.609C90.2426 55.609 91.5523 55.9128 92.6529 56.5204C93.7535 57.1279 94.5951 58.0542 95.1778 59.2942C95.7604 60.5342 96.0493 62.0681 96.0493 63.8908V75.2053H92.2894V64.2692C92.2894 62.4715 91.9308 61.1169 91.2087 60.2056C90.4866 59.2942 89.4408 58.841 88.0763 58.841C87.1401 58.841 86.3034 59.0801 85.5714 59.5631C84.8393 60.0462 84.2616 60.7484 83.8433 61.6697C83.425 62.596 83.2158 63.7165 83.2158 65.0312V75.2053H79.4211V64.2692C79.4211 62.4715 79.0525 61.1169 78.3205 60.2056C77.5884 59.2942 76.5376 58.841 75.1681 58.841C74.2568 58.841 73.4451 59.0801 72.7379 59.5631C72.0307 60.0462 71.4531 60.7484 71.0098 61.6697C70.5666 62.596 70.3475 63.7165 70.3475 65.0312V75.2053H66.5527Z" fill="black"/>
<path d="M60.8311 56.0771C61.0153 56.0771 61.1946 56.0771 61.3789 56.0771C61.6329 56.2216 61.9167 56.3261 62.1358 56.5104C62.4645 56.7893 62.6139 57.2026 62.7135 57.616C63.0422 58.9456 63.0024 60.2902 62.833 61.6348C62.604 63.4326 61.9914 65.1158 61.1946 66.7343C60.5074 68.1437 59.6807 69.4684 58.7345 70.7134C58.6797 70.7881 58.615 70.9175 58.6449 70.9873C58.7992 71.3608 58.9536 71.7392 59.1528 72.0829C59.3769 72.4663 59.7355 72.5958 60.1737 72.4962C60.7663 72.3667 61.2743 72.058 61.7723 71.7343C62.1508 71.4902 62.5293 71.2412 62.9177 70.9823C63.5004 71.8687 64.0731 72.7352 64.6507 73.6067C63.7593 74.1994 62.9277 74.8517 61.9416 75.2352C61.4685 75.4195 60.9655 75.5191 60.4775 75.6585H59.4367C59.3919 75.6436 59.347 75.6187 59.3022 75.6137C58.3212 75.4792 57.4746 75.0659 56.7574 74.3886C56.4885 74.1346 56.2594 73.8458 56.0104 73.5719C55.632 73.8358 55.2684 74.1247 54.87 74.3537C53.7645 74.9962 52.5593 75.3099 51.2894 75.3995C49.8103 75.4991 48.401 75.2601 47.1361 74.4533C45.1291 73.1735 44.0086 71.306 43.6152 68.9753C43.5505 68.5869 43.5156 68.1985 43.4658 67.805C43.4658 67.571 43.4658 67.3419 43.4658 67.1078C43.5057 66.7742 43.5256 66.4405 43.5804 66.1069C44.0833 63.0442 45.4329 60.4645 47.8432 58.4675C50.4577 56.3012 53.3163 55.7933 56.4586 57.1429C56.5433 57.1777 56.628 57.2225 56.7325 57.2723C56.0752 58.1239 55.4328 58.9406 54.8053 59.7723C54.6858 59.9267 54.5961 59.9416 54.4218 59.8719C53.1469 59.354 51.9318 59.4884 50.7864 60.2354C49.7755 60.8978 48.889 61.6996 48.1968 62.7005C46.9817 64.4684 46.3243 66.3758 46.8373 68.552C47.0863 69.6078 47.5195 70.559 48.3661 71.2711C50.2685 72.8647 53.142 72.5659 54.6957 70.6237C54.7555 70.549 54.7804 70.4096 54.7555 70.315C54.4766 69.2891 54.2874 68.2532 54.2176 67.1925C54.0234 64.3688 54.6808 61.7743 56.3142 59.4486C57.0911 58.343 57.9726 57.3321 59.2076 56.7146C59.7255 56.4556 60.2883 56.2813 60.8261 56.0722L60.8311 56.0771ZM60.0592 59.9018C58.2863 61.1966 56.7525 65.4047 57.3052 67.4465C59.0632 65.2304 59.9795 62.7354 60.0592 59.9018Z" fill="#133DC1"/>
<path d="M78.6792 83.7809C79.1722 83.7161 79.6653 83.6514 80.1633 83.5867C80.223 83.5966 80.2778 83.6116 80.3376 83.6116C81.8316 83.5518 83.2409 83.8506 84.5457 84.5827C85.9102 85.3496 87.0655 86.3306 87.7627 87.7798C88.6791 89.6971 88.1362 91.465 86.2787 92.4909C85.6363 92.8445 84.964 93.1881 84.2618 93.3873C81.8266 94.0795 79.3764 94.702 76.9263 95.3544C76.5478 95.454 76.1693 95.5486 75.7908 95.6432C76.1992 96.8633 77.1454 98.0884 78.2659 98.7607C80.0985 99.8663 82.0855 100.369 84.2269 100.13C84.8943 100.056 85.5516 99.8812 86.2289 99.7517C86.209 99.5974 86.1891 99.5127 86.1891 99.428C86.1741 98.6561 86.1094 97.8842 86.1642 97.1173C86.2887 95.4142 86.8912 93.8753 87.9619 92.5407C89.1771 91.0218 90.7507 90.0656 92.6382 89.6374C95.3074 89.0298 97.7427 89.5477 99.8542 91.3206C100.92 92.217 101.766 93.2827 102.135 94.6721C102.623 96.5098 101.821 98.0934 100.024 98.7109C99.0922 99.0296 98.1361 99.2786 97.1949 99.5874C95.5813 100.115 93.9728 100.658 92.3593 101.196C91.8264 101.375 91.2936 101.564 90.7358 101.759C91.1591 102.406 91.6571 102.949 92.2597 103.377C94.0624 104.652 96.0096 104.836 98.0614 104.104C99.5653 103.571 100.676 102.595 101.338 101.126C101.562 100.623 101.831 100.145 102.065 99.6472C102.578 98.5516 103.231 97.5954 104.008 96.7787C105.372 95.3444 106.811 94.6522 107.882 94.1692C109.54 93.4222 111.119 93.0984 112.424 92.974C112.469 94.1642 112.518 95.3544 112.563 96.5446C111.233 96.6791 110.208 97.0376 109.555 97.3215C108.783 97.6552 107.005 98.3573 105.86 100.12C105.387 100.847 104.989 101.639 104.64 102.441C103.455 105.165 101.393 106.843 98.5743 107.655C98.1809 107.77 97.7925 107.889 97.399 108.009C97.1251 108.043 96.8562 108.078 96.5823 108.118C96.5176 108.108 96.4528 108.088 96.3881 108.093C95.0086 108.123 93.669 107.939 92.3742 107.451C90.2478 106.649 88.6791 105.19 87.4988 103.283C87.3892 103.103 87.2946 103.083 87.1104 103.133C86.5725 103.283 86.0397 103.447 85.4919 103.546C83.3305 103.93 81.1941 103.761 79.1125 103.083C76.4482 102.212 74.3466 100.608 72.997 98.1083C72.6982 97.5555 72.4791 96.953 72.2102 96.3454C71.7819 96.4998 71.1445 96.684 70.3527 96.7239C70.0588 96.7388 69.4413 96.7488 68.4553 96.5347C67.4593 96.3155 66.4932 95.957 65.4175 95.3942C64.3916 94.8564 62.8727 93.9251 61.2393 92.3564C61.9962 91.5347 62.7582 90.713 63.5151 89.8864C64.7053 90.9222 65.7711 91.6642 66.5529 92.1622C67.9822 93.0736 68.5549 93.2379 69.023 93.3026C70.1435 93.457 71.0797 93.1084 71.6026 92.8644C71.6325 92.4261 71.6425 91.9829 71.6923 91.5397C72.1006 87.9143 73.9881 85.4342 77.4292 84.1693C77.8376 84.0199 78.2609 83.9203 78.6792 83.8008V83.7809ZM89.6751 98.3922C92.683 97.3862 95.666 96.3902 98.654 95.3942C98.166 93.8156 95.7357 92.6403 93.7039 93.0088C91.1043 93.4819 89.5057 95.6034 89.68 98.3922H89.6751ZM84.5905 89.3734C83.3704 87.2519 80.7808 86.6593 78.5597 87.4959C77.3545 87.9491 76.3685 88.6961 75.7609 89.8664C75.3974 90.5636 75.2331 91.3106 75.1932 92.1224C76.0597 91.9082 76.8864 91.709 77.7081 91.4949C79.2669 91.0865 80.8306 90.7031 82.3794 90.2449C83.1313 90.0258 83.8385 89.6722 84.5905 89.3734Z" fill="#133DC1"/>
<path d="M48.1417 107.476V80.1405H51.9365V91.4551C52.5689 90.3694 53.4504 89.4979 54.5759 88.8555C55.7013 88.2081 56.9513 87.8894 58.3158 87.8894C59.8347 87.8894 61.1395 88.1932 62.2251 88.8007C63.3108 89.4083 64.1424 90.3395 64.7102 91.5895C65.2779 92.8445 65.5667 94.3933 65.5667 96.2408V107.481H61.8068V96.6193C61.8068 94.8215 61.4333 93.457 60.6863 92.5208C59.9393 91.5845 58.8188 91.1164 57.3248 91.1164C56.3139 91.1164 55.4025 91.3654 54.5908 91.8584C53.7791 92.3515 53.1366 93.0586 52.6536 93.9849C52.1705 94.9112 51.9315 96.0317 51.9315 97.3464V107.486H48.1367L48.1417 107.476Z" fill="black"/>
<path d="M155.819 107.476V88.3376H159.236L159.5 90.9969C160.107 90.0358 160.919 89.2738 161.93 88.721C162.941 88.1633 164.066 87.8844 165.311 87.8844C166.297 87.8844 167.184 88.0139 167.971 88.2629C168.757 88.5169 169.45 88.9103 170.057 89.4382C170.665 89.971 171.158 90.6284 171.536 91.4102C172.194 90.2947 173.1 89.4282 174.25 88.8107C175.401 88.1932 176.651 87.8794 177.99 87.8794C179.509 87.8794 180.819 88.1832 181.92 88.7908C183.02 89.3983 183.862 90.3246 184.444 91.5646C185.027 92.8046 185.316 94.3385 185.316 96.1612V107.476H181.556V96.5396C181.556 94.7419 181.197 93.3873 180.475 92.476C179.753 91.5646 178.707 91.1114 177.343 91.1114C176.407 91.1114 175.57 91.3505 174.838 91.8335C174.106 92.3166 173.528 93.0188 173.11 93.9401C172.692 94.8664 172.482 95.9869 172.482 97.3016V107.476H168.688V96.5396C168.688 94.7419 168.319 93.3873 167.587 92.476C166.855 91.5646 165.804 91.1114 164.435 91.1114C163.523 91.1114 162.712 91.3505 162.004 91.8335C161.297 92.3166 160.72 93.0188 160.276 93.9401C159.833 94.8664 159.614 95.9869 159.614 97.3016V107.476H155.819Z" fill="black"/>
<path d="M211.401 107.476V88.3376H214.818L215.047 91.6045C215.654 90.4391 216.511 89.5278 217.611 88.8704C218.712 88.2131 219.997 87.8844 221.466 87.8844C223.01 87.8844 224.324 88.1882 225.415 88.7957C226.501 89.4033 227.347 90.3196 227.94 91.5497C228.533 92.7797 228.831 94.3136 228.831 96.1612V107.476H225.037V96.5396C225.037 94.7668 224.643 93.4222 223.861 92.4959C223.074 91.5746 221.939 91.1114 220.445 91.1114C219.459 91.1114 218.573 91.3505 217.786 91.8336C216.999 92.3166 216.376 93.0088 215.908 93.9202C215.44 94.8315 215.206 95.947 215.206 97.2617V107.476H211.411H211.401Z" fill="black"/>
<path d="M204.912 88.2878C205.096 88.2878 205.276 88.2878 205.46 88.2878C205.714 88.4322 205.998 88.5368 206.217 88.721C206.546 88.9999 206.695 89.4133 206.795 89.8266C207.123 91.1563 207.083 92.5009 206.914 93.8455C206.685 95.6432 206.072 97.3265 205.276 98.945C204.588 100.354 203.762 101.679 202.816 102.924C202.761 102.999 202.696 103.128 202.726 103.198C202.88 103.571 203.035 103.95 203.234 104.294C203.458 104.677 203.817 104.806 204.255 104.707C204.847 104.577 205.355 104.269 205.853 103.945C206.232 103.701 206.61 103.452 206.999 103.193C207.581 104.079 208.154 104.946 208.732 105.817C207.84 106.41 207.009 107.062 206.023 107.446C205.55 107.63 205.047 107.73 204.559 107.869H203.518C203.473 107.854 203.428 107.829 203.383 107.824C202.402 107.69 201.556 107.277 200.838 106.599C200.57 106.345 200.34 106.056 200.091 105.783C199.713 106.046 199.349 106.335 198.951 106.564C197.846 107.207 196.64 107.521 195.37 107.61C193.891 107.71 192.482 107.471 191.217 106.664C189.21 105.384 188.09 103.517 187.696 101.186C187.632 100.798 187.597 100.409 187.547 100.016C187.547 99.7816 187.547 99.5525 187.547 99.3185C187.587 98.9848 187.607 98.6512 187.661 98.3175C188.164 95.2548 189.514 92.6752 191.924 90.6782C194.539 88.5119 197.397 88.0039 200.54 89.3535C200.624 89.3884 200.709 89.4332 200.814 89.483C200.156 90.3346 199.514 91.1513 198.886 91.9829C198.767 92.1373 198.677 92.1523 198.503 92.0825C197.228 91.5646 196.013 91.6991 194.867 92.4461C193.857 93.1084 192.97 93.9102 192.278 94.9112C191.063 96.6791 190.405 98.5864 190.918 100.763C191.167 101.818 191.601 102.77 192.447 103.482C194.35 105.075 197.223 104.777 198.777 102.834C198.837 102.76 198.861 102.62 198.837 102.526C198.558 101.5 198.368 100.464 198.299 99.4031C198.104 96.5795 198.762 93.9849 200.395 91.6592C201.172 90.5537 202.054 89.5428 203.289 88.9252C203.807 88.6663 204.369 88.492 204.907 88.2828L204.912 88.2878ZM204.14 92.1124C202.367 93.4072 200.834 97.6153 201.386 99.6571C203.144 97.441 204.061 94.946 204.14 92.1124Z" fill="#133DC1"/>
<path d="M121.467 83.7062C120.85 83.7062 120.242 83.751 119.65 83.8257C119.59 86.8237 117.14 89.234 114.127 89.234C112.962 89.234 111.881 88.8704 110.989 88.2579C108.594 90.8226 107.125 94.2588 107.125 98.0486C107.125 100.703 107.847 103.188 109.107 105.324C109.466 105.04 109.924 104.871 110.417 104.871C111.587 104.871 112.533 105.817 112.533 106.988C112.533 107.645 112.234 108.228 111.766 108.616C114.321 110.962 117.722 112.396 121.467 112.396C123.937 112.396 126.263 111.768 128.295 110.673C128.036 110.21 127.882 109.682 127.882 109.109C127.882 107.356 129.301 105.937 131.054 105.937C131.781 105.937 132.453 106.186 132.986 106.599C134.759 104.214 135.805 101.261 135.805 98.0585C135.805 90.1403 129.386 83.7161 121.462 83.7161L121.467 83.7062ZM128.419 105.115C127.807 106.002 126.945 106.694 125.835 107.197C124.724 107.695 123.415 107.949 121.916 107.949C120.267 107.949 118.848 107.68 117.663 107.142C116.477 106.604 115.536 105.867 114.849 104.931C114.162 103.995 113.743 102.889 113.594 101.614H117.379C117.503 102.212 117.747 102.765 118.111 103.263C118.474 103.761 118.972 104.164 119.61 104.463C120.247 104.762 121.014 104.911 121.916 104.911C122.717 104.911 123.385 104.791 123.923 104.552C124.46 104.313 124.859 103.99 125.123 103.576C125.387 103.163 125.516 102.72 125.516 102.247C125.516 101.55 125.347 101.017 125.008 100.653C124.67 100.29 124.167 99.9958 123.489 99.7717C122.812 99.5476 122 99.3583 121.054 99.2089C120.227 99.0346 119.406 98.8205 118.579 98.5715C117.752 98.3225 117.025 97.9888 116.388 97.5804C115.75 97.1671 115.242 96.6641 114.869 96.0616C114.495 95.464 114.306 94.712 114.306 93.8106C114.306 92.7349 114.585 91.7688 115.148 90.9073C115.711 90.0457 116.527 89.3684 117.603 88.8854C118.679 88.3973 119.939 88.1533 121.388 88.1533C123.489 88.1533 125.173 88.6463 126.447 89.6324C127.722 90.6184 128.484 92.0377 128.733 93.8853H125.098C124.973 93.0337 124.59 92.3714 123.952 91.8983C123.315 91.4252 122.448 91.1861 121.348 91.1861C120.247 91.1861 119.45 91.4053 118.873 91.8435C118.3 92.2817 118.011 92.8345 118.011 93.5118C118.011 93.96 118.181 94.3634 118.519 94.712C118.858 95.0606 119.336 95.3644 119.963 95.6134C120.586 95.8624 121.363 96.0765 122.289 96.2508C123.614 96.4998 124.799 96.8185 125.85 97.2069C126.901 97.5954 127.742 98.1482 128.38 98.8753C129.017 99.6023 129.336 100.638 129.336 101.988C129.336 103.188 129.027 104.229 128.419 105.12V105.115Z" fill="#FFBF00"/>
<path d="M142.493 107.934C140.67 107.934 139.057 107.516 137.652 106.679C136.248 105.842 135.147 104.682 134.35 103.188C133.554 101.694 133.155 99.946 133.155 97.949C133.155 95.952 133.539 94.1941 134.316 92.6901C135.088 91.1861 136.188 90.0059 137.617 89.1593C139.047 88.3127 140.7 87.8894 142.572 87.8894C144.445 87.8894 146.053 88.3077 147.393 89.1443C148.733 89.981 149.769 91.0816 150.486 92.4461C151.208 93.8106 151.566 95.3295 151.566 97.0028V97.8394C151.566 98.1432 151.541 98.4619 151.492 98.7906H135.924V96.1313H147.806C147.732 94.5626 147.199 93.3226 146.213 92.4112C145.227 91.4999 143.997 91.0467 142.528 91.0467C141.492 91.0467 140.541 91.2808 139.679 91.7489C138.818 92.217 138.135 92.8993 137.627 93.8006C137.119 94.697 136.87 95.8325 136.87 97.197V98.2577C136.87 99.677 137.124 100.867 137.627 101.828C138.135 102.79 138.813 103.527 139.659 104.03C140.506 104.538 141.452 104.787 142.488 104.787C143.703 104.787 144.709 104.523 145.506 103.99C146.302 103.457 146.88 102.735 147.234 101.823H151.028C150.7 102.989 150.142 104.03 149.36 104.956C148.573 105.882 147.612 106.609 146.477 107.137C145.336 107.67 144.007 107.934 142.488 107.934H142.493Z" fill="black"/>
</svg>
