<?xml version="1.0" encoding="UTF-8"?>
<svg id="Layer_1" xmlns="http://www.w3.org/2000/svg" version="1.1" viewBox="0 0 1440 668">
  <!-- Generator: Adobe Illustrator 29.2.1, SVG Export Plug-In . SVG Version: 2.1.0 Build 116)  -->
  <defs>
    <style>
      .st0 {
        fill: #ffbf00;
        fill-opacity: .2;
      }
    </style>
  </defs>
  <path class="st0" d="M-78.3,257.6c-19.5,19.5-19.5,51.2,0,70.7,19.5,19.5,51.2,19.5,70.7,0l-70.7-70.7ZM466.5,58.8l-14.2,47.9,14.2-47.9ZM717.3,428.7l49.2,9.1-49.2-9.1ZM543.2,613.2l4.2,49.8-4.2-49.8ZM358.9,403.1l49.5,7.1-49.5-7.1ZM740.3,84.8l6.9-49.5-6.9,49.5ZM1018.4,494.9l37.1-33.5-37.1,33.5ZM1274.5,569.2l10.8,48.8-10.8-48.8ZM-4.7,325.4c19.8-19.2,20.3-50.9,1.1-70.7-19.2-19.8-50.9-20.3-70.7-1.1L-4.7,325.4ZM-66.6,246.3c-20.1,19-21,50.6-2.1,70.7,19,20.1,50.6,21,70.7,2.1l-68.6-72.7ZM9,312.5c20.3-18.7,21.5-50.4,2.8-70.7-18.7-20.3-50.4-21.5-70.7-2.8L9,312.5ZM-51.2,232c-20.4,18.6-22,50.2-3.4,70.6,18.6,20.4,50.2,22,70.6,3.4l-67.2-74ZM23.2,299.6c20.6-18.4,22.4-50,4-70.6-18.4-20.6-50-22.4-70.6-4l66.6,74.6ZM-35.5,218c-20.7,18.2-22.8,49.8-4.6,70.6,18.2,20.7,49.8,22.8,70.6,4.6l-66-75.1ZM37.8,286.8c20.9-18.1,23.2-49.6,5.1-70.5-18.1-20.9-49.6-23.2-70.5-5.1l65.4,75.6ZM-19.7,204.4c-21,17.9-23.6,49.5-5.7,70.5,17.9,21,49.5,23.6,70.5,5.7L-19.7,204.4ZM52.6,274.3c21.2-17.7,23.9-49.3,6.2-70.4-17.7-21.2-49.3-23.9-70.4-6.2l64.2,76.6ZM-3.7,191c-21.3,17.6-24.3,49.1-6.7,70.4,17.6,21.3,49.1,24.3,70.4,6.7L-3.7,191ZM67.4,262c21.4-17.4,24.7-48.9,7.3-70.3-17.4-21.4-48.9-24.7-70.3-7.3l63.1,77.6ZM12.5,177.8c-21.6,17.3-25,48.7-7.8,70.3,17.3,21.6,48.7,25,70.3,7.8L12.5,177.8ZM82.5,249.9c21.7-17.1,25.4-48.5,8.3-70.2-17.1-21.7-48.5-25.4-70.2-8.3l61.9,78.5ZM28.9,164.9c-21.8,16.9-25.8,48.3-8.9,70.2,16.9,21.8,48.3,25.8,70.2,8.9l-61.3-79ZM97.8,238.1c22-16.7,26.2-48.1,9.4-70.1-16.7-22-48.1-26.2-70.1-9.4l60.6,79.5ZM45.5,152.2c-22.1,16.6-26.6,47.9-10,70,16.6,22.1,47.9,26.6,70,10l-60-80ZM113.2,226.5c22.2-16.4,27-47.7,10.6-69.9-16.4-22.2-47.7-27-69.9-10.6l59.3,80.5ZM62.3,139.8c-22.4,16.2-27.4,47.5-11.2,69.8,16.2,22.4,47.5,27.4,69.8,11.2l-58.7-81ZM128.8,215.2c22.5-16,27.8-47.2,11.8-69.7-16-22.5-47.2-27.8-69.7-11.8l58,81.5ZM79.4,127.7c-22.6,15.8-28.2,47-12.4,69.6,15.8,22.6,47,28.2,69.6,12.4l-57.2-82ZM144.6,204.2c22.8-15.6,28.6-46.7,13-69.5-15.6-22.8-46.7-28.6-69.5-13l56.5,82.5ZM96.8,115.8c-22.9,15.4-29,46.5-13.7,69.4s46.5,29,69.4,13.7l-55.7-83ZM160.5,193.5c23.1-15.2,29.5-46.2,14.3-69.2-15.2-23.1-46.2-29.5-69.2-14.3l54.9,83.6ZM114.4,104.2c-23.2,14.9-29.9,45.9-15,69.1,14.9,23.2,45.9,29.9,69.1,15l-54.1-84.1ZM176.5,183.2c23.4-14.7,30.4-45.6,15.7-68.9-14.7-23.4-45.6-30.4-68.9-15.7l53.2,84.7ZM132.3,92.9c-23.5,14.5-30.9,45.2-16.4,68.8,14.5,23.5,45.2,30.9,68.8,16.4l-52.3-85.2ZM192.7,173.2c23.7-14.2,31.4-44.9,17.2-68.6-14.2-23.7-44.9-31.4-68.6-17.2l51.4,85.8ZM150.5,82c-23.8,13.9-31.9,44.5-18,68.4,13.9,23.8,44.5,31.9,68.4,18l-50.4-86.4ZM209.1,163.7c24-13.6,32.4-44.2,18.8-68.2-13.6-24-44.2-32.4-68.2-18.8l49.4,86.9ZM169,71.5c-24.2,13.3-33,43.8-19.6,67.9,13.3,24.2,43.8,33,67.9,19.6l-48.3-87.5ZM225.6,154.6c24.3-13,33.5-43.3,20.5-67.7-13-24.3-43.3-33.5-67.7-20.5l47.2,88.2ZM187.9,61.4c-24.5,12.7-34.1,42.9-21.4,67.4,12.7,24.5,42.9,34.1,67.4,21.4l-46-88.8ZM242.2,145.9c24.7-12.4,34.7-42.4,22.3-67.1-12.4-24.7-42.4-34.7-67.1-22.3l44.8,89.4ZM207.1,51.8c-24.9,12-35.3,41.9-23.3,66.8,12,24.9,41.9,35.3,66.8,23.3l-43.5-90.1ZM259,137.9c25-11.6,35.9-41.4,24.3-66.4-11.6-25-41.4-35.9-66.4-24.3l42.1,90.7ZM226.8,42.7c-25.2,11.2-36.6,40.8-25.4,66,11.2,25.2,40.8,36.6,66,25.4l-40.7-91.4ZM275.9,130.4c25.4-10.8,37.3-40.2,26.5-65.6-10.8-25.4-40.2-37.3-65.6-26.4l39.1,92ZM246.9,34.1c-25.6,10.4-38,39.5-27.6,65.1,10.4,25.6,39.5,38,65.1,27.6l-37.5-92.7ZM292.8,123.5c25.8-9.9,38.7-38.8,28.8-64.6-9.9-25.8-38.8-38.7-64.6-28.8l35.8,93.4ZM267.4,26.3c-26,9.4-39.4,38-30,64,9.4,26,38,39.4,64,30l-34-94.1ZM309.9,117.3c26.2-8.8,40.2-37.2,31.3-63.4-8.8-26.2-37.2-40.2-63.4-31.3l32,94.7ZM288.4,19.2c-26.3,8.3-41,36.3-32.7,62.7,8.3,26.3,36.3,41,62.7,32.7l-30-95.4ZM326.9,112c26.5-7.7,41.8-35.4,34.1-61.9-7.7-26.5-35.4-41.8-61.9-34.1l27.8,96.1ZM310,12.9c-26.7,7-42.7,34.4-35.6,61.1,7,26.7,34.4,42.7,61.1,35.6l-25.5-96.7ZM344,107.5c26.9-6.3,43.5-33.3,37.2-60.2-6.3-26.9-33.3-43.5-60.2-37.2l23,97.3ZM332.1,7.7c-27,5.6-44.4,32.1-38.8,59.1,5.6,27,32.1,44.4,59.1,38.8l-20.4-97.9ZM360.9,104c27.2-4.8,45.3-30.8,40.5-58-4.8-27.2-30.8-45.3-58-40.5l17.5,98.5ZM354.7,3.7c-27.3,4-46.2,29.4-42.2,56.7,4,27.3,29.4,46.2,56.7,42.2l-14.5-98.9ZM377.7,101.5c27.4-3.1,47.1-27.9,44-55.4S393.8-1,366.3,2.2l11.3,99.4ZM378,1c-27.5,2.2-48.1,26.3-45.9,53.8,2.2,27.5,26.3,48.1,53.8,45.9l-8-99.7ZM394.2,100.2c27.6-1.2,49-24.5,47.8-52.1-1.2-27.6-24.5-49-52.1-47.8l4.4,99.9ZM401.8,0c-27.6.2-49.9,22.7-49.7,50.3.2,27.6,22.7,49.9,50.3,49.7L401.8,0ZM410.4,100.1c27.6.9,50.7-20.7,51.7-48.3.9-27.6-20.7-50.7-48.3-51.7l-3.4,99.9ZM426,.8c-27.5-2.1-51.6,18.5-53.7,46-2.1,27.5,18.5,51.6,46,53.7L426,.8ZM426.1,101.3c27.4,3.3,52.3-16.2,55.6-43.6,3.3-27.4-16.2-52.3-43.6-55.6l-12,99.3ZM450.4,3.8c-27.2-4.6-53,13.8-57.6,41-4.6,27.2,13.8,53,41,57.6L450.4,3.8ZM441.3,103.9c27,5.9,53.6-11.2,59.5-38.2,5.9-27-11.2-53.6-38.2-59.5l-21.3,97.7ZM474.7,9.1c-26.7-7.2-54.1,8.6-61.3,35.2-7.2,26.7,8.6,54.1,35.2,61.3l26-96.5ZM456.5,108c26.4,8.2,54.4-6.5,62.6-32.8,8.2-26.4-6.5-54.4-32.8-62.6l-29.8,95.5ZM497.2,16.1c-26.1-9-54.6,5-63.5,31.1-9,26.1,5,54.6,31.1,63.5l32.4-94.6ZM473,113.6c25.9,9.7,54.7-3.4,64.3-29.3,9.7-25.9-3.4-54.7-29.3-64.4l-35,93.7ZM518.8,24.2c-25.6-10.4-54.7,1.9-65.1,27.5-10.4,25.6,1.9,54.7,27.5,65.1l37.7-92.6ZM489.2,120.2c25.3,11.1,54.8-.4,65.9-25.6,11.1-25.3-.4-54.8-25.6-65.9l-40.3,91.5ZM539.9,33.5c-25-11.8-54.8-1.2-66.6,23.7-11.8,24.9-1.2,54.8,23.7,66.6l42.9-90.3ZM504.9,127.6c24.6,12.5,54.7,2.8,67.3-21.8,12.5-24.6,2.8-54.7-21.8-67.3l-45.4,89.1ZM560.5,44c-24.2-13.2-54.6-4.3-67.9,19.9-13.2,24.2-4.3,54.6,19.9,67.9l48-87.7ZM520.1,136c23.8,13.9,54.5,5.9,68.4-17.9,13.9-23.8,5.9-54.5-17.9-68.4l-50.5,86.3ZM580.5,55.6c-23.4-14.6-54.3-7.5-68.9,15.9-14.6,23.4-7.5,54.3,15.9,68.9l53-84.8ZM534.8,145.1c23,15.3,54,9,69.3-13.9,15.3-23,9-54-13.9-69.3l-55.4,83.3ZM599.7,68.4c-22.5-15.9-53.7-10.6-69.7,11.9-16,22.5-10.6,53.7,11.9,69.7l57.8-81.6ZM549,155.2c22.1,16.6,53.4,12.1,70-9.9,16.6-22.1,12.1-53.4-9.9-70l-60.1,79.9ZM618.2,82.3c-21.6-17.2-53-13.7-70.3,7.9-17.2,21.6-13.7,53,7.9,70.3l62.4-78.2ZM562.5,166c21.1,17.8,52.6,15.2,70.5-5.9,17.8-21.1,15.2-52.6-5.9-70.5l-64.6,76.4ZM635.8,97.2c-20.6-18.4-52.2-16.7-70.6,3.9-18.4,20.6-16.7,52.2,3.9,70.6l66.7-74.5ZM575.5,177.6c20,19,51.7,18.2,70.7-1.9,19-20,18.2-51.7-1.9-70.7l-68.8,72.6ZM652.6,113.1c-19.5-19.6-51.1-19.6-70.7-.1-19.6,19.5-19.6,51.1-.1,70.7l70.8-70.6ZM587.8,189.9c18.9,20.1,50.6,21.1,70.7,2.1,20.1-18.9,21.1-50.6,2.1-70.7l-72.8,68.6ZM668.4,129.9c-18.4-20.6-50-22.5-70.6-4.1-20.6,18.4-22.5,50-4.1,70.6l74.7-66.5ZM599.4,203c17.8,21.1,49.3,23.9,70.4,6.1,21.1-17.8,23.9-49.3,6.1-70.4l-76.5,64.4ZM683.2,147.5c-17.2-21.6-48.6-25.2-70.3-8-21.6,17.2-25.2,48.6-8,70.3l78.3-62.2ZM610.2,216.6c16.6,22.1,47.9,26.6,70,10s26.6-47.9,10-70l-80,60ZM697,165.9c-16-22.5-47.2-27.9-69.7-11.9-22.5,16-27.9,47.2-11.9,69.7l81.6-57.8ZM620.3,230.9c15.3,23,46.4,29.2,69.3,13.8,23-15.3,29.2-46.4,13.8-69.3l-83.2,55.5ZM709.8,185c-14.7-23.4-45.6-30.4-68.9-15.7-23.4,14.7-30.4,45.6-15.7,68.9l84.7-53.2ZM629.6,245.7c14,23.8,44.7,31.7,68.5,17.6,23.8-14,31.7-44.7,17.6-68.5l-86.1,50.9ZM721.4,204.8c-13.4-24.2-43.8-32.9-68-19.5-24.2,13.4-32.9,43.8-19.5,68l87.5-48.5ZM638.1,261c12.7,24.5,42.9,34.1,67.4,21.4,24.5-12.7,34.1-42.9,21.4-67.4l-88.8,46ZM732,225.2c-12-24.9-41.9-35.2-66.8-23.2-24.9,12-35.2,41.9-23.2,66.8l90-43.6ZM645.7,276.7c11.3,25.2,40.9,36.4,66.1,25.1,25.2-11.3,36.4-40.9,25.1-66.1l-91.2,41.1ZM741.5,246.2c-10.6-25.5-39.9-37.5-65.4-26.9-25.5,10.6-37.5,39.9-26.9,65.4l92.3-38.5ZM652.4,292.8c9.9,25.8,38.8,38.6,64.6,28.7,25.8-9.9,38.6-38.8,28.7-64.6l-93.4,35.9ZM749.8,267.8c-9.2-26.1-37.7-39.7-63.8-30.6-26.1,9.2-39.7,37.7-30.6,63.8l94.3-33.2ZM658.2,309.2c8.4,26.3,36.5,40.8,62.8,32.4,26.3-8.4,40.8-36.5,32.4-62.8l-95.3,30.4ZM756.8,289.8c-7.6-26.5-35.3-41.9-61.9-34.3-26.5,7.6-41.9,35.3-34.3,61.9l96.1-27.6ZM662.9,325.7c6.8,26.8,34,42.9,60.8,36.1,26.8-6.8,42.9-34,36.1-60.8l-96.9,24.7ZM762.6,312.4c-6-27-32.7-43.9-59.7-38-27,6-43.9,32.7-38,59.7l97.6-21.7ZM666.7,342.5c5.1,27.1,31.3,45,58.4,39.8,27.1-5.1,45-31.3,39.8-58.4l-98.2,18.6ZM766.9,335.4c-4.3-27.3-29.8-45.9-57.1-41.7-27.3,4.3-45.9,29.8-41.7,57.1l98.8-15.4ZM669.3,359.2c3.3,27.4,28.3,46.9,55.7,43.6,27.4-3.3,46.9-28.3,43.6-55.7l-99.3,12.1ZM769.8,358.9c-2.4-27.5-26.6-47.9-54.1-45.5-27.5,2.4-47.9,26.6-45.5,54.1l99.6-8.7ZM670.7,375.8c1.4,27.6,24.9,48.8,52.5,47.4,27.6-1.4,48.8-24.9,47.4-52.5l-99.9,5.1ZM771,382.8c-.4-27.6-23-49.7-50.6-49.3-27.6.4-49.7,23-49.3,50.6l100-1.3ZM670.9,392.2c-.7,27.6,21.1,50.6,48.7,51.3,27.6.7,50.6-21.1,51.3-48.7l-100-2.7ZM770.3,407c1.9-27.6-18.9-51.4-46.5-53.3-27.5-1.9-51.4,18.9-53.3,46.5l99.8,6.8ZM669.8,408.1c-3.1,27.4,16.6,52.2,44.1,55.3,27.4,3.1,52.2-16.6,55.3-44.1l-99.4-11.2ZM767.5,431.7c4.4-27.3-14.2-52.9-41.4-57.3-27.3-4.4-52.9,14.2-57.3,41.4l98.7,15.8ZM667.3,423.8c-5.4,27.1,12.2,53.4,39.3,58.8,27.1,5.4,53.4-12.2,58.8-39.3l-98.1-19.5ZM763.1,454.2c6.1-26.9-10.8-53.7-37.7-59.8-26.9-6.1-53.7,10.8-59.8,37.7l97.5,22.2ZM663.6,440.2c-6.9,26.7,9.2,54,36,60.9,26.7,6.9,54-9.2,60.9-36l-96.9-24.9ZM757.5,476c7.7-26.5-7.6-54.2-34.2-61.9-26.5-7.7-54.2,7.6-61.9,34.2l96.1,27.7ZM659,456.2c-8.5,26.3,6,54.5,32.2,62.9,26.3,8.5,54.5-6,62.9-32.2l-95.2-30.7ZM750.5,497.7c9.3-26-4.2-54.6-30.2-63.9s-54.6,4.2-63.9,30.2l94.1,33.8ZM653.5,471.5c-10.2,25.7,2.3,54.7,28,64.9,25.7,10.2,54.7-2.3,64.9-28l-92.9-37ZM741.9,519.2c11.1-25.3-.3-54.8-25.6-65.9-25.3-11.1-54.8.3-65.9,25.6l91.5,40.3ZM647.1,486.1c-12.1,24.8-1.8,54.8,23,66.9,24.8,12.1,54.8,1.8,66.9-23l-89.9-43.8ZM731.5,540.4c13.1-24.3,4-54.6-20.3-67.7-24.3-13.1-54.6-4-67.7,20.3l88,47.4ZM639.7,499.7c-14.1,23.7-6.3,54.4,17.4,68.5,23.7,14.1,54.4,6.3,68.5-17.4l-85.9-51.2ZM719.2,561.1c15.2-23.1,8.8-54.1-14.3-69.3s-54.1-8.8-69.3,14.3l83.5,55ZM631.5,512.2c-16.3,22.3-11.4,53.6,11,69.9,22.3,16.3,53.6,11.4,69.9-11l-80.8-58.9ZM704.8,580.9c17.4-21.5,14-53-7.4-70.3-21.5-17.4-53-14-70.3,7.4l77.8,62.9ZM622.4,523.5c-18.5,20.5-16.8,52.1,3.7,70.6,20.5,18.5,52.1,16.8,70.6-3.7l-74.4-66.9ZM688.1,599.4c19.6-19.5,19.6-51.2.1-70.7-19.5-19.6-51.2-19.6-70.7-.1l70.6,70.8ZM612.4,533.4c-20.6,18.4-22.5,50-4.1,70.6,18.4,20.6,50,22.5,70.6,4.1l-66.5-74.7ZM669.1,616.3c21.7-17.1,25.3-48.6,8.2-70.2-17.1-21.7-48.6-25.3-70.2-8.2l62,78.4ZM601.6,541.9c-22.6,15.8-28.2,47-12.4,69.6,15.8,22.6,47,28.2,69.6,12.4l-57.3-82ZM648.2,630.9c23.5-14.4,30.9-45.2,16.5-68.8-14.4-23.5-45.2-30.9-68.8-16.5l52.2,85.3ZM590,549c-24.4,13-33.6,43.3-20.6,67.6,13,24.4,43.3,33.6,67.6,20.6l-47-88.3ZM625.5,643c25.1-11.5,36.1-41.2,24.6-66.3-11.5-25.1-41.2-36.1-66.3-24.6l41.7,90.9ZM577.5,554.8c-25.7,10-38.5,39-28.5,64.7s39,38.5,64.7,28.5l-36.3-93.2ZM601.9,652.2c26.3-8.5,40.6-36.7,32.1-63-8.5-26.3-36.7-40.6-63-32.1l30.9,95.1ZM564.2,559.1c-26.7,7.1-42.6,34.4-35.5,61.1,7.1,26.7,34.4,42.6,61.1,35.5l-25.6-96.7ZM577.7,658.6c27-5.6,44.4-32.1,38.7-59.2-5.6-27-32.1-44.4-59.2-38.7l20.4,97.9ZM550.1,562c-27.3,4.3-45.9,29.8-41.7,57.1,4.3,27.3,29.8,45.9,57.1,41.7l-15.5-98.8ZM553.4,662.4c27.5-3,47.3-27.6,44.4-55.1-3-27.5-27.6-47.3-55.1-44.4l10.7,99.4ZM534.9,563.7c-27.6,1.7-48.5,25.4-46.8,53,1.7,27.6,25.4,48.5,53,46.8l-6.2-99.8ZM528.7,664c27.6-.5,49.6-23.2,49.1-50.9s-23.2-49.6-50.9-49.1l1.7,100ZM519.1,563.9c-27.6-.8-50.7,20.9-51.5,48.5-.8,27.6,20.9,50.7,48.5,51.5l3-100ZM503.4,663.2c27.5,2.2,51.6-18.3,53.9-45.8,2.2-27.5-18.3-51.6-45.8-53.9l-8.1,99.7ZM503.9,562.7c-27.4-3.7-52.5,15.5-56.2,42.9-3.7,27.4,15.5,52.5,42.9,56.2l13.4-99.1ZM477.7,659.7c27.1,5.2,53.3-12.5,58.6-39.6,5.2-27.1-12.5-53.3-39.6-58.6l-18.9,98.2ZM489.5,559.9c-26.8-6.8-54,9.4-60.8,36.1-6.8,26.8,9.4,54,36.1,60.8l24.7-96.9ZM452.1,653.2c26.3,8.4,54.4-6,62.9-32.3,8.4-26.3-6-54.4-32.3-62.9l-30.5,95.2ZM476,555.6c-25.7-10.1-54.7,2.6-64.8,28.3-10.1,25.7,2.6,54.7,28.3,64.8l36.5-93.1ZM427,643.3c25,11.7,54.8,1,66.5-24s1-54.8-24-66.5l-42.5,90.5ZM463.5,549.7c-24.2-13.4-54.6-4.7-68,19.5-13.4,24.1-4.7,54.6,19.5,68l48.5-87.5ZM403.3,630.1c23.2,15,54.1,8.4,69.1-14.8,15-23.2,8.4-54.1-14.8-69.1l-54.3,84ZM452,542.3c-22.1-16.6-53.4-12.1-70,10-16.6,22.1-12.1,53.4,10,70l60-80ZM381.4,613.8c20.9,18,52.5,15.7,70.5-5.2,18-20.9,15.7-52.5-5.2-70.5l-65.3,75.7ZM441.7,533.4c-19.6-19.4-51.3-19.2-70.7.4-19.4,19.6-19.2,51.3.4,70.7l70.3-71.1ZM362.1,594.6c18.3,20.7,49.9,22.7,70.6,4.4,20.7-18.3,22.7-49.9,4.4-70.6l-75,66.2ZM432.6,523.1c-16.9-21.9-48.3-25.9-70.1-9-21.9,16.9-25.9,48.3-9,70.1l79.2-61.1ZM345.6,573.3c15.4,22.9,46.5,29,69.4,13.5,22.9-15.4,29-46.5,13.5-69.4l-82.9,55.9ZM424.8,511.4c-14-23.8-44.6-31.8-68.4-17.9-23.8,14-31.8,44.6-17.9,68.4l86.3-50.5ZM332.1,550.3c12.5,24.6,42.6,34.5,67.2,22,24.6-12.5,34.5-42.6,22-67.2l-89.2,45.2ZM418.2,498.5c-11-25.3-40.5-36.9-65.8-25.9-25.3,11-36.9,40.5-25.9,65.8l91.7-39.8ZM321.6,526.2c9.5,25.9,38.3,39.2,64.2,29.6s39.2-38.3,29.6-64.2l-93.8,34.6ZM413.1,484.6c-8.1-26.4-36.1-41.2-62.5-33.1-26.4,8.1-41.2,36.1-33.1,62.5l95.6-29.3ZM314.1,501.5c6.7,26.8,33.8,43.1,60.6,36.4,26.8-6.7,43.1-33.8,36.4-60.6l-97,24.2ZM409.4,469.8c-5.3-27.1-31.6-44.8-58.7-39.4-27.1,5.3-44.8,31.6-39.5,58.7l98.1-19.2ZM309.1,476.5c4,27.3,29.3,46.3,56.7,42.3,27.3-4,46.3-29.3,42.3-56.7l-99,14.4ZM407.2,454.4c-2.7-27.5-27.1-47.6-54.6-45-27.5,2.7-47.6,27.1-45,54.6l99.5-9.6ZM306.7,451.5c1.4,27.6,24.9,48.8,52.4,47.4,27.6-1.4,48.8-24.9,47.4-52.4l-99.9,5ZM406.4,438.5c-.1-27.6-22.6-49.9-50.3-49.7-27.6.1-49.9,22.6-49.7,50.3l100-.5ZM306.6,426.7c-1.1,27.6,20.5,50.8,48.1,51.9,27.6,1.1,50.8-20.5,51.9-48.1l-99.9-3.8ZM407,422.4c2.2-27.5-18.3-51.6-45.8-53.9-27.5-2.2-51.6,18.3-53.9,45.8l99.7,8ZM308.5,402.1c-3.3,27.4,16.2,52.3,43.6,55.7,27.4,3.3,52.3-16.2,55.7-43.6l-99.3-12.1ZM409,406.1c4.4-27.3-14.1-52.9-41.4-57.4-27.3-4.4-52.9,14.1-57.4,41.4l98.7,16ZM312.4,378.4c-5.4,27.1,12.2,53.4,39.3,58.8,27.1,5.4,53.4-12.2,58.8-39.3l-98.1-19.6ZM412.2,389.7c6.3-26.9-10.4-53.8-37.3-60.1-26.9-6.3-53.8,10.4-60.1,37.3l97.4,22.8ZM317.7,355.5c-7.1,26.7,8.7,54.1,35.4,61.2,26.7,7.1,54.1-8.7,61.2-35.4l-96.6-25.9ZM416.7,373c7.9-26.5-7.1-54.3-33.5-62.2-26.5-7.9-54.3,7.1-62.2,33.5l95.8,28.7ZM324.4,333.3c-8.7,26.2,5.6,54.5,31.8,63.2,26.2,8.7,54.5-5.6,63.2-31.8l-94.9-31.4ZM422.2,356.4c9.4-26-4.1-54.6-30.1-64s-54.6,4.1-64,30.1l94.1,33.9ZM332.1,311.8c-10,25.7,2.7,54.7,28.4,64.7,25.7,10,54.7-2.7,64.7-28.4l-93.2-36.3ZM428.6,339.8c10.7-25.5-1.3-54.8-26.8-65.4-25.5-10.7-54.8,1.3-65.4,26.8l92.2,38.6ZM340.9,290.8c-11.3,25.2,0,54.8,25.2,66.1,25.2,11.3,54.8,0,66.1-25.2l-91.3-40.8ZM435.9,323.5c11.9-24.9,1.3-54.8-23.6-66.6-24.9-11.9-54.8-1.3-66.6,23.6l90.3,43ZM350.6,270.4c-12.5,24.6-2.6,54.7,22.1,67.2,24.6,12.5,54.7,2.6,67.2-22.1l-89.3-45.1ZM444,307.5c13-24.4,3.8-54.6-20.5-67.7-24.4-13-54.6-3.8-67.7,20.5l88.2,47.1ZM361.3,250.5c-13.6,24.1-5.1,54.5,19,68.1,24.1,13.6,54.5,5.1,68.1-19l-87.1-49.1ZM452.9,291.8c14.1-23.7,6.3-54.4-17.5-68.5s-54.4-6.3-68.5,17.5l86,51.1ZM372.8,231.1c-14.6,23.4-7.5,54.3,15.9,68.9,23.4,14.6,54.3,7.5,68.9-15.9l-84.8-53ZM462.4,276.5c15.2-23.1,8.7-54.1-14.4-69.2-23.1-15.2-54.1-8.7-69.2,14.4l83.6,54.9ZM385.1,212.3c-15.7,22.7-9.9,53.9,12.8,69.5,22.7,15.7,53.9,9.9,69.5-12.8l-82.3-56.8ZM472.6,261.7c16.2-22.4,11.2-53.6-11.2-69.8-22.4-16.2-53.6-11.2-69.8,11.2l81,58.6ZM398.3,194.1c-16.7,22-12.4,53.4,9.6,70.1,22,16.7,53.4,12.4,70.1-9.6l-79.7-60.4ZM483.5,247.4c17.2-21.6,13.6-53.1-8-70.3-21.6-17.2-53.1-13.6-70.3,8l78.2,62.3ZM412.4,176.4c-17.7,21.2-14.9,52.7,6.3,70.4,21.2,17.7,52.7,14.9,70.4-6.3l-76.8-64.1ZM495,233.7c18.2-20.8,16.1-52.4-4.7-70.6-20.8-18.2-52.4-16.1-70.6,4.7l75.2,65.9ZM427.3,159.3c-18.7,20.3-17.4,52,3,70.6,20.3,18.7,52,17.4,70.6-3l-73.6-67.7ZM507.1,220.5c19.2-19.9,18.6-51.5-1.2-70.7-19.9-19.2-51.5-18.6-70.7,1.2l71.9,69.5ZM443.1,143c-19.7,19.4-19.9,51-.5,70.7,19.4,19.7,51,19.9,70.7.5l-70.2-71.2ZM519.7,208.1c20.2-18.9,21.2-50.5,2.3-70.7-18.9-20.2-50.5-21.2-70.7-2.3l68.4,73ZM459.8,127.4c-20.6,18.3-22.5,49.9-4.2,70.6s49.9,22.5,70.6,4.2l-66.4-74.7ZM532.9,196.4c21.1-17.8,23.8-49.3,6-70.5-17.8-21.1-49.3-23.8-70.5-6l64.4,76.5ZM477.3,112.6c-21.6,17.2-25.1,48.7-7.9,70.3,17.2,21.6,48.7,25.1,70.3,7.9l-62.3-78.2ZM546.6,185.4c22.1-16.6,26.5-48,9.9-70-16.6-22.1-48-26.5-70-9.9l60.1,79.9ZM495.8,98.7c-22.5,16-27.8,47.2-11.9,69.7,16,22.5,47.2,27.8,69.7,11.9l-57.8-81.6ZM560.8,175.4c23-15.3,29.2-46.3,13.9-69.3-15.3-23-46.3-29.2-69.3-13.9l55.4,83.2ZM515.1,85.9c-23.4,14.6-30.6,45.5-16,68.9,14.6,23.4,45.5,30.6,68.9,16l-52.9-84.8ZM575.4,166.2c23.9-13.9,31.9-44.5,18-68.4-13.9-23.9-44.5-31.9-68.4-18l50.3,86.4ZM535.3,74.1c-24.3,13.1-33.3,43.5-20.2,67.8,13.1,24.3,43.5,33.3,67.8,20.2l-47.6-87.9ZM590.5,158.1c24.7-12.4,34.7-42.4,22.3-67.1-12.4-24.7-42.4-34.7-67.1-22.3l44.8,89.4ZM556.3,63.6c-25.1,11.6-36,41.3-24.5,66.3,11.6,25.1,41.3,36,66.3,24.5l-41.9-90.8ZM605.9,151c25.4-10.7,37.4-40.1,26.6-65.5-10.7-25.4-40.1-37.4-65.5-26.6l38.9,92.1ZM578,54.4c-25.8,9.9-38.7,38.8-28.8,64.6,9.9,25.8,38.8,38.7,64.6,28.8l-35.7-93.4ZM621.7,144.9c26.1-9,40-37.4,31-63.6-9-26.1-37.4-40-63.5-31l32.5,94.6ZM600.4,46.7c-26.4,8.1-41.3,36-33.2,62.4,8.1,26.4,36,41.3,62.4,33.2l-29.3-95.6ZM637.7,140c26.7-7.2,42.5-34.6,35.3-61.2-7.2-26.7-34.6-42.5-61.2-35.3l25.9,96.6ZM623.3,40.6c-26.9,6.2-43.7,33.1-37.5,60,6.2,26.9,33.1,43.7,60,37.5l-22.5-97.4ZM654,136.3c27.1-5.3,44.8-31.5,39.6-58.6-5.3-27.1-31.5-44.8-58.6-39.6l19,98.2ZM646.7,36c-27.3,4.3-45.9,29.9-41.6,57.2,4.3,27.3,29.9,45.9,57.2,41.6l-15.5-98.8ZM670.5,133.7c27.4-3.3,47-28.2,43.6-55.6-3.3-27.4-28.2-47-55.6-43.6l12,99.3ZM670.3,33.2c-27.5,2.3-47.9,26.5-45.6,54.1,2.3,27.5,26.5,47.9,54.1,45.6l-8.5-99.6ZM687.2,132.3c27.6-1.4,48.8-24.8,47.5-52.4-1.4-27.6-24.8-48.8-52.4-47.5l4.9,99.9ZM694.1,32c-27.6.4-49.7,23.1-49.3,50.7.4,27.6,23.1,49.7,50.7,49.3l-1.5-100ZM704,132c27.6.6,50.4-21.4,51-49,.6-27.6-21.4-50.4-49-51l-2,100ZM717.8,32.5c-27.6-1.5-51.1,19.6-52.6,47.2-1.5,27.6,19.6,51.1,47.2,52.6l5.4-99.9ZM720.8,132.9c27.5,2.4,51.8-17.9,54.2-45.4,2.4-27.5-17.9-51.8-45.4-54.2l-8.8,99.6ZM741.3,34.6c-27.4-3.3-52.3,16.2-55.7,43.6-3.3,27.4,16.2,52.3,43.6,55.7l12.1-99.3ZM737.5,135c27.3,4.4,52.9-14.2,57.3-41.5,4.4-27.3-14.2-52.9-41.5-57.3l-15.8,98.7ZM765.3,38.4c-27.1-5.5-53.5,11.9-59,39-5.5,27.1,11.9,53.5,39,59l20-98ZM752.9,138.1c26.8,6.8,54-9.5,60.7-36.2,6.8-26.8-9.5-54-36.2-60.7l-24.5,97ZM789.3,44.5c-26.4-8-54.3,6.9-62.4,33.3-8,26.4,6.9,54.3,33.3,62.4l29.1-95.7ZM767.4,142.5c26,9.4,54.6-4.1,64-30.1,9.4-26-4.1-54.6-30.1-64l-33.9,94.1ZM813,53c-25.5-10.7-54.8,1.3-65.5,26.7-10.7,25.5,1.3,54.8,26.7,65.5l38.7-92.2ZM781,148.3c24.8,12.1,54.8,1.7,66.8-23.1,12.1-24.8,1.7-54.8-23.1-66.8l-43.7,89.9ZM836.1,64.2c-24.1-13.4-54.6-4.7-68,19.4-13.4,24.1-4.7,54.6,19.4,68l48.6-87.4ZM793.8,155.3c23.3,14.7,54.2,7.8,69-15.6,14.7-23.3,7.8-54.2-15.6-69l-53.4,84.6ZM857.8,77.9c-22.5-16-53.7-10.8-69.7,11.7-16,22.5-10.8,53.7,11.7,69.7l58-81.5ZM805.6,163.8c21.6,17.2,53,13.7,70.3-7.9,17.2-21.6,13.7-53-7.9-70.3l-62.4,78.1ZM877.8,93.9c-20.6-18.4-52.2-16.5-70.6,4.1-18.4,20.6-16.5,52.2,4.1,70.6l66.5-74.7ZM816.7,173.7c19.6,19.4,51.3,19.2,70.7-.4,19.4-19.6,19.2-51.3-.4-70.7l-70.3,71.1ZM895.7,111.5c-18.7-20.4-50.3-21.7-70.6-3.1-20.4,18.7-21.7,50.3-3.1,70.6l73.7-67.6ZM827,184.9c17.7,21.2,49.2,24.1,70.4,6.4,21.2-17.7,24.1-49.2,6.4-70.4l-76.8,64ZM911.5,130.5c-16.7-22-48.1-26.2-70.1-9.5-22,16.7-26.2,48.1-9.5,70.1l79.5-60.6ZM836.7,197.5c15.8,22.6,47,28.2,69.6,12.3,22.6-15.8,28.2-47,12.3-69.6l-82,57.3ZM925.3,150.2c-14.9-23.2-45.9-29.9-69.1-15-23.2,14.9-29.9,45.9-15,69.1l84.1-54.1ZM845.6,211.4c14.1,23.7,44.8,31.5,68.5,17.4,23.7-14.1,31.5-44.8,17.4-68.5l-85.9,51.1ZM937.3,170.4c-13.4-24.2-43.8-32.9-67.9-19.6-24.2,13.4-32.9,43.8-19.6,67.9l87.5-48.3ZM853.8,226.3c12.6,24.6,42.8,34.2,67.3,21.6,24.6-12.6,34.2-42.8,21.6-67.3l-88.9,45.8ZM947.8,190.8c-12-24.9-41.9-35.3-66.7-23.4-24.9,12-35.3,41.9-23.4,66.7l90.1-43.4ZM861.4,242.1c11.4,25.2,41,36.3,66.2,25,25.2-11.4,36.3-41,25-66.2l-91.1,41.2ZM957,211.2c-10.8-25.4-40.2-37.2-65.6-26.4-25.4,10.8-37.2,40.2-26.4,65.6l92-39.2ZM868.5,258.8c10.3,25.6,39.5,38,65.1,27.7,25.6-10.3,38-39.5,27.7-65.1l-92.7,37.4ZM965.3,231.5c-9.9-25.8-38.8-38.7-64.6-28.8-25.8,9.9-38.7,38.8-28.8,64.6l93.4-35.8ZM875.2,276c9.5,25.9,38.2,39.3,64.1,29.8,25.9-9.5,39.3-38.2,29.8-64.1l-93.9,34.4ZM972.7,251.7c-9.2-26.1-37.7-39.8-63.7-30.6-26.1,9.2-39.8,37.7-30.6,63.7l94.3-33.1ZM881.4,293.9c8.9,26.2,37.2,40.2,63.4,31.3,26.2-8.9,40.2-37.2,31.3-63.4l-94.7,32.1ZM979.5,271.8c-8.6-26.2-36.9-40.5-63.1-31.9-26.2,8.6-40.5,36.9-31.9,63.1l95-31.2ZM887.4,312.2c8.4,26.3,36.5,40.8,62.9,32.4,26.3-8.4,40.8-36.5,32.4-62.9l-95.3,30.5ZM985.8,291.6c-8.3-26.4-36.3-41-62.7-32.8-26.4,8.3-41,36.3-32.8,62.7l95.4-29.9ZM893.3,330.9c8.1,26.4,36.1,41.2,62.5,33,26.4-8.1,41.2-36.1,33-62.5l-95.6,29.5ZM991.9,311.2c-8.1-26.4-36-41.3-62.4-33.2-26.4,8.1-41.3,36-33.2,62.4l95.6-29.2ZM899.2,350c8.1,26.4,36,41.3,62.4,33.2,26.4-8.1,41.3-36,33.2-62.4l-95.6,29.2ZM997.7,330.4c-8.1-26.4-36-41.3-62.4-33.2-26.4,8.1-41.3,36-33.2,62.4l95.6-29.3ZM905.1,369.4c8.2,26.4,36.2,41.2,62.5,33,26.4-8.2,41.2-36.2,33-62.5l-95.5,29.6ZM1003.6,349.3c-8.3-26.3-36.4-41-62.7-32.7-26.3,8.3-41,36.4-32.7,62.7l95.4-30ZM911.3,389.2c8.5,26.3,36.6,40.7,62.9,32.3,26.3-8.5,40.7-36.6,32.3-62.9l-95.2,30.7ZM1009.5,367.7c-8.7-26.2-37-40.4-63.2-31.7-26.2,8.7-40.4,37-31.7,63.2l94.9-31.5ZM918,409.2c9,26.1,37.5,40,63.6,31,26.1-9,40-37.5,31-63.6l-94.5,32.6ZM1015.7,385.5c-9.3-26-38-39.5-64-30.1-26,9.4-39.5,38-30.1,64l94.1-33.9ZM925.4,429.6c9.8,25.8,38.7,38.8,64.5,29,25.8-9.8,38.8-38.7,29-64.5l-93.5,35.5ZM1022.2,402.6c-10.3-25.6-39.4-38.1-65-27.8-25.6,10.3-38.1,39.4-27.8,65l92.8-37.3ZM933.7,450.3c10.9,25.4,40.3,37.1,65.7,26.2,25.4-10.9,37.1-40.3,26.2-65.7l-91.9,39.4ZM1029.1,418.8c-11.6-25.1-41.3-36-66.3-24.5-25.1,11.6-36,41.3-24.5,66.3l90.8-41.9ZM943.3,471.1c12.3,24.7,42.4,34.7,67.1,22.4,24.7-12.3,34.7-42.4,22.4-67.1l-89.5,44.7ZM1036.6,433.8c-13.2-24.2-43.6-33.2-67.8-20-24.2,13.2-33.2,43.6-20,67.8l87.8-47.9ZM954.8,492.2c14.2,23.7,44.9,31.4,68.6,17.1,23.7-14.2,31.4-44.9,17.1-68.6l-85.7,51.5ZM1044.7,447.3c-15.3-23-46.3-29.2-69.3-13.9-23,15.3-29.2,46.3-13.9,69.3l83.2-55.4ZM968.8,513.1c16.5,22.1,47.8,26.7,70,10.2,22.1-16.5,26.7-47.8,10.2-70l-80.1,59.8ZM1053.3,458.8c-17.8-21.1-49.4-23.7-70.5-5.9-21.1,17.8-23.7,49.4-5.9,70.5l76.4-64.5ZM985.3,532.7c18.9,20.2,50.5,21.2,70.7,2.3,20.2-18.9,21.2-50.5,2.3-70.7l-73,68.3ZM1064,470.2c-19.6-19.4-51.3-19.3-70.7.3-19.4,19.6-19.3,51.3.3,70.7l70.4-71ZM1002.2,549.5c20.3,18.7,52,17.4,70.6-3,18.7-20.3,17.4-52-3-70.6l-67.7,73.6ZM1075.9,481.2c-21-17.9-52.6-15.3-70.5,5.7-17.9,21-15.3,52.6,5.7,70.5l64.8-76.2ZM1020.4,565c21.7,17,53.2,13.2,70.2-8.5,17-21.7,13.2-53.2-8.5-70.2l-61.7,78.7ZM1088.5,491.1c-22.4-16.1-53.7-11.1-69.8,11.3-16.1,22.4-11.1,53.7,11.3,69.8l58.5-81.1ZM1040,579.1c23.1,15.2,54.1,8.9,69.3-14.2,15.2-23,8.9-54.1-14.2-69.3l-55.1,83.5ZM1101.8,499.8c-23.7-14.2-54.4-6.6-68.6,17.1-14.2,23.7-6.6,54.4,17.1,68.6l51.6-85.7ZM1060.8,591.5c24.2,13.2,54.6,4.3,67.8-19.9,13.2-24.2,4.3-54.6-19.9-67.8l-47.9,87.8ZM1115.7,507.4c-24.8-12.2-54.8-2-66.9,22.8-12.2,24.8-2,54.7,22.8,66.9l44.2-89.7ZM1082.5,602.3c25.3,11.1,54.8-.3,65.9-25.6,11.1-25.3-.3-54.8-25.6-65.9l-40.3,91.5ZM1130.1,513.8c-25.7-10-54.7,2.7-64.8,28.4-10,25.7,2.7,54.7,28.4,64.8l36.4-93.1ZM1105.1,611.1c26.1,9,54.6-5,63.5-31.1,8.9-26.1-5-54.6-31.1-63.5l-32.4,94.6ZM1145.1,518.9c-26.5-7.9-54.3,7.2-62.2,33.7-7.9,26.5,7.2,54.3,33.7,62.2l28.4-95.9ZM1128.3,618c26.8,6.8,53.9-9.5,60.7-36.3,6.8-26.8-9.5-54-36.3-60.7l-24.4,97ZM1160.5,522.8c-27-5.7-53.5,11.7-59.2,38.7s11.7,53.5,38.7,59.2l20.5-97.9ZM1151.9,622.9c27.2,4.6,53-13.8,57.6-41,4.6-27.2-13.8-53-41-57.6l-16.5,98.6ZM1176.4,525.4c-27.4-3.5-52.4,15.9-55.9,43.3-3.5,27.4,15.9,52.4,43.3,55.9l12.7-99.2ZM1175.6,625.9c27.5,2.5,51.8-17.9,54.2-45.4,2.4-27.5-17.9-51.8-45.4-54.2l-8.9,99.6ZM1192.6,526.9c-27.6-1.4-51.1,19.8-52.5,47.3-1.4,27.6,19.8,51.1,47.3,52.5l5.2-99.9ZM1199.2,627.2c27.6.4,50.4-21.6,50.8-49.2.4-27.6-21.6-50.3-49.2-50.8l-1.6,100ZM1209.1,527.2c-27.6.5-49.6,23.3-49,50.9.5,27.6,23.3,49.6,50.9,49l-1.9-100ZM1222.6,626.7c27.6-1.5,48.8-25,47.3-52.6-1.5-27.6-25-48.8-52.6-47.3l5.3,99.9ZM1225.8,526.3c-27.5,2.3-47.9,26.6-45.6,54.1,2.3,27.5,26.5,47.9,54.1,45.6l-8.5-99.6ZM1245.8,624.8c27.4-3.2,47.1-28,43.8-55.5-3.2-27.4-28-47.1-55.5-43.9l11.6,99.3ZM1242.6,524.3c-27.3,4-46.2,29.4-42.2,56.8,4,27.3,29.4,46.2,56.8,42.2l-14.6-98.9ZM1268.5,621.4c27.2-4.8,45.3-30.8,40.5-58-4.8-27.2-30.8-45.3-58-40.5l17.4,98.5ZM1259.5,521.3c-27.1,5.6-44.5,32-38.9,59.1,5.6,27,32,44.5,59.1,38.9l-20.2-97.9ZM1290.5,616.9c26.9-6.2,43.7-33,37.5-59.9-6.2-26.9-33-43.7-59.9-37.5l22.4,97.5ZM1276.6,517.4c-26.8,6.7-43.1,33.8-36.4,60.6,6.7,26.8,33.8,43.1,60.6,36.4l-24.2-97ZM1311.2,611.7c26.7-7.2,42.4-34.7,35.2-61.3-7.2-26.7-34.7-42.4-61.3-35.2l26.2,96.5ZM1293.4,512.8c-26.5,7.8-41.7,35.6-33.9,62.1,7.8,26.5,35.6,41.7,62.1,33.9l-28.2-95.9ZM1332,605.6c26.3-8.4,40.8-36.5,32.5-62.8-8.4-26.3-36.5-40.8-62.8-32.5l30.4,95.3ZM1309.7,507.6c-26.1,9-40,37.5-30.9,63.6,9,26.1,37.5,40,63.6,30.9l-32.6-94.5ZM1352.7,598.5c25.9-9.7,39-38.5,29.3-64.3-9.7-25.9-38.5-39-64.3-29.3l35,93.7ZM1325.4,501.8c-25.6,10.4-37.9,39.5-27.6,65.1,10.4,25.6,39.5,37.9,65.1,27.6l-37.5-92.7ZM1373.2,590.1c25.3-11.1,36.8-40.6,25.7-65.9-11.1-25.3-40.6-36.8-65.9-25.7l40.1,91.6ZM1340.5,495.1c-24.9,11.8-35.6,41.7-23.7,66.6,11.8,24.9,41.6,35.6,66.6,23.7l-42.9-90.3ZM1393.5,580.5c24.6-12.6,34.2-42.8,21.6-67.3s-42.8-34.2-67.3-21.6l45.7,89ZM1354.9,487.7c-24.1,13.4-32.8,43.9-19.4,68,13.4,24.1,43.9,32.8,68,19.4l-48.6-87.4ZM1413.4,569.4c23.7-14.2,31.3-45,17-68.6-14.2-23.7-45-31.3-68.6-17l51.6,85.7ZM1368.6,479.5c-23.1,15.1-29.6,46.1-14.6,69.2,15.1,23.1,46.1,29.6,69.2,14.6l-54.6-83.8ZM1432.8,556.8c22.5-15.9,27.9-47.1,12-69.7-15.9-22.5-47.1-27.9-69.7-12l57.7,81.7ZM1381.3,470.5c-21.9,16.8-26.1,48.2-9.3,70.1,16.8,21.9,48.2,26.1,70.1,9.3l-60.8-79.4ZM1451.3,542.6c21.2-17.6,24.2-49.2,6.5-70.4-17.7-21.2-49.2-24.2-70.4-6.5l63.9,76.9ZM1393.2,460.6c-20.5,18.5-22.2,50.1-3.7,70.6,18.5,20.5,50.1,22.2,70.6,3.7l-66.9-74.3ZM1468.7,526.9c19.8-19.3,20.1-51,.8-70.7-19.3-19.7-50.9-20.1-70.7-.8l69.9,71.5ZM1404.2,449.9c-18.9,20.1-18,51.7,2.1,70.7,20.1,18.9,51.7,18,70.7-2.1l-72.8-68.6ZM1484.8,509.8c18.1-20.8,15.9-52.4-5-70.5-20.8-18.1-52.4-15.9-70.5,5l75.5,65.6ZM1414.2,438.3c-17.2,21.6-13.8,53,7.8,70.3,21.6,17.2,53,13.7,70.3-7.8l-78.1-62.5ZM1499.5,491.5c16.4-22.2,11.6-53.5-10.6-69.9-22.2-16.4-53.5-11.6-69.9,10.6l80.5,59.3ZM1423.4,425.9c-15.5,22.9-9.5,53.9,13.3,69.4,22.9,15.5,53.9,9.5,69.4-13.3l-82.8-56.1ZM1512.5,472.2c14.6-23.4,7.4-54.3-16-68.9-23.4-14.6-54.3-7.5-68.9,16l84.9,52.9ZM1431.7,412.5c-13.7,24-5.4,54.5,18.5,68.2,24,13.7,54.5,5.5,68.2-18.5l-86.8-49.7ZM1524,452.2c12.9-24.4,3.5-54.7-20.9-67.5-24.4-12.9-54.7-3.5-67.5,20.9l88.5,46.6ZM1439.2,398.4c-12,24.9-1.7,54.8,23.2,66.8,24.8,12,54.8,1.6,66.8-23.2l-90-43.6ZM1533.9,431.7c11.2-25.2-.1-54.8-25.4-66-25.2-11.2-54.8.1-66,25.4l91.4,40.6ZM1445.8,383.6c-10.4,25.6,1.8,54.8,27.4,65.2,25.6,10.4,54.8-1.8,65.2-27.4l-92.6-37.8ZM1542.4,411c9.7-25.9-3.4-54.7-29.3-64.4-25.9-9.7-54.7,3.4-64.4,29.3l93.7,35.1ZM1451.6,368.1c-9,26.1,5,54.6,31.1,63.5s54.5-5,63.5-31.1l-94.6-32.4ZM1549.6,390.1c8.3-26.3-6.4-54.4-32.7-62.7s-54.4,6.4-62.7,32.7l95.4,29.9ZM1456.6,352c-7.6,26.5,7.7,54.2,34.3,61.8,26.5,7.6,54.2-7.7,61.8-34.3l-96.1-27.6ZM-43,293q35.3,35.4,35.3,35.4s0,0,0,0c0,0,0,0,0,0,0,0,0,0,0,0,0,0,0,0,0,0,0,0,0,0,0,0,0,0,0,0,0,0,0,0,0,0,.1-.1.1-.1.3-.3.5-.5.5-.5,1.3-1.3,2.4-2.3l-34.8-35.9-34.8-35.9c-1.3,1.2-2.3,2.2-2.9,2.9-.3.3-.6.6-.8.8,0,0-.2.2-.2.2,0,0,0,0,0,0,0,0,0,0,0,0,0,0,0,0,0,0,0,0,0,0,0,0,0,0,0,0,0,0,0,0,0,0,0,0t35.3,35.4ZM-32.3,282.7L2,319.1c2-1.9,4.4-4.1,7-6.5l-33.9-36.7-33.9-36.7c-2.9,2.7-5.5,5.1-7.8,7.2l34.3,36.4ZM-17.5,269l33.6,37c2.2-2,4.6-4.2,7.2-6.4l-33.3-37.3-33.3-37.3c-2.7,2.4-5.3,4.8-7.8,7l33.6,37ZM-2.5,255.6l33,37.6c2.3-2.1,4.8-4.2,7.3-6.4L5.1,249l-32.7-37.8c-2.7,2.4-5.4,4.6-7.9,6.9L-2.5,255.6ZM12.7,242.5l32.4,38.1c2.4-2.1,4.9-4.2,7.5-6.3l-32.1-38.3-32.1-38.3c-2.8,2.3-5.4,4.6-8,6.8l32.4,38.1ZM28.1,229.6l31.8,38.6c2.4-2,4.9-4.1,7.5-6.1l-31.5-38.8-31.5-38.8c-2.8,2.2-5.4,4.4-8.1,6.6l31.8,38.6ZM43.7,216.9l31.2,39c2.5-2,5-4,7.6-6l-30.9-39.3-30.9-39.3c-2.8,2.2-5.5,4.3-8.2,6.5l31.2,39ZM59.5,204.4l30.6,39.5c2.5-1.9,5.1-3.9,7.6-5.9l-30.3-39.8-30.3-39.8c-2.8,2.1-5.5,4.2-8.3,6.4l30.6,39.5ZM75.5,192.2l30,40c2.5-1.9,5.1-3.8,7.7-5.7l-29.7-40.2-29.7-40.2c-2.8,2.1-5.6,4.2-8.4,6.2l30,40ZM91.7,180.3l29.3,40.5c2.6-1.9,5.2-3.7,7.8-5.6l-29-40.7-29-40.7c-2.9,2-5.7,4.1-8.5,6.1l29.3,40.5ZM108,168.7l28.6,41c2.6-1.8,5.3-3.7,7.9-5.5l-28.2-41.3-28.2-41.3c-2.9,2-5.8,4-8.7,6l28.6,41ZM124.6,157.3l27.9,41.5c2.7-1.8,5.3-3.6,8-5.3l-27.5-41.8-27.5-41.8c-3,1.9-5.9,3.9-8.8,5.9l27.9,41.5ZM141.4,146.3l27,42.1c2.7-1.7,5.4-3.4,8.1-5.1l-26.6-42.3-26.6-42.3c-3,1.9-6,3.8-8.9,5.7l27,42.1ZM158.4,135.6l26.2,42.6c2.7-1.7,5.4-3.3,8.1-4.9l-25.7-42.9-25.7-42.9c-3,1.8-6.1,3.7-9.1,5.5l26.2,42.6ZM175.7,125.2l25.2,43.2c2.7-1.6,5.5-3.2,8.2-4.7l-24.7-43.5-24.7-43.5c-3.1,1.8-6.2,3.5-9.2,5.3l25.2,43.2ZM193.2,115.3l24.2,43.8c2.7-1.5,5.5-3,8.3-4.5l-23.6-44.1-23.6-44.1c-3.1,1.7-6.3,3.4-9.4,5.1l24.2,43.8ZM210.9,105.8l23,44.4c2.8-1.4,5.6-2.9,8.3-4.2l-22.4-44.7-22.4-44.7c-3.2,1.6-6.4,3.2-9.6,4.9l23,44.4ZM228.9,96.8l21.7,45c2.8-1.4,5.6-2.7,8.4-4l-21.1-45.4-21.1-45.4c-3.3,1.5-6.5,3.1-9.8,4.6l21.7,45ZM247.1,88.3l20.3,45.7c2.8-1.3,5.6-2.5,8.4-3.7l-19.6-46-19.6-46c-3.3,1.4-6.7,2.9-10,4.3l20.3,45.7ZM265.6,80.5l18.8,46.3c2.8-1.1,5.6-2.3,8.5-3.3l-17.9-46.7-17.9-46.7c-3.4,1.3-6.8,2.6-10.2,4l18.8,46.4ZM284.4,73.3l17,47c2.8-1,5.7-2,8.5-3l-16-47.4-16-47.4c-3.5,1.2-7,2.4-10.4,3.6l17,47ZM303.4,66.9l15,47.7c2.9-.9,5.7-1.8,8.5-2.6l-13.9-48-13.9-48c-3.6,1-7.2,2.1-10.7,3.2l15,47.7ZM322.7,61.3l12.7,48.4c2.9-.8,5.7-1.5,8.5-2.1l-11.5-48.7-11.5-48.7c-3.7.9-7.3,1.8-11,2.7l12.7,48.4ZM342.2,56.7l10.2,49c2.8-.6,5.7-1.1,8.5-1.6l-8.8-49.2-8.8-49.2c-3.8.7-7.5,1.4-11.3,2.2l10.2,49ZM362,53.2l7.3,49.5c2.8-.4,5.6-.8,8.4-1.1l-5.7-49.7-5.7-49.7c-3.9.4-7.7.9-11.6,1.5l7.3,49.5ZM382,50.9l4,49.8c2.8-.2,5.5-.4,8.3-.5l-2.2-50-2.2-50c-4,.2-7.9.4-11.9.7l4,49.8ZM402.1,50l.3,50c2.7,0,5.4,0,8.1.1l1.7-50,1.7-50c-4-.1-8-.2-12.1-.2l.3,50ZM422.1,50.7l-3.8,49.9c2.6.2,5.2.5,7.8.8l6-49.6,6-49.6c-4.1-.5-8.1-.9-12.2-1.2l-3.8,49.9ZM442.1,53.1l-8.3,49.3c2.5.4,5,.9,7.5,1.4l10.6-48.9,10.6-48.9c-4.1-.9-8.1-1.7-12.2-2.3l-8.3,49.3ZM461.7,57.4l-13,48.3c1.2.3,2.4.7,3.6,1l14.2-47.9,14.2-47.9c-2-.6-4-1.2-6-1.7l-13,48.3ZM466.5,58.8l-14.2,47.9c1.4.4,2.8.8,4.2,1.3l14.9-47.7,14.9-47.7c-1.8-.6-3.7-1.1-5.5-1.7l-14.2,47.9ZM481,63.4l-16.2,47.3c2.8.9,5.5,1.9,8.2,2.9l17.5-46.8,17.5-46.8c-3.6-1.3-7.2-2.6-10.9-3.9l-16.2,47.3ZM500,70.5l-18.8,46.3c2.7,1.1,5.4,2.2,8,3.4l20.1-45.8,20.1-45.8c-3.5-1.5-7.1-3-10.7-4.5l-18.8,46.3ZM518.5,78.6l-21.4,45.2c2.6,1.2,5.2,2.5,7.8,3.8l22.7-44.5,22.7-44.5c-3.4-1.7-6.9-3.4-10.4-5.1l-21.4,45.2ZM536.5,87.8l-24,43.9c2.5,1.4,5.1,2.8,7.5,4.3l25.2-43.2,25.2-43.2c-3.3-1.9-6.7-3.8-10.1-5.7l-24,43.9ZM554,98l-26.5,42.4c2.5,1.5,4.9,3.1,7.3,4.7l27.7-41.6,27.7-41.6c-3.2-2.1-6.4-4.2-9.7-6.2l-26.5,42.4ZM570.8,109.2l-28.9,40.8c2.4,1.7,4.7,3.4,7,5.1l30-40,30-40c-3.1-2.3-6.2-4.6-9.3-6.8l-28.9,40.8ZM587,121.4l-31.2,39.1c2.3,1.8,4.5,3.7,6.7,5.5l32.3-38.2,32.3-38.2c-2.9-2.5-5.9-4.9-8.9-7.3l-31.2,39.1ZM602.5,134.5l-33.4,37.2c2.2,1.9,4.3,3.9,6.4,5.9l34.4-36.3,34.4-36.3c-2.8-2.6-5.6-5.3-8.5-7.8l-33.4,37.2ZM617.1,148.4l-35.4,35.3c2.1,2.1,4.1,4.1,6.1,6.2l36.4-34.3,36.4-34.3c-2.6-2.8-5.3-5.5-8-8.3l-35.4,35.3ZM631,163.1l-37.3,33.2c1.9,2.2,3.8,4.4,5.7,6.6l38.3-32.2,38.3-32.2c-2.5-2.9-5-5.8-7.5-8.7l-37.3,33.2ZM644,178.6l-39.1,31.1c1.8,2.3,3.6,4.6,5.3,6.9l40-30,40-30c-2.3-3.1-4.6-6.1-7-9.1l-39.1,31.1ZM656.2,194.8l-40.8,28.9c1.7,2.4,3.3,4.8,5,7.2l41.6-27.8,41.6-27.8c-2.1-3.2-4.3-6.3-6.5-9.5l-40.8,28.9ZM667.4,211.6l-42.3,26.6c1.6,2.5,3.1,5,4.5,7.5l43-25.4,43-25.4c-1.9-3.3-3.9-6.6-6-9.8l-42.3,26.6ZM677.7,229l-43.7,24.2c1.4,2.6,2.8,5.1,4.1,7.7l44.4-23,44.4-23c-1.8-3.4-3.6-6.8-5.4-10.1l-43.7,24.2ZM687,247l-45,21.8c1.3,2.6,2.5,5.3,3.7,7.9l45.6-20.5,45.6-20.5c-1.6-3.5-3.2-7-4.9-10.4l-45,21.8ZM695.3,265.5l-46.2,19.2c1.1,2.7,2.2,5.4,3.2,8.1l46.7-17.9,46.7-17.9c-1.4-3.6-2.8-7.1-4.3-10.7l-46.2,19.2ZM702.6,284.3l-47.2,16.6c1,2.7,1.9,5.5,2.8,8.2l47.6-15.2,47.6-15.2c-1.2-3.7-2.4-7.3-3.7-11l-47.2,16.6ZM708.8,303.6l-48.1,13.8c.8,2.8,1.5,5.5,2.2,8.3l48.5-12.4,48.4-12.4c-1-3.7-2-7.5-3-11.2l-48.1,13.8ZM713.7,323.2l-48.8,10.9c.6,2.8,1.2,5.6,1.7,8.4l49.1-9.3,49.1-9.3c-.7-3.8-1.5-7.6-2.4-11.5l-48.8,10.9ZM717.5,343.1l-49.4,7.7c.4,2.8.8,5.6,1.2,8.3l49.6-6.1,49.6-6.1c-.5-3.9-1-7.8-1.6-11.7l-49.4,7.7ZM720,363.2l-49.8,4.3c.2,2.8.4,5.6.6,8.3l49.9-2.5,49.9-2.5c-.2-4-.5-7.9-.8-11.9l-49.8,4.3ZM721,383.4l-50,.6c0,2.7,0,5.5,0,8.1l50,1.3,50,1.3c.1-4,.1-8,0-12.1l-50,.6ZM720.4,403.6l-49.9-3.4c-.2,2.7-.4,5.3-.7,7.9l49.7,5.6,49.7,5.6c.5-4.1.8-8.2,1.1-12.3l-49.9-3.4ZM718.2,423.7l-49.4-7.9c-.2,1.3-.4,2.5-.6,3.8l49.2,9.1,49.2,9.1c.4-2,.7-4.1,1.1-6.2l-49.4-7.9ZM717.3,428.7l-49.2-9.1c-.3,1.4-.5,2.8-.8,4.2l49,9.8,49,9.8c.4-1.8.7-3.6,1.1-5.5l-49.2-9.1ZM714.3,443.1l-48.8-11.1c-.6,2.8-1.3,5.5-2,8.2l48.4,12.4,48.4,12.4c.9-3.6,1.8-7.3,2.6-10.9l-48.8-11.1ZM709.4,462.1l-48-13.9c-.8,2.7-1.6,5.3-2.4,7.9l47.6,15.3,47.6,15.3c1.2-3.6,2.3-7.2,3.3-10.9l-48-13.9ZM703.4,480.8l-47.1-16.9c-.9,2.6-1.9,5.1-2.9,7.6l46.5,18.5,46.5,18.5c1.4-3.6,2.8-7.2,4.1-10.8l-47.1-16.9ZM696.1,499.1l-45.8-20.2c-1.1,2.4-2.2,4.8-3.3,7.2l44.9,21.9,44.9,21.9c1.7-3.5,3.4-7.1,4.9-10.6l-45.8-20.2ZM687.5,516.7l-44-23.7c-1.2,2.3-2.5,4.5-3.8,6.7l43,25.6,43,25.6c2-3.4,4-6.9,5.9-10.4l-44-23.7ZM677.5,533.6l-41.8-27.5c-1.4,2.1-2.8,4.1-4.2,6.1l40.4,29.5,40.4,29.5c2.4-3.3,4.7-6.6,7-10l-41.8-27.5ZM665.9,549.4l-38.9-31.4c-1.5,1.9-3.1,3.7-4.7,5.5l37.2,33.4,37.2,33.4c2.8-3.1,5.5-6.2,8.1-9.5l-38.9-31.4ZM652.8,564l-35.3-35.4c-1.7,1.7-3.4,3.3-5.1,4.8l33.2,37.4,33.2,37.4c3.2-2.8,6.2-5.7,9.2-8.7l-35.3-35.4ZM638.1,577.1l-31-39.2c-1.8,1.4-3.6,2.8-5.5,4.1l28.6,41,28.6,41c3.5-2.5,6.9-5,10.3-7.6l-31-39.2ZM622,588.3l-26.1-42.6c-1.9,1.2-3.9,2.3-5.9,3.4l23.5,44.1,23.5,44.1c3.8-2,7.5-4.1,11.1-6.4l-26.1-42.6ZM604.7,597.5l-20.8-45.4c-2.1.9-4.2,1.8-6.3,2.7l18.1,46.6,18.1,46.6c4-1.6,7.9-3.2,11.7-5l-20.8-45.5ZM586.4,604.6l-15.5-47.6c-2.2.7-4.4,1.4-6.8,2l12.8,48.3,12.8,48.3c4.1-1.1,8.1-2.3,12.1-3.6l-15.4-47.6ZM567.5,609.7l-10.2-48.9c-2.3.5-4.7.9-7.2,1.3l7.7,49.4,7.7,49.4c4.1-.6,8.1-1.4,12.1-2.2l-10.2-48.9ZM548.1,612.7l-5.3-49.7c-1.2.1-2.5.3-3.8.4l4.2,49.8,4.2,49.8c2-.2,4.1-.4,6.1-.6l-5.3-49.7ZM543.2,613.2l-4.2-49.8c-1.4.1-2.7.2-4.1.3l3.1,49.9,3.1,49.9c2.1-.1,4.1-.3,6.2-.5l-4.2-49.8ZM527.8,614l-.9-50c-2.7,0-5.3,0-7.8,0l-1.5,50-1.5,50c4.2.1,8.4.2,12.6,0l-.9-50ZM507.4,613.3l4-49.8c-2.6-.2-5.1-.5-7.5-.8l-6.7,49.5-6.7,49.5c4.2.6,8.5,1,12.8,1.4l4-49.8ZM487.1,610.6l9.5-49.1c-2.4-.5-4.8-1-7.1-1.6l-12.3,48.5-12.3,48.5c4.2,1.1,8.5,2,12.9,2.9l9.5-49.1ZM467.3,605.5l15.3-47.6c-2.3-.7-4.5-1.5-6.6-2.4l-18.3,46.5-18.3,46.5c4.1,1.6,8.3,3.1,12.6,4.5l15.3-47.6ZM448.3,598.1l21.3-45.3c-2.1-1-4.1-2-6.1-3.1l-24.2,43.7-24.2,43.7c3.9,2.2,8,4.2,12.1,6.2l21.3-45.3ZM430.4,588.2l27.2-42c-1.9-1.2-3.8-2.5-5.6-3.9l-30,40-30,40c3.6,2.7,7.4,5.3,11.2,7.8l27.2-42ZM414.1,575.9l32.7-37.9c-1.7-1.5-3.4-3-5-4.6l-35.2,35.5-35.2,35.5c3.2,3.2,6.6,6.3,10,9.3l32.7-37.9ZM399.5,561.5l37.5-33.1c-1.5-1.7-3-3.5-4.4-5.3l-39.6,30.5-39.6,30.5c2.8,3.6,5.6,7,8.6,10.4l37.5-33.1ZM387.1,545.4l41.5-27.9c-1.3-1.9-2.6-3.9-3.8-6l-43.1,25.3-43.1,25.3c2.3,3.8,4.6,7.6,7.1,11.3l41.5-27.9ZM376.7,527.7l44.6-22.6c-1.1-2.1-2.1-4.3-3.1-6.6l-45.9,19.9-45.9,19.9c1.8,4,3.6,8,5.6,11.9l44.6-22.6ZM368.6,509l46.9-17.3c-.9-2.3-1.6-4.7-2.4-7.1l-47.8,14.7-47.8,14.7c1.3,4.1,2.7,8.2,4.1,12.3l46.9-17.3ZM362.6,489.4l48.5-12.1c-.6-2.5-1.2-4.9-1.7-7.5l-49.1,9.6-49.1,9.6c.8,4.2,1.7,8.4,2.8,12.5l48.5-12.1ZM358.6,469.4l49.5-7.2c-.4-2.6-.7-5.2-.9-7.8l-49.8,4.8-49.8,4.8c.4,4.2.9,8.4,1.5,12.5l49.5-7.2ZM356.7,449l49.9-2.5c-.1-2.6-.2-5.3-.2-8l-50,.3-50,.3c0,4.2.1,8.3.3,12.5l49.9-2.5ZM356.5,428.6l50,1.9c.1-2.7.3-5.4.5-8.1l-49.8-4-49.8-4c-.3,4.1-.6,8.2-.7,12.3l50,1.9ZM358.2,408.2l49.6,6.1c.2-1.4.3-2.7.5-4.1l-49.5-7.1-49.5-7.1c-.3,2-.6,4.1-.8,6.1l49.6,6.1ZM358.9,403.1l49.5,7.1c.2-1.3.4-2.7.6-4l-49.4-8-49.4-8c-.3,2-.6,3.9-.9,5.9l49.5,7.1ZM361.4,388.1l49,9.8c.5-2.7,1.1-5.5,1.8-8.3l-48.7-11.4-48.7-11.4c-.9,3.9-1.7,7.7-2.5,11.5l49,9.8ZM366,368.4l48.3,12.9c.7-2.8,1.5-5.5,2.4-8.3l-47.9-14.4-47.9-14.3c-1.1,3.7-2.2,7.5-3.2,11.2l48.3,12.9ZM371.9,349l47.5,15.7c.9-2.7,1.9-5.5,2.9-8.3l-47-16.9-47-16.9c-1.3,3.6-2.5,7.2-3.7,10.8l47.5,15.7ZM378.7,329.9l46.6,18.2c1.1-2.7,2.2-5.5,3.3-8.3l-46.1-19.3-46.1-19.3c-1.5,3.5-2.9,7.1-4.3,10.6l46.6,18.2ZM386.5,311.3l45.6,20.4c1.2-2.7,2.5-5.4,3.8-8.1l-45.1-21.5-45.1-21.5c-1.6,3.4-3.2,6.9-4.8,10.3l45.6,20.4ZM395.3,292.9l44.6,22.5c1.3-2.7,2.7-5.3,4.1-8l-44.1-23.6-44.1-23.6c-1.8,3.3-3.5,6.7-5.2,10l44.6,22.5ZM404.8,275.1l43.6,24.6c1.5-2.6,3-5.2,4.5-7.8l-43-25.5-43-25.5c-1.9,3.2-3.8,6.5-5.6,9.7l43.6,24.6ZM415.2,257.6l42.4,26.5c1.6-2.5,3.2-5.1,4.9-7.6l-41.8-27.4-41.8-27.4c-2.1,3.1-4.1,6.3-6.1,9.5l42.4,26.5ZM426.3,240.7l41.2,28.4c1.7-2.5,3.4-4.9,5.2-7.4l-40.5-29.3-40.5-29.3c-2.2,3.1-4.4,6.1-6.5,9.2l41.2,28.4ZM438.2,224.3l39.8,30.2c1.8-2.4,3.6-4.7,5.5-7.1l-39.1-31.1-39.1-31.1c-2.4,3-4.7,5.9-6.9,8.9l39.8,30.2ZM450.8,208.4l38.4,32c1.9-2.3,3.8-4.6,5.8-6.8l-37.6-32.9-37.6-32.9c-2.5,2.8-4.9,5.7-7.4,8.6l38.4,32ZM464.1,193.2l36.8,33.8c2-2.2,4-4.3,6.1-6.5l-36-34.7-36-34.7c-2.6,2.7-5.2,5.5-7.8,8.3l36.8,33.8ZM478.2,178.6l35.1,35.6c2.1-2.1,4.2-4.1,6.4-6.1l-34.2-36.5-34.2-36.5c-2.8,2.6-5.5,5.2-8.2,7.9l35.1,35.6ZM493,164.7l33.2,37.4c2.2-2,4.4-3.9,6.7-5.8l-32.2-38.2-32.2-38.2c-2.9,2.5-5.8,5-8.7,7.5l33.2,37.4ZM508.5,151.7l31.2,39.1c2.3-1.8,4.6-3.6,6.9-5.4l-30.1-40-30.1-40c-3.1,2.3-6.1,4.7-9.1,7.1l31.2,39.1ZM524.7,139.5l28.9,40.8c2.4-1.7,4.7-3.3,7.2-4.9l-27.7-41.6-27.7-41.6c-3.2,2.1-6.4,4.3-9.6,6.6l28.9,40.8ZM541.6,128.3l26.5,42.4c2.4-1.5,4.9-3,7.4-4.4l-25.2-43.2-25.2-43.2c-3.4,2-6.7,4-10,6l26.5,42.4ZM559.1,118.1l23.8,44c2.5-1.4,5-2.7,7.6-3.9l-22.4-44.7-22.4-44.7c-3.5,1.8-7,3.6-10.4,5.4l23.8,44ZM577.2,109l20.9,45.4c2.6-1.2,5.2-2.3,7.8-3.4l-19.4-46.1-19.4-46.1c-3.6,1.5-7.2,3.1-10.8,4.8l20.9,45.4ZM595.9,101.1l17.9,46.7c2.6-1,5.3-2,7.9-2.9l-16.3-47.3-16.3-47.3c-3.7,1.3-7.5,2.6-11.1,4l17.9,46.7ZM615,94.5l14.6,47.8c2.7-.8,5.4-1.6,8.1-2.3l-13-48.3-13-48.3c-3.8,1-7.7,2.1-11.4,3.3l14.6,47.8ZM634.6,89.3l11.2,48.7c2.7-.6,5.4-1.2,8.2-1.7l-9.5-49.1-9.5-49.1c-3.9.8-7.8,1.6-11.7,2.5l11.2,48.7ZM654.5,85.4l7.8,49.4c2.7-.4,5.5-.8,8.3-1.2l-6-49.6-6-49.6c-4,.5-7.9,1-11.8,1.6l7.8,49.4ZM674.6,83l4.2,49.8c2.8-.2,5.6-.4,8.4-.6l-2.5-49.9-2.5-49.9c-4,.2-7.9.5-11.9.8l4.2,49.8ZM694.8,82l.7,50c2.8,0,5.6,0,8.4,0l1-50,1-50c-4,0-7.9,0-11.9,0l.7,50ZM715.1,82.4l-2.7,49.9c2.8.2,5.6.4,8.4.6l4.4-49.8,4.4-49.8c-3.9-.3-7.9-.6-11.8-.8l-2.7,49.9ZM735.3,84.2l-6,49.6c1.4.2,2.8.4,4.3.6l6.9-49.5,6.9-49.5c-2-.3-3.9-.5-5.9-.8l-6,49.6ZM740.3,84.8l-6.9,49.5c1.4.2,2.7.4,4,.6l7.9-49.4,7.9-49.4c-2-.3-4.1-.6-6.1-.9l-6.9,49.5ZM755.3,87.4l-10,49c2.6.5,5.1,1.1,7.6,1.7l12.2-48.5,12.2-48.5c-4-1-8-1.9-12-2.7l-10,49ZM774.8,92.3l-14.5,47.8c2.5.7,4.9,1.5,7.2,2.4l16.9-47,16.9-47c-3.9-1.4-7.9-2.7-12-4l-14.5,47.8ZM793.7,99.1l-19.4,46.1c2.3,1,4.6,2,6.7,3.1l21.9-45,21.9-45c-3.8-1.9-7.7-3.6-11.7-5.3l-19.4,46.1ZM811.8,107.9l-24.3,43.7c2.1,1.2,4.2,2.4,6.3,3.7l26.7-42.3,26.7-42.3c-3.6-2.3-7.3-4.5-11.1-6.6l-24.3,43.7ZM828.8,118.7l-29,40.7c2,1.4,3.9,2.9,5.8,4.4l31.2-39.1,31.2-39.1c-3.3-2.6-6.7-5.2-10.2-7.7l-29,40.7ZM844.5,131.2l-33.2,37.3c1.8,1.6,3.7,3.3,5.4,5.1l35.1-35.6,35.1-35.6c-3-2.9-6.1-5.8-9.2-8.6l-33.2,37.3ZM858.8,145.3l-36.9,33.8c1.7,1.9,3.4,3.8,5.1,5.8l38.4-32,38.4-32c-2.6-3.2-5.4-6.3-8.2-9.3l-36.9,33.8ZM871.7,160.8l-39.8,30.3c1.6,2.1,3.2,4.3,4.7,6.5l41-28.6,41-28.6c-2.3-3.3-4.7-6.6-7.1-9.8l-39.8,30.3ZM883.2,177.2l-42,27.1c1.5,2.3,2.9,4.7,4.4,7.1l43-25.6,43-25.6c-2-3.4-4.1-6.7-6.2-10.1l-42,27.1ZM893.5,194.5l-43.8,24.2c1.4,2.5,2.7,5,4,7.6l44.5-22.9,44.5-22.9c-1.8-3.4-3.6-6.8-5.4-10.2l-43.8,24.2ZM902.8,212.4l-45.1,21.7c1.3,2.6,2.5,5.3,3.7,8l45.6-20.6,45.6-20.6c-1.5-3.4-3.1-6.8-4.8-10.2l-45.1,21.7ZM911,230.8l-46,19.6c1.2,2.8,2.3,5.6,3.5,8.4l46.4-18.7,46.4-18.7c-1.4-3.4-2.8-6.8-4.2-10.2l-46,19.6ZM918.6,249.4l-46.7,17.9c1.1,2.9,2.2,5.8,3.3,8.7l47-17.2,47-17.2c-1.2-3.4-2.5-6.8-3.8-10.1l-46.7,17.9ZM925.5,268.3l-47.2,16.6c1,3,2.1,6,3.1,9l47.4-16,47.4-16c-1.1-3.3-2.3-6.7-3.5-10.1l-47.2,16.6ZM932,287.4l-47.5,15.6c1,3.1,2,6.1,3,9.2l47.6-15.2,47.6-15.2c-1.1-3.3-2.1-6.6-3.2-9.9l-47.5,15.6ZM938.1,306.6l-47.7,14.9c1,3.1,2,6.3,2.9,9.4l47.8-14.7,47.8-14.7c-1-3.3-2-6.5-3-9.8l-47.7,14.9ZM944,325.8l-47.8,14.6c1,3.2,2,6.4,2.9,9.6l47.8-14.6,47.8-14.6c-1-3.2-2-6.4-3-9.7l-47.8,14.6ZM949.9,345l-47.8,14.6c1,3.2,2,6.5,3,9.8l47.8-14.8,47.8-14.8c-1-3.1-1.9-6.3-2.9-9.5l-47.8,14.6ZM955.9,364.3l-47.7,15c1,3.3,2.1,6.6,3.1,9.9l47.6-15.3,47.6-15.3c-1-3-2-6.1-2.9-9.2l-47.7,15ZM962.1,383.4l-47.5,15.8c1.1,3.4,2.2,6.7,3.4,10.1l47.3-16.3,47.3-16.3c-1-3-2-5.9-3-9l-47.5,15.8ZM968.6,402.4l-47,16.9c1.2,3.4,2.5,6.8,3.8,10.2l46.8-17.7,46.8-17.7c-1.1-2.8-2.2-5.7-3.2-8.7l-47,16.9ZM975.8,421.2l-46.4,18.6c1.4,3.5,2.8,6.9,4.3,10.4l46-19.7,46-19.7c-1.1-2.7-2.3-5.4-3.4-8.2l-46.4,18.6ZM983.7,439.8l-45.4,20.9c1.6,3.5,3.3,7,5,10.4l44.7-22.3,44.7-22.3c-1.2-2.5-2.5-5-3.7-7.6l-45.4,20.9ZM992.7,457.8l-43.9,23.9c1.9,3.5,3.9,7.1,6,10.5l42.9-25.7,42.9-25.7c-1.3-2.2-2.7-4.5-4-7l-43.9,23.9ZM1003.1,475l-41.6,27.7c2.3,3.5,4.8,7,7.3,10.4l40.1-29.9,40.1-29.9c-1.4-1.9-2.8-3.9-4.2-6l-41.6,27.7ZM1015.1,491.1l-38.2,32.3c1.4,1.7,2.9,3.3,4.4,5l37.1-33.5,37.1-33.5c-.7-.8-1.5-1.7-2.2-2.5l-38.2,32.3ZM1018.4,494.9l-37.1,33.5c1.3,1.5,2.7,2.9,4,4.4l36.5-34.2,36.5-34.2c-.9-1-1.9-2-2.8-3l-37.1,33.5ZM1028.8,505.7l-35.2,35.5c2.8,2.8,5.7,5.5,8.6,8.2l33.8-36.8,33.8-36.8c-2-1.8-3.9-3.7-5.9-5.6l-35.2,35.5ZM1043.5,519.3l-32.4,38.1c3,2.6,6.1,5.1,9.3,7.6l30.9-39.3,30.8-39.4c-2.1-1.6-4.2-3.3-6.2-5.1l-32.4,38.1ZM1059.3,531.6l-29.2,40.6c3.3,2.3,6.6,4.6,9.9,6.9l27.5-41.7,27.5-41.7c-2.2-1.5-4.4-3-6.5-4.5l-29.2,40.6ZM1076,542.7l-25.8,42.8c3.5,2.1,7,4.1,10.5,6l23.9-43.9,24-43.9c-2.3-1.3-4.6-2.6-6.9-3.9l-25.8,42.8ZM1093.6,552.3l-22.1,44.9c3.6,1.8,7.3,3.5,11,5.1l20.2-45.8,20.1-45.8c-2.4-1.1-4.8-2.2-7.1-3.3l-22.1,44.9ZM1111.9,560.3l-18.2,46.6c3.8,1.5,7.5,2.9,11.4,4.2l16.2-47.3,16.2-47.3c-2.5-.9-5-1.8-7.4-2.7l-18.2,46.6ZM1130.9,566.8l-14.2,47.9c3.8,1.1,7.7,2.2,11.7,3.2l12.2-48.5,12.2-48.5c-2.6-.7-5.1-1.4-7.7-2.1l-14.2,47.9ZM1150.3,571.7l-10.2,48.9c3.9.8,7.8,1.6,11.8,2.2l8.3-49.3,8.3-49.3c-2.7-.4-5.3-.9-7.9-1.5l-10.2,48.9ZM1170,575l-6.3,49.6c3.9.5,7.9.9,11.9,1.3l4.4-49.8,4.4-49.8c-2.7-.2-5.4-.5-8.1-.9l-6.3,49.6ZM1190,576.8l-2.6,49.9c3.9.2,7.8.3,11.8.4l.8-50,.8-50c-2.8,0-5.5-.1-8.2-.3l-2.6,49.9ZM1210,577.1l.9,50c3.9,0,7.8-.2,11.7-.4l-2.6-49.9-2.6-49.9c-2.8.1-5.6.2-8.3.3l.9,50ZM1230,576.1l4.2,49.8c3.8-.3,7.7-.7,11.5-1.2l-5.8-49.7-5.8-49.7c-2.8.3-5.6.6-8.4.9l4.2,49.8ZM1249.9,573.8l7.3,49.5c3.8-.6,7.5-1.2,11.3-1.8l-8.7-49.2-8.7-49.2c-2.9.5-5.7,1-8.5,1.4l7.3,49.5ZM1269.6,570.3l10.1,49c1.9-.4,3.7-.8,5.6-1.2l-10.8-48.8-10.8-48.8c-1.4.3-2.8.6-4.3.9l10.1,49ZM1274.5,569.2l10.8,48.8c1.7-.4,3.5-.8,5.2-1.2l-11.2-48.7-11.2-48.7c-1.4.3-2.9.7-4.3,1l10.8,48.8ZM1288.7,565.9l12.1,48.5c3.5-.9,6.9-1.8,10.3-2.7l-13.1-48.3-13.1-48.3c-2.8.7-5.6,1.5-8.4,2.2l12.1,48.5ZM1307.5,560.8l14.1,48c3.5-1,7-2.1,10.4-3.2l-15.2-47.6-15.2-47.6c-2.7.9-5.4,1.7-8.2,2.5l14.1,48ZM1326,554.9l16.3,47.3c3.5-1.2,6.9-2.4,10.3-3.7l-17.5-46.8-17.5-46.8c-2.6,1-5.2,1.9-7.9,2.9l16.3,47.3ZM1344.2,548.1l18.8,46.3c3.5-1.4,6.9-2.8,10.2-4.3l-20.1-45.8-20.1-45.8c-2.5,1.1-5,2.2-7.6,3.2l18.8,46.3ZM1362,540.3l21.4,45.2c3.4-1.6,6.8-3.3,10.1-5l-22.8-44.5-22.8-44.5c-2.4,1.2-4.8,2.4-7.3,3.6l21.4,45.2ZM1379.2,531.4l24.3,43.7c3.3-1.9,6.6-3.8,9.9-5.7l-25.8-42.8-25.8-42.8c-2.3,1.4-4.6,2.7-6.9,4l24.3,43.7ZM1395.9,521.4l27.3,41.9c3.2-2.1,6.4-4.3,9.6-6.5l-28.9-40.8-28.9-40.8c-2.1,1.5-4.3,3-6.5,4.4l27.3,41.9ZM1411.7,510.2l30.4,39.7c3.1-2.4,6.1-4.8,9.1-7.3l-32-38.5-31.9-38.5c-2,1.6-4,3.2-6.1,4.8l30.4,39.7ZM1426.7,497.8l33.5,37.2c2.9-2.6,5.8-5.3,8.6-8l-34.9-35.8-34.9-35.8c-1.8,1.8-3.7,3.5-5.6,5.3l33.5,37.1ZM1440.6,484.2l36.4,34.3c2.7-2.9,5.3-5.8,7.9-8.7l-37.8-32.8-37.8-32.8c-1.7,1.9-3.4,3.8-5.1,5.7l36.4,34.3ZM1453.3,469.5l39,31.2c2.4-3,4.8-6.1,7.1-9.3l-40.3-29.6-40.3-29.6c-1.5,2.1-3.1,4.1-4.7,6.1l39.1,31.2ZM1464.8,453.9l41.4,28c2.2-3.2,4.3-6.4,6.3-9.7l-42.4-26.5-42.4-26.5c-1.4,2.2-2.8,4.4-4.3,6.5l41.4,28ZM1475.1,437.4l43.4,24.9c1.9-3.3,3.7-6.7,5.5-10.1l-44.2-23.3-44.2-23.3c-1.2,2.4-2.5,4.7-3.8,7l43.4,24.9ZM1484.2,420.2l45,21.8c1.7-3.4,3.2-6.8,4.8-10.3l-45.7-20.3-45.7-20.3c-1.1,2.5-2.2,4.9-3.4,7.3l45,21.8ZM1492.1,402.5l46.3,18.9c1.4-3.4,2.8-6.9,4.1-10.4l-46.8-17.5-46.8-17.5c-1,2.6-2,5.2-3,7.7l46.3,18.9ZM1498.9,384.3l47.3,16.2c1.2-3.5,2.3-6.9,3.4-10.5l-47.7-15-47.7-15c-.8,2.7-1.7,5.4-2.6,8l47.3,16.2ZM1504.7,365.8l48.1,13.8c.5-1.8,1-3.5,1.5-5.3l-48.2-13.2-48.2-13.2c-.4,1.4-.8,2.8-1.2,4.1l48.1,13.8Z"/>
</svg>