<svg width="1440" height="874" viewBox="0 0 1440 874" fill="none" xmlns="http://www.w3.org/2000/svg">
<path d="M-942.81 188.621C-942.81 188.621 -698.504 -55.5888 -649.893 110.313C-596.488 292.571 -752.459 363.503 -760.339 572.839C-770.843 851.905 -320.928 906.059 42.6737 694.224C388.41 492.797 134 207.943 416.5 110.313C617.893 40.7124 704.291 348.538 991.833 479.071C1148.33 550.113 1304.09 511.581 1395.34 468.801C1781.01 287.983 1691.84 -60.3395 1474.2 -218.197C1313.88 -334.476 884.472 -144.714 798.806 -312.92C736.915 -434.444 788.629 -562.174 907.163 -726.974C1008.15 -867.379 1189.76 -995.066 1275.15 -1047.4" stroke="#133DC1" stroke-opacity="0.1" stroke-width="100" stroke-linecap="round" stroke-dasharray="10 10"/>
</svg>
