<svg width="1440" height="665" viewBox="0 0 1440 665" fill="none" xmlns="http://www.w3.org/2000/svg">
<path d="M1813.63 254.716C1835.02 272.187 1838.19 303.686 1820.72 325.071C1803.25 346.456 1771.75 349.629 1750.37 332.158L1813.63 254.716ZM1158.64 59.2107L1170.43 107.8L1158.64 59.2107ZM851.87 429.143L803.112 440.216L851.87 429.143ZM1064.9 613.626L1061.47 663.509L1064.9 613.626ZM1290.39 403.547L1241.13 412.136L1290.39 403.547ZM823.685 85.2895L818.062 35.6066L823.685 85.2895ZM483.489 495.306L449.923 458.248L483.489 495.306ZM170.168 569.679L161.311 618.888L170.168 569.679ZM1747.06 329.51C1725.43 312.348 1721.8 280.898 1738.96 259.264C1756.12 237.63 1787.57 234.004 1809.21 251.166L1747.06 329.51ZM1800.95 244.702C1822.79 261.606 1826.79 293.01 1809.88 314.847C1792.98 336.683 1761.58 340.682 1739.74 323.779L1800.95 244.702ZM1732.1 317.922C1710.11 301.22 1705.82 269.853 1722.53 247.863C1739.23 225.873 1770.6 221.587 1792.59 238.289L1732.1 317.922ZM1784.17 231.954C1806.3 248.48 1810.84 279.812 1794.31 301.935C1777.78 324.058 1746.45 328.596 1724.33 312.07L1784.17 231.954ZM1716.41 306.201C1694.16 289.84 1689.39 258.543 1705.75 236.297C1722.11 214.052 1753.41 209.281 1775.66 225.642L1716.41 306.201ZM1767.34 219.571C1789.7 235.779 1794.69 267.042 1778.48 289.4C1762.27 311.757 1731.01 316.743 1708.65 300.535L1767.34 219.571ZM1700.76 294.856C1678.3 278.798 1673.1 247.569 1689.16 225.104C1705.22 202.638 1736.45 197.444 1758.91 213.502L1700.76 294.856ZM1750.28 207.376C1772.85 223.284 1778.25 254.478 1762.34 277.05C1746.44 299.621 1715.24 305.023 1692.67 289.114L1750.28 207.376ZM1684.82 283.615C1662.15 267.849 1656.55 236.69 1672.31 214.019C1688.08 191.348 1719.24 185.75 1741.91 201.516L1684.82 283.615ZM1733.23 195.524C1756.01 211.144 1761.8 242.266 1746.18 265.039C1730.56 287.811 1699.44 293.609 1676.67 277.989L1733.23 195.524ZM1668.7 272.561C1645.83 257.083 1639.84 225.997 1655.32 203.128C1670.8 180.26 1701.89 174.268 1724.75 189.746L1668.7 272.561ZM1716.03 183.879C1738.99 199.211 1745.18 230.258 1729.85 253.225C1714.52 276.192 1683.47 282.381 1660.5 267.049L1716.03 183.879ZM1652.46 261.713C1629.39 246.524 1623.01 215.516 1638.2 192.454C1653.39 169.392 1684.4 163.01 1707.46 178.199L1652.46 261.713ZM1698.64 172.432C1721.8 187.473 1728.38 218.44 1713.34 241.598C1698.3 264.757 1667.33 271.338 1644.17 256.297L1698.64 172.432ZM1636.08 251.073C1612.82 236.178 1606.05 205.253 1620.94 182.001C1635.84 158.748 1666.76 151.973 1690.02 166.868L1636.08 251.073ZM1681.15 161.228C1704.5 175.972 1711.47 206.852 1696.73 230.201C1681.98 253.549 1651.1 260.525 1627.75 245.78L1681.15 161.228ZM1619.56 240.644C1596.12 226.05 1588.95 195.215 1603.54 171.772C1618.13 148.329 1648.97 141.156 1672.41 155.75L1619.56 240.644ZM1663.53 150.26C1687.07 164.7 1694.44 195.487 1680 219.025C1665.56 242.563 1634.78 249.939 1611.24 235.5L1663.53 150.26ZM1602.91 230.43C1579.28 216.147 1571.7 185.41 1585.98 161.776C1600.26 138.143 1631 130.562 1654.64 144.845L1602.91 230.43ZM1645.73 139.503C1669.46 153.627 1677.25 184.313 1663.12 208.042C1649 231.771 1618.31 239.558 1594.58 225.434L1645.73 139.503ZM1586.13 220.441C1562.3 206.482 1554.3 175.851 1568.26 152.025C1582.22 128.198 1612.85 120.2 1636.68 134.159L1586.13 220.441ZM1627.74 128.962C1651.66 142.756 1659.87 173.331 1646.08 197.253C1632.28 221.175 1601.71 229.386 1577.79 215.591L1627.74 128.962ZM1569.31 210.744C1545.29 197.121 1536.86 166.605 1550.49 142.585C1564.11 118.566 1594.62 110.138 1618.64 123.761L1569.31 210.744ZM1609.55 118.648C1633.67 132.097 1642.32 162.551 1628.87 186.669C1615.42 210.787 1584.97 219.435 1560.85 205.986L1609.55 118.648ZM1552.37 201.298C1528.15 188.027 1519.28 157.637 1532.55 133.421C1545.82 109.205 1576.21 100.332 1600.43 113.603L1552.37 201.298ZM1591.17 108.577C1615.49 121.664 1624.59 151.985 1611.51 176.301C1598.42 200.618 1568.1 209.722 1543.78 196.635L1591.17 108.577ZM1535.29 192.103C1510.87 179.204 1501.53 148.954 1514.43 124.537C1527.33 100.121 1557.58 90.7849 1582 103.684L1535.29 192.103ZM1572.71 98.8215C1597.22 111.527 1606.8 141.703 1594.09 166.22C1581.39 190.738 1551.21 200.313 1526.69 187.607L1572.71 98.8215ZM1518.07 183.184C1493.45 170.677 1483.63 140.581 1496.14 115.961C1508.65 91.3408 1538.74 81.5209 1563.36 94.0272L1518.07 183.184ZM1554.01 89.326C1578.73 101.628 1588.8 131.642 1576.5 156.365C1564.2 181.088 1534.19 191.156 1509.46 178.855L1554.01 89.326ZM1500.78 174.579C1475.95 162.489 1465.63 132.562 1477.72 107.735C1489.81 82.9082 1519.73 72.583 1544.56 84.6731L1500.78 174.579ZM1535.1 80.1155C1560.03 91.988 1570.62 121.824 1558.74 146.755C1546.87 171.687 1517.03 182.274 1492.1 170.401L1535.1 80.1155ZM1483.4 166.303C1458.36 154.656 1447.51 124.916 1459.15 99.8789C1470.8 74.8414 1500.54 63.9869 1525.58 75.6346L1483.4 166.303ZM1515.97 71.2192C1541.12 82.6339 1552.25 112.271 1540.83 137.416C1529.42 162.56 1499.78 173.691 1474.63 162.276L1515.97 71.2192ZM1465.89 158.358C1440.64 147.183 1429.23 117.653 1440.4 92.4008C1451.58 67.1486 1481.11 55.7367 1506.36 66.9115L1465.89 158.358ZM1496.67 62.6807C1522.03 73.6068 1533.74 103.023 1522.81 128.384C1511.88 153.745 1482.47 165.446 1457.11 154.52L1496.67 62.6807ZM1448.29 150.773C1422.82 140.105 1410.82 110.809 1421.49 85.339C1432.15 59.8687 1461.45 47.8691 1486.92 58.5372L1448.29 150.773ZM1477.13 54.4957C1502.71 64.8969 1515.01 94.0659 1504.61 119.646C1494.21 145.227 1465.04 157.532 1439.46 147.131L1477.13 54.4957ZM1430.61 143.585C1404.91 133.461 1392.29 104.427 1402.42 78.7352C1412.54 53.0438 1441.58 40.424 1467.27 50.548L1430.61 143.585ZM1457.35 46.702C1483.15 56.5383 1496.09 85.4296 1486.26 111.233C1476.42 137.036 1447.53 149.979 1421.73 140.143L1457.35 46.702ZM1412.83 136.81C1386.91 127.273 1373.64 98.5328 1383.18 72.6179C1392.71 46.7029 1421.45 33.4262 1447.37 42.9636L1412.83 136.81ZM1437.33 39.3371C1463.36 48.5637 1476.98 77.1425 1467.75 103.17C1458.52 129.197 1429.94 142.817 1403.92 133.59L1437.33 39.3371ZM1394.98 130.483C1368.84 121.58 1354.86 93.1722 1363.77 67.0324C1372.67 40.8927 1401.08 26.9195 1427.22 35.8224L1394.98 130.483ZM1417.05 32.4305C1443.3 40.9965 1457.64 69.222 1449.07 95.4741C1440.5 121.726 1412.28 136.064 1386.03 127.498L1417.05 32.4305ZM1377.07 124.642C1350.71 116.427 1336 88.3946 1344.21 62.0307C1352.43 35.6669 1380.46 20.9546 1406.82 29.1699L1377.07 124.642ZM1396.5 26.0304C1422.97 33.8788 1438.07 61.7038 1430.23 88.1793C1422.38 114.655 1394.55 129.755 1368.08 121.906L1396.5 26.0304ZM1359.09 119.312C1332.5 111.846 1317.01 84.2408 1324.47 57.6551C1331.94 31.0695 1359.54 15.5703 1386.13 23.0367L1359.09 119.312ZM1375.69 20.1896C1402.39 27.2574 1418.3 54.6271 1411.23 81.3215C1404.16 108.016 1376.79 123.926 1350.1 116.859L1375.69 20.1896ZM1341.07 114.544C1314.27 107.894 1297.94 80.7764 1304.59 53.9749C1311.24 27.1733 1338.35 10.8372 1365.16 17.4871L1341.07 114.544ZM1354.58 14.9538C1381.49 21.1684 1398.26 48.0179 1392.05 74.9237C1385.83 101.83 1358.98 118.603 1332.08 112.389L1354.58 14.9538ZM1323.06 110.385C1296.05 104.627 1278.83 78.0654 1284.59 51.0582C1290.34 24.051 1316.9 6.82535 1343.91 12.5836L1323.06 110.385ZM1333.16 10.3898C1360.27 15.6703 1377.96 41.9236 1372.68 69.0283C1367.4 96.1329 1341.14 113.825 1314.04 108.545L1333.16 10.3898ZM1305.06 106.881C1277.87 102.098 1259.7 76.1738 1264.48 48.9769C1269.26 21.7799 1295.19 3.60933 1322.38 8.39173L1305.06 106.881ZM1311.46 6.57871C1338.74 10.8363 1357.41 36.4059 1353.15 63.6899C1348.9 90.974 1323.33 109.641 1296.04 105.383L1311.46 6.57871ZM1287.07 104.073C1259.7 100.364 1240.53 75.1734 1244.24 47.8094C1247.95 20.4455 1273.14 1.27012 1300.5 4.97995L1287.07 104.073ZM1289.49 3.60293C1316.92 6.74014 1336.62 31.5242 1333.48 58.9596C1330.34 86.3951 1305.56 106.093 1278.12 102.955L1289.49 3.60293ZM1269.16 102.029C1241.66 99.4949 1221.43 75.149 1223.96 47.6514C1226.5 20.1537 1250.84 -0.08305 1278.34 2.45137L1269.16 102.029ZM1267.18 1.5503C1294.73 3.45699 1315.52 27.335 1313.61 54.8833C1311.7 82.4317 1287.82 103.218 1260.28 101.312L1267.18 1.5503ZM1251.4 100.803C1223.81 99.5552 1202.46 76.1808 1203.71 48.5948C1204.96 21.0088 1228.33 -0.342697 1255.92 0.904969L1251.4 100.803ZM1244.59 0.533335C1272.2 1.09194 1294.13 23.926 1293.57 51.5345C1293.01 79.1431 1270.17 101.071 1242.57 100.513L1244.59 0.533335ZM1233.83 100.449C1206.21 100.606 1183.7 78.3488 1183.54 50.7351C1183.38 23.1213 1205.64 0.607945 1233.25 0.450136L1233.83 100.449ZM1221.78 0.671301C1249.38 -0.23965 1272.49 21.3955 1273.4 48.9947C1274.31 76.5939 1252.68 99.7059 1225.08 100.617L1221.78 0.671301ZM1216.44 101.023C1188.88 102.715 1165.16 81.7427 1163.47 54.1804C1161.78 26.618 1182.75 2.90292 1210.31 1.21128L1216.44 101.023ZM1198.8 2.08785C1226.3 -0.41641 1250.62 19.847 1253.12 47.3475C1255.63 74.8479 1235.36 99.1715 1207.86 101.676L1198.8 2.08785ZM1199.36 102.581C1171.95 105.929 1147.02 86.4233 1143.67 59.0128C1140.32 31.6023 1159.83 6.66729 1187.24 3.31886L1199.36 102.581ZM1175.71 4.91256C1203 0.694173 1228.54 19.3975 1232.76 46.6877C1236.98 73.9778 1218.27 99.5205 1190.98 103.739L1175.71 4.91256ZM1182.67 105.165C1155.53 110.285 1129.38 92.4386 1124.26 65.3032C1119.14 38.1678 1136.99 12.0195 1164.12 6.89936L1182.67 105.165ZM1152.59 9.28007C1179.53 3.23555 1206.27 20.1784 1212.32 47.123C1218.36 74.0675 1201.42 100.81 1174.48 106.855L1152.59 9.28007ZM1165.93 108.915C1139.16 115.688 1111.97 99.4773 1105.19 72.7067C1098.42 45.936 1114.63 18.7432 1141.4 11.9699L1165.93 108.915ZM1130.64 14.8028C1157.28 7.51157 1184.78 23.1922 1192.07 49.8265C1199.36 76.4608 1183.68 103.963 1157.05 111.254L1130.64 14.8028ZM1148.26 113.754C1121.77 121.566 1093.97 106.429 1086.15 79.9426C1078.34 53.4566 1093.48 25.652 1119.96 17.8393L1148.26 113.754ZM1109.28 21.1074C1135.6 12.7656 1163.71 27.3431 1172.05 53.6673C1180.39 79.9914 1165.81 108.094 1139.49 116.436L1109.28 21.1074ZM1130.84 119.271C1104.69 128.143 1076.3 114.136 1067.43 87.9862C1058.56 61.836 1072.57 33.4449 1098.72 24.5728L1130.84 119.271ZM1088.13 28.2853C1114.09 18.8749 1142.77 32.292 1152.18 58.2533C1161.59 84.2147 1148.17 112.889 1122.21 122.3L1088.13 28.2853ZM1113.72 125.476C1087.96 135.424 1059.02 122.606 1049.07 96.8456C1039.12 71.0856 1051.94 42.1384 1077.7 32.1903L1113.72 125.476ZM1067.25 36.3545C1092.79 25.8609 1122 38.0607 1132.5 63.6034C1142.99 89.1461 1130.79 118.359 1105.25 128.853L1067.25 36.3545ZM1096.93 132.374C1071.62 143.411 1042.15 131.838 1031.11 106.525C1020.08 81.2127 1031.65 51.7455 1056.96 40.7085L1096.93 132.374ZM1046.67 45.3295C1071.74 33.7423 1101.45 44.6686 1113.04 69.7341C1124.62 94.7996 1113.7 124.513 1088.63 136.1L1046.67 45.3295ZM1080.5 139.968C1055.69 152.103 1025.75 141.831 1013.61 117.026C1001.48 92.221 1011.75 62.2754 1036.56 50.1408L1080.5 139.968ZM1026.46 55.2215C1050.99 42.5342 1081.15 52.1324 1093.84 76.6595C1106.53 101.187 1096.93 131.355 1072.4 144.042L1026.46 55.2215ZM1064.47 148.26C1040.23 161.496 1009.86 152.58 996.621 128.345C983.384 104.109 992.301 73.7326 1016.54 60.4963L1064.47 148.26ZM1006.66 66.0372C1030.59 52.2483 1061.16 60.4654 1074.95 84.3906C1088.74 108.316 1080.52 138.889 1056.6 152.678L1006.66 66.0372ZM1048.88 157.245C1025.28 171.582 994.523 164.073 980.185 140.473C965.848 116.873 973.357 86.1177 996.957 71.7801L1048.88 157.245ZM987.337 77.7794C1010.6 62.8921 1041.52 69.6775 1056.4 92.9351C1071.29 116.193 1064.51 147.115 1041.25 162.002L987.337 77.7794ZM1033.77 166.917C1010.87 182.35 979.794 176.299 964.361 153.4C948.927 130.501 954.979 99.4265 977.878 83.9931L1033.77 166.917ZM968.546 90.4467C991.068 74.469 1022.28 79.7745 1038.26 102.297C1054.23 124.819 1048.93 156.03 1026.41 172.008L968.546 90.4467ZM1019.18 177.267C997.051 193.785 965.721 189.238 949.202 167.109C932.684 144.98 937.231 113.651 959.36 97.1317L1019.18 177.267ZM950.346 104.033C972.064 86.9782 1003.5 90.7583 1020.55 112.476C1037.61 134.194 1033.83 165.626 1012.11 182.681L950.346 104.033ZM1005.16 188.279C983.87 205.868 952.354 202.869 934.765 181.581C917.176 160.293 920.175 128.777 941.463 111.189L1005.16 188.279ZM932.801 118.529C953.643 100.415 985.224 102.626 1003.34 123.469C1021.45 144.312 1019.24 175.892 998.399 194.007L932.801 118.529ZM991.748 199.938C971.372 218.576 939.745 217.168 921.107 196.793C902.468 176.418 903.876 144.791 924.252 126.152L991.748 199.938ZM915.936 133.957C935.828 114.803 967.48 115.402 986.634 135.294C1005.79 155.186 1005.19 186.838 985.296 205.992L915.936 133.957ZM978.995 212.218C959.607 231.882 927.949 232.105 908.286 212.716C888.623 193.328 888.4 161.671 907.788 142.007L978.995 212.218ZM899.849 150.273C918.715 130.107 950.356 129.054 970.521 147.919C990.686 166.785 991.74 198.426 972.874 218.591L899.849 150.273ZM966.949 225.095C948.625 245.753 917.023 247.645 896.365 229.32C875.706 210.996 873.815 179.394 892.139 158.736L966.949 225.095ZM884.611 167.456C902.372 146.311 933.911 143.568 955.056 161.328C976.201 179.088 978.944 210.628 961.184 231.773L884.611 167.456ZM955.639 238.56C938.46 260.18 907.008 263.782 885.387 246.604C863.766 229.425 860.165 197.973 877.343 176.352L955.639 238.56ZM870.29 185.485C886.863 163.397 918.204 158.926 940.292 175.499C962.38 192.072 966.851 223.413 950.278 245.501L870.29 185.485ZM945.127 252.571C929.182 275.116 897.979 280.466 875.433 264.52C852.888 248.575 847.538 217.372 863.484 194.827L945.127 252.571ZM856.957 204.338C872.255 181.348 903.293 175.113 926.283 190.411C949.272 205.708 955.508 236.747 940.21 259.736L856.957 204.338ZM935.485 267.066C920.863 290.491 890.02 297.627 866.594 283.006C843.169 268.384 836.032 237.54 850.654 214.115L935.485 267.066ZM844.647 224.062C858.571 200.215 889.19 192.17 913.037 206.093C936.884 220.017 944.929 250.636 931.006 274.483L844.647 224.062ZM926.772 281.99C913.572 306.245 883.209 315.207 858.954 302.007C834.699 288.808 825.737 258.444 838.936 234.189L926.772 281.99ZM833.495 244.564C845.94 219.913 876.013 210.019 900.663 222.464C925.314 234.909 935.209 264.981 922.764 289.632L833.495 244.564ZM919.023 297.339C907.36 322.37 877.614 333.206 852.584 321.542C827.553 309.879 816.717 280.133 828.381 255.103L919.023 297.339ZM823.597 265.814C834.449 240.421 863.831 228.634 889.224 239.486C914.616 250.338 926.404 279.72 915.551 305.113L823.597 265.814ZM912.336 312.995C902.332 338.733 873.357 351.489 847.619 341.485C821.88 331.482 809.124 302.507 819.128 276.769L912.336 312.995ZM815.024 287.882C824.146 261.818 852.67 248.084 878.734 257.205C904.798 266.327 918.532 294.851 909.411 320.915L815.024 287.882ZM906.783 328.863C898.579 355.23 870.553 369.954 844.185 361.75C817.818 353.545 803.094 325.519 811.299 299.152L906.783 328.863ZM807.947 310.651C815.19 284.004 842.663 268.273 869.31 275.515C895.958 282.758 911.689 310.231 904.447 336.878L807.947 310.651ZM902.425 344.906C896.187 371.807 869.324 388.558 842.423 382.321C815.523 376.084 798.772 349.22 805.009 322.319L902.425 344.906ZM802.509 334.137C807.696 307.014 833.888 289.232 861.011 294.419C888.133 299.606 905.916 325.798 900.728 352.921L802.509 334.137ZM899.366 360.909C895.278 388.219 869.825 407.044 842.515 402.956C815.205 398.868 796.38 373.415 800.468 346.105L899.366 360.909ZM798.905 358.289C801.834 330.831 826.469 310.946 853.927 313.876C881.386 316.805 901.27 341.439 898.341 368.898L798.905 358.289ZM897.671 376.815C895.956 404.376 872.223 425.329 844.662 423.614C817.101 421.899 796.149 398.166 797.864 370.606L897.671 376.815ZM797.376 383.045C797.816 355.434 820.556 333.408 848.167 333.849C875.778 334.289 897.804 357.029 897.363 384.64L797.376 383.045ZM897.425 392.347C898.322 419.947 876.675 443.048 849.076 443.945C821.476 444.842 798.375 423.195 797.478 395.595L897.425 392.347ZM798.211 408.268C795.908 380.75 816.349 356.575 843.867 354.272C871.385 351.969 895.56 372.409 897.863 399.927L798.211 408.268ZM898.683 407.35C902.463 434.704 883.353 459.944 855.998 463.724C828.644 467.504 803.405 448.393 799.625 421.039L898.683 407.35ZM801.763 433.844C796.44 406.748 814.09 380.466 841.186 375.143C868.283 369.82 894.564 387.47 899.887 414.566L801.763 433.844ZM901.61 422.235C908.156 449.062 891.716 476.117 864.889 482.664C838.062 489.21 811.007 472.77 804.461 445.943L901.61 422.235ZM807.447 457.365C800.02 430.768 815.56 403.186 842.157 395.759C868.754 388.332 896.335 403.872 903.762 430.469L807.447 457.365ZM906.172 438.566C914.504 464.893 899.916 492.99 873.589 501.322C847.262 509.654 819.165 495.066 810.833 468.739L906.172 438.566ZM814.634 480.051C805.372 454.036 818.953 425.439 844.967 416.177C870.982 406.915 899.579 420.496 908.841 446.51L814.634 480.051ZM911.772 454.289C921.989 479.944 909.473 509.023 883.818 519.239C858.163 529.455 829.084 516.94 818.868 491.285L911.772 454.289ZM823.549 502.419C812.356 477.175 823.747 447.636 848.99 436.443C874.234 425.25 903.773 436.64 914.966 461.884L823.549 502.419ZM918.422 469.28C930.613 494.058 920.41 524.027 895.632 536.218C870.855 548.409 840.886 538.206 828.695 513.428L918.422 469.28ZM834.318 524.286C821.112 500.035 830.066 469.669 854.317 456.463C878.569 443.257 908.935 452.211 922.141 476.462L834.318 524.286ZM926.121 483.415C940.356 507.077 932.713 537.799 909.051 552.034C885.388 566.269 854.666 558.626 840.432 534.964L926.121 483.415ZM847.045 545.426C831.774 522.419 838.045 491.388 861.052 476.117C884.06 460.846 915.091 467.117 930.362 490.124L847.045 545.426ZM934.861 496.579C951.17 518.862 946.326 550.148 924.042 566.457C901.758 582.766 870.473 577.922 854.164 555.638L934.861 496.579ZM861.789 565.559C844.449 544.068 847.814 512.589 869.305 495.249C890.796 477.909 922.275 481.274 939.615 502.765L861.789 565.559ZM944.621 508.674C962.977 529.304 961.134 560.908 940.504 579.265C919.874 597.621 888.269 595.777 869.913 575.147L944.621 508.674ZM878.527 584.362C859.179 564.66 859.467 533.003 879.169 513.655C898.872 494.307 930.529 494.594 949.877 514.297L878.527 584.362ZM955.38 519.629C975.686 538.343 976.977 569.975 958.264 590.281C939.55 610.587 907.918 611.878 887.612 593.165L955.38 519.629ZM897.143 601.515C875.922 583.847 873.041 552.32 890.71 531.098C908.379 509.876 939.906 506.996 961.128 524.665L897.143 601.515ZM967.117 529.401C989.203 545.977 993.669 577.318 977.094 599.404C960.518 621.49 929.176 625.957 907.09 609.381L967.117 529.401ZM917.416 616.732C894.524 601.287 888.487 570.21 903.931 547.319C919.376 524.427 950.453 518.39 973.344 533.834L917.416 616.732ZM979.807 537.963C1003.44 552.247 1011.02 582.985 996.734 606.617C982.449 630.25 951.712 637.829 928.079 623.544L979.807 537.963ZM939.034 629.803C914.729 616.696 905.651 586.368 918.758 562.062C931.864 537.757 962.193 528.678 986.499 541.785L939.034 629.803ZM993.409 545.299C1018.32 557.223 1028.84 587.081 1016.92 611.988C1004.99 636.895 975.135 647.42 950.228 635.495L993.409 545.299ZM961.622 640.625C936.184 629.879 924.274 600.547 935.019 575.109C945.765 549.671 975.097 537.761 1000.53 548.507L961.622 640.625ZM1007.87 551.409C1033.77 560.99 1047 589.752 1037.42 615.651C1027.84 641.55 999.074 654.778 973.175 645.198L1007.87 551.409ZM984.847 649.226C958.554 640.789 944.078 612.633 952.516 586.34C960.953 560.046 989.108 545.571 1015.4 554.008L984.847 649.226ZM1023.12 556.306C1049.75 563.629 1065.4 591.15 1058.07 617.775C1050.75 644.401 1023.23 660.049 996.604 652.726L1023.12 556.306ZM1008.41 655.717C981.514 649.474 964.768 622.608 971.011 595.708C977.254 568.809 1004.12 552.063 1031.02 558.306L1008.41 655.717ZM1039.07 560.009C1066.19 565.212 1083.95 591.414 1078.75 618.534C1073.55 645.654 1047.34 663.421 1020.23 658.218L1039.07 560.009ZM1032.03 660.258C1004.74 656.053 986.023 630.52 990.227 603.228C994.431 575.936 1019.96 557.219 1047.26 561.424L1032.03 660.258ZM1055.58 562.556C1083 565.805 1102.6 590.669 1099.35 618.092C1096.1 645.514 1071.24 665.111 1043.82 661.861L1055.58 562.556ZM1055.56 663.055C1028.05 660.717 1007.64 636.517 1009.98 609.002C1012.31 581.487 1036.51 561.076 1064.03 563.414L1055.56 663.055ZM1072.69 564.012C1100.26 565.513 1121.4 589.082 1119.9 616.655C1118.4 644.229 1094.83 665.365 1067.25 663.865L1072.69 564.012ZM1078.7 664.322C1051.09 663.625 1029.28 640.681 1029.97 613.075C1030.67 585.47 1053.61 563.656 1081.22 564.353L1078.7 664.322ZM1089.77 564.439C1117.38 564.286 1139.89 586.548 1140.05 614.162C1140.2 641.776 1117.94 664.285 1090.32 664.437L1089.77 564.439ZM1101.98 664.187C1074.38 665.226 1051.17 643.699 1050.13 616.104C1049.09 588.509 1070.62 565.297 1098.22 564.258L1101.98 664.187ZM1106.55 563.806C1134.09 561.842 1158.01 582.58 1159.97 610.124C1161.94 637.668 1141.2 661.589 1113.66 663.553L1106.55 563.806ZM1125.41 662.508C1097.95 665.439 1073.32 645.557 1070.39 618.099C1067.45 590.641 1087.34 566.005 1114.8 563.073L1125.41 662.508ZM1122.95 562.05C1150.28 558.105 1175.64 577.063 1179.58 604.393C1183.53 631.724 1164.57 657.079 1137.24 661.024L1122.95 562.05ZM1149.06 659.085C1121.9 664.085 1095.84 646.121 1090.84 618.964C1085.84 591.806 1103.8 565.737 1130.96 560.738L1149.06 659.085ZM1138.8 559.13C1165.74 553.037 1192.51 569.932 1198.6 596.865C1204.7 623.799 1187.8 650.573 1160.87 656.666L1138.8 559.13ZM1172.65 653.74C1145.99 660.966 1118.53 645.218 1111.3 618.566C1104.08 591.914 1119.83 564.45 1146.48 557.224L1172.65 653.74ZM1154 555.006C1180.31 546.604 1208.44 561.118 1216.84 587.423C1225.25 613.728 1210.73 641.864 1184.43 650.265L1154 555.006ZM1196.12 646.23C1170.24 655.841 1141.46 642.646 1131.85 616.759C1122.24 590.871 1135.43 562.094 1161.32 552.482L1196.12 646.23ZM1168.41 549.655C1193.8 538.805 1223.18 550.596 1234.03 575.989C1244.88 601.383 1233.09 630.764 1207.7 641.613L1168.41 549.655ZM1219.12 636.394C1194.3 648.504 1164.37 638.204 1152.25 613.387C1140.14 588.571 1150.44 558.635 1175.26 546.524L1219.12 636.394ZM1181.86 543.092C1206.01 529.704 1236.44 538.43 1249.83 562.581C1263.21 586.733 1254.49 617.165 1230.34 630.553L1181.86 543.092ZM1241.31 624.079C1217.92 638.751 1187.06 631.681 1172.39 608.287C1157.71 584.894 1164.78 554.035 1188.18 539.363L1241.31 624.079ZM1194.21 535.341C1216.75 519.387 1247.96 524.726 1263.91 547.266C1279.86 569.805 1274.52 601.01 1251.98 616.964L1194.21 535.341ZM1262.31 609.207C1240.72 626.427 1209.26 622.886 1192.04 601.299C1174.82 579.711 1178.36 548.252 1199.95 531.032L1262.31 609.207ZM1205.37 526.443C1225.9 507.983 1257.52 509.668 1275.98 530.205C1294.44 550.743 1292.75 582.356 1272.21 600.816L1205.37 526.443ZM1281.65 591.807C1262.26 611.466 1230.6 611.683 1210.94 592.29C1191.28 572.898 1191.07 541.24 1210.46 521.581L1281.65 591.807ZM1215.22 516.456C1233.37 495.65 1264.96 493.503 1285.76 511.659C1306.57 529.816 1308.72 561.401 1290.56 582.207L1215.22 516.456ZM1298.89 572.05C1282.05 593.937 1250.66 598.03 1228.77 581.193C1206.88 564.355 1202.79 532.963 1219.63 511.076L1298.89 572.05ZM1223.68 505.45C1239.13 482.558 1270.2 476.521 1293.1 491.965C1315.99 507.409 1322.03 538.486 1306.58 561.378L1223.68 505.45ZM1313.6 550.24C1299.61 574.05 1268.97 582.013 1245.16 568.026C1221.35 554.039 1213.39 523.399 1227.38 499.589L1313.6 550.24ZM1230.7 493.503C1243.18 468.869 1273.27 459.016 1297.9 471.495C1322.53 483.974 1332.39 514.06 1319.91 538.694L1230.7 493.503ZM1325.48 526.796C1314.55 552.154 1285.13 563.848 1259.77 552.915C1234.41 541.982 1222.72 512.563 1233.65 487.205L1325.48 526.796ZM1236.22 480.707C1245.58 454.728 1274.23 441.257 1300.21 450.619C1326.19 459.981 1339.66 488.63 1330.3 514.609L1236.22 480.707ZM1334.35 502.193C1326.57 528.689 1298.79 543.863 1272.29 536.084C1245.79 528.305 1230.62 500.52 1238.4 474.024L1334.35 502.193ZM1240.19 467.171C1246.39 440.261 1273.23 423.469 1300.14 429.665C1327.05 435.862 1343.84 462.7 1337.64 489.61L1240.19 467.171ZM1340.18 476.916C1335.55 504.14 1309.73 522.46 1282.51 517.834C1255.29 513.208 1236.97 487.388 1241.59 460.164L1340.18 476.916ZM1242.6 453.023C1245.67 425.581 1270.42 405.829 1297.86 408.906C1325.3 411.983 1345.05 436.724 1341.97 464.166L1242.6 453.023ZM1343.05 451.409C1341.49 478.979 1317.88 500.065 1290.31 498.507C1262.74 496.948 1241.65 473.334 1243.21 445.764L1343.05 451.409ZM1243.42 438.407C1243.5 410.793 1265.95 388.471 1293.57 388.548C1321.18 388.626 1343.5 411.075 1343.42 438.689L1243.42 438.407ZM1343.13 426.046C1344.49 453.627 1323.23 477.088 1295.65 478.448C1268.07 479.808 1244.61 458.552 1243.25 430.971L1343.13 426.046ZM1242.69 423.474C1239.94 395.997 1259.98 371.493 1287.46 368.743C1314.94 365.993 1339.44 386.037 1342.19 413.514L1242.69 423.474ZM1340.64 401.123C1344.73 428.433 1325.91 453.887 1298.6 457.977C1271.29 462.068 1245.84 443.244 1241.75 415.935L1340.64 401.123ZM1240.44 408.417C1235.09 381.326 1252.71 355.025 1279.8 349.672C1306.89 344.319 1333.19 361.941 1338.54 389.031L1240.44 408.417ZM1335.94 377.201C1342.44 404.039 1325.96 431.067 1299.12 437.57C1272.28 444.074 1245.25 427.589 1238.75 400.752L1335.94 377.201ZM1236.72 393.04C1229.18 366.477 1244.59 338.827 1271.16 331.283C1297.72 323.739 1325.37 339.157 1332.92 365.721L1236.72 393.04ZM1329.51 354.505C1338.01 380.779 1323.6 408.968 1297.32 417.465C1271.05 425.963 1242.86 411.553 1234.36 385.278L1329.51 354.505ZM1231.68 377.448C1222.3 351.477 1235.74 322.817 1261.71 313.434C1287.69 304.051 1316.35 317.498 1325.73 343.47L1231.68 377.448ZM1321.64 332.691C1331.84 358.352 1319.31 387.424 1293.65 397.627C1267.99 407.83 1238.92 395.299 1228.72 369.639L1321.64 332.691ZM1225.49 361.865C1214.52 336.522 1226.17 307.087 1251.52 296.119C1276.86 285.152 1306.29 296.806 1317.26 322.149L1225.49 361.865ZM1312.58 311.74C1324.27 336.758 1313.46 366.515 1288.45 378.205C1263.43 389.896 1233.67 379.092 1221.98 354.074L1312.58 311.74ZM1218.25 346.377C1205.89 321.688 1215.87 291.646 1240.56 279.277C1265.25 266.909 1295.29 276.896 1307.66 301.586L1218.25 346.377ZM1302.49 291.592C1315.5 315.947 1306.31 346.241 1281.95 359.255C1257.6 372.269 1227.3 363.075 1214.29 338.719L1302.49 291.592ZM1210.09 331.099C1196.46 307.084 1204.88 276.565 1228.89 262.934C1252.91 249.304 1283.43 257.722 1297.06 281.738L1210.09 331.099ZM1291.45 272.125C1305.66 295.799 1298 326.515 1274.32 340.731C1250.65 354.948 1219.93 347.282 1205.72 323.608L1291.45 272.125ZM1201.11 316.146C1186.33 292.822 1193.25 261.93 1216.58 247.148C1239.9 232.365 1270.79 239.29 1285.58 262.614L1201.11 316.146ZM1279.53 253.319C1294.86 276.291 1288.66 307.336 1265.68 322.66C1242.71 337.984 1211.67 331.785 1196.34 308.813L1279.53 253.319ZM1191.38 301.551C1175.53 278.938 1181.01 247.758 1203.62 231.909C1226.24 216.06 1257.42 221.544 1273.27 244.158L1191.38 301.551ZM1266.81 235.158C1283.16 257.407 1278.38 288.703 1256.14 305.059C1233.89 321.415 1202.59 316.638 1186.23 294.389L1266.81 235.158ZM1180.93 287.344C1164.09 265.465 1168.17 234.07 1190.05 217.223C1211.93 200.376 1243.32 204.456 1260.17 226.335L1180.93 287.344ZM1253.32 217.639C1270.64 239.142 1267.26 270.618 1245.75 287.944C1224.25 305.27 1192.77 301.885 1175.45 280.382L1253.32 217.639ZM1169.84 273.57C1152.05 252.449 1154.75 220.906 1175.87 203.117C1196.99 185.327 1228.53 188.027 1246.32 209.148L1169.84 273.57ZM1239.1 200.763C1257.35 221.492 1255.33 253.086 1234.6 271.331C1213.87 289.575 1182.28 287.561 1164.03 266.831L1239.1 200.763ZM1158.13 260.264C1139.44 239.931 1140.78 208.3 1161.11 189.616C1181.45 170.931 1213.08 172.268 1231.76 192.601L1158.13 260.264ZM1224.2 184.551C1243.32 204.478 1242.66 236.129 1222.74 255.246C1202.81 274.364 1171.16 273.708 1152.04 253.781L1224.2 184.551ZM1145.85 247.46C1126.31 227.946 1126.29 196.288 1145.8 176.75C1165.32 157.211 1196.97 157.192 1216.51 176.706L1145.85 247.46ZM1208.63 168.996C1228.58 188.087 1229.27 219.737 1210.18 239.689C1191.09 259.641 1159.44 260.338 1139.49 241.247L1208.63 168.996ZM1133.02 235.191C1112.67 216.53 1111.3 184.902 1129.96 164.547C1148.62 144.193 1180.25 142.82 1200.6 161.481L1133.02 235.191ZM1192.4 154.117C1213.15 172.338 1215.2 203.93 1196.98 224.68C1178.76 245.43 1147.16 247.48 1126.41 229.26L1192.4 154.117ZM1119.7 223.487C1098.56 205.716 1095.83 174.175 1113.6 153.039C1131.37 131.903 1162.92 129.176 1184.05 146.947L1119.7 223.487ZM1175.53 139.941C1197.05 157.252 1200.46 188.726 1183.14 210.241C1165.83 231.755 1134.36 235.162 1112.84 217.851L1175.53 139.941ZM1105.89 212.376C1084 195.534 1079.92 164.141 1096.76 142.257C1113.6 120.374 1145 116.287 1166.88 133.129L1105.89 212.376ZM1158.06 126.494C1180.31 142.856 1185.07 174.153 1168.71 196.397C1152.35 218.642 1121.05 223.411 1098.81 207.049L1158.06 126.494ZM1091.63 201.888C1069.03 186.016 1063.58 154.831 1079.45 132.234C1095.33 109.637 1126.51 104.186 1149.11 120.058L1091.63 201.888ZM1140 113.807C1162.94 129.178 1169.07 160.236 1153.7 183.177C1138.33 206.117 1107.27 212.254 1084.33 196.883L1140 113.807ZM1076.95 192.05C1053.67 177.19 1046.85 146.275 1061.71 123C1076.57 99.7254 1107.48 92.9039 1130.76 107.764L1076.95 192.05ZM1121.37 101.915C1144.97 116.252 1152.48 147.007 1138.14 170.608C1123.8 194.208 1093.05 201.717 1069.45 187.379L1121.37 101.915ZM1061.87 182.888C1037.95 169.083 1029.75 138.504 1043.56 114.588C1057.37 90.6728 1087.94 82.4769 1111.86 96.2824L1061.87 182.888ZM1102.2 90.8515C1126.42 104.113 1135.31 134.499 1122.05 158.721C1108.78 182.942 1078.4 191.826 1054.18 178.565L1102.2 90.8515ZM1046.42 174.429C1021.9 161.72 1012.33 131.544 1025.04 107.028C1037.74 82.5115 1067.92 72.9398 1092.44 85.6485L1046.42 174.429ZM1082.53 80.6534C1107.33 92.7974 1117.59 122.747 1105.44 147.548C1093.3 172.348 1063.35 182.608 1038.55 170.464L1082.53 80.6534ZM1030.62 166.695C1005.55 155.124 994.604 125.418 1006.18 100.345C1017.75 75.2721 1047.45 64.3267 1072.53 75.8979L1030.62 166.695ZM1062.38 71.3558C1087.71 82.3425 1099.34 111.787 1088.35 137.121C1077.37 162.456 1047.92 174.087 1022.59 163.1L1062.38 71.3558ZM1014.51 159.709C988.932 149.314 976.62 120.148 987.015 94.5647C997.411 68.9819 1026.58 56.6702 1052.16 67.0657L1014.51 159.709ZM1041.79 62.9928C1067.61 72.7854 1080.6 101.655 1070.81 127.474C1061.02 153.294 1032.15 166.286 1006.33 156.494L1041.79 62.9928ZM998.12 153.49C972.079 144.305 958.414 115.748 967.599 89.7061C976.784 63.6643 1005.34 49.9993 1031.38 59.1845L998.12 153.49ZM1020.82 55.5997C1047.08 64.1664 1061.41 92.3924 1052.85 118.644C1044.28 144.896 1016.05 159.233 989.801 150.666L1020.82 55.5997ZM981.469 148.055C955.022 140.11 940.024 112.23 947.969 85.7837C955.914 59.3371 983.794 44.3387 1010.24 52.2838L981.469 148.055ZM999.525 49.2029C1026.15 56.5172 1041.81 84.0328 1034.5 110.661C1027.18 137.289 999.665 152.945 973.037 145.631L999.525 49.2029ZM964.588 143.418C937.794 136.737 921.489 109.6 928.17 82.8062C934.851 56.0123 961.988 39.7076 988.782 46.3885L964.588 143.418ZM977.941 43.8219C1004.89 49.8633 1021.83 76.6042 1015.79 103.549C1009.75 130.495 983.009 147.441 956.063 141.399L977.941 43.8219ZM947.507 139.588C920.426 134.188 902.849 107.857 908.248 80.7762C913.648 53.695 939.978 36.1184 967.06 41.5178L947.507 139.588ZM956.126 39.4726C983.328 44.2275 1001.52 70.1336 996.77 97.3353C992.015 124.537 966.109 142.734 938.907 137.979L956.126 39.4726ZM930.253 136.572C902.946 132.464 884.139 106.997 888.247 79.6903C892.355 52.3833 917.821 33.5766 945.128 37.6845L930.253 136.572ZM934.138 36.1635C961.534 39.6263 980.936 64.6426 977.473 92.0389C974.01 119.435 948.994 138.837 921.598 135.374L934.138 36.1635ZM912.852 134.374C885.382 131.56 865.394 107.009 868.208 79.5388C871.022 52.0683 895.572 32.0803 923.043 34.8943L912.852 134.374ZM912.032 33.896C939.561 36.069 960.116 60.1469 957.943 87.6755C955.77 115.204 931.692 135.759 904.163 133.586L912.032 33.896ZM895.377 132.996C867.805 131.467 846.693 107.876 848.223 80.3036C849.752 52.7318 873.343 31.62 900.915 33.1492L895.377 132.996ZM889.863 32.6641C917.463 33.5572 939.113 56.6553 938.219 84.2551C937.326 111.855 914.228 133.505 886.628 132.612L889.863 32.6641ZM877.832 132.428C850.219 132.169 828.045 109.574 828.304 81.9607C828.563 54.3477 851.159 32.1732 878.772 32.4327L877.832 132.428ZM867.68 32.4549C895.292 32.0858 917.975 54.1703 918.344 81.7821C918.714 109.394 896.629 132.077 869.017 132.446L867.68 32.4549ZM860.232 132.662C832.636 133.651 809.463 112.081 808.474 84.4842C807.486 56.8876 829.056 33.7148 856.652 32.7263L860.232 132.662ZM845.538 33.2494C873.105 31.6427 896.756 52.6881 898.362 80.2556C899.969 107.823 878.924 131.473 851.356 133.08L845.538 33.2494ZM842.599 133.687C815.073 135.895 790.969 115.371 788.76 87.8454C786.552 60.3196 807.076 36.2153 834.602 34.0069L842.599 133.687ZM823.595 35.0109C851.066 32.2039 875.611 52.1983 878.418 79.6695C881.225 107.141 861.231 131.686 833.759 134.493L823.595 35.0109ZM824.886 135.504C797.494 138.998 772.456 119.625 768.962 92.2322C765.468 64.8399 784.841 39.8017 812.234 36.3079L824.886 135.504ZM800.779 37.9368C828.058 33.6494 853.648 52.288 857.936 79.5674C862.223 106.847 843.585 132.437 816.305 136.724L800.779 37.9368ZM807.991 138.158C780.853 143.267 754.713 125.408 749.605 98.2706C744.496 71.133 762.355 44.9925 789.492 39.8842L807.991 138.158ZM777.906 42.2601C804.862 36.2684 831.572 53.2636 837.564 80.2199C843.556 107.176 826.56 133.886 799.604 139.878L777.906 42.2601ZM791.575 141.803C764.835 148.695 737.57 132.605 730.678 105.865C723.786 79.1247 739.876 51.86 766.616 44.9677L791.575 141.803ZM755.051 48.171C781.525 40.3159 809.354 55.4091 817.209 81.8825C825.064 108.356 809.971 136.185 783.497 144.04L755.051 48.171ZM775.755 146.493C749.591 155.325 721.221 141.276 712.389 115.112C703.557 88.9485 717.606 60.5786 743.77 51.7462L775.755 146.493ZM732.367 55.8461C758.162 45.9895 787.064 58.9103 796.921 84.7055C806.777 110.501 793.856 139.402 768.061 149.259L732.367 55.8461ZM760.667 152.255C735.29 163.145 705.891 151.401 695.001 126.024C684.112 100.648 695.856 71.2484 721.233 60.359L760.667 152.255ZM710.083 65.4238C734.977 53.4715 764.846 63.9625 776.799 88.856C788.751 113.75 778.26 143.619 753.366 155.571L710.083 65.4238ZM746.36 159.121C722.001 172.129 691.71 162.928 678.702 138.569C665.694 114.211 674.895 83.9191 699.254 70.9111L746.36 159.121ZM688.493 76.9673C712.251 62.8926 742.921 70.7426 756.995 94.5008C771.07 118.259 763.22 148.929 739.462 163.003L688.493 76.9673ZM732.848 167.122C709.737 182.236 678.75 175.754 663.635 152.644C648.521 129.533 655.003 98.5454 678.113 83.431L732.848 167.122ZM667.915 90.4337C690.321 74.2934 721.569 79.373 737.71 101.779C753.85 124.185 748.77 155.433 726.364 171.574L667.915 90.4337ZM720.128 176.281C698.464 193.404 667.02 189.722 649.897 168.058C632.774 146.394 636.456 114.95 658.12 97.8271L720.128 176.281ZM648.645 105.664C669.531 87.5989 701.106 89.8857 719.171 110.771C737.236 131.657 734.949 163.233 714.063 181.297L648.645 105.664ZM708.202 186.594C688.118 205.546 656.473 204.628 637.521 184.544C618.569 164.46 619.487 132.815 639.571 113.863L708.202 186.594ZM630.899 122.399C650.168 102.619 681.824 102.205 701.604 121.474C721.384 140.742 721.799 172.398 702.53 192.178L630.899 122.399ZM697.036 198.054C678.587 218.601 646.974 220.301 626.428 201.851C605.881 183.402 604.181 151.79 622.63 131.243L697.036 198.054ZM614.787 140.329C632.424 119.082 663.947 116.155 685.195 133.793C706.442 151.431 709.368 182.953 691.731 204.201L614.787 140.329ZM686.594 210.63C669.753 232.514 638.36 236.603 616.475 219.762C594.591 202.921 590.502 171.528 607.343 149.643L686.594 210.63ZM600.306 159.128C616.375 136.671 647.607 131.491 670.064 147.56C692.522 163.629 697.701 194.861 681.632 217.318L600.306 159.128ZM676.835 224.263C661.508 247.233 630.462 253.428 607.492 238.101C584.522 222.774 578.326 191.728 593.653 168.758L676.835 224.263ZM587.369 178.495C601.992 155.07 632.835 147.934 656.26 162.556C679.685 177.179 686.822 208.022 672.199 231.447L587.369 178.495ZM667.714 238.867C653.756 262.694 623.126 270.695 599.299 256.738C575.471 242.78 567.47 212.15 581.428 188.322L667.714 238.867ZM575.815 198.198C589.153 174.018 619.566 165.228 643.746 178.565C667.926 191.902 676.716 222.316 663.379 246.496L575.815 198.198ZM659.175 254.337C646.413 278.826 616.216 288.331 591.728 275.569C567.239 262.807 557.734 232.609 570.496 208.121L659.175 254.337ZM565.456 218.054C577.691 193.298 607.678 183.149 632.434 195.384C657.19 207.619 667.339 237.607 655.104 262.362L565.456 218.054ZM651.147 270.571C639.39 295.557 609.604 306.282 584.617 294.525C559.631 282.769 548.906 252.983 560.662 227.996L651.147 270.571ZM556.095 237.927C567.422 212.742 597.02 201.508 622.205 212.835C647.389 224.162 658.623 253.76 647.296 278.944L556.095 237.927ZM643.539 287.473C632.593 312.825 603.168 324.504 577.816 313.558C552.463 302.612 540.785 273.187 551.731 247.834L643.539 287.473ZM547.544 257.712C558.158 232.219 587.429 220.157 612.922 230.771C638.414 241.385 650.476 270.655 639.862 296.148L547.544 257.712ZM636.253 304.958C625.922 330.567 596.787 342.952 571.178 332.621C545.569 322.289 533.184 293.154 543.515 267.546L636.253 304.958ZM539.622 277.329C549.719 251.627 578.74 238.976 604.442 249.074C630.144 259.171 642.795 288.192 632.697 313.894L539.622 277.329ZM629.179 322.95C619.267 348.724 590.337 361.583 564.563 351.67C538.789 341.758 525.931 312.829 535.843 287.055L629.179 322.95ZM532.159 296.714C541.936 270.889 570.797 257.878 596.623 267.655C622.449 277.431 635.459 306.293 625.682 332.118L532.159 296.714ZM622.192 341.388C612.502 367.246 583.684 380.352 557.826 370.661C531.968 360.971 518.862 332.153 528.552 306.295L622.192 341.388ZM524.999 315.802C534.654 289.93 563.454 276.785 589.325 286.44C615.197 296.096 628.342 324.896 618.687 350.767L524.999 315.802ZM615.157 360.219C605.486 386.084 576.677 399.212 550.812 389.54C524.947 379.868 511.82 351.06 521.491 325.195L615.157 360.219ZM517.993 334.518C527.734 308.679 556.578 295.629 582.417 305.37C608.256 315.111 621.306 343.954 611.564 369.794L517.993 334.518ZM607.908 379.429C598.043 405.221 569.137 418.132 543.345 408.267C517.553 398.402 504.641 369.496 514.507 343.704L607.908 379.429ZM511.002 352.777C521.048 327.055 550.043 314.348 575.765 324.394C601.487 334.44 614.195 363.435 604.149 389.158L511.002 352.777ZM600.268 398.966C589.981 424.593 560.867 437.028 535.241 426.742C509.614 416.455 497.178 387.341 507.465 361.715L600.268 398.966ZM503.891 370.475C514.479 344.971 543.738 332.88 569.241 343.469C594.745 354.058 606.836 383.316 596.247 408.819L503.891 370.475ZM592.026 418.788C581.068 444.135 551.637 455.8 526.29 444.842C500.943 433.884 489.278 404.453 500.236 379.106L592.026 418.788ZM496.517 387.515C507.911 362.361 537.539 351.207 562.693 362.601C587.847 373.996 599.001 403.624 587.607 428.778L496.517 387.515ZM582.927 438.84C571.023 463.756 541.173 474.304 516.257 462.4C491.341 450.495 480.793 420.645 492.697 395.729L582.927 438.84ZM488.768 403.714C501.26 379.087 531.351 369.249 555.978 381.741C580.606 394.232 590.443 424.323 577.952 448.951L488.768 403.714ZM572.661 459.046C559.506 483.326 529.159 492.344 504.88 479.189C480.6 466.033 471.582 435.687 484.738 411.407L572.661 459.046ZM480.554 418.857C494.458 394.999 525.071 386.929 548.929 400.833C572.787 414.738 580.857 445.35 566.952 469.209L480.554 418.857ZM560.822 479.323C546.088 502.678 515.211 509.667 491.856 494.934C468.501 480.201 461.511 449.324 476.245 425.968L560.822 479.323ZM471.804 432.717C487.444 409.959 518.572 404.19 541.33 419.83C564.088 435.47 569.858 466.598 554.217 489.356L471.804 432.717ZM547.033 499.338C530.406 521.385 499.054 525.779 477.007 509.152C454.96 492.525 450.566 461.173 467.193 439.126L547.033 499.338ZM462.448 445.116C480.124 423.9 511.652 421.03 532.868 438.706C554.084 456.382 556.953 487.91 539.277 509.126L462.448 445.116ZM530.893 518.67C512.12 538.921 480.484 540.119 460.233 521.346C439.982 502.572 438.784 470.937 457.558 450.686L530.893 518.67ZM452.505 455.837C472.406 436.694 504.058 437.308 523.202 457.209C542.346 477.11 541.732 508.762 521.831 527.906L452.505 455.837ZM512.793 536.163C492.033 554.371 460.442 552.301 442.234 531.54C424.026 510.78 426.096 479.189 446.856 460.981L512.793 536.163ZM440.594 466.298C461.929 448.766 493.437 451.849 510.969 473.184C528.501 494.519 525.418 526.027 504.083 543.559L440.594 466.298ZM495.135 550.673C473.246 567.509 441.854 563.413 425.019 541.524C408.183 519.636 412.279 488.244 434.167 471.408L495.135 550.673ZM427.581 476.307C450.001 460.186 481.244 465.292 497.366 487.712C513.487 510.132 508.381 541.376 485.961 557.497L427.581 476.307ZM476.572 564.021C453.644 579.411 422.581 573.301 407.191 550.373C391.801 527.445 397.911 496.382 420.839 480.992L476.572 564.021ZM413.947 485.459C437.358 470.814 468.208 477.921 482.853 501.332C497.498 524.743 490.391 555.593 466.98 570.238L413.947 485.459ZM457.198 576.141C433.329 590.028 402.723 581.936 388.836 558.067C374.949 534.198 383.041 503.592 406.91 489.705L457.198 576.141ZM399.734 493.728C424.033 480.61 454.366 489.674 467.484 513.974C480.602 538.273 471.538 568.606 447.239 581.724L399.734 493.728ZM437.117 586.983C412.414 599.325 382.384 589.304 370.042 564.601C357.7 539.898 367.721 509.868 392.424 497.526L437.117 586.983ZM384.985 501.097C410.064 489.538 439.765 500.497 451.324 525.575C462.883 550.654 451.924 580.355 426.846 591.914L384.985 501.097ZM416.441 596.515C391.015 607.289 361.67 595.411 350.896 569.985C340.122 544.559 352 515.213 377.426 504.44L416.441 596.515ZM369.75 507.553C395.495 497.567 424.462 510.341 434.449 536.086C444.435 561.832 431.661 590.798 405.916 600.785L369.75 507.553ZM395.283 604.724C369.246 613.925 340.681 600.277 331.48 574.241C322.28 548.204 335.928 519.639 361.964 510.438L395.283 604.724ZM354.074 513.094C380.374 504.676 408.518 519.173 416.935 545.473C425.353 571.773 410.856 599.917 384.556 608.335L354.074 513.094ZM373.749 611.619C347.213 619.258 319.508 603.939 311.868 577.402C304.229 550.866 319.548 523.161 346.085 515.521L373.749 611.619ZM338.005 517.721C364.752 510.853 392.002 526.967 398.87 553.714C405.738 580.46 389.623 607.71 362.877 614.578L338.005 517.721ZM351.952 617.219C325.021 623.324 298.239 606.442 292.134 579.511C286.028 552.581 302.91 525.799 329.841 519.694L351.952 617.219ZM321.598 521.442C348.689 516.088 374.989 533.71 380.343 560.8C385.696 587.891 368.074 614.191 340.984 619.545L321.598 521.442ZM329.985 621.562C302.759 626.174 276.949 607.842 272.336 580.616C267.724 553.39 286.056 527.579 313.282 522.967L329.985 621.562ZM304.899 524.272C332.239 520.387 357.551 539.402 361.435 566.741C365.32 594.081 346.305 619.393 318.966 623.277L304.899 524.272ZM307.934 624.698C280.503 627.868 255.695 608.2 252.525 580.768C249.355 553.336 269.023 528.529 296.455 525.359L307.934 624.698ZM287.954 526.231C315.458 523.761 339.756 544.054 342.227 571.558C344.697 599.061 324.403 623.36 296.9 625.83L287.954 526.231ZM285.87 626.682C258.313 628.468 234.527 607.577 232.741 580.02C230.955 552.464 251.846 528.677 279.403 526.892L285.87 626.682ZM270.805 527.344C298.397 526.226 321.67 547.688 322.787 575.28C323.904 602.871 302.443 626.145 274.851 627.262L270.805 527.344ZM263.849 627.577C236.239 628.042 213.479 606.036 213.014 578.426C212.549 550.815 234.555 528.056 262.165 527.591L263.849 627.577ZM253.488 527.637C281.102 527.807 303.349 550.331 303.178 577.945C303.007 605.559 280.483 627.805 252.869 627.635L253.488 527.637ZM241.923 627.444C214.32 626.654 192.583 603.637 193.373 576.034C194.163 548.431 217.179 526.695 244.782 527.485L241.923 627.444ZM236.068 527.14C263.647 528.53 284.877 552.015 283.487 579.594C282.097 607.173 258.612 628.403 231.033 627.013L236.068 527.14ZM220.181 626.35C192.637 624.376 171.909 600.447 173.883 572.903C175.857 545.36 199.786 524.632 227.33 526.606L220.181 626.35ZM218.571 525.887C246.068 528.428 266.298 552.779 263.757 580.276C261.215 607.773 236.864 628.004 209.367 625.462L218.571 525.887ZM198.595 624.357C171.154 621.265 151.416 596.513 154.508 569.073C157.601 541.632 182.352 521.894 209.793 524.986L198.595 624.357ZM200.999 523.908C228.374 527.535 247.625 552.667 243.998 580.042C240.371 607.417 215.238 626.669 187.864 623.041L200.999 523.908ZM177.212 621.527C149.91 617.383 131.138 591.891 135.282 564.589C139.427 537.288 164.919 518.515 192.22 522.66L177.212 621.527ZM183.443 521.244C210.664 525.89 228.964 551.722 224.319 578.943C219.673 606.164 193.841 624.464 166.62 619.819L183.443 521.244ZM156.156 617.944C129.01 612.882 111.107 586.772 116.168 559.626C121.23 532.479 147.34 514.576 174.486 519.638L156.156 617.944ZM165.556 517.914C192.635 523.324 210.201 549.662 204.79 576.741C199.38 603.82 173.042 621.386 145.963 615.976L165.556 517.914ZM135.684 613.849C108.681 608.069 91.4767 581.494 97.2567 554.491C103.037 527.489 129.612 510.284 156.615 516.064L135.684 613.849ZM147.77 514.105C174.687 520.273 191.508 547.093 185.34 574.009C179.173 600.926 152.353 617.747 125.436 611.579L147.77 514.105ZM115.217 609.157C88.3971 602.583 71.9839 575.512 78.5576 548.692C85.1314 521.871 112.203 505.458 139.023 512.032L115.217 609.157ZM130.304 509.821C157.015 516.825 172.992 544.156 165.988 570.868C158.985 597.579 131.653 613.555 104.942 606.552L130.304 509.821ZM94.6789 603.769C68.09 596.314 52.579 568.715 60.034 542.127C67.4891 515.538 95.0871 500.027 121.676 507.482L94.6789 603.769ZM113.156 505.012C139.608 512.94 154.624 540.811 146.695 567.262C138.766 593.714 110.896 608.73 84.4441 600.801L113.156 505.012ZM74.2254 597.633C47.9282 589.207 33.4406 561.059 41.8667 534.761C50.2927 508.464 78.4415 493.977 104.739 502.403L74.2254 597.633ZM96.386 499.635C122.509 508.585 136.431 537.018 127.48 563.142C118.529 589.265 90.0961 603.186 63.9727 594.236L96.386 499.635ZM53.7573 590.616C27.8286 581.116 14.5106 552.395 24.0106 526.467C33.5106 500.538 62.2312 487.22 88.1599 496.72L53.7573 590.616ZM80.0653 493.652C105.776 503.727 118.452 532.737 108.377 558.448C98.3023 584.159 69.2925 596.834 43.5816 586.76L80.0653 493.652ZM33.4497 582.653C7.98224 571.978 -4.00933 542.678 6.66574 517.211C17.3408 491.744 46.6401 479.752 72.1075 490.427L33.4497 582.653ZM64.2736 487.03C89.4687 498.333 100.731 527.92 89.4278 553.115C78.125 578.31 48.5377 589.572 23.3426 578.269L64.2736 487.03ZM13.2798 573.597C-11.6115 561.64 -22.0968 531.769 -10.1397 506.878C1.81728 481.986 31.6887 471.501 56.58 483.458L13.2798 573.597ZM49.0513 479.715C73.6051 492.35 83.2667 522.498 70.6312 547.052C57.9956 571.606 27.8477 581.268 3.29392 568.632L49.0513 479.715ZM-6.60257 563.359C-30.7826 550.022 -39.5726 519.609 -26.2356 495.429C-12.8987 471.249 17.5148 462.459 41.6948 475.796L-6.60257 563.359ZM34.5182 471.696C58.2855 485.755 66.1554 516.42 52.0962 540.187C38.037 563.954 7.37252 571.824 -16.3948 557.765L34.5182 471.696ZM-26.0652 551.839C-49.3787 537.039 -56.2805 506.142 -41.4808 482.829C-26.6812 459.515 4.21557 452.614 27.529 467.413L-26.0652 551.839ZM20.7347 462.944C43.5512 478.498 49.4381 509.605 33.8834 532.421C18.3287 555.238 -12.7774 561.125 -35.594 545.57L20.7347 462.944ZM-44.9638 538.948C-67.2389 522.627 -72.0659 491.339 -55.7453 469.064C-39.4246 446.788 -8.13647 441.961 14.1387 458.282L-44.9638 538.948ZM7.74874 453.427C29.4373 470.519 33.1632 501.957 16.0707 523.646C-1.0217 545.335 -32.4599 549.061 -54.1485 531.968L7.74874 453.427ZM-63.115 524.637C-84.1728 506.773 -86.762 475.221 -68.8981 454.163C-51.0343 433.105 -19.4821 430.516 1.57564 448.38L-63.115 524.637ZM-4.37669 443.139C16.0074 461.768 17.4304 493.394 -1.19841 513.778C-19.8272 534.162 -51.4535 535.585 -71.8376 516.956L-4.37669 443.139ZM-80.2909 508.935C-99.9611 489.554 -100.195 457.897 -80.8141 438.227C-61.4328 418.556 -29.7755 418.322 -10.1053 437.703L-80.2909 508.935ZM-15.6082 432.072C3.31118 452.186 2.34213 483.83 -17.7726 502.749C-37.8874 521.669 -69.5308 520.7 -88.4502 500.585L-15.6082 432.072ZM-96.2926 491.921C-114.429 471.097 -112.251 439.514 -91.4273 421.378C-70.6038 403.241 -39.0206 405.42 -20.8842 426.243L-96.2926 491.921ZM-25.933 420.217C-8.60624 441.719 -11.9908 473.196 -33.4926 490.523C-54.9944 507.849 -86.4712 504.465 -103.798 482.963L-25.933 420.217ZM-110.95 473.734C-127.446 451.589 -122.867 420.263 -100.722 403.767C-78.577 387.27 -47.2517 391.849 -30.755 413.994L-110.95 473.734ZM-35.3511 407.575C-19.6985 430.325 -25.4518 461.456 -48.2014 477.108C-70.951 492.761 -102.082 487.008 -117.735 464.258L-35.3511 407.575ZM-124.144 454.562C-138.946 431.25 -132.046 400.353 -108.734 385.551C-85.4212 370.75 -54.5239 377.65 -39.7227 400.962L-124.144 454.562ZM-43.8716 394.157C-29.9222 417.989 -37.9336 448.617 -61.7656 462.566C-85.5975 476.516 -116.225 468.504 -130.175 444.673L-43.8716 394.157ZM-135.825 434.615C-148.929 410.308 -139.846 379.981 -115.538 366.877C-91.2306 353.774 -60.9033 362.857 -47.8002 387.165L-135.825 434.615ZM-51.511 379.989C-39.2429 404.728 -49.3528 434.729 -74.0922 446.997C-98.8316 459.265 -128.832 449.155 -141.1 424.416L-51.511 379.989ZM-146.002 414.108C-157.452 388.979 -146.364 359.326 -121.235 347.876C-96.107 336.426 -66.4541 347.514 -55.0039 372.643L-146.002 414.108ZM-58.2832 365.132C-47.6299 390.609 -59.6464 419.898 -85.1229 430.551C-110.599 441.205 -139.888 429.188 -150.542 403.712L-58.2832 365.132ZM-154.734 393.242C-164.615 367.456 -151.721 338.543 -125.935 328.662C-100.149 318.782 -71.235 331.676 -61.3545 357.462L-154.734 393.242ZM-64.2225 349.639C-55.0884 375.698 -68.8093 404.229 -94.8691 413.363C-120.929 422.497 -149.459 408.776 -158.593 382.716L-64.2225 349.639ZM1782 293.437C1750.37 332.158 1750.37 332.158 1750.37 332.158C1750.37 332.159 1750.37 332.159 1750.37 332.159C1750.37 332.16 1750.37 332.16 1750.37 332.161C1750.37 332.162 1750.37 332.163 1750.37 332.164C1750.38 332.165 1750.38 332.167 1750.38 332.168C1750.38 332.17 1750.38 332.172 1750.38 332.172C1750.38 332.173 1750.38 332.169 1750.37 332.162C1750.35 332.146 1750.31 332.114 1750.25 332.066C1750.14 331.97 1749.94 331.809 1749.66 331.586C1749.1 331.138 1748.23 330.44 1747.06 329.51L1778.13 290.338L1809.21 251.166C1810.58 252.253 1811.64 253.105 1812.38 253.703C1812.75 254.001 1813.04 254.237 1813.25 254.406C1813.36 254.491 1813.44 254.56 1813.51 254.611C1813.54 254.637 1813.56 254.659 1813.59 254.676C1813.6 254.685 1813.61 254.693 1813.61 254.699C1813.62 254.703 1813.62 254.706 1813.62 254.709C1813.63 254.71 1813.63 254.711 1813.63 254.713C1813.63 254.713 1813.63 254.714 1813.63 254.714C1813.63 254.715 1813.63 254.715 1813.63 254.715C1813.63 254.716 1813.63 254.716 1782 293.437ZM1770.35 284.241L1739.74 323.779C1737.52 322.059 1734.97 320.099 1732.1 317.922L1762.34 278.106L1792.59 238.289C1795.7 240.656 1798.5 242.802 1800.95 244.702L1770.35 284.241ZM1754.25 272.012L1724.33 312.07C1721.85 310.217 1719.21 308.258 1716.41 306.201L1746.03 265.921L1775.66 225.642C1778.66 227.849 1781.5 229.957 1784.17 231.954L1754.25 272.012ZM1738 260.053L1708.65 300.535C1706.12 298.701 1703.49 296.807 1700.76 294.856L1729.84 254.179L1758.91 213.502C1761.83 215.585 1764.64 217.61 1767.34 219.571L1738 260.053ZM1721.48 248.245L1692.67 289.114C1690.12 287.319 1687.5 285.485 1684.82 283.615L1713.36 242.566L1741.91 201.516C1744.77 203.508 1747.56 205.462 1750.28 207.376L1721.48 248.245ZM1704.95 236.756L1676.67 277.989C1674.07 276.206 1671.41 274.396 1668.7 272.561L1696.73 231.153L1724.75 189.746C1727.64 191.699 1730.47 193.626 1733.23 195.524L1704.95 236.756ZM1688.26 225.464L1660.5 267.049C1657.87 265.289 1655.18 263.509 1652.46 261.713L1679.96 219.956L1707.46 178.199C1710.36 180.111 1713.22 182.005 1716.03 183.879L1688.26 225.464ZM1671.41 214.365L1644.17 256.297C1641.51 254.568 1638.81 252.826 1636.08 251.073L1663.05 208.971L1690.02 166.868C1692.93 168.736 1695.81 170.592 1698.64 172.432L1671.41 214.365ZM1654.45 203.504L1627.75 245.78C1625.06 244.077 1622.33 242.364 1619.56 240.644L1645.99 198.197L1672.41 155.75C1675.36 157.585 1678.27 159.412 1681.15 161.228L1654.45 203.504ZM1637.38 192.88L1611.24 235.5C1608.49 233.815 1605.72 232.124 1602.91 230.43L1628.77 187.638L1654.64 144.845C1657.63 146.656 1660.6 148.461 1663.53 150.26L1637.38 192.88ZM1620.16 182.469L1594.58 225.434C1591.79 223.771 1588.97 222.107 1586.13 220.441L1611.4 177.3L1636.68 134.159C1639.72 135.943 1642.74 137.725 1645.73 139.503L1620.16 182.469ZM1602.76 172.277L1577.79 215.591C1574.98 213.975 1572.16 212.359 1569.31 210.744L1593.98 167.253L1618.64 123.761C1621.7 125.494 1624.73 127.229 1627.74 128.962L1602.76 172.277ZM1585.2 162.317L1560.85 205.986C1558.04 204.42 1555.21 202.857 1552.37 201.298L1576.4 157.45L1600.43 113.603C1603.49 115.282 1606.53 116.964 1609.55 118.648L1585.2 162.317ZM1567.48 152.606L1543.78 196.635C1540.97 195.119 1538.13 193.608 1535.29 192.103L1558.64 147.894L1582 103.684C1585.08 105.311 1588.14 106.942 1591.17 108.577L1567.48 152.606ZM1549.7 143.215L1526.69 187.607C1523.83 186.125 1520.96 184.651 1518.07 183.184L1540.72 138.605L1563.36 94.0272C1566.49 95.6185 1569.61 97.217 1572.71 98.8215L1549.7 143.215ZM1531.74 134.09L1509.46 178.855C1506.58 177.42 1503.68 175.995 1500.78 174.579L1522.67 129.626L1544.56 84.6731C1547.73 86.2153 1550.88 87.7666 1554.01 89.326L1531.74 134.09ZM1513.6 125.258L1492.1 170.401C1489.21 169.024 1486.31 167.658 1483.4 166.303L1504.49 120.969L1525.58 75.6346C1528.77 77.1176 1531.94 78.6116 1535.1 80.1155L1513.6 125.258ZM1495.3 116.748L1474.63 162.276C1471.73 160.957 1468.82 159.651 1465.89 158.358L1486.13 112.635L1506.36 66.9115C1509.58 68.335 1512.78 69.7713 1515.97 71.2192L1495.3 116.748ZM1476.89 108.6L1457.11 154.52C1454.17 153.257 1451.23 152.007 1448.29 150.773L1467.6 104.655L1486.92 58.5372C1490.18 59.904 1493.43 61.2855 1496.67 62.6807L1476.89 108.6ZM1458.29 100.813L1439.46 147.131C1436.51 145.932 1433.56 144.75 1430.61 143.585L1448.94 97.0665L1467.27 50.548C1470.57 51.8476 1473.85 53.1639 1477.13 54.4957L1458.29 100.813ZM1439.54 93.4225L1421.73 140.143C1418.76 139.014 1415.8 137.902 1412.83 136.81L1430.1 89.8868L1447.37 42.9636C1450.7 44.1914 1454.03 45.4379 1457.35 46.702L1439.54 93.4225ZM1420.62 86.4635L1403.92 133.59C1400.94 132.534 1397.96 131.498 1394.98 130.483L1411.1 83.1525L1427.22 35.8224C1430.6 36.9735 1433.97 38.1454 1437.33 39.3371L1420.62 86.4635ZM1401.54 79.9641L1386.03 127.498C1383.04 126.524 1380.06 125.572 1377.07 124.642L1391.95 76.906L1406.82 29.1699C1410.24 30.2342 1413.65 31.3214 1417.05 32.4305L1401.54 79.9641ZM1382.29 73.9684L1368.08 121.906C1365.08 121.018 1362.08 120.153 1359.09 119.312L1372.61 71.1744L1386.13 23.0367C1389.59 24.0095 1393.05 25.0078 1396.5 26.0304L1382.29 73.9684ZM1362.9 68.5242L1350.1 116.859C1347.09 116.061 1344.08 115.29 1341.07 114.544L1353.12 66.0156L1365.16 17.4871C1368.67 18.3601 1372.19 19.2614 1375.69 20.1896L1362.9 68.5242ZM1343.33 63.6712L1332.08 112.389C1329.07 111.693 1326.06 111.025 1323.06 110.385L1333.49 61.4845L1343.91 12.5836C1347.47 13.3431 1351.03 14.1336 1354.58 14.9538L1343.33 63.6712ZM1323.6 59.4672L1314.04 108.545C1311.04 107.96 1308.05 107.405 1305.06 106.881L1313.72 57.6362L1322.38 8.39173C1325.98 9.02428 1329.57 9.69078 1333.16 10.3898L1323.6 59.4672ZM1303.75 55.9808L1296.04 105.383C1293.04 104.914 1290.05 104.478 1287.07 104.073L1293.78 54.5267L1300.5 4.97995C1304.16 5.47573 1307.81 6.00915 1311.46 6.57871L1303.75 55.9808ZM1283.8 53.2792L1278.12 102.955C1275.12 102.612 1272.14 102.304 1269.16 102.029L1273.75 52.2403L1278.34 2.45137C1282.06 2.794 1285.77 3.17839 1289.49 3.60293L1283.8 53.2792ZM1263.73 51.431L1260.28 101.312C1257.3 101.106 1254.34 100.936 1251.4 100.803L1253.66 50.8539L1255.92 0.904969C1259.67 1.07483 1263.43 1.29051 1267.18 1.5503L1263.73 51.431ZM1243.58 50.5231L1242.57 100.513C1239.64 100.454 1236.72 100.432 1233.83 100.449L1233.54 50.4493L1233.25 0.450136C1237.03 0.428546 1240.81 0.456882 1244.59 0.533335L1243.58 50.5231ZM1223.43 50.6441L1225.08 100.617C1222.18 100.713 1219.3 100.848 1216.44 101.023L1213.38 51.1174L1210.31 1.21128C1214.13 0.97686 1217.95 0.797512 1221.78 0.671301L1223.43 50.6441ZM1203.33 51.8818L1207.86 101.676C1205.01 101.936 1202.18 102.237 1199.36 102.581L1193.3 52.9499L1187.24 3.31886C1191.08 2.84877 1194.94 2.43911 1198.8 2.08785L1203.33 51.8818ZM1183.35 54.3257L1190.98 103.739C1188.19 104.171 1185.42 104.646 1182.67 105.165L1173.39 56.0324L1164.12 6.89936C1167.98 6.17215 1171.84 5.51058 1175.71 4.91256L1183.35 54.3257ZM1163.53 58.0675L1174.48 106.855C1173.12 107.159 1171.77 107.474 1170.43 107.8L1158.64 59.2107L1146.84 10.6219C1148.75 10.1575 1150.67 9.71035 1152.59 9.28007L1163.53 58.0675ZM1158.64 59.2107L1170.43 107.8C1168.92 108.165 1167.42 108.537 1165.93 108.915L1153.67 60.4425L1141.4 11.9699C1143.21 11.5129 1145.02 11.0636 1146.84 10.6219L1158.64 59.2107ZM1143.85 63.0284L1157.05 111.254C1154.09 112.064 1151.16 112.897 1148.26 113.754L1134.11 65.7964L1119.96 17.8393C1123.5 16.7971 1127.06 15.7847 1130.64 14.8028L1143.85 63.0284ZM1124.38 68.7714L1139.49 116.436C1136.58 117.357 1133.7 118.303 1130.84 119.271L1114.78 71.9219L1098.72 24.5728C1102.21 23.3876 1105.73 22.2323 1109.28 21.1074L1124.38 68.7714ZM1105.17 75.2924L1122.21 122.3C1119.35 123.335 1116.52 124.394 1113.72 125.476L1095.71 78.833L1077.7 32.1903C1081.15 30.8587 1084.62 29.5568 1088.13 28.2853L1105.17 75.2924ZM1086.25 82.6037L1105.25 128.853C1102.45 130.004 1099.67 131.178 1096.93 132.374L1076.95 86.5412L1056.96 40.7085C1060.36 39.2275 1063.79 37.7759 1067.25 36.3545L1086.25 82.6037ZM1067.65 90.7147L1088.63 136.1C1085.89 137.367 1083.18 138.657 1080.5 139.968L1058.53 95.0546L1036.56 50.1408C1039.89 48.5076 1043.27 46.9036 1046.67 45.3295L1067.65 90.7147ZM1049.43 99.6318L1072.4 144.042C1069.73 145.426 1067.08 146.833 1064.47 148.26L1040.5 104.378L1016.54 60.4963C1019.81 58.709 1023.12 56.9505 1026.46 55.2215L1049.43 99.6318ZM1031.63 109.358L1056.6 152.678C1053.99 154.179 1051.42 155.702 1048.88 157.245L1022.92 114.512L996.957 71.7801C1000.15 69.8374 1003.39 67.9228 1006.66 66.0372L1031.63 109.358ZM1014.29 119.891L1041.25 162.002C1038.72 163.621 1036.23 165.259 1033.77 166.917L1005.82 125.455L977.878 83.9931C980.992 81.8942 984.145 79.8226 987.337 77.7794L1014.29 119.891ZM997.476 131.227L1026.41 172.008C1023.96 173.742 1021.55 175.495 1019.18 177.267L989.27 137.199L959.36 97.1317C962.381 94.8766 965.443 92.6479 968.546 90.4467L997.476 131.227ZM981.227 143.357L1012.11 182.681C1009.75 184.529 1007.44 186.396 1005.16 188.279L973.311 149.734L941.463 111.189C944.381 108.778 947.342 106.392 950.346 104.033L981.227 143.357ZM965.6 156.268L998.399 194.007C996.143 195.967 993.926 197.945 991.748 199.938L958 163.045L924.252 126.152C927.056 123.587 929.906 121.045 932.801 118.529L965.6 156.268ZM950.616 169.974L985.296 205.992C983.156 208.053 981.056 210.128 978.995 212.218L943.392 177.113L907.788 142.007C910.457 139.301 913.173 136.617 915.936 133.957L950.616 169.974ZM936.362 184.432L972.874 218.591C970.858 220.746 968.883 222.914 966.949 225.095L929.544 191.915L892.139 158.736C894.66 155.894 897.23 153.072 899.849 150.273L936.362 184.432ZM922.898 199.614L961.184 231.773C959.293 234.024 957.444 236.287 955.639 238.56L916.491 207.456L877.343 176.352C879.714 173.368 882.137 170.402 884.611 167.456L922.898 199.614ZM910.284 215.493L950.278 245.501C948.516 247.849 946.799 250.206 945.127 252.571L904.305 223.699L863.484 194.827C865.698 191.696 867.967 188.581 870.29 185.485L910.284 215.493ZM898.584 232.037L940.21 259.736C938.588 262.174 937.013 264.618 935.485 267.066L893.07 240.59L850.654 214.115C852.698 210.841 854.799 207.581 856.957 204.338L898.584 232.037ZM887.826 249.272L931.006 274.483C929.546 276.983 928.135 279.486 926.772 281.99L882.854 258.09L838.936 234.189C840.78 230.801 842.684 227.425 844.647 224.062L887.826 249.272ZM878.13 267.098L922.764 289.632C921.466 292.203 920.219 294.773 919.023 297.339L873.702 276.221L828.381 255.103C830.022 251.58 831.727 248.066 833.495 244.564L878.13 267.098ZM869.574 285.463L915.551 305.113C914.426 307.746 913.354 310.374 912.336 312.995L865.732 294.882L819.128 276.769C820.55 273.11 822.04 269.457 823.597 265.814L869.574 285.463ZM862.217 304.399L909.411 320.915C908.479 323.576 907.604 326.226 906.783 328.863L859.041 314.008L811.299 299.152C812.469 295.392 813.711 291.634 815.024 287.882L862.217 304.399ZM856.197 323.765L904.447 336.878C903.715 339.572 903.041 342.249 902.425 344.906L853.717 333.613L805.009 322.319C805.911 318.43 806.89 314.54 807.947 310.651L856.197 323.765ZM851.619 343.529L900.728 352.921C900.215 355.608 899.761 358.271 899.366 360.909L849.917 353.507L800.468 346.105C801.064 342.12 801.745 338.129 802.509 334.137L851.619 343.529ZM848.623 363.594L898.341 368.898C898.056 371.569 897.833 374.209 897.671 376.815L847.767 373.71L797.864 370.606C798.119 366.509 798.466 362.403 798.905 358.289L848.623 363.594ZM847.37 383.842L897.363 384.64C897.322 387.25 897.343 389.82 897.425 392.347L847.451 393.971L797.478 395.595C797.342 391.427 797.309 387.242 797.376 383.045L847.37 383.842ZM848.037 404.098L897.863 399.927C898.074 402.452 898.348 404.927 898.683 407.35L849.154 414.194L799.625 421.039C799.04 416.806 798.569 412.547 798.211 408.268L848.037 404.098ZM850.825 424.205L899.887 414.566C900.119 415.749 900.367 416.917 900.629 418.07L851.87 429.143L803.112 440.216C802.631 438.1 802.182 435.976 801.763 433.844L850.825 424.205ZM851.87 429.143L900.629 418.07C900.945 419.464 901.272 420.853 901.61 422.235L853.035 434.089L804.461 445.943C803.995 444.036 803.546 442.127 803.112 440.216L851.87 429.143ZM855.605 443.917L903.762 430.469C904.523 433.195 905.327 435.894 906.172 438.566L858.503 453.652L810.833 468.739C809.637 464.962 808.509 461.169 807.447 457.365L855.605 443.917ZM861.738 463.281L908.841 446.51C909.776 449.135 910.753 451.729 911.772 454.289L865.32 472.787L818.868 491.285C817.385 487.56 815.974 483.815 814.634 480.051L861.738 463.281ZM869.258 482.151L914.966 461.884C916.075 464.386 917.227 466.852 918.422 469.28L873.558 491.354L828.695 513.428C826.903 509.786 825.188 506.114 823.549 502.419L869.258 482.151ZM878.229 500.374L922.141 476.462C923.425 478.82 924.752 481.138 926.121 483.415L883.276 509.189L840.432 534.964C838.312 531.44 836.275 527.879 834.318 524.286L878.229 500.374ZM888.703 517.775L930.362 490.124C931.818 492.318 933.318 494.47 934.861 496.579L894.512 526.108L854.164 555.638C851.705 552.279 849.333 548.873 847.045 545.426L888.703 517.775ZM900.702 534.162L939.615 502.765C941.239 504.778 942.908 506.748 944.621 508.674L907.267 541.91L869.913 575.147C867.117 572.005 864.41 568.808 861.789 565.559L900.702 534.162ZM914.202 549.33L949.877 514.297C951.665 516.118 953.499 517.895 955.38 519.629L921.496 556.397L887.612 593.165C884.497 590.294 881.469 587.358 878.527 584.362L914.202 549.33ZM929.135 563.09L961.128 524.665C963.074 526.286 965.07 527.865 967.117 529.401L937.104 569.391L907.09 609.381C903.691 606.83 900.376 604.207 897.143 601.515L929.135 563.09ZM945.38 575.283L973.344 533.834C975.445 535.251 977.599 536.628 979.807 537.963L953.943 580.753L928.079 623.544C924.447 621.349 920.893 619.078 917.416 616.732L945.38 575.283ZM962.766 585.794L986.499 541.785C988.746 542.997 991.049 544.169 993.409 545.299L971.818 590.397L950.228 635.495C946.427 633.676 942.696 631.778 939.034 629.803L962.766 585.794ZM981.078 594.566L1000.53 548.507C1002.92 549.515 1005.37 550.483 1007.87 551.409L990.522 598.303L973.175 645.198C969.262 643.75 965.411 642.226 961.622 640.625L981.078 594.566ZM1000.12 601.617L1015.4 554.008C1017.92 554.815 1020.49 555.582 1023.12 556.306L1009.86 604.516L996.604 652.726C992.631 651.633 988.712 650.466 984.847 649.226L1000.12 601.617ZM1019.72 607.012L1031.02 558.306C1033.64 558.915 1036.33 559.484 1039.07 560.009L1029.65 609.114L1020.23 658.218C1016.24 657.454 1012.3 656.62 1008.41 655.717L1019.72 607.012ZM1039.64 610.841L1047.26 561.424C1049.98 561.843 1052.75 562.221 1055.58 562.556L1049.7 612.209L1043.82 661.861C1039.84 661.391 1035.92 660.856 1032.03 660.258L1039.64 610.841ZM1059.8 613.234L1064.03 563.414C1065.45 563.534 1066.88 563.645 1068.33 563.744L1064.9 613.626L1061.47 663.509C1059.49 663.373 1057.52 663.221 1055.56 663.055L1059.8 613.234ZM1064.9 613.626L1068.33 563.744C1069.79 563.845 1071.24 563.934 1072.69 564.012L1069.97 613.939L1067.25 663.865C1065.33 663.76 1063.41 663.642 1061.47 663.509L1064.9 613.626ZM1079.96 614.337L1081.22 564.353C1084.11 564.426 1086.96 564.454 1089.77 564.439L1090.05 614.438L1090.32 664.437C1086.48 664.459 1082.6 664.42 1078.7 664.322L1079.96 614.337ZM1100.1 614.223L1098.22 564.258C1101.04 564.152 1103.82 564 1106.55 563.806L1110.1 613.679L1113.66 663.553C1109.8 663.828 1105.9 664.039 1101.98 664.187L1100.1 614.223ZM1120.1 612.79L1114.8 563.073C1117.57 562.777 1120.28 562.436 1122.95 562.05L1130.1 611.537L1137.24 661.024C1133.34 661.588 1129.39 662.082 1125.41 662.508L1120.1 612.79ZM1140.01 609.912L1130.96 560.738C1133.63 560.246 1136.24 559.71 1138.8 559.13L1149.84 607.898L1160.87 656.666C1156.98 657.546 1153.04 658.353 1149.06 659.085L1140.01 609.912ZM1159.56 605.482L1146.48 557.224C1149.05 556.528 1151.55 555.788 1154 555.006L1169.21 602.636L1184.43 650.265C1180.55 651.503 1176.62 652.661 1172.65 653.74L1159.56 605.482ZM1178.72 599.356L1161.32 552.482C1163.74 551.582 1166.11 550.638 1168.41 549.655L1188.06 595.634L1207.7 641.613C1203.9 643.236 1200.04 644.775 1196.12 646.23L1178.72 599.356ZM1197.19 591.459L1175.26 546.524C1177.52 545.42 1179.72 544.275 1181.86 543.092L1206.1 586.823L1230.34 630.553C1226.67 632.587 1222.93 634.534 1219.12 636.394L1197.19 591.459ZM1214.74 581.721L1188.18 539.363C1190.25 538.06 1192.27 536.718 1194.21 535.341L1223.1 576.152L1251.98 616.964C1248.51 619.423 1244.95 621.796 1241.31 624.079L1214.74 581.721ZM1231.13 570.119L1199.95 531.032C1201.82 529.539 1203.62 528.008 1205.37 526.443L1238.79 563.629L1272.21 600.816C1269.01 603.699 1265.7 606.497 1262.31 609.207L1231.13 570.119ZM1246.06 556.694L1210.46 521.581C1212.11 519.909 1213.69 518.2 1215.22 516.456L1252.89 549.332L1290.56 582.207C1287.7 585.488 1284.73 588.69 1281.65 591.807L1246.06 556.694ZM1259.26 541.563L1219.63 511.076C1221.04 509.236 1222.39 507.361 1223.68 505.45L1265.13 533.414L1306.58 561.378C1304.13 565.008 1301.57 568.566 1298.89 572.05L1259.26 541.563ZM1270.49 524.915L1227.38 499.589C1228.55 497.596 1229.66 495.567 1230.7 493.503L1275.3 516.098L1319.91 538.694C1317.93 542.604 1315.82 546.455 1313.6 550.24L1270.49 524.915ZM1279.56 507.001L1233.65 487.205C1234.57 485.075 1235.42 482.909 1236.22 480.707L1283.26 497.658L1330.3 514.609C1328.81 518.72 1327.21 522.784 1325.48 526.796L1279.56 507.001ZM1286.38 488.109L1238.4 474.024C1239.06 471.775 1239.66 469.49 1240.19 467.171L1288.92 478.39L1337.64 489.61C1336.67 493.841 1335.57 498.037 1334.35 502.193L1286.38 488.109ZM1290.89 468.54L1241.59 460.164C1241.99 457.817 1242.33 455.436 1242.6 453.023L1292.29 458.594L1341.97 464.166C1341.5 468.442 1340.9 472.693 1340.18 476.916L1290.89 468.54ZM1293.13 448.586L1243.21 445.764C1243.34 443.342 1243.42 440.889 1243.42 438.407L1293.42 438.548L1343.42 438.689C1343.41 442.945 1343.29 447.186 1343.05 451.409L1293.13 448.586ZM1293.19 428.509L1243.25 430.971C1243.13 428.499 1242.94 425.999 1242.69 423.474L1292.44 418.494L1342.19 413.514C1342.61 417.699 1342.92 421.877 1343.13 426.046L1293.19 428.509ZM1291.2 408.529L1241.75 415.935C1241.56 414.674 1241.35 413.408 1241.13 412.136L1290.39 403.547L1339.64 394.958C1340 397.014 1340.34 399.069 1340.64 401.123L1291.2 408.529ZM1290.39 403.547L1241.13 412.136C1240.92 410.912 1240.69 409.672 1240.44 408.417L1289.49 398.724L1338.54 389.031C1338.93 391.009 1339.3 392.985 1339.64 394.958L1290.39 403.547ZM1287.34 388.976L1238.75 400.752C1238.14 398.229 1237.46 395.658 1236.72 393.04L1284.82 379.381L1332.92 365.721C1334 369.555 1335.01 373.383 1335.94 377.201L1287.34 388.976ZM1281.93 369.892L1234.36 385.278C1233.53 382.702 1232.63 380.091 1231.68 377.448L1278.7 360.459L1325.73 343.47C1327.06 347.152 1328.32 350.832 1329.51 354.505L1281.93 369.892ZM1275.18 351.165L1228.72 369.639C1227.69 367.07 1226.62 364.478 1225.49 361.865L1271.37 342.007L1317.26 322.149C1318.78 325.664 1320.24 329.18 1321.64 332.691L1275.18 351.165ZM1267.28 332.907L1221.98 354.074C1220.79 351.523 1219.55 348.956 1218.25 346.377L1262.96 323.981L1307.66 301.586C1309.36 304.969 1311 308.355 1312.58 311.74L1267.28 332.907ZM1258.39 315.155L1214.29 338.719C1212.94 336.188 1211.54 333.647 1210.09 331.099L1253.58 306.418L1297.06 281.738C1298.92 285.018 1300.73 288.304 1302.49 291.592L1258.39 315.155ZM1248.58 297.867L1205.72 323.608C1204.22 321.124 1202.69 318.636 1201.11 316.146L1243.34 289.38L1285.58 262.614C1287.58 265.778 1289.54 268.949 1291.45 272.125L1248.58 297.867ZM1237.94 281.066L1196.34 308.813C1194.73 306.391 1193.07 303.97 1191.38 301.551L1232.32 272.854L1273.27 244.158C1275.4 247.202 1277.49 250.256 1279.53 253.319L1237.94 281.066ZM1226.52 264.774L1186.23 294.389C1184.5 292.036 1182.74 289.687 1180.93 287.344L1220.55 256.84L1260.17 226.335C1262.42 229.265 1264.64 232.207 1266.81 235.158L1226.52 264.774ZM1214.38 249.011L1175.45 280.382C1173.61 278.103 1171.74 275.832 1169.84 273.57L1208.08 241.359L1246.32 209.148C1248.69 211.965 1251.02 214.796 1253.32 217.639L1214.38 249.011ZM1201.57 233.797L1164.03 266.831C1162.1 264.631 1160.13 262.441 1158.13 260.264L1194.94 226.432L1231.76 192.601C1234.25 195.306 1236.69 198.027 1239.1 200.763L1201.57 233.797ZM1188.12 219.166L1152.04 253.781C1150.01 251.66 1147.94 249.553 1145.85 247.46L1181.18 212.083L1216.51 176.706C1219.11 179.303 1221.68 181.918 1224.2 184.551L1188.12 219.166ZM1174.06 205.121L1139.49 241.247C1137.36 239.212 1135.21 237.193 1133.02 235.191L1166.81 198.336L1200.6 161.481C1203.31 163.966 1205.99 166.471 1208.63 168.996L1174.06 205.121ZM1159.4 191.689L1126.41 229.26C1124.2 227.317 1121.96 225.393 1119.7 223.487L1151.87 185.217L1184.05 146.947C1186.87 149.315 1189.65 151.705 1192.4 154.117L1159.4 191.689ZM1144.19 178.896L1112.84 217.851C1110.55 216.006 1108.23 214.181 1105.89 212.376L1136.38 172.753L1166.88 133.129C1169.8 135.376 1172.68 137.646 1175.53 139.941L1144.19 178.896ZM1128.43 166.771L1098.81 207.049C1096.44 205.307 1094.05 203.586 1091.63 201.888L1120.37 160.973L1149.11 120.058C1152.12 122.177 1155.11 124.322 1158.06 126.494L1128.43 166.771ZM1112.17 155.345L1084.33 196.883C1081.89 195.248 1079.43 193.637 1076.95 192.05L1103.85 149.907L1130.76 107.764C1133.87 109.75 1136.95 111.765 1140 113.807L1112.17 155.345ZM1095.41 144.647L1069.45 187.379C1066.94 185.857 1064.42 184.36 1061.87 182.888L1086.86 139.585L1111.86 96.2824C1115.06 98.1297 1118.23 100.008 1121.37 101.915L1095.41 144.647ZM1078.19 134.708L1054.18 178.565C1051.61 177.16 1049.02 175.781 1046.42 174.429L1069.43 130.039L1092.44 85.6485C1095.72 87.3508 1098.98 89.0856 1102.2 90.8515L1078.19 134.708ZM1060.54 125.559L1038.55 170.464C1035.93 169.18 1033.28 167.924 1030.62 166.695L1051.57 121.297L1072.53 75.8979C1075.89 77.4493 1079.22 79.0349 1082.53 80.6534L1060.54 125.559ZM1042.48 117.228L1022.59 163.1C1019.92 161.941 1017.23 160.811 1014.51 159.709L1033.34 113.387L1052.16 67.0657C1055.59 68.4603 1059 69.8907 1062.38 71.3558L1042.48 117.228ZM1024.06 109.743L1006.33 156.494C1003.61 155.463 1000.88 154.462 998.12 153.49L1014.75 106.337L1031.38 59.1845C1034.88 60.4171 1038.35 61.6869 1041.79 62.9928L1024.06 109.743ZM1005.31 103.133L989.801 150.666C987.042 149.766 984.264 148.895 981.469 148.055L995.855 100.17L1010.24 52.2838C1013.79 53.3509 1017.32 54.4565 1020.82 55.5997L1005.31 103.133ZM986.281 97.4171L973.037 145.631C970.239 144.862 967.422 144.124 964.588 143.418L976.685 94.9031L988.782 46.3885C992.386 47.2871 995.967 48.2256 999.525 49.2029L986.281 97.4171ZM967.002 92.6107L956.063 141.399C953.228 140.764 950.376 140.16 947.507 139.588L957.283 90.5527L967.06 41.5178C970.708 42.2453 974.336 43.0136 977.941 43.8219L967.002 92.6107ZM947.517 88.7258L938.907 137.979C936.039 137.478 933.154 137.008 930.253 136.572L937.691 87.1281L945.128 37.6845C948.815 38.239 952.481 38.8353 956.126 39.4726L947.517 88.7258ZM927.868 85.7688L921.598 135.374C918.699 135.008 915.784 134.674 912.852 134.374L917.948 84.634L923.043 34.8943C926.76 35.2751 930.459 35.6984 934.138 36.1635L927.868 85.7688ZM908.098 83.741L904.163 133.586C901.251 133.356 898.322 133.159 895.377 132.996L898.146 83.0724L900.915 33.1492C904.638 33.3557 908.344 33.6049 912.032 33.896L908.098 83.741ZM888.246 82.6379L886.628 132.612C883.712 132.517 880.78 132.456 877.832 132.428L878.302 82.4305L878.772 32.4327C882.485 32.4676 886.182 32.5449 889.863 32.6641L888.246 82.6379ZM868.349 82.4504L869.017 132.446C866.104 132.485 863.176 132.557 860.232 132.662L858.442 82.6942L856.652 32.7263C860.343 32.5941 864.019 32.5038 867.68 32.4549L868.349 82.4504ZM848.447 83.1647L851.356 133.08C848.452 133.249 845.532 133.451 842.599 133.687L838.6 83.8468L834.602 34.0069C838.26 33.7134 841.906 33.4611 845.538 33.2494L848.447 83.1647ZM828.677 84.7519L833.759 134.493C832.279 134.644 830.795 134.804 829.307 134.972L823.685 85.2895L818.062 35.6066C819.91 35.3976 821.754 35.199 823.595 35.0109L828.677 84.7519ZM823.685 85.2895L829.307 134.972C827.819 135.141 826.345 135.318 824.886 135.504L818.56 85.9061L812.234 36.3079C814.165 36.0615 816.108 35.8277 818.062 35.6066L823.685 85.2895ZM808.542 87.3305L816.305 136.724C813.477 137.169 810.706 137.647 807.991 138.158L798.742 89.0212L789.492 39.8842C793.21 39.1844 796.972 38.5352 800.779 37.9368L808.542 87.3305ZM788.755 91.0689L799.604 139.878C796.869 140.486 794.193 141.128 791.575 141.803L779.096 93.3852L766.616 44.9677C770.33 44.0103 774.093 43.1076 777.906 42.2601L788.755 91.0689ZM769.274 96.1054L783.497 144.04C780.856 144.823 778.276 145.642 775.755 146.493L759.762 99.1196L743.77 51.7462C747.476 50.4951 751.236 49.3031 755.051 48.171L769.274 96.1054ZM750.214 102.552L768.061 149.259C765.537 150.223 763.073 151.223 760.667 152.255L740.95 106.307L721.233 60.359C724.884 58.7923 728.595 57.2876 732.367 55.8461L750.214 102.552ZM731.725 110.498L753.366 155.571C750.975 156.72 748.64 157.903 746.36 159.121L722.807 115.016L699.254 70.9111C702.797 69.0189 706.407 67.1892 710.083 65.4238L731.725 110.498ZM713.977 119.985L739.462 163.003C737.206 164.34 735.002 165.713 732.848 167.122L705.481 125.276L678.113 83.431C681.501 81.2154 684.96 79.06 688.493 76.9673L713.977 119.985ZM697.14 131.004L726.364 171.574C724.24 173.104 722.162 174.673 720.128 176.281L689.124 137.054L658.12 97.8271C661.309 95.3066 664.573 92.841 667.915 90.4337L697.14 131.004ZM681.354 143.48L714.063 181.297C712.07 183.021 710.117 184.787 708.202 186.594L673.887 150.228L639.571 113.863C642.519 111.081 645.542 108.347 648.645 105.664L681.354 143.48ZM666.715 157.289L702.53 192.178C700.664 194.094 698.834 196.052 697.036 198.054L659.833 164.648L622.63 131.243C625.312 128.256 628.067 125.307 630.899 122.399L666.715 157.289ZM653.259 172.265L691.731 204.201C689.988 206.3 688.276 208.444 686.594 210.63L646.968 180.137L607.343 149.643C609.755 146.509 612.235 143.403 614.787 140.329L653.259 172.265ZM640.969 188.223L681.632 217.318C680.006 219.591 678.408 221.906 676.835 224.263L635.244 196.51L593.653 168.758C595.809 165.527 598.026 162.315 600.306 159.128L640.969 188.223ZM629.784 204.971L672.199 231.447C670.68 233.881 669.186 236.354 667.714 238.867L624.571 213.595L581.428 188.322C583.355 185.033 585.334 181.756 587.369 178.495L629.784 204.971ZM619.597 222.347L663.379 246.496C661.957 249.074 660.556 251.688 659.175 254.337L614.836 231.229L570.496 208.121C572.224 204.806 573.996 201.497 575.815 198.198L619.597 222.347ZM610.28 240.208L655.104 262.362C653.767 265.067 652.449 267.803 651.147 270.571L605.905 249.283L560.662 227.996C562.223 224.68 563.819 221.365 565.456 218.054L610.28 240.208ZM601.696 258.435L647.296 278.944C646.029 281.76 644.778 284.603 643.539 287.473L597.635 267.654L551.731 247.834C553.155 244.535 554.609 241.231 556.095 237.927L601.696 258.435ZM593.703 276.93L639.862 296.148C638.649 299.063 637.447 301.999 636.253 304.958L589.884 286.252L543.515 267.546C544.834 264.276 546.177 260.996 547.544 257.712L593.703 276.93ZM586.16 295.611L632.697 313.894C631.518 316.895 630.347 319.914 629.179 322.95L582.511 305.003L535.843 287.055C537.085 283.826 538.344 280.582 539.622 277.329L586.16 295.611ZM578.921 314.416L625.682 332.118C624.517 335.196 623.356 338.285 622.192 341.388L575.372 323.841L528.552 306.295C529.742 303.12 530.944 299.924 532.159 296.714L578.921 314.416ZM571.843 333.284L618.687 350.767C617.516 353.903 616.336 357.067 615.157 360.219L568.324 342.707L521.491 325.195C522.656 322.081 523.819 318.961 524.999 315.802L571.843 333.284ZM564.779 352.156L611.564 369.794C610.356 373 609.137 376.214 607.908 379.429L561.207 361.566L514.507 343.704C515.667 340.67 516.827 337.609 517.993 334.518L564.779 352.156ZM557.575 370.967L604.149 389.158C602.873 392.426 601.579 395.698 600.268 398.966L553.866 380.34L507.465 361.715C508.646 358.771 509.824 355.793 511.002 352.777L557.575 370.967ZM550.069 389.647L596.247 408.819C594.866 412.146 593.459 415.471 592.026 418.788L546.131 398.947L500.236 379.106C501.461 376.273 502.678 373.396 503.891 370.475L550.069 389.647ZM542.062 408.146L587.607 428.778C586.083 432.141 584.524 435.497 582.927 438.84L537.812 417.285L492.697 395.729C493.981 393.043 495.253 390.305 496.517 387.515L542.062 408.146ZM533.36 426.332L577.952 448.951C576.237 452.332 574.475 455.699 572.661 459.046L528.699 435.227L484.738 411.407C486.094 408.903 487.437 406.339 488.768 403.714L533.36 426.332ZM523.753 444.033L566.952 469.209C564.973 472.605 562.931 475.978 560.822 479.323L518.533 452.645L476.245 425.968C477.696 423.667 479.132 421.297 480.554 418.857L523.753 444.033ZM513.01 461.037L554.217 489.356C551.905 492.721 549.512 496.051 547.033 499.338L507.113 469.232L467.193 439.126C468.747 437.065 470.283 434.929 471.804 432.717L513.01 461.037ZM500.863 477.121L539.277 509.126C536.581 512.362 533.789 515.547 530.893 518.67L494.225 484.678L457.558 450.686C459.208 448.905 460.838 447.049 462.448 445.116L500.863 477.121ZM487.168 491.872L521.831 527.906C520.266 529.411 518.675 530.898 517.055 532.364L483.489 495.306L449.923 458.248C450.79 457.462 451.651 456.659 452.505 455.837L487.168 491.872ZM483.489 495.306L517.055 532.364C515.646 533.641 514.225 534.907 512.793 536.163L479.825 498.572L446.856 460.981C447.886 460.078 448.908 459.167 449.923 458.248L483.489 495.306ZM472.338 504.928L504.083 543.559C501.143 545.974 498.161 548.346 495.135 550.673L464.651 511.04L434.167 471.408C436.34 469.737 438.482 468.033 440.594 466.298L472.338 504.928ZM456.771 516.902L485.961 557.497C482.873 559.717 479.743 561.892 476.572 564.021L448.705 522.506L420.839 480.992C423.117 479.463 425.364 477.901 427.581 476.307L456.771 516.902ZM440.463 527.848L466.98 570.238C463.759 572.253 460.498 574.221 457.198 576.141L432.054 532.923L406.91 489.705C409.286 488.323 411.632 486.907 413.947 485.459L440.463 527.848ZM423.486 537.726L447.239 581.724C443.902 583.525 440.528 585.279 437.117 586.983L414.77 542.255L392.424 497.526C394.89 496.294 397.327 495.028 399.734 493.728L423.486 537.726ZM405.916 546.506L426.846 591.914C423.413 593.496 419.944 595.03 416.441 596.515L396.934 550.477L377.426 504.44C379.976 503.359 382.495 502.245 384.985 501.097L405.916 546.506ZM387.833 554.169L405.916 600.785C402.404 602.147 398.86 603.46 395.283 604.724L378.624 557.581L361.964 510.438C364.589 509.511 367.185 508.549 369.75 507.553L387.833 554.169ZM369.315 560.714L384.556 608.335C380.984 609.478 377.382 610.573 373.749 611.619L359.917 563.57L346.085 515.521C348.777 514.746 351.44 513.937 354.074 513.094L369.315 560.714ZM350.441 566.15L362.877 614.578C359.263 615.506 355.621 616.387 351.952 617.219L340.896 568.456L329.841 519.694C332.591 519.07 335.312 518.412 338.005 517.721L350.441 566.15ZM331.291 570.493L340.984 619.545C337.344 620.264 333.677 620.937 329.985 621.562L321.634 572.264L313.282 522.967C316.082 522.493 318.854 521.984 321.598 521.442L331.291 570.493ZM311.933 573.775L318.966 623.277C315.312 623.797 311.635 624.27 307.934 624.698L302.195 575.028L296.455 525.359C299.297 525.03 302.112 524.668 304.899 524.272L311.933 573.775ZM292.427 576.031L296.9 625.83C293.245 626.158 289.568 626.443 285.87 626.682L282.636 576.787L279.403 526.892C282.279 526.705 285.13 526.485 287.954 526.231L292.427 576.031ZM272.828 577.303L274.851 627.262C271.204 627.409 267.536 627.515 263.849 627.577L263.007 577.584L262.165 527.591C265.07 527.542 267.95 527.459 270.805 527.344L272.828 577.303ZM253.179 577.636L252.869 627.635C249.239 627.612 245.59 627.549 241.923 627.444L243.353 577.464L244.782 527.485C247.708 527.568 250.61 527.619 253.488 527.637L253.179 577.636ZM233.551 577.076L231.033 627.013C227.433 626.831 223.815 626.611 220.181 626.35L223.755 576.478L227.33 526.606C230.265 526.816 233.178 526.994 236.068 527.14L233.551 577.076ZM213.969 575.675L209.367 625.462C205.792 625.132 202.201 624.764 198.595 624.357L204.194 574.672L209.793 524.986C212.74 525.318 215.666 525.618 218.571 525.887L213.969 575.675ZM194.431 573.475L187.864 623.041C184.328 622.573 180.777 622.068 177.212 621.527L184.716 572.093L192.22 522.66C195.167 523.107 198.093 523.523 200.999 523.908L194.431 573.475ZM175.032 570.532L166.62 619.819C164.854 619.517 163.084 619.207 161.311 618.888L170.168 569.679L179.026 520.47C180.503 520.736 181.975 520.994 183.443 521.244L175.032 570.532ZM170.168 569.679L161.311 618.888C159.586 618.578 157.868 618.263 156.156 617.944L165.321 568.791L174.486 519.638C175.991 519.919 177.504 520.196 179.026 520.47L170.168 569.679ZM155.759 566.945L145.963 615.976C142.51 615.286 139.083 614.577 135.684 613.849L146.149 564.957L156.615 516.064C159.56 516.695 162.541 517.311 165.556 517.914L155.759 566.945ZM136.603 562.842L125.436 611.579C122.002 610.793 118.596 609.985 115.217 609.157L127.12 560.595L139.023 512.032C141.903 512.738 144.818 513.429 147.77 514.105L136.603 562.842ZM117.623 558.187L104.942 606.552C101.491 605.647 98.0704 604.719 94.6789 603.769L108.177 555.625L121.676 507.482C124.513 508.277 127.389 509.057 130.304 509.821L117.623 558.187ZM98.8003 552.906L84.4441 600.801C81.0069 599.771 77.6007 598.715 74.2254 597.633L89.4821 550.018L104.739 502.403C107.504 503.289 110.31 504.158 113.156 505.012L98.8003 552.906ZM80.1794 546.935L63.9727 594.236C60.5346 593.058 57.1295 591.851 53.7573 590.616L70.9586 543.668L88.1599 496.72C90.8591 497.709 93.6009 498.68 96.386 499.635L80.1794 546.935ZM61.8234 540.206L43.5816 586.76C40.1694 585.423 36.792 584.054 33.4497 582.653L52.7786 536.54L72.1075 490.427C74.7155 491.52 77.3679 492.595 80.0653 493.652L61.8234 540.206ZM43.8081 532.65L23.3426 578.269C19.9507 576.748 16.5964 575.191 13.2798 573.597L34.9299 528.528L56.58 483.458C59.0981 484.668 61.6624 485.858 64.2736 487.03L43.8081 532.65ZM26.1726 524.173L3.29392 568.632C-0.0452964 566.914 -3.34419 565.156 -6.60257 563.359L17.5461 519.577L41.6948 475.796C44.0997 477.122 46.5515 478.428 49.0513 479.715L26.1726 524.173ZM9.06171 514.731L-16.3948 557.765C-19.6619 555.833 -22.8855 553.857 -26.0652 551.839L0.731894 509.626L27.529 467.413C29.8113 468.862 32.1407 470.29 34.5182 471.696L9.06171 514.731ZM-7.42967 504.257L-35.594 545.57C-38.7646 543.408 -41.8879 541.201 -44.9638 538.948L-15.4126 498.615L14.1387 458.282C16.2906 459.859 18.4889 461.413 20.7347 462.944L-7.42967 504.257ZM-23.1999 492.697L-54.1485 531.968C-57.1884 529.572 -60.1773 527.129 -63.115 524.637L-30.7697 486.508L1.57564 448.38C3.58835 450.087 5.64567 451.769 7.74874 453.427L-23.1999 492.697ZM-38.1072 480.048L-71.8376 516.956C-74.7098 514.332 -77.5276 511.658 -80.2909 508.935L-45.1981 473.319L-10.1053 437.703C-8.23813 439.543 -6.32892 441.355 -4.37669 443.139L-38.1072 480.048ZM-52.0292 466.328L-88.4502 500.585C-91.1212 497.745 -93.7353 494.857 -96.2926 491.921L-58.5884 459.082L-20.8842 426.243C-19.1648 428.217 -17.4064 430.16 -15.6082 432.072L-52.0292 466.328ZM-64.8655 451.59L-103.798 482.963C-106.24 479.933 -108.624 476.856 -110.95 473.734L-70.8523 443.864L-30.755 413.994C-29.1838 416.103 -27.5767 418.177 -25.933 420.217L-64.8655 451.59ZM-76.5429 435.917L-117.735 464.258C-119.929 461.069 -122.065 457.837 -124.144 454.562L-81.9335 427.762L-39.7227 400.962C-38.2988 403.205 -36.8417 405.409 -35.3511 407.575L-76.5429 435.917ZM-87.0231 419.415L-130.175 444.673C-132.114 441.36 -133.997 438.008 -135.825 434.615L-91.8128 410.89L-47.8002 387.165C-46.5217 389.536 -45.2122 391.867 -43.8716 394.157L-87.0231 419.415ZM-96.3057 402.203L-141.1 424.416C-142.786 421.016 -144.42 417.58 -146.002 414.108L-100.503 393.375L-55.0039 372.643C-53.8688 375.134 -52.7045 377.582 -51.511 379.989L-96.3057 402.203ZM-104.413 384.422L-150.542 403.712C-151.987 400.255 -153.384 396.765 -154.734 393.242L-108.044 375.352L-61.3545 357.462C-60.3584 360.062 -59.3346 362.618 -58.2832 365.132L-104.413 384.422ZM-111.408 366.178L-158.593 382.716C-159.211 380.956 -159.817 379.187 -160.412 377.411L-113 361.531L-65.5884 345.652C-65.1398 346.992 -64.6845 348.321 -64.2225 349.639L-111.408 366.178Z" fill="#D6A000" fill-opacity="0.15"/>
</svg>
